<?xml version="1.0" encoding="utf-8"?>
<!-- Generator: Adobe Illustrator 20.1.0, SVG Export Plug-In . SVG Version: 6.00 Build 0)  -->
<svg version="1.1" id="Capa_1" xmlns="http://www.w3.org/2000/svg" xmlns:xlink="http://www.w3.org/1999/xlink" x="0px" y="0px"
	 viewBox="0 0 104.7 143" style="enable-background:new 0 0 104.7 143;" xml:space="preserve">
<style type="text/css">
	.st0{fill:url(#SVGID_1_);}
	
		.st1{clip-path:url(#SVGID_3_);fill:none;stroke:#FFFFFF;stroke-width:2.9248;stroke-linecap:round;stroke-miterlimit:10;stroke-dasharray:0,3.8069;}
	.st2{fill:#7F6848;}
	.st3{font-family:'Perpetua-Bold';}
	.st4{font-size:73.681px;}
	.st5{font-size:35.6125px;}
</style>
<g>
	
		<linearGradient id="SVGID_1_" gradientUnits="userSpaceOnUse" x1="52.35" y1="0.35" x2="52.35" y2="143.35" gradientTransform="matrix(1 0 0 -1 0 143.35)">
		<stop  offset="0" style="stop-color:#C7A25B"/>
		<stop  offset="0.1205" style="stop-color:#D6BB73"/>
		<stop  offset="0.2525" style="stop-color:#E4D28A"/>
		<stop  offset="0.3723" style="stop-color:#ECDF98"/>
		<stop  offset="0.4683" style="stop-color:#EFE49D"/>
		<stop  offset="0.6006" style="stop-color:#EDE19A"/>
		<stop  offset="0.7185" style="stop-color:#E7D790"/>
		<stop  offset="0.8311" style="stop-color:#DEC77F"/>
		<stop  offset="0.9396" style="stop-color:#D0B169"/>
		<stop  offset="1" style="stop-color:#C7A25B"/>
	</linearGradient>
	<polygon class="st0" points="104.7,143 50,124.7 0,143 0,0 104.7,0 	"/>
	<g>
		<g>
			<defs>
				<polygon id="SVGID_2_" points="104.7,143 50,124.7 0,143 0,0 104.7,0 				"/>
			</defs>
			<clipPath id="SVGID_3_">
				<use xlink:href="#SVGID_2_"  style="overflow:visible;"/>
			</clipPath>
			<polygon class="st1" points="97.7,157.5 50.3,136.3 7,157.5 7,-8.6 97.7,-8.6 			"/>
		</g>
	</g>
</g>
<text transform="matrix(1 0 0 1 17.626 81.5894)" class="st2 st3 st4">11</text>
<text transform="matrix(1 0 0 1 17.626 108.5894)" class="st2 st3 st5">años</text>
<g>
	<g>
		<g>
			<g>
				<g>
					<g>
						<g>
							<g>
								<path class="st2" d="M51.6,13.1c0.7,2,1.1,3,1.8,5c2.3,0,3.4,0.1,5.7,0.3c-1.9,1.1-2.9,1.6-4.7,2.8c0.6,2,0.9,3,1.5,5
									c-1.6-1.3-2.5-1.9-4.2-3.2c-1.8,1.2-2.6,1.9-4.2,3.2c0.6-2,0.8-3,1.5-5c-1.8-1.2-2.8-1.7-4.7-2.8c2.3-0.2,3.4-0.2,5.7-0.3
									C50.5,16,50.9,15.1,51.6,13.1z"/>
							</g>
							<g>
								<path class="st2" d="M34.6,20.1c0.7,1.2,1,1.8,1.7,3c1.5-0.2,2.2-0.3,3.7-0.5c-1.1,0.9-1.6,1.4-2.7,2.4
									c0.6,1.2,1,1.8,1.6,3.1c-1.2-0.6-1.9-1-3.2-1.5c-1,1-1.5,1.5-2.5,2.5c0.2-1.4,0.3-2,0.5-3.4c-1.3-0.6-2-0.8-3.4-1.4
									c1.5-0.3,2.2-0.5,3.7-0.7C34.2,22.1,34.3,21.4,34.6,20.1z"/>
							</g>
							<g>
								<path class="st2" d="M68.6,20.1c0.3,1.4,0.4,2.1,0.6,3.4c1.5,0.3,2.2,0.4,3.7,0.7c-1.4,0.5-2,0.8-3.4,1.4
									c0.2,1.4,0.3,2.1,0.5,3.4c-1-1-1.5-1.5-2.5-2.5c-1.3,0.6-1.9,0.9-3.2,1.5c0.6-1.2,0.9-1.8,1.6-3.1c-1.1-1-1.6-1.5-2.7-2.4
									c1.5,0.2,2.2,0.3,3.7,0.5C67.6,21.9,67.9,21.3,68.6,20.1z"/>
							</g>
						</g>
					</g>
				</g>
			</g>
		</g>
	</g>
</g>
</svg>
