<?xml version="1.0" encoding="utf-8"?>
<!-- Generator: Adobe Illustrator 20.1.0, SVG Export Plug-In . SVG Version: 6.00 Build 0)  -->
<svg version="1.1" id="Capa_1" xmlns="http://www.w3.org/2000/svg" xmlns:xlink="http://www.w3.org/1999/xlink" x="0px" y="0px"
	 viewBox="0 0 421.7 305.9" style="enable-background:new 0 0 421.7 305.9;" xml:space="preserve">
<style type="text/css">
	.st0{fill:#FFFFFF;}
	.st1{fill:#99C5E7;}
	.st2{fill:#4C80BB;}
</style>
<g>
	<path class="st0" d="M183.5,144.6c-0.2,5.9-0.2,11.2-0.1,16.1c0.3,13.1,1.6,22,3.7,27c0.2,0.6,0.7,0.9,1.6,0.7
		c2.3-0.3,3.5-1.6,3.7-4c0-0.1-0.1-0.2-0.3-0.4c0.9-1,1.1-2.5-0.2-4.3c-1-1.3-2.3-1.6-2.9-3.1c-1.3-3.5-2.2-10.9-2-21.6
		c0.1-1.6,0.2-3.3,0.4-5c1.1-12.9,2.6-25.8,4.6-38.6c-2.1,0.3-4.1,0.7-6.1,1.2C184.7,123.3,183.8,133.9,183.5,144.6z"/>
	<path class="st1" d="M264.4,103c-11.3-1.3-22.8-2.8-34-3.6l-1.3,6.1c10.8,0.4,22.6,1.4,35.6,2.6c52.3,5.1,91.5-0.1,112.3-14.7
		C368.5,98.4,334.3,111.1,264.4,103z M137.2,130.6c20-17.4,41.5-24.2,71-25.2c0.3-2.4,0.6-4.7,0.9-6.6c-19,0.5-37.2,4.3-53.7,15.3
		C148.2,118.9,143.5,125.1,137.2,130.6z"/>
	<path class="st0" d="M396.1,220.2c-1.1-2.1-7.4-9.3-26.2-11.4c-5.5-0.7-12.9-1.9-22.1-2.8c-20.8-1.9-20.4-1.8-41.5-2.2
		c-22.9-1.3-41-0.5-41.1-0.5c-2.8,0-5.6,0.1-8.4,0.1c8.7-19.9,15.3-40.6,20.2-60.2c1.6-4.7,2.5-9.3,3.1-12.7c0,0,0-0.1,0-0.1
		c0-0.1,0.1-0.3,0.1-0.4c0-0.1,0-0.2,0-0.3c0.5-4-0.1-5.9-2.8-6.7c-2.9-0.9-4.3,2.2-5.2,5.1c-7.1,24.1-16.7,32.4-23.8,31.7
		c-3.3-0.3-4.7-2.2-5.2-3.1c-2.5-4.2-0.4-16.5,1.1-23.3l0.5-3.2c0.7-3-0.3-6-3.3-6.7c-3-0.7-6,1.2-6.7,4.2l-0.6,2.4
		c-2.3,9.7-4.1,20.3,2.5,29.5c2,2.8,5.5,5,11.1,5.5c7.7,0.7,13.5-1.3,17.9-4.7c-5,14.8-10.9,29.3-17.7,43.2
		c-143.1-0.9-219.9,21.2-207.9,59.5c7.5,23.8,39,34.8,63.2,38.8c26,4.2,55,2.3,77.6-9c37.9-19,58.6-50.8,74.8-87.1
		c6.1-0.1,12.3-0.2,18.6-0.3c9-0.1,16.7,0,22.2,0.2c19.2,0.2,22.7,0.3,53.3,3.1c4.3,0.4,8.3,0.8,11.8,1.2c3.5,0.4,6.6,0.7,9.3,1
		c9.5,1.2,15.5,3.4,18.1,6.6c3.1,3.9,1,7.8-6.1,11.8c-1.4,0.5-1.9,1-1.5,1.5c0.1,0.1,0.3,0.1,0.7,0.2c1.1,0.1,2.2-0.1,3.1-0.7
		c6.9-2.8,10.6-5.2,11.3-7.2C397.2,222.3,396.8,221.5,396.1,220.2z M214.6,256.6c-27.8,30.4-65.4,51.7-121.1,40.2
		c-38.5-7.9-69.4-47-31.2-65.5c21.2-10.3,59.1-15.5,74.9-17.5c22.1-2.9,44.4-4.8,66.8-6.1c14.3-0.8,28.7-1.4,43.1-1.8
		C238.1,223.9,228.3,241.6,214.6,256.6z"/>
	<path class="st0" d="M398.4,140.2c-0.2-2.7-2.5-4.7-5.2-4.5c-2.7,0.2-4.7,2.5-4.5,5.2l0,0.1l0,0.2c0.3,1.2,1.9,8-2.1,20.3
		c-2.6,7.9-7.6,16.5-14.2,17.1c-4.2,0.4-7.9-1.7-11-6.1c-7.2-10.2-0.9-36.3,2.1-47l1.3-4.9c0.2-0.9,0.2-1.6-0.2-2.3
		c-0.6-1-1.8-1.3-3.1-1.7l-0.4-0.1c-1.7-0.5-2.7,0-3.4,0.7c-0.1,0.1-0.3,0.2-0.6,0.3c0.1-0.6,0.2-1.1,0.2-1.1l-2.3,1l-3.5,0.9
		l-3.5,1.4l-2.8,1.8l-2.3,1.9c-2.9,3-5.7,6.6-8.4,10.8c-2.8,4.3-5.4,9.4-7.9,15.2c-1.7,4-3,7.5-3.9,10.8c-1.1,0.4-1.9,1.7-2.6,3
		c-3.2,6.2-6.9,7.6-11.9,8.7c-3.3,0.7-7.9-0.6-9.5-1.9c-6.5-4.9-8.6-13.3-4.5-26.8c3.5-11.6,11.8-19.5,17.6-19.2
		c2.5,0.1,4.3,1.3,4.8,3.1c1.4,5.4-2.1,12.4-2.2,12.5c-1.3,1.5-1.2,3.9,0.4,5.2c1.5,1.4,3.8,1.3,5.2-0.2c0.2-0.2,5.4-6,2.9-15.5
		c-1.3-4.9-5.9-8.3-11.6-8.6c-7.5-0.4-17.9,4.6-23.6,19.5c-7.7,20.3-2.9,30.2,4.1,36.1c3.5,2.9,9.8,4,15.5,2.8
		c5.4-1.1,10.4-4.4,13.9-8.7c0,2.6,0.5,4.8,1.5,6.5c1.5,2.7,5.1,3.8,7.9,2.3c1-0.5,2.7-1.8,3.7-2.8c5.6-5.3,8.1-9.9,12.4-19.3
		l3.6-8.5l1-2.3c-1.2,12.4,0.4,22,5,28.4c4,5.7,12.1,8.8,19.6,7.6c9.1-1.5,16-8.6,19.4-20.1C399,149.3,398.4,140.5,398.4,140.2z
		 M352.9,126.2c-3,9.1-6,17.2-9,23.9c-3.1,6.8-6.4,12.8-9.9,17.7c-0.4,0.6-0.9,1-1.4,1.3c-0.9,0.5-1.7,0.5-2.5-0.9
		c-0.4-0.7-0.6-1.5-0.7-2.3c0-2.7,0.3-5.8,1-9.3c0.7-3.4,1.8-7.3,3.3-11.3c3.2-8.5,6.6-14.3,10.1-17.1l2.7-1.8
		c1.6-0.8,3.1-1.2,4.4-1.1c1.1,0,1.9,0.3,2.1,0.8L352.9,126.2z"/>
	<path class="st0" d="M417,48.1c-10.4-8.3-24.3,2.3-31.3,11.4c-0.7,0.9,0.6,1.6,1.4,0.8c6.1-6.5,16-11.9,24.7-9.3
		c5.7,1.7,4.4,8,2.1,12.3c-2.2,4-8.8,9.1-13.1,12c-21.7,13.5-49.3,17.5-70.3,18.6c-38.3,2.1-70.9-7.9-103.9-8.9
		c0.3-1,0.5-2.1,0.9-3.1c1.4-4.6,2.4-8.3,4.6-12.5c1-1.9,0.9-4.1-0.3-5.4c-0.8-0.9-2.2-1.3-4-0.9c-5.8,1.4-7.6,6.3-8.8,11.4
		c-0.9,3.5-1.6,7-2.3,10.5c-6.6,0.2-13.3,0.9-20,2.1c0.7-3.3,1.5-6.8,2.4-11.4c1.5-6.5,4.3-16.9,6.5-26.4
		c2.2-9.5,7.3-24.4,10.3-37.3c0-0.1,0-0.3-0.1-0.4c0.3-1.4,0.3-2.7-0.4-3.9c-0.1-0.1-0.2-0.2-0.3-0.3c-0.5-1.2-1.3-2.3-2.7-3.4
		c-3.5-2.6-9.3-3-13.6-0.4c-1.1,0.5-2,1.3-2.7,2.2c-0.7,0.8-1.2,1.7-1.7,2.7c-0.5,1.3-2,4.1-4,8.1c-3.8,7-9.8,17.9-19.3,34.7
		c-11.2,19.4-24.6,41.7-36.2,58.9c-24.2,35.6-48.3,61.2-70.2,78c-16.1,12.4-26.6,15.5-36.4,14.8l-2.2-0.3c-1.3-0.4-2.6-0.8-3.8-1.4
		c-3.4-2.1-0.6-4.8,1.3-9.9c2.3-6.2-6.6-18-17.2-10c-10.5,8,0.2,28.2,19,29.7c2.7,0.5,5.6,0.6,8.8,0.1c16.2-2.4,37.6-15.9,61.7-40.2
		c10.3-10.6,13-14.2,24.2-27.6c21.6-25.9,35.6-49.2,50.2-73.2c7.7-12.7,15.3-26.4,23-40.5c5.2-7.7,9.4-6.2,7.8,1.4
		c-0.3,1.4-0.5,2.6-0.7,3.8c-4.3,18.8-8.1,36.5-11,53.8c-0.5,0.1-0.9,0.2-1.4,0.4c-17,4.7-35.2,17.2-43.9,29.9
		c11.6-13.4,28.9-20,44.2-23c2.7-0.5,5.7-1,6.8-1.1c2.1-0.3,4.1-0.5,5.9-0.6c4.6-0.6,9.4-0.9,14.2-1c-3.9,23.5-4.6,48.1-1.6,71.5
		c0.2,5,0.6,11.1,1,15.4c0.6,6.4,8,3.6,6.5,1c-0.1-0.2-0.2-0.4-0.3-0.7c-0.3-2-1.3-7.2-1.2-24.8c0-3.3,0.1-6.6,0.1-9.9
		c0.4-16.7,1.4-33.6,4.7-50.1c0.2-0.9,0.3-1.7,0.5-2.5c33.7,0.9,71.2,9.5,106.6,5.4c21-2.5,47.9-7.9,68.2-21.7c0.1,0,0.1,0,0.3-0.1
		c5.7-3.7,14.3-10.4,17.2-16C419.1,56.8,420.7,51.1,417,48.1z"/>
	<path class="st2" d="M307.4,140.2c0,0.1,0,0.1-0.1,0.1l0,0.1C307.4,140.4,307.5,140.3,307.4,140.2z"/>
</g>
</svg>
