<?xml version="1.0" encoding="utf-8"?>
<!-- Generator: Adobe Illustrator 20.1.0, SVG Export Plug-In . SVG Version: 6.00 Build 0)  -->
<svg version="1.1" id="Capa_1" xmlns="http://www.w3.org/2000/svg" xmlns:xlink="http://www.w3.org/1999/xlink" x="0px" y="0px"
	 viewBox="0 0 142.5 142.5" style="enable-background:new 0 0 142.5 142.5;" xml:space="preserve">
<style type="text/css">
	.st0{clip-path:url(#SVGID_2_);}
	.st1{fill:#82A3D0;}
	.st2{fill:#FFFFFF;}
	.st3{fill:#DBAD35;stroke:#71371C;stroke-width:0.667;}
	.st4{fill:#71371C;}
	.st5{fill:#DBAD35;stroke:#71371C;stroke-width:0.9;}
	.st6{fill:#71381C;}
</style>
<g>
	<defs>
		<circle id="SVGID_1_" cx="71.2" cy="71.2" r="71.2"/>
	</defs>
	<clipPath id="SVGID_2_">
		<use xlink:href="#SVGID_1_"  style="overflow:visible;"/>
	</clipPath>
	<g class="st0">
		<rect id="_x35_0_3_" x="-42.7" class="st1" width="228" height="142.5"/>
		<rect id="_x34_9_3_" x="-42.7" y="47.5" class="st2" width="228" height="47.5"/>
		<path id="_x34_8_3_" class="st3" d="M70.6,70.6L57.3,84.8c0,0-0.3,0.3-0.1,0.4c0.2,0.2,0.4-0.1,0.4-0.1l14.3-13.2 M65.5,74.4
			c-2.5,0.9-3.3,3-5.6,3.7c-2.3,0.7-3,2.5-3.8,3.1c-0.7,0.6-1.5,0.3-1.5,0.6c0,0.3,0.9,0.6,2-0.1s1.1-1.8,3.9-2.7
			c2.8-0.9,2.9-2.5,5.5-3.2"/>
		<path id="_x34_7_3_" class="st3" d="M70.3,70.9l-6.8,18.2c0,0-0.1,0.3,0.1,0.4c0.2,0.1,0.4-0.2,0.4-0.2l8.1-17.7 M67.1,76.3
			c-2,1.8-1.8,4-3.7,5.6c-1.8,1.5-1.9,3.4-2.3,4.3c-0.4,0.9-1.3,0.8-1.2,1.1c0.1,0.3,1,0.2,1.8-0.9c0.8-1.1,0.4-2.1,2.6-4
			c2.2-1.9,1.7-3.4,3.8-5"/>
		<path id="_x34_6_3_" class="st3" d="M70.3,71.6l8.1,17.7c0,0,0.1,0.3,0.4,0.2c0.2-0.1,0.1-0.4,0.1-0.4l-6.8-18.2 M71.9,77.7
			c-0.1,2.7,1.6,4.2,1.3,6.6c-0.2,2.4,1.1,3.8,1.4,4.7c0.3,0.9-0.3,1.5-0.1,1.6c0.3,0.1,0.9-0.6,0.7-1.9c-0.2-1.3-1.2-1.7-1-4.7
			c0.2-2.9-1.2-3.6-0.8-6.3"/>
		<path id="_x34_5_3_" class="st3" d="M70.3,71.2L71,90.7c0,0,0,0.4,0.2,0.4c0.2,0,0.2-0.4,0.2-0.4l0.7-19.4 M69.4,77.5
			c-1.1,2.4-0.2,4.4-1.3,6.6C67,86.2,67.7,88,67.6,89c-0.1,1-0.9,1.3-0.7,1.5c0.2,0.2,1-0.2,1.4-1.5c0.3-1.3-0.5-2,0.9-4.7
			c1.3-2.6,0.3-3.8,1.6-6.1"/>
		<path id="_x34_4_3_" class="st3" d="M71.2,70.3L51.8,71c0,0-0.4,0-0.4,0.2c0,0.2,0.4,0.2,0.4,0.2l19.4,0.7 M65,69.4
			c-2.4-1.1-4.4-0.2-6.6-1.3c-2.1-1.1-3.9-0.4-4.9-0.5c-1-0.1-1.3-0.9-1.5-0.7c-0.2,0.2,0.2,1,1.5,1.4c1.3,0.3,2-0.5,4.7,0.9
			c2.6,1.3,3.8,0.3,6.1,1.6"/>
		<path id="_x34_3_3_" class="st3" d="M71.6,70.3l-18.2-6.8c0,0-0.3-0.1-0.4,0.1c-0.1,0.2,0.2,0.4,0.2,0.4l17.7,8.1 M66.1,67.1
			c-1.8-2-4-1.8-5.6-3.7c-1.5-1.8-3.4-1.9-4.3-2.3c-0.9-0.4-0.8-1.3-1.1-1.2c-0.3,0.1-0.2,1,0.9,1.8c1.1,0.8,2.1,0.4,4,2.6
			c1.9,2.2,3.4,1.7,5,3.8"/>
		<path id="_x34_2_3_" class="st3" d="M71.9,70.6L57.7,57.3c0,0-0.3-0.3-0.4-0.1c-0.2,0.2,0.1,0.4,0.1,0.4l13.2,14.3 M68.1,65.5
			c-0.9-2.5-3-3.3-3.7-5.6c-0.7-2.3-2.5-3-3.1-3.8c-0.6-0.7-0.3-1.5-0.6-1.5c-0.3,0-0.6,0.9,0.1,2c0.7,1.2,1.8,1.1,2.7,3.9
			c0.9,2.8,2.5,2.9,3.2,5.5"/>
		<path id="_x34_1_3_" class="st4" d="M65.3,75c-2.3,1.1-2.8,2.9-5.1,3.5c2-0.1,2.7-2.1,5.3-3.1 M70.9,70.9l-9.1,9.8l9.8-9.1"/>
		<path id="_x34_0_3_" class="st4" d="M69.7,78.1c-0.9,2.4,0,4-1.1,6.1c1.3-1.5,0.4-3.4,1.6-5.9 M70.7,71.3l0.5,13.3l0.5-13.3"/>
		<path id="_x33_9_3_" class="st4" d="M67.2,77c-1.7,1.9-1.5,3.8-3.4,5.2c1.8-0.9,1.7-3,3.7-4.8 M70.8,71.1l-4.7,12.5l5.6-12.1"/>
		<path id="_x33_8_3_" class="st3" d="M70.9,70.3l-17.7,8.1c0,0-0.3,0.1-0.2,0.4c0.1,0.2,0.4,0.1,0.4,0.1l18.2-6.8 M64.7,71.9
			c-2.7-0.1-4.2,1.6-6.6,1.3c-2.4-0.2-3.8,1.1-4.7,1.4c-0.9,0.3-1.5-0.3-1.6-0.1c-0.1,0.3,0.6,0.9,1.9,0.7c1.3-0.2,1.7-1.2,4.7-1
			c2.9,0.2,3.6-1.2,6.3-0.8"/>
		<path id="_x33_7_3_" class="st4" d="M64.3,72.5c-2.6,0.1-3.7,1.6-6.1,1.3c1.9,0.6,3.3-0.9,6-0.8 M71,70.8l-12.1,5.6l12.5-4.7"/>
		<path id="_x33_6_3_" class="st4" d="M64.3,69.7c-2.4-0.9-4,0-6.1-1.1c1.5,1.3,3.4,0.4,5.9,1.6 M71.2,70.7l-13.3,0.5l13.3,0.5"/>
		<path id="_x33_5_3_" class="st4" d="M65.5,67.2c-1.9-1.7-3.8-1.5-5.2-3.4c0.9,1.8,3,1.7,4.8,3.7 M71.4,70.8l-12.5-4.7L71,71.7"/>
		<path id="_x33_4_3_" class="st4" d="M67.4,65.3c-1.1-2.3-2.9-2.8-3.5-5.1c0.1,2,2.1,2.7,3.1,5.3 M71.6,70.9l-9.8-9.1l9.1,9.8"/>
		<path id="_x33_3_3_" class="st3" d="M72.1,70.9L64,53.2c0,0-0.1-0.3-0.4-0.2c-0.2,0.1-0.1,0.4-0.1,0.4l6.8,18.2 M70.5,64.7
			c0.1-2.7-1.6-4.2-1.3-6.6c0.2-2.4-1.1-3.8-1.4-4.7c-0.3-0.9,0.3-1.5,0.1-1.6c-0.3-0.1-0.9,0.6-0.7,1.9c0.2,1.3,1.2,1.7,1,4.7
			c-0.2,2.9,1.2,3.6,0.8,6.3"/>
		<path id="_x33_2_3_" class="st3" d="M72.2,71.2l-0.7-19.4c0,0,0-0.4-0.2-0.4c-0.2,0-0.2,0.4-0.2,0.4l-0.7,19.4 M73.1,65
			c1.1-2.4,0.2-4.4,1.3-6.6c1.1-2.1,0.4-3.9,0.5-4.9c0.1-1,0.9-1.3,0.7-1.5c-0.2-0.2-1,0.2-1.4,1.5c-0.3,1.3,0.5,2-0.9,4.7
			c-1.3,2.6-0.3,3.8-1.6,6.1"/>
		<path id="_x33_1_3_" class="st3" d="M72.1,71.6l6.8-18.2c0,0,0.1-0.3-0.1-0.4c-0.2-0.1-0.4,0.2-0.4,0.2l-8.1,17.7 M75.3,66.1
			c2-1.8,1.8-4,3.7-5.6c1.8-1.5,1.9-3.4,2.3-4.3c0.4-0.9,1.3-0.8,1.2-1.1c-0.1-0.3-1-0.2-1.8,0.9c-0.8,1.1-0.4,2.1-2.6,4
			c-2.2,1.9-1.7,3.4-3.8,5"/>
		<path id="_x33_0_3_" class="st3" d="M71.9,71.9l13.2-14.3c0,0,0.3-0.3,0.1-0.4c-0.2-0.2-0.4,0.1-0.4,0.1L70.6,70.6 M77,68.1
			c2.5-0.9,3.3-3,5.6-3.7c2.3-0.7,3-2.5,3.8-3.1c0.7-0.6,1.5-0.3,1.5-0.6c0-0.3-0.9-0.6-2,0.1c-1.2,0.7-1.1,1.8-3.9,2.7
			c-2.8,0.9-2.9,2.5-5.5,3.2"/>
		<path id="_x32_9_3_" class="st3" d="M70.6,71.9l14.3,13.2c0,0,0.3,0.3,0.4,0.1s-0.1-0.4-0.1-0.4L71.9,70.6 M74.4,77
			c0.9,2.5,3,3.3,3.7,5.6c0.7,2.3,2.5,3,3.1,3.8c0.6,0.7,0.3,1.5,0.6,1.5c0.3,0,0.6-0.9-0.1-2c-0.7-1.2-1.8-1.1-2.7-3.9
			c-0.9-2.8-2.5-2.9-3.2-5.5"/>
		<path id="_x32_8_3_" class="st3" d="M71.2,72.2l19.4-0.7c0,0,0.4,0,0.4-0.2c0-0.2-0.4-0.2-0.4-0.2l-19.4-0.7 M77.5,73.1
			c2.4,1.1,4.4,0.2,6.6,1.3c2.1,1.1,3.9,0.4,4.9,0.5c1,0.1,1.3,0.9,1.5,0.7c0.2-0.2-0.2-1-1.5-1.4c-1.3-0.3-2,0.5-4.7-0.9
			c-2.6-1.3-3.8-0.3-6.1-1.6"/>
		<path id="_x32_7_3_" class="st3" d="M70.9,72.1l18.2,6.8c0,0,0.3,0.1,0.4-0.1c0.1-0.2-0.2-0.4-0.2-0.4l-17.7-8.1 M76.3,75.3
			c1.8,2,4,1.8,5.6,3.7c1.5,1.8,3.4,1.9,4.3,2.3c0.9,0.4,0.8,1.3,1.1,1.2c0.3-0.1,0.2-1-0.9-1.8c-1.1-0.8-2.1-0.4-4-2.6
			c-1.9-2.2-3.4-1.7-5-3.8"/>
		<path id="_x32_6_3_" class="st4" d="M72.8,64.3c0.9-2.4,0-4,1.1-6.1c-1.3,1.5-0.4,3.4-1.6,5.9 M71.7,71.2l-0.5-13.3l-0.5,13.3"/>
		<path id="_x32_5_3_" class="st4" d="M75.3,65.5c1.7-1.9,1.5-3.8,3.4-5.2c-1.8,0.9-1.7,3-3.7,4.8 M71.7,71.4l4.7-12.5L70.8,71"/>
		<path id="_x32_4_3_" class="st4" d="M77.2,67.4c2.3-1.1,2.8-2.9,5.1-3.5C80.4,64,79.6,66,77,67 M71.6,71.6l9.1-9.8l-9.8,9.1"/>
		<path id="_x32_3_3_" class="st4" d="M70,64.3c-0.1-2.6-1.6-3.7-1.3-6.1c-0.6,1.9,0.9,3.3,0.8,6 M71.7,71l-5.6-12.1l4.7,12.5"/>
		<path id="_x32_2_3_" class="st3" d="M71.6,72.1L89.3,64c0,0,0.3-0.1,0.2-0.4c-0.1-0.2-0.4-0.1-0.4-0.1l-18.2,6.8 M77.7,70.5
			c2.7,0.1,4.2-1.6,6.6-1.3c2.4,0.2,3.8-1.1,4.7-1.4c0.9-0.3,1.5,0.3,1.6,0.1c0.1-0.3-0.6-0.9-1.9-0.7c-1.3,0.2-1.7,1.2-4.7,1
			c-2.9-0.2-3.6,1.2-6.3,0.8"/>
		<path id="_x32_1_3_" class="st4" d="M78.2,70c2.6-0.1,3.7-1.6,6.1-1.3c-1.9-0.6-3.3,0.9-6,0.8 M71.5,71.7l12.1-5.6l-12.5,4.7"/>
		<path id="_x32_0_3_" class="st4" d="M78.1,72.8c2.4,0.9,4,0,6.1,1.1c-1.5-1.3-3.4-0.4-5.9-1.6 M71.3,71.7l13.3-0.5l-13.3-0.5"/>
		<path id="_x31_9_3_" class="st4" d="M77,75.3c1.9,1.7,3.8,1.5,5.2,3.4c-0.9-1.8-3-1.7-4.8-3.7 M71.1,71.7l12.5,4.7l-12.1-5.6"/>
		<path id="_x31_8_3_" class="st4" d="M75,77.2c1.1,2.3,2.9,2.8,3.5,5.1c-0.1-2-2.1-2.7-3.1-5.3 M70.9,71.6l9.8,9.1l-9.1-9.8"/>
		<path id="_x31_7_3_" class="st4" d="M72.5,78.2c0.1,2.6,1.6,3.7,1.3,6.1c0.6-1.9-0.9-3.3-0.8-6 M70.8,71.5l5.6,12.1l-4.7-12.5"/>
		<circle id="_x31_6_3_" class="st5" cx="71.2" cy="71.2" r="7.9"/>
		<path id="_x31_5_3_" class="st6" d="M73.9,69.5c-0.5,0-1.1,0.2-1.4,0.7c0.6,0.5,2,0.6,2.9-0.1C75,69.8,74.5,69.5,73.9,69.5
			L73.9,69.5z M73.9,69.7c0.5,0,1,0.2,1.1,0.5c-0.6,0.7-1.6,0.6-2.2,0.1C73.1,69.8,73.5,69.7,73.9,69.7L73.9,69.7z"/>
		<path id="_x31_4_3_" class="st4" d="M74,69.2c-0.8,0-1,0.2-1.3,0.5c-0.4,0.3-0.5,0.2-0.6,0.3c-0.1,0.1,0,0.2,0.1,0.2
			c0.1-0.1,0.4-0.2,0.7-0.5c0.4-0.3,0.7-0.3,1.1-0.3c1.1,0,1.7,0.9,1.8,0.9C76,70.1,75.3,69.2,74,69.2L74,69.2z"/>
		<path id="_x31_3_3_" class="st4" d="M76.2,69.5c-1.4-1.2-3.2-1.4-4.1-0.5c-0.2,0.3-0.4,0.7-0.5,1c-0.1,0.7,0.1,1.4,0.6,2.2
			c-0.1,0-0.2,0.1-0.2,0.1c-0.5-0.9-0.7-1.9-0.5-2.8c0-0.2,0.1-0.5,0.2-0.7C73.1,67.8,74.9,67.7,76.2,69.5L76.2,69.5z"/>
		<circle id="_x31_2_3_" class="st4" cx="73.9" cy="70.1" r="0.5"/>
		<path id="_x31_1_4_" class="st4" d="M75.5,70.5c-1,0.8-2.1,0.7-2.7,0.4c-0.6-0.4-0.6-0.5-0.5-0.5c0.1,0,0.2,0.1,0.7,0.4
			C73.6,71,74.3,71,75.5,70.5L75.5,70.5z"/>
		<path id="_x31_0_4_" class="st4" d="M70,72.3c-0.3,0-0.4,0.3-0.4,0.5c0,0.3,0.2,0.5,0.6,0.5c0.2,0,0.3-0.1,0.4-0.2
			c0.2,0.2,0.5,0.2,0.7,0.2c0,0,0.1,0,0.1,0c0.2,0,0.4,0,0.7-0.2c0.1,0.1,0.3,0.2,0.4,0.2c0.3,0,0.6-0.2,0.6-0.5
			c0-0.3-0.2-0.5-0.4-0.5c0.1,0.1,0.2,0.2,0.2,0.3c0,0.2-0.2,0.4-0.4,0.4c-0.2,0-0.4-0.2-0.4-0.3c-0.1,0.1-0.3,0.5-0.8,0.5
			c-0.5,0-0.7-0.4-0.8-0.5c0,0.2-0.2,0.3-0.4,0.3c-0.2,0-0.4-0.2-0.4-0.4C69.8,72.5,69.9,72.4,70,72.3L70,72.3z"/>
		<path id="_x39__4_" class="st4" d="M70.6,74c-0.6,0-0.9,0.6-1.4,0.9c0.3-0.1,0.5-0.4,1-0.6c0.4-0.2,0.8,0.1,1,0.1h0
			c0.2,0,0.6-0.3,1-0.1c0.4,0.2,0.7,0.5,1,0.6c-0.5-0.4-0.8-0.9-1.4-0.9c-0.1,0-0.4,0.1-0.6,0.2h0C71,74,70.7,74,70.6,74z"/>
		<path id="_x38__4_" class="st4" d="M70.4,74.7c-0.2,0-0.6,0.1-1,0.2c1.1-0.2,1.3,0.1,1.8,0.1h0c0.5,0,0.7-0.4,1.8-0.1
			c-1.2-0.4-1.5-0.1-1.8-0.1h0C71,74.8,70.8,74.7,70.4,74.7L70.4,74.7z"/>
		<path id="_x37__4_" class="st4" d="M69.5,74.9c-0.1,0-0.1,0-0.2,0c1.3,0.1,0.7,0.9,2,0.9h0c1.3,0,0.7-0.7,2-0.9
			c-1.3-0.1-0.9,0.7-2,0.7h0C70.2,75.5,70.5,74.9,69.5,74.9L69.5,74.9z"/>
		<path id="_x36__4_" class="st4" d="M72.3,76.8c0-0.6-0.5-1.1-1.1-1.1c-0.6,0-1.1,0.5-1.1,1.1c0.1-0.5,0.6-0.9,1.1-0.9
			C71.8,76,72.2,76.3,72.3,76.8L72.3,76.8L72.3,76.8z"/>
		<path id="_x35__4_" class="st4" d="M66.3,69.5c1.4-1.2,3.2-1.4,4.1-0.5c0.2,0.3,0.4,0.7,0.5,1c0.1,0.7-0.1,1.4-0.6,2.2
			c0.1,0,0.2,0.1,0.2,0.1c0.5-0.9,0.7-1.9,0.5-2.8c0-0.2-0.1-0.5-0.2-0.7C69.5,67.8,67.7,67.7,66.3,69.5L66.3,69.5z"/>
		<path id="_x34__4_" class="st4" d="M68.5,69.2c0.8,0,1,0.2,1.3,0.5c0.4,0.3,0.5,0.2,0.6,0.3c0.1,0.1,0,0.2-0.1,0.2
			c-0.1-0.1-0.4-0.2-0.7-0.5c-0.4-0.3-0.7-0.3-1.1-0.3c-1.1,0-1.7,0.9-1.8,0.9C66.6,70.1,67.3,69.2,68.5,69.2L68.5,69.2z"/>
		<path id="_x33__4_" class="st6" d="M68.5,69.5c-0.5,0-1.1,0.2-1.4,0.7c0.6,0.5,2,0.6,2.9-0.1C69.6,69.8,69,69.5,68.5,69.5
			L68.5,69.5z M68.5,69.7c0.5,0,1,0.2,1.1,0.5c-0.6,0.7-1.6,0.6-2.2,0.1C67.6,69.8,68.1,69.7,68.5,69.7L68.5,69.7z"/>
		<circle id="_x32__4_" class="st4" cx="68.5" cy="70.1" r="0.5"/>
		<path id="_x31__3_" class="st4" d="M67,70.5c1,0.8,2.1,0.7,2.7,0.4c0.6-0.4,0.6-0.5,0.5-0.5c-0.1,0-0.2,0.1-0.7,0.4
			C69,71,68.3,71,67,70.5L67,70.5z"/>
	</g>
</g>
</svg>
