<?xml version="1.0" encoding="utf-8"?>
<!-- Generator: Adobe Illustrator 20.1.0, SVG Export Plug-In . SVG Version: 6.00 Build 0)  -->
<svg version="1.1" id="Capa_1" xmlns="http://www.w3.org/2000/svg" xmlns:xlink="http://www.w3.org/1999/xlink" x="0px" y="0px"
	 viewBox="0 0 83 83" style="enable-background:new 0 0 83 83;" xml:space="preserve">
<style type="text/css">
	.st0{fill:none;}
	.st1{clip-path:url(#SVGID_2_);}
	.st2{fill:#638DBF;}
	.st3{fill:#FFFFFF;}
	.st4{fill:none;stroke:#32431D;stroke-width:1.706989e-02;}
	.st5{fill:#718C46;stroke:#32431D;stroke-width:1.706989e-02;}
	.st6{fill:#4D612E;stroke:#32431D;stroke-width:1.706989e-02;}
	.st7{fill:#97283E;stroke:#461827;stroke-width:1.706989e-02;stroke-linecap:round;stroke-linejoin:round;}
	.st8{fill:#5F973B;stroke:#32431D;stroke-width:1.706989e-02;}
	.st9{fill:#8C929A;stroke:#4E5754;stroke-width:1.706989e-02;}
	.st10{fill:#8C929A;}
	.st11{fill:#4E5754;}
	.st12{fill:#5E3324;stroke:#321D18;stroke-width:1.706989e-02;stroke-linejoin:round;}
	.st13{fill:#B1B4B8;stroke:#4E5754;stroke-width:1.706989e-02;}
	.st14{fill:none;stroke:#4E5754;stroke-width:1.706989e-02;stroke-linecap:round;stroke-linejoin:round;}
	.st15{fill:#E0B13B;stroke:#5E3324;stroke-width:1.706989e-02;}
	.st16{fill:#E0B13B;}
	.st17{fill:#5E3324;}
	.st18{fill:none;stroke:#070308;stroke-width:1.706989e-02;}
	.st19{fill:#F0E9A9;stroke:#6F6C53;stroke-width:1.706989e-02;}
	.st20{fill:#F0E9A9;stroke:#948F70;stroke-width:1.706989e-02;}
	.st21{fill:url(#_x38_0_1_);stroke:#948F70;stroke-width:1.706989e-02;}
	.st22{fill:url(#_x37_8_1_);stroke:#948F70;stroke-width:1.706989e-02;}
	.st23{fill:url(#_x37_6_1_);stroke:#948F70;stroke-width:1.706989e-02;}
	.st24{fill:url(#_x37_4_1_);stroke:#948F70;stroke-width:1.706989e-02;}
	.st25{fill:url(#_x37_2_1_);}
	.st26{fill:#948F70;}
	.st27{fill:url(#_x37_0_1_);}
	.st28{fill:#9E7B24;}
	.st29{fill:url(#_x33_9_1_);stroke:#948F70;stroke-width:1.706989e-02;}
	.st30{fill:url(#_x33_7_1_);stroke:#948F70;stroke-width:1.706989e-02;}
	.st31{fill:url(#_x33_5_1_);stroke:#948F70;stroke-width:1.706989e-02;}
	.st32{fill:#861A1E;stroke:#410E0F;stroke-width:1.706989e-02;}
	.st33{fill:url(#_x33_3_1_);stroke:#410E0F;stroke-width:1.706989e-02;}
	.st34{fill:#5A7C34;stroke:#415326;stroke-width:1.706989e-02;}
	.st35{fill:#D4B837;stroke:#937F25;stroke-width:1.706989e-02;}
	.st36{fill:#070308;stroke:#070308;stroke-width:1.706989e-02;}
	.st37{fill:#415326;}
	.st38{fill:url(#_x32_0_1_);}
	.st39{fill:#937F25;}
	.st40{fill:#5A7C34;}
</style>
<rect id="_x3C_Sector_x3E_" class="st0" width="83" height="83"/>
<g>
	<defs>
		<circle id="SVGID_1_" cx="41.6" cy="41.4" r="41.4"/>
	</defs>
	<clipPath id="SVGID_2_">
		<use xlink:href="#SVGID_1_"  style="overflow:visible;"/>
	</clipPath>
	<g class="st1">
		<rect id="_x33_56_2_" x="0.1" class="st2" width="82.9" height="82.9"/>
		<rect id="_x33_55_2_" x="27.7" class="st3" width="27.6" height="82.9"/>
		<path id="_x33_54_2_" inkscape:connector-curvature="0" class="st4" d="M39.1,48.1c0.2,0,0.4-0.1,0.5-0.2"/>
		<path id="_x33_53_2_" inkscape:connector-curvature="0" class="st4" d="M39.9,47.6c0.1,0.1,0.2,0.3,0.3,0.4"/>
		<path id="_x33_52_2_" inkscape:connector-curvature="0" class="st4" d="M39.4,47.6c0.1,0.1,0.2,0.2,0.3,0.4"/>
		<path id="_x33_51_2_" inkscape:connector-curvature="0" class="st4" d="M35.4,36.2c-0.1,0.1-0.3,0.2-0.4,0.3"/>
		<path id="_x33_50_2_" inkscape:connector-curvature="0" class="st4" d="M35,36.4c0-0.1,0-0.3,0-0.4"/>
		<path id="_x33_49_2_" inkscape:connector-curvature="0" class="st4" d="M34.8,36.5c0,0,0,0.1,0.1,0.2"/>
		<path id="_x33_48_2_" inkscape:connector-curvature="0" class="st4" d="M35,36.7c0,0-0.1,0-0.2,0"/>
		<path id="_x33_47_2_" inkscape:connector-curvature="0" class="st4" d="M34.5,36.7c0,0.2,0,0.5,0,0.7"/>
		<path id="_x33_46_2_" inkscape:connector-curvature="0" class="st4" d="M34.4,37.3c0,0.1,0.1,0.1,0.1,0.2"/>
		<path id="_x33_45_2_" inkscape:connector-curvature="0" class="st4" d="M34.1,38c0,0.1,0.1,0.2,0.1,0.3"/>
		<path id="_x33_44_2_" inkscape:connector-curvature="0" class="st4" d="M34.6,38c0,0-0.1,0.1-0.2,0.1"/>
		<path id="_x33_43_2_" inkscape:connector-curvature="0" class="st4" d="M34.5,38.5c-0.1,0.1-0.2,0.1-0.3,0.2"/>
		<path id="_x33_42_2_" inkscape:connector-curvature="0" class="st4" d="M33.9,42.1c0.1,0.2,0.2,0.3,0.3,0.4"/>
		<path id="_x33_41_2_" inkscape:connector-curvature="0" class="st4" d="M34.3,42.7c-0.1,0-0.2,0-0.3-0.1"/>
		<path id="_x33_40_2_" inkscape:connector-curvature="0" class="st4" d="M34.4,43.3l0.1,0.1"/>
		<path id="_x33_39_2_" inkscape:connector-curvature="0" class="st4" d="M34.5,43.7c0.1,0.1,0.2,0.2,0.3,0.3"/>
		<path id="_x33_38_2_" inkscape:connector-curvature="0" class="st4" d="M34.7,44.3c0.1,0,0.2,0.1,0.3,0.1"/>
		<path id="_x33_37_2_" inkscape:connector-curvature="0" class="st4" d="M34.9,44.6l0.2,0"/>
		<path id="_x33_36_2_" inkscape:connector-curvature="0" class="st4" d="M35.2,44.1c0,0.1,0,0.3,0,0.4"/>
		<path id="_x33_35_2_" inkscape:connector-curvature="0" class="st4" d="M35.3,44.6l0-0.1"/>
		<path id="_x33_34_2_" inkscape:connector-curvature="0" class="st4" d="M35.7,45l0,0.3"/>
		<path id="_x33_33_2_" inkscape:connector-curvature="0" class="st4" d="M39.1,47.7L39,47.8"/>
		<path id="_x33_32_2_" inkscape:connector-curvature="0" class="st4" d="M38.8,47.5l-0.1-0.2"/>
		<path id="_x33_31_2_" inkscape:connector-curvature="0" class="st5" d="M35.2,44.2c-0.2-0.5-0.1-1.9,0-2
			C35.8,43.3,35.6,44.2,35.2,44.2z"/>
		<path id="_x33_30_2_" inkscape:connector-curvature="0" class="st6" d="M35.2,44.2c0.4,0,0.6-0.9,0-2
			C35.3,43.2,35.3,44.1,35.2,44.2z"/>
		<path id="_x33_29_2_" inkscape:connector-curvature="0" class="st6" d="M42.1,48.8c-0.1-0.1-0.2-0.2-0.3-0.2
			c-0.7-0.4-1.3-0.5-2.1-0.6c-0.2,0-0.3-0.2-0.5-0.3c-0.4-0.2-0.9-0.3-1.3-0.5c0,0-0.1-0.1-0.2-0.1c-0.2-0.2-0.5-0.3-0.7-0.4
			c-0.7-0.7-1.5-1.3-1.9-2.2c-0.5-1.1-1.1-2.2-1-3.5c0.1-0.8-0.1-1.6,0.1-2.3c0.3-1.1,0.7-2.2,1.3-3.1l-0.1,0.1
			c-0.7,0.9-1,2-1.3,3.1C34,39.4,34.1,40.2,34,41c-0.1,1.2,0.5,2.4,1,3.5c0.4,0.9,1.2,1.5,1.9,2.2c0.2,0.2,0.5,0.2,0.7,0.4
			c0,0.1,0.2,0.1,0.2,0.1c0.4,0.2,0.9,0.3,1.3,0.5c0.2,0.1,0.4,0.2,0.5,0.3c0.8,0.1,1.4,0.3,2.1,0.6c0.1,0.1,0.2,0.1,0.3,0.2
			L42.1,48.8"/>
		<path id="_x33_28_2_" inkscape:connector-curvature="0" class="st5" d="M39.2,48.1c-0.6,0-1.8,0.8-1.9,1
			C38.6,49.1,39.3,48.4,39.2,48.1z"/>
		<path id="_x33_27_2_" inkscape:connector-curvature="0" class="st5" d="M39.8,47.7c-0.6-0.5-1.2-2-1.2-2.3
			C39.9,46.4,40.2,47.5,39.8,47.7z"/>
		<path id="_x33_26_2_" inkscape:connector-curvature="0" class="st5" d="M39.4,47.7c-0.6-0.4-1.4-1.7-1.4-2
			C39.3,46.5,39.7,47.5,39.4,47.7z"/>
		<path id="_x33_25_2_" inkscape:connector-curvature="0" class="st5" d="M38,47.1c0.1-0.7-0.5-2.1-0.7-2.2
			C37.1,46.3,37.6,47.3,38,47.1z"/>
		<path id="_x33_24_2_" inkscape:connector-curvature="0" class="st5" d="M35.7,45c-0.2-0.5-0.1-1.7,0-1.8
			C36.2,44.2,36,45.1,35.7,45z"/>
		<path id="_x33_23_2_" inkscape:connector-curvature="0" class="st6" d="M36.2,45.9c-0.4-0.5-1.7-1-1.9-1
			C35.1,46,36,46.2,36.2,45.9z"/>
		<path id="_x33_22_2_" inkscape:connector-curvature="0" class="st6" d="M34.1,41.3c-0.1-0.7-1.1-2-1.3-2.1
			C32.9,40.7,33.7,41.5,34.1,41.3z"/>
		<path id="_x33_21_2_" inkscape:connector-curvature="0" class="st6" d="M34.8,44.3c-0.4-0.3-1.6-0.5-1.8-0.4
			C33.8,44.6,34.7,44.6,34.8,44.3L34.8,44.3z"/>
		<path id="_x33_20_2_" inkscape:connector-curvature="0" class="st6" d="M34,42.1c-0.2-0.5-1.3-1.2-1.5-1.2
			C33,42,33.8,42.4,34,42.1z"/>
		<path id="_x33_19_2_" inkscape:connector-curvature="0" class="st6" d="M34.2,38c0.1-0.7-0.5-2-0.6-2.2
			C33.3,37.2,33.8,38.2,34.2,38z"/>
		<path id="_x33_18_2_" inkscape:connector-curvature="0" class="st5" d="M34.5,38.4c0.3-0.6,1.6-1.4,1.8-1.4
			C35.7,38.3,34.7,38.7,34.5,38.4z"/>
		<path id="_x33_17_2_" inkscape:connector-curvature="0" class="st5" d="M34.5,37.9c0.2-0.6,1.3-1.7,1.5-1.7
			C35.7,37.6,34.9,38.2,34.5,37.9z"/>
		<path id="_x33_16_2_" inkscape:connector-curvature="0" class="st6" d="M34.6,36.7c0.2-0.6,0.1-1.9,0-2.1
			C34,35.8,34.2,36.8,34.6,36.7z"/>
		<path id="_x33_15_2_" inkscape:connector-curvature="0" class="st6" d="M35,36.1c0.3-0.4,0.4-1.5,0.3-1.7
			C34.7,35.2,34.7,36,35,36.1z"/>
		<path id="_x33_14_2_" inkscape:connector-curvature="0" class="st6" d="M35.5,35.5c0.4-0.3,0.8-1.3,0.8-1.5
			C35.5,34.6,35.3,35.4,35.5,35.5z"/>
		<path id="_x33_13_2_" inkscape:connector-curvature="0" class="st6" d="M34.2,39.3c0,0.1-0.1-0.7-0.9-1.6
			C33.3,39,33.8,39.5,34.2,39.3z"/>
		<path id="_x33_12_2_" inkscape:connector-curvature="0" class="st5" d="M36.9,46.5c-0.4-0.5-0.7-2.1-0.6-2.3
			C37.3,45.3,37.3,46.4,36.9,46.5z"/>
		<path id="_x33_11_2_" inkscape:connector-curvature="0" class="st6" d="M37,46.7c-0.5-0.4-2-0.6-2.2-0.5
			C35.8,47.1,36.9,47.1,37,46.7z"/>
		<path id="_x33_10_2_" inkscape:connector-curvature="0" class="st5" d="M34,39.2c0.4-0.4,1.5-0.8,1.7-0.8
			C35,39.3,34.1,39.5,34,39.2z"/>
		<path id="_x33_09_2_" inkscape:connector-curvature="0" class="st6" d="M38,47.1c-0.4,0.1-0.9-0.8-0.7-2.2
			C37.6,46.1,37.9,47.1,38,47.1z"/>
		<path id="_x33_08_2_" inkscape:connector-curvature="0" class="st6" d="M39.2,48.1c0.2,0.4-0.6,1-1.9,1
			C38.3,48.7,39.1,48.2,39.2,48.1z"/>
		<path id="_x33_07_2_" inkscape:connector-curvature="0" class="st6" d="M39.8,47.7c0.4-0.2,0.1-1.3-1.2-2.3
			C39.3,46.6,39.8,47.6,39.8,47.7z"/>
		<path id="_x33_06_2_" inkscape:connector-curvature="0" class="st6" d="M39.4,47.7c0.4-0.2-0.1-1.2-1.4-2
			C38.8,46.7,39.4,47.6,39.4,47.7L39.4,47.7z"/>
		<path id="_x33_05_2_" inkscape:connector-curvature="0" class="st6" d="M35.7,45c0.3,0,0.5-0.8,0-1.8C35.8,44.2,35.7,45,35.7,45
			L35.7,45z"/>
		<path id="_x33_04_2_" inkscape:connector-curvature="0" class="st5" d="M36.2,45.9c-0.2,0.3-1.1,0.1-1.9-1
			C35.2,45.5,36,45.9,36.2,45.9z"/>
		<path id="_x33_03_2_" inkscape:connector-curvature="0" class="st5" d="M34.1,41.3c-0.4,0.2-1.1-0.6-1.3-2.1
			C33.4,40.4,33.9,41.3,34.1,41.3z"/>
		<path id="_x33_02_2_" inkscape:connector-curvature="0" class="st5" d="M34.8,44.3c-0.1,0.3-0.9,0.3-1.8-0.4
			C33.9,44.2,34.7,44.3,34.8,44.3z"/>
		<path id="_x33_01_2_" inkscape:connector-curvature="0" class="st5" d="M34,42.1c-0.2,0.3-1-0.1-1.5-1.2
			C33.2,41.6,33.8,42.1,34,42.1z"/>
		<path id="_x33_00_2_" inkscape:connector-curvature="0" class="st5" d="M34.2,38c-0.4,0.1-0.9-0.8-0.6-2.2
			C33.8,37,34.1,37.9,34.2,38z"/>
		<path id="_x32_99_2_" inkscape:connector-curvature="0" class="st6" d="M34.5,38.4c0.3,0.3,1.2-0.1,1.8-1.4
			C35.4,37.8,34.6,38.4,34.5,38.4L34.5,38.4z"/>
		<path id="_x32_98_2_" inkscape:connector-curvature="0" class="st6" d="M34.5,37.9c0.3,0.3,1.2-0.4,1.5-1.7
			C35.3,37.2,34.7,37.9,34.5,37.9z"/>
		<path id="_x32_97_2_" inkscape:connector-curvature="0" class="st5" d="M34.6,36.7c-0.4,0-0.6-0.9,0-2.1
			C34.5,35.7,34.5,36.6,34.6,36.7z"/>
		<path id="_x32_96_2_" inkscape:connector-curvature="0" class="st5" d="M35,36.1c-0.3,0-0.3-0.8,0.3-1.7C35.1,35.3,35,36,35,36.1z
			"/>
		<path id="_x32_95_2_" inkscape:connector-curvature="0" class="st5" d="M35.5,35.5c-0.3-0.1-0.1-0.9,0.8-1.5
			C35.8,34.8,35.5,35.4,35.5,35.5z"/>
		<path id="_x32_94_2_" inkscape:connector-curvature="0" class="st5" d="M34.2,39.3c-0.3,0.2-0.8-0.3-0.9-1.6
			C33.7,38.7,34,39.2,34.2,39.3z"/>
		<path id="_x32_93_2_" inkscape:connector-curvature="0" class="st6" d="M36.9,46.5c0.4-0.1,0.3-1.2-0.6-2.3
			C36.7,45.4,37,46.4,36.9,46.5z"/>
		<path id="_x32_92_2_" inkscape:connector-curvature="0" class="st5" d="M37,46.7c-0.1,0.4-1.1,0.4-2.2-0.5
			C35.9,46.5,36.8,46.8,37,46.7z"/>
		<path id="_x32_91_2_" inkscape:connector-curvature="0" class="st6" d="M34,39.2c0.1,0.3,1,0.1,1.7-0.8C34.6,39,34.2,39.3,34,39.2
			z"/>
		<path id="_x32_90_2_" inkscape:connector-curvature="0" class="st6" d="M34.1,40.7c0.2-0.7-0.1-2-0.4-2.2
			C33.4,39.9,33.8,40.8,34.1,40.7z"/>
		<path id="_x32_89_2_" inkscape:connector-curvature="0" class="st5" d="M34.1,40.9c-0.5,0.1-0.7-1-0.4-2.3
			C33.9,39.7,34,40.8,34.1,40.9z"/>
		<path id="_x32_88_2_" inkscape:connector-curvature="0" class="st5" d="M34.5,43.3c-0.6,0.1-1.8-0.4-2-0.5
			C33.7,42.5,34.6,43,34.5,43.3z"/>
		<path id="_x32_87_2_" inkscape:connector-curvature="0" class="st6" d="M34.5,43.3c0.1-0.4-0.7-0.8-2-0.5
			C33.5,43,34.4,43.2,34.5,43.3z"/>
		<path id="_x32_86_2_" inkscape:connector-curvature="0" class="st5" d="M34.3,42.5c0.1-0.5,0.7-1.4,0.9-1.4
			C35.1,42.1,34.5,42.7,34.3,42.5L34.3,42.5z"/>
		<path id="_x32_85_2_" inkscape:connector-curvature="0" class="st6" d="M34.3,42.5c0.3,0.2,0.8-0.4,0.9-1.4
			C34.8,41.9,34.4,42.5,34.3,42.5z"/>
		<path id="_x32_84_2_" inkscape:connector-curvature="0" class="st5" d="M34,40.9c0-0.6,0.6-2,0.8-2.1C35,40.1,34.4,41,34,40.9
			L34,40.9z"/>
		<path id="_x32_83_2_" inkscape:connector-curvature="0" class="st6" d="M34,40.9c0.4,0.1,0.9-0.8,0.8-2.1
			C34.5,39.9,34.1,40.8,34,40.9z"/>
		<path id="_x32_82_2_" inkscape:connector-curvature="0" class="st5" d="M34.1,41.7c0-0.7,0.7-1.9,0.9-2
			C35.1,41.1,34.5,41.9,34.1,41.7z"/>
		<path id="_x32_81_2_" inkscape:connector-curvature="0" class="st6" d="M34.1,41.7c0.4,0.2,1-0.6,0.9-2
			C34.7,40.8,34.3,41.7,34.1,41.7z"/>
		<path id="_x32_80_2_" inkscape:connector-curvature="0" class="st5" d="M36.3,45.9c-0.3-0.4-0.6-1.5-0.6-1.7
			C36.5,45,36.6,45.8,36.3,45.9z"/>
		<path id="_x32_79_2_" inkscape:connector-curvature="0" class="st6" d="M36.3,45.9c0.3-0.1,0.2-0.9-0.6-1.7
			C36.1,45,36.3,45.8,36.3,45.9z"/>
		<path id="_x32_78_2_" inkscape:connector-curvature="0" class="st7" d="M34.5,37.2C34.5,37.3,34.4,37.3,34.5,37.2
			c-0.1,0.1-0.2,0.1-0.2,0C34.3,37.2,34.3,37.1,34.5,37.2C34.4,37.1,34.5,37.2,34.5,37.2L34.5,37.2z"/>
		<path id="_x32_77_2_" inkscape:connector-curvature="0" class="st7" d="M35.2,36.7C35.2,36.8,35.1,36.8,35.2,36.7
			c-0.1,0.1-0.2,0.1-0.2,0C35,36.7,35,36.6,35.2,36.7C35.1,36.6,35.2,36.7,35.2,36.7z"/>
		<path id="_x32_76_2_" inkscape:connector-curvature="0" class="st7" d="M34.9,36.4C34.9,36.5,34.8,36.5,34.9,36.4
			c-0.1,0.1-0.2,0.1-0.2,0C34.7,36.4,34.7,36.3,34.9,36.4C34.8,36.3,34.9,36.4,34.9,36.4L34.9,36.4z"/>
		<path id="_x32_75_2_" inkscape:connector-curvature="0" class="st7" d="M34.1,42.6c0,0.1,0,0.1-0.1,0.1c-0.1,0-0.1,0-0.1-0.1
			c0-0.1,0-0.1,0.1-0.1C34.1,42.5,34.1,42.5,34.1,42.6z"/>
		<path id="_x32_74_2_" inkscape:connector-curvature="0" class="st7" d="M34.3,41.2c0,0.1,0,0.1-0.1,0.1c-0.1,0-0.1,0-0.1-0.1
			c0-0.1,0-0.1,0.1-0.1C34.3,41.1,34.3,41.1,34.3,41.2z"/>
		<path id="_x32_73_2_" inkscape:connector-curvature="0" class="st7" d="M35.5,44.4c0,0.1,0,0.1-0.1,0.1c-0.1,0-0.1,0-0.1-0.1
			c0-0.1,0-0.1,0.1-0.1C35.4,44.3,35.5,44.4,35.5,44.4z"/>
		<path id="_x32_72_2_" inkscape:connector-curvature="0" class="st7" d="M35,44.6c0,0.1,0,0.1-0.1,0.1c-0.1,0-0.1,0-0.1-0.1
			c0-0.1,0-0.1,0.1-0.1C34.9,44.5,35,44.5,35,44.6L35,44.6z"/>
		<path id="_x32_71_2_" inkscape:connector-curvature="0" class="st7" d="M38.8,47.3c0,0.1,0,0.1-0.1,0.1c-0.1,0-0.1,0-0.1-0.1l0,0
			c0-0.1,0-0.1,0.1-0.1C38.7,47.2,38.8,47.2,38.8,47.3z"/>
		<path id="_x32_70_2_" inkscape:connector-curvature="0" class="st7" d="M39,47.9c0,0.1,0,0.1-0.1,0.1c-0.1,0-0.1,0-0.1-0.1
			s0-0.1,0.1-0.1C39,47.8,39,47.8,39,47.9z"/>
		<path id="_x32_69_2_" inkscape:connector-curvature="0" class="st5" d="M34.8,43.7c-0.3-0.5-0.3-1.8-0.3-2
			C35.3,42.7,35.2,43.7,34.8,43.7z"/>
		<path id="_x32_68_2_" inkscape:connector-curvature="0" class="st6" d="M34.6,43.7c-0.2-0.5-1.3-1.3-1.5-1.4
			C33.6,43.5,34.4,44,34.6,43.7z"/>
		<path id="_x32_67_2_" inkscape:connector-curvature="0" class="st6" d="M34.8,43.7c0.4,0,0.5-1-0.3-2
			C34.8,42.7,34.9,43.6,34.8,43.7z"/>
		<path id="_x32_66_2_" inkscape:connector-curvature="0" class="st5" d="M34.6,43.7c-0.2,0.3-1-0.2-1.5-1.4
			C33.8,43.1,34.5,43.7,34.6,43.7z"/>
		<path id="_x32_65_2_" inkscape:connector-curvature="0" class="st5" d="M38.7,47.6c-0.7,0-2.1,1-2.3,1.2
			C38,48.8,38.9,48,38.7,47.6z"/>
		<path id="_x32_64_2_" inkscape:connector-curvature="0" class="st6" d="M38.7,47.6c0.2,0.4-0.7,1.2-2.2,1.2
			C37.7,48.2,38.6,47.7,38.7,47.6z"/>
		<path id="_x32_63_2_" inkscape:connector-curvature="0" sodipodi:nodetypes="cc" class="st4" d="M48.6,37.9
			c0.1,0.1,0.1,0.1,0.2,0.2"/>
		<path id="_x32_62_2_" inkscape:connector-curvature="0" class="st4" d="M48.2,36.4c0-0.1-0.1-0.3-0.1-0.4"/>
		<path id="_x32_61_2_" inkscape:connector-curvature="0" class="st4" d="M48.4,36.3c0,0.2,0,0.3-0.1,0.5"/>
		<path id="_x32_60_2_" inkscape:connector-curvature="0" class="st4" d="M48,36.7c0.2,0.1,0.3,0.3,0.5,0.3"/>
		<path id="_x32_59_2_" inkscape:connector-curvature="0" class="st4" d="M48.7,37.1c0,0.2,0,0.3-0.1,0.5"/>
		<path id="_x32_58_2_" inkscape:connector-curvature="0" class="st4" d="M48.7,37.8l0.1-0.2"/>
		<path id="_x32_57_2_" inkscape:connector-curvature="0" class="st4" d="M48.7,38.6c0.1,0,0.2,0.2,0.3,0.3"/>
		<path id="_x32_56_2_" inkscape:connector-curvature="0" class="st4" d="M49,38.8l0.1-0.2"/>
		<path id="_x32_55_2_" inkscape:connector-curvature="0" class="st4" d="M49.3,41.3c-0.1,0.1-0.1,0.2-0.2,0.3"/>
		<path id="_x32_54_2_" inkscape:connector-curvature="0" class="st4" d="M48.7,41.6c0.1,0.1,0.1,0.3,0.2,0.3"/>
		<path id="_x32_53_2_" inkscape:connector-curvature="0" class="st4" d="M49.2,42.4c-0.1,0.2-0.2,0.3-0.4,0.3"/>
		<path id="_x32_52_2_" inkscape:connector-curvature="0" class="st4" d="M48.8,43.2c-0.1,0.1-0.2,0.3-0.3,0.4"/>
		<path id="_x32_51_2_" inkscape:connector-curvature="0" class="st4" d="M49.2,41.8L49,41.9"/>
		<path id="_x32_50_2_" inkscape:connector-curvature="0" class="st4" d="M48.9,41.3l0.1,0.1"/>
		<path id="_x32_49_2_" inkscape:connector-curvature="0" class="st4" d="M48.2,44.6c-0.1,0-0.1,0-0.2,0"/>
		<path id="_x32_48_2_" inkscape:connector-curvature="0" class="st4" d="M47.9,44.4l0.1,0.1"/>
		<path id="_x32_47_2_" inkscape:connector-curvature="0" class="st4" d="M47.2,45c0,0.2,0,0.3,0,0.5"/>
		<path id="_x32_46_2_" inkscape:connector-curvature="0" class="st4" d="M47.6,44.7l0.1,0.2"/>
		<path id="_x32_45_2_" inkscape:connector-curvature="0" class="st4" d="M48.1,44.9l-0.2,0"/>
		<path id="_x32_44_2_" inkscape:connector-curvature="0" class="st4" d="M45.2,47.1l-0.1,0.2"/>
		<path id="_x32_43_2_" inkscape:connector-curvature="0" class="st4" d="M46.1,46.9c-0.1,0-0.2,0-0.4,0"/>
		<path id="_x32_42_2_" inkscape:connector-curvature="0" class="st4" d="M45.3,47.4c-0.1,0-0.2-0.1-0.3-0.1"/>
		<path id="_x32_41_2_" inkscape:connector-curvature="0" class="st4" d="M43.8,47.6c-0.1,0.1-0.2,0.2-0.3,0.4"/>
		<path id="_x32_40_2_" inkscape:connector-curvature="0" class="st4" d="M43.5,47.5c-0.2,0.1-0.3,0.3-0.4,0.5"/>
		<path id="_x32_39_2_" inkscape:connector-curvature="0" class="st4" d="M43.3,48.3c-0.1,0-0.3-0.1-0.5-0.2"/>
		<path id="_x32_38_2_" inkscape:connector-curvature="0" class="st4" d="M44.3,48c-0.2-0.1-0.4-0.1-0.6-0.1"/>
		<path id="_x32_37_2_" inkscape:connector-curvature="0" class="st4" d="M44.6,47.9c-0.3-0.1-0.6-0.1-0.9,0"/>
		<path id="_x32_36_2_" inkscape:connector-curvature="0" class="st4" d="M44.4,47.6l-0.1-0.1"/>
		<path id="_x32_35_2_" inkscape:connector-curvature="0" class="st4" d="M43.8,48.1L43.6,48"/>
		<path id="_x32_34_2_" inkscape:connector-curvature="0" class="st8" d="M48.6,43.7c-0.1,0.1-0.2,0.2-0.3,0.3"/>
		<path id="_x32_33_2_" inkscape:connector-curvature="0" class="st6" d="M47.9,44.4c0.2-0.6,0-2.1-0.1-2.3
			C47.2,43.4,47.5,44.5,47.9,44.4z"/>
		<path id="_x32_32_2_" inkscape:connector-curvature="0" class="st5" d="M47.9,44.4c-0.4,0-0.7-1-0.1-2.3
			C47.7,43.3,47.8,44.3,47.9,44.4z"/>
		<path id="_x32_31_2_" inkscape:connector-curvature="0" class="st6" d="M41.1,48.8c0.1-0.1,0.2-0.2,0.3-0.2
			c0.7-0.4,1.3-0.5,2.1-0.6c0.2,0,0.3-0.2,0.5-0.3c0.4-0.2,0.9-0.3,1.3-0.5c0,0,0.1-0.1,0.2-0.1c0.2-0.2,0.5-0.3,0.7-0.4
			c0.7-0.7,1.5-1.3,1.9-2.2c0.5-1.1,1.1-2.2,1-3.5c-0.1-0.8,0.1-1.6-0.1-2.3c-0.3-1.1-0.7-2.2-1.3-3.1l0.1,0.1c0.7,0.9,1,2,1.3,3.1
			c0.2,0.8,0.1,1.5,0.1,2.3c0.1,1.2-0.5,2.4-1,3.5c-0.4,0.9-1.2,1.5-1.9,2.2c-0.2,0.2-0.5,0.2-0.7,0.4c0,0.1-0.2,0.1-0.2,0.1
			c-0.4,0.2-0.9,0.3-1.3,0.5c-0.2,0.1-0.4,0.2-0.5,0.3c-0.8,0.1-1.4,0.3-2.1,0.6c-0.1,0.1-0.2,0.1-0.3,0.2L41.1,48.8"/>
		<path id="_x32_30_2_" inkscape:connector-curvature="0" class="st5" d="M43.3,48.2c0.6,0,1.8,0.8,1.9,1
			C43.9,49.2,43.1,48.5,43.3,48.2z"/>
		<path id="_x32_29_2_" inkscape:connector-curvature="0" class="st5" d="M43.3,47.5c0.2-0.7,1.3-1.8,1.5-1.9
			C44.5,47.1,43.6,47.8,43.3,47.5z"/>
		<path id="_x32_28_2_" inkscape:connector-curvature="0" class="st5" d="M45.1,47.1c-0.1-0.7,0.5-2.1,0.7-2.2
			C46,46.3,45.5,47.3,45.1,47.1z"/>
		<path id="_x32_27_2_" inkscape:connector-curvature="0" class="st6" d="M47.3,45c0.2-0.5,0.1-1.7,0-1.8C46.8,44.2,47,45.1,47.3,45
			z"/>
		<path id="_x32_26_2_" inkscape:connector-curvature="0" class="st5" d="M47,45.9c0.4-0.5,1.7-1,1.9-1C48.1,46,47.1,46.2,47,45.9z"
			/>
		<path id="_x32_25_2_" inkscape:connector-curvature="0" class="st5" d="M49.2,41.3c0.1-0.5,0.8-1.5,1-1.6
			C50.1,40.8,49.5,41.5,49.2,41.3z"/>
		<path id="_x32_24_2_" inkscape:connector-curvature="0" class="st5" d="M48.2,44.6c0.5-0.4,1.9-0.5,2.1-0.5
			C49.3,44.9,48.3,44.9,48.2,44.6z"/>
		<path id="_x32_23_2_" inkscape:connector-curvature="0" class="st5" d="M49.1,42.5c0.3-0.5,1.3-1.2,1.5-1.2
			C50.1,42.3,49.3,42.7,49.1,42.5L49.1,42.5z"/>
		<path id="_x32_22_2_" inkscape:connector-curvature="0" class="st5" d="M49,38.5c0-0.7,0.7-2,0.9-2.1C49.9,37.8,49.3,38.7,49,38.5
			z"/>
		<path id="_x32_21_2_" inkscape:connector-curvature="0" class="st6" d="M48.8,38.6c-0.3-0.5-1.5-1.2-1.7-1.3
			C47.6,38.5,48.5,38.9,48.8,38.6z"/>
		<path id="_x32_20_2_" inkscape:connector-curvature="0" class="st6" d="M48.6,37.9c-0.2-0.5-1.1-1.4-1.2-1.4
			C47.6,37.6,48.3,38.2,48.6,37.9z"/>
		<path id="_x32_19_2_" inkscape:connector-curvature="0" class="st5" d="M48.4,36.3c-0.2-0.5-0.1-1.6,0-1.7
			C48.8,35.5,48.7,36.3,48.4,36.3z"/>
		<path id="_x32_18_2_" inkscape:connector-curvature="0" class="st5" d="M48,36.1c-0.5-0.4-0.9-1.7-0.9-1.9
			C48.1,35,48.3,35.9,48,36.1z"/>
		<path id="_x32_17_2_" inkscape:connector-curvature="0" class="st5" d="M49,39.1c0,0.1,0.3-0.7,1.2-1.3C49.9,39,49.3,39.3,49,39.1
			z"/>
		<path id="_x32_16_2_" inkscape:connector-curvature="0" class="st6" d="M46,46.7c0.4-0.6,0.5-2.1,0.4-2.3
			C45.6,45.5,45.6,46.6,46,46.7z"/>
		<path id="_x32_15_2_" inkscape:connector-curvature="0" class="st5" d="M46.1,46.8c0.6-0.4,2.3-0.7,2.5-0.6
			C47.4,47.3,46.1,47.3,46.1,46.8z"/>
		<path id="_x32_14_2_" inkscape:connector-curvature="0" class="st6" d="M49,39.2c-0.3-0.3-1.3-0.7-1.5-0.7
			C48.2,39.4,48.9,39.5,49,39.2z"/>
		<path id="_x32_13_2_" inkscape:connector-curvature="0" class="st6" d="M45.1,47.1c0.4,0.1,0.9-0.8,0.7-2.2
			C45.6,46.1,45.3,47.1,45.1,47.1z"/>
		<path id="_x32_12_2_" inkscape:connector-curvature="0" class="st6" d="M43.3,48.2c-0.2,0.4,0.6,1,1.9,1
			C44.1,48.7,43.3,48.3,43.3,48.2z"/>
		<path id="_x32_11_2_" inkscape:connector-curvature="0" class="st6" d="M43.3,47.5c0.3,0.3,1.2-0.4,1.5-1.9
			C44.1,46.7,43.5,47.5,43.3,47.5L43.3,47.5z"/>
		<path id="_x32_10_2_" inkscape:connector-curvature="0" class="st5" d="M47.3,45c-0.3,0-0.5-0.8,0-1.8C47.2,44.2,47.2,45,47.3,45
			L47.3,45z"/>
		<path id="_x32_09_2_" inkscape:connector-curvature="0" class="st6" d="M47,45.9c0.2,0.3,1.1,0.1,1.9-1
			C47.9,45.5,47.1,45.9,47,45.9z"/>
		<path id="_x32_08_2_" inkscape:connector-curvature="0" class="st6" d="M49.2,41.3c0.3,0.2,0.9-0.5,1-1.6
			C49.8,40.6,49.3,41.2,49.2,41.3z"/>
		<path id="_x32_07_2_" inkscape:connector-curvature="0" class="st6" d="M48.2,44.6c0.1,0.4,1.1,0.4,2.1-0.5
			C49.2,44.4,48.3,44.6,48.2,44.6z"/>
		<path id="_x32_06_2_" inkscape:connector-curvature="0" class="st6" d="M49.1,42.4c0.2,0.3,1-0.1,1.5-1.2
			C49.9,41.9,49.2,42.5,49.1,42.4z"/>
		<path id="_x32_05_2_" inkscape:connector-curvature="0" class="st6" d="M49,38.5c0.4,0.2,1-0.7,0.9-2.1
			C49.5,37.6,49.1,38.5,49,38.5z"/>
		<path id="_x32_04_2_" inkscape:connector-curvature="0" class="st5" d="M48.8,38.6c-0.2,0.3-1.1-0.1-1.7-1.3
			C47.9,38.1,48.6,38.7,48.8,38.6z"/>
		<path id="_x32_03_2_" inkscape:connector-curvature="0" class="st5" d="M48.6,37.9c-0.3,0.2-1-0.3-1.2-1.4
			C47.9,37.3,48.5,37.9,48.6,37.9z"/>
		<path id="_x32_02_2_" inkscape:connector-curvature="0" class="st6" d="M48.4,36.3c0.3,0,0.5-0.8,0-1.7
			C48.4,35.5,48.4,36.2,48.4,36.3z"/>
		<path id="_x32_01_2_" inkscape:connector-curvature="0" class="st6" d="M48,36.1c0.3-0.2,0.1-1.1-0.9-1.9C47.7,35.1,48,36,48,36.1
			z"/>
		<path id="_x32_00_2_" inkscape:connector-curvature="0" class="st6" d="M49,39.1c0.3,0.3,0.9-0.1,1.2-1.3
			C49.6,38.6,49.1,39.1,49,39.1z"/>
		<path id="_x31_99_2_" inkscape:connector-curvature="0" class="st5" d="M46,46.7c-0.4-0.1-0.5-1.1,0.4-2.3
			C46.1,45.5,45.9,46.5,46,46.7z"/>
		<path id="_x31_98_2_" inkscape:connector-curvature="0" class="st6" d="M46.1,46.8c0.1,0.5,1.3,0.4,2.5-0.6
			C47.3,46.7,46.2,46.9,46.1,46.8z"/>
		<path id="_x31_97_2_" inkscape:connector-curvature="0" class="st5" d="M49,39.2c-0.1,0.3-0.9,0.1-1.5-0.7
			C48.5,39.1,48.8,39.3,49,39.2z"/>
		<path id="_x31_96_2_" inkscape:connector-curvature="0" class="st5" d="M49.1,40.8c-0.1-0.7,0.3-1.7,0.6-1.9
			C49.9,40.1,49.4,40.9,49.1,40.8z"/>
		<path id="_x31_95_2_" inkscape:connector-curvature="0" class="st6" d="M49.1,40.9c0.4,0.2,0.8-0.9,0.6-2.1
			C49.4,39.9,49.2,40.9,49.1,40.9z"/>
		<path id="_x31_94_2_" inkscape:connector-curvature="0" class="st6" d="M48.8,43.2c0.5,0.1,1.6-0.4,1.8-0.5
			C49.4,42.5,48.7,42.9,48.8,43.2z"/>
		<path id="_x31_93_2_" inkscape:connector-curvature="0" class="st5" d="M48.8,43.2c-0.1-0.3,0.6-0.7,1.7-0.5
			C49.6,42.9,48.9,43.1,48.8,43.2z"/>
		<path id="_x31_92_2_" inkscape:connector-curvature="0" class="st6" d="M48.8,42.7c0-0.5-0.6-1.5-0.7-1.5
			C48,42.2,48.5,42.9,48.8,42.7z"/>
		<path id="_x31_91_2_" inkscape:connector-curvature="0" class="st5" d="M48.8,42.7c-0.3,0.1-0.7-0.5-0.7-1.5
			C48.4,42,48.7,42.7,48.8,42.7z"/>
		<path id="_x31_90_2_" inkscape:connector-curvature="0" class="st6" d="M49.1,40.9c0-0.6-0.6-2-0.8-2.1
			C48.2,40.1,48.7,41,49.1,40.9z"/>
		<path id="_x31_89_2_" inkscape:connector-curvature="0" class="st5" d="M49.1,40.9c-0.4,0.1-0.9-0.8-0.8-2.1
			C48.7,39.9,49,40.8,49.1,40.9z"/>
		<path id="_x31_88_2_" inkscape:connector-curvature="0" class="st6" d="M48.8,41.6c0-0.7-0.7-1.9-0.9-2
			C47.8,40.9,48.4,41.8,48.8,41.6z"/>
		<path id="_x31_87_2_" inkscape:connector-curvature="0" class="st5" d="M48.8,41.6c-0.4,0.2-1-0.6-0.9-2
			C48.3,40.7,48.7,41.5,48.8,41.6z"/>
		<path id="_x31_86_2_" inkscape:connector-curvature="0" class="st6" d="M46.7,46.2c0.3-0.4,0.4-1.6,0.3-1.7
			C46.3,45.3,46.4,46.1,46.7,46.2z"/>
		<path id="_x31_85_2_" inkscape:connector-curvature="0" class="st5" d="M46.7,46.2c-0.3,0-0.3-0.9,0.3-1.7
			C46.7,45.3,46.6,46.1,46.7,46.2z"/>
		<path id="_x31_84_2_" inkscape:connector-curvature="0" class="st7" d="M48.8,37.6C48.8,37.6,48.8,37.6,48.8,37.6
			c0.1,0.1,0.2,0.1,0.2,0C49,37.5,48.9,37.5,48.8,37.6C48.8,37.5,48.8,37.5,48.8,37.6L48.8,37.6z"/>
		<path id="_x31_83_2_" inkscape:connector-curvature="0" class="st7" d="M49.1,38.6C49.1,38.6,49.1,38.7,49.1,38.6
			c0.1,0.1,0.2,0.1,0.2,0C49.3,38.5,49.2,38.5,49.1,38.6C49.1,38.5,49.1,38.5,49.1,38.6L49.1,38.6z"/>
		<path id="_x31_82_2_" inkscape:connector-curvature="0" class="st7" d="M49.2,41.8c0,0.1,0,0.1,0.1,0.1c0.1,0,0.1,0,0.1-0.1l0,0
			c0-0.1,0-0.1-0.1-0.1C49.2,41.7,49.2,41.8,49.2,41.8z"/>
		<path id="_x31_81_2_" inkscape:connector-curvature="0" class="st7" d="M48.8,41.2c0,0.1,0,0.1,0.1,0.1c0.1,0,0.1,0,0.1-0.1l0,0
			c0-0.1,0-0.1-0.1-0.1C48.8,41.1,48.8,41.2,48.8,41.2z"/>
		<path id="_x31_80_2_" inkscape:connector-curvature="0" class="st7" d="M47.5,44.7c0,0.1,0,0.1,0.1,0.1c0.1,0,0.1,0,0.1-0.1
			c0-0.1,0-0.1-0.1-0.1C47.5,44.5,47.5,44.6,47.5,44.7z"/>
		<path id="_x31_79_2_" inkscape:connector-curvature="0" class="st7" d="M48,44.9c0,0.1,0,0.1,0.1,0.1c0.1,0,0.1,0,0.1-0.1
			c0-0.1,0-0.1-0.1-0.1C48.1,44.8,48,44.8,48,44.9z"/>
		<path id="_x31_78_2_" inkscape:connector-curvature="0" class="st7" d="M44.4,47.7c0,0.1,0,0.1,0.1,0.1c0.1,0,0.1,0,0.1-0.1
			c0-0.1,0-0.1-0.1-0.1C44.4,47.6,44.4,47.6,44.4,47.7z"/>
		<path id="_x31_77_2_" inkscape:connector-curvature="0" class="st7" d="M43.8,48.1c0,0.1,0,0.1,0.1,0.1c0.1,0,0.1,0,0.1-0.1
			c0-0.1,0-0.1-0.1-0.1C43.8,48,43.8,48.1,43.8,48.1z"/>
		<path id="_x31_76_2_" inkscape:connector-curvature="0" class="st5" d="M48.7,37.2c-0.2-0.5,0-1.7,0.1-1.9
			C49.2,36.3,49,37.2,48.7,37.2z"/>
		<path id="_x31_75_2_" inkscape:connector-curvature="0" class="st6" d="M48.7,37.2c0.3,0,0.6-0.8,0.1-1.9
			C48.8,36.3,48.8,37.1,48.7,37.2z"/>
		<path id="_x31_74_2_" inkscape:connector-curvature="0" class="st5" d="M43.7,47.5c0.2-0.7,1.4-1.8,1.6-1.9
			C44.9,47.2,44,47.9,43.7,47.5z"/>
		<path id="_x31_73_2_" inkscape:connector-curvature="0" class="st6" d="M43.7,47.5c0.3,0.3,1.2-0.4,1.6-1.9
			C44.5,46.7,43.8,47.5,43.7,47.5L43.7,47.5z"/>
		<path id="_x31_72_2_" inkscape:connector-curvature="0" class="st6" d="M48.4,43.7c0.3-0.5,0.3-1.8,0.3-2
			C47.9,42.7,48,43.7,48.4,43.7z"/>
		<path id="_x31_71_2_" inkscape:connector-curvature="0" class="st5" d="M48.4,44c0.2-0.5,1.3-1.3,1.5-1.4
			C49.4,43.8,48.6,44.2,48.4,44z"/>
		<path id="_x31_70_2_" inkscape:connector-curvature="0" class="st5" d="M48.4,43.7c-0.4,0-0.5-1,0.3-2
			C48.4,42.7,48.3,43.6,48.4,43.7z"/>
		<path id="_x31_69_2_" inkscape:connector-curvature="0" class="st6" d="M48.4,44c0.2,0.3,1-0.2,1.5-1.4C49.1,43.4,48.5,44,48.4,44
			z"/>
		<path id="_x31_68_1_" inkscape:connector-curvature="0" class="st6" d="M44.2,48.1c0.4,0.5,1.7,1,1.9,0.9
			C45.4,48,44.4,47.7,44.2,48.1z"/>
		<path id="_x31_67_2_" inkscape:connector-curvature="0" class="st5" d="M44.2,48.1c0.2-0.4,1.1-0.1,1.9,0.9
			C45.2,48.4,44.4,48,44.2,48.1z"/>
		<line id="_x31_66_2_" class="st4" x1="48.4" y1="37.2" x2="48.3" y2="37.1"/>
		<path id="_x31_65_2_" inkscape:connector-curvature="0" class="st7" d="M48.1,37.1C48.1,37.1,48.2,37.2,48.1,37.1
			c0.1,0.1,0.2,0.1,0.2,0C48.3,37,48.3,37,48.1,37.1C48.2,37,48.1,37,48.1,37.1L48.1,37.1z"/>
		<path id="_x31_64_2_" inkscape:connector-curvature="0" class="st9" d="M37.6,44.6c0,0.1,0.1,0.2,0.2,0.2c0,0,0.1-0.1,0,0
			c0,0-0.1,0-0.1,0C37.6,44.6,37.6,44.6,37.6,44.6C37.6,44.5,37.6,44.6,37.6,44.6L37.6,44.6z"/>
		<path id="_x31_63_2_" class="st10" d="M37.9,44.8c-0.1,0.1-0.2,0.1-0.3,0.1c0,0-0.1-0.1,0-0.2c0,0-0.1,0.1-0.1,0.1
			c0,0,0.1,0.1,0.1,0.2C37.7,45,37.8,44.9,37.9,44.8c0.1,0,0.2-0.2,0.1-0.3c0-0.1-0.1-0.1-0.2-0.1c0,0-0.1,0.1-0.1,0.1
			c0,0,0.1,0,0.1,0C38,44.5,37.9,44.7,37.9,44.8L37.9,44.8L37.9,44.8z"/>
		<path id="_x31_62_2_" class="st11" d="M37.9,44.8c0,0-0.1,0.1-0.1,0.1c0,0-0.1,0-0.1,0c0,0,0,0-0.1,0c0,0,0,0,0-0.1c0,0,0,0,0-0.1
			c0,0,0,0,0-0.1l0,0l-0.1,0.1l0,0c0,0,0.1,0.1,0.1,0.1c0,0,0,0,0.1,0c0,0,0,0,0.1,0c0,0,0.1,0,0.1,0C37.8,44.9,37.9,44.8,37.9,44.8
			c0.1,0,0.1,0,0.1-0.1c0,0,0-0.1,0-0.1c0,0,0,0,0-0.1c0,0,0,0,0-0.1c0,0-0.1-0.1-0.1-0.1l0,0l-0.1,0.1l0,0c0,0,0,0,0.1,0
			c0,0,0,0,0.1,0c0,0,0.1,0.1,0.1,0.1c0,0,0,0.1,0,0.1C37.9,44.7,37.9,44.7,37.9,44.8L37.9,44.8L37.9,44.8z M37.9,44.8L37.9,44.8
			L37.9,44.8L37.9,44.8c0,0,0.1-0.1,0.1-0.1c0,0,0-0.1,0-0.1c0,0,0-0.1-0.1-0.1c0,0-0.1,0-0.1,0l0,0l0.1-0.1l0,0l0,0
			c0,0,0.1,0,0.1,0.1c0,0,0,0,0,0.1c0,0,0,0,0,0.1c0,0.1,0,0.1,0,0.1C38,44.7,38,44.8,37.9,44.8c0,0.1,0,0.1-0.1,0.1
			c0,0-0.1,0-0.1,0c0,0-0.1,0-0.1,0c0,0,0,0-0.1,0c0,0-0.1-0.1-0.1-0.1l0,0l0,0l0.1-0.1l0,0c0,0,0,0,0,0.1c0,0,0,0,0,0.1
			c0,0,0,0,0,0c0,0,0,0,0.1,0c0,0,0.1,0,0.1,0C37.8,44.8,37.8,44.8,37.9,44.8z"/>
		<path id="_x31_61_2_" inkscape:connector-curvature="0" class="st12" d="M44.6,37.1l-3.5,3.4c-0.3,0.3-3.3,3.1-3.5,3.4
			c-0.1,0.1-0.4,0.4-0.4,0.5c-0.2,0.2-0.4,0.5-0.6,0.7c0,0.1-0.1,0-0.1,0.1c-0.2,0.1-0.3,0.2-0.4,0.4l-1.1,1.2
			c-0.1,0.1-0.1,0.1,0,0.2l0.6,0.8c0.1,0.1,0.2,0.2,0.3,0.1c0.3-0.5,0.9-1.2,1.2-1.8c0.2-0.3,0.3-1,0.5-1.1c0.2-0.2,0.6-0.7,1-1.1
			c0,0,0.1-0.1,0.1-0.1c0,0,0.1-0.1,0.1-0.1C40.6,41.4,43,38.9,44.6,37.1C44.6,37.1,44.7,37.1,44.6,37.1L44.6,37.1z"/>
		<path id="_x31_60_2_" inkscape:connector-curvature="0" class="st9" d="M37.4,43.9c-0.1,0-0.2-0.1-0.2-0.1
			C37.3,43.8,37.4,43.8,37.4,43.9L37.4,43.9z"/>
		<path id="_x31_59_2_" inkscape:connector-curvature="0" class="st13" d="M48.2,34.5l-2.7,2.3c0,0-0.1,0-0.1,0l-0.2-0.2
			c0,0,0,0,0,0c0,0,0,0,0,0l0.1-0.1c0,0,0,0,0,0c0,0,0,0-0.1-0.1c0,0,0,0-0.1,0L45,36.5c-0.1,0-0.1,0.1-0.1,0.1
			c-1.7,1.6-3.1,3.1-4.7,4.7l-1.9,1.9c-0.1,0.1-0.4,0.3-0.6,0.4c-0.1,0-0.1,0.1-0.2,0.1l-0.2,0.5c-0.1,0.1-0.2,0.3-0.2,0.4
			c0.2,0.2,0.2,0.2,0.3,0.3c0.2-0.2,0.6-0.6,1-1c0,0,0,0,0.1-0.1c0,0-0.1-0.1-0.1-0.1c0,0-0.1-0.1-0.1-0.1c0,0,0,0-0.1,0
			c0,0,0,0,0-0.1c2.3-2.2,4.7-4.6,6.8-6.6c0,0,0,0,0,0c0,0,0,0,0.1,0l0.2,0.3c0.1,0.1,0.1,0.1,0.1,0L48.2,34.5L48.2,34.5z"/>
		<path id="_x31_58_2_" class="st11" d="M37.3,44.1C37.3,44.1,37.4,44.1,37.3,44.1c0.1,0,0.1,0,0.1,0l0,0c0-0.1,0-0.1,0.1-0.2
			c0-0.1,0-0.1,0.1-0.2l0,0c0,0,0,0-0.1,0c0,0,0,0,0.1,0l0,0l0,0c0,0.1,0,0.1-0.1,0.2c0,0.1,0,0.1-0.1,0.2l0,0l0,0
			C37.4,44.1,37.4,44.1,37.3,44.1C37.4,44.1,37.3,44.1,37.3,44.1z"/>
		<path id="_x31_57_2_" inkscape:connector-curvature="0" class="st14" d="M38,43.9C38,43.9,38,43.9,38,43.9c-0.1,0.1-0.1,0-0.1,0
			C37.9,43.8,37.9,43.8,38,43.9C38,43.8,38,43.8,38,43.9z"/>
		<path id="_x31_56_2_" inkscape:connector-curvature="0" class="st14" d="M37.7,44.2C37.7,44.2,37.7,44.3,37.7,44.2
			c-0.1,0.1-0.1,0-0.1,0C37.6,44.2,37.6,44.1,37.7,44.2C37.7,44.1,37.7,44.2,37.7,44.2z"/>
		<path id="_x31_55_2_" class="st11" d="M38.2,43.4C38.2,43.4,38.1,43.3,38.2,43.4c-0.1-0.1-0.1-0.1-0.2-0.1
			C38.1,43.3,38.1,43.3,38.2,43.4C38.1,43.3,38.2,43.4,38.2,43.4z"/>
		<polygon id="_x31_54_2_" class="st9" points="43.8,38.2 43.8,38.2 43.5,37.9 43.5,37.9 43.5,37.9 		"/>
		<path id="_x31_53_2_" inkscape:connector-curvature="0" class="st9" d="M45.3,44.7c0,0.1-0.1,0.2-0.2,0.2c0,0-0.1-0.1,0,0
			C45.1,44.9,45.2,44.8,45.3,44.7C45.2,44.8,45.3,44.7,45.3,44.7C45.3,44.7,45.3,44.7,45.3,44.7L45.3,44.7z"/>
		<path id="_x31_52_2_" class="st10" d="M45,44.9c0.1,0.1,0.2,0.2,0.3,0.1c0.1,0,0.1-0.1,0-0.2c0,0,0.1,0.1,0.1,0.1
			c0,0-0.1,0.1-0.2,0.1C45.2,45.1,45,45,45,44.9c-0.1-0.1-0.2-0.2-0.1-0.3c0-0.1,0.1-0.1,0.2-0.1c0,0,0.1,0.1,0.1,0.1
			c0,0-0.1,0-0.1,0C44.9,44.7,44.9,44.8,45,44.9L45,44.9L45,44.9z"/>
		<path id="_x31_51_2_" class="st11" d="M45,44.9C45.1,44.9,45.1,44.9,45,44.9c0.1,0.1,0.2,0.1,0.2,0.1c0,0,0,0,0.1,0c0,0,0,0,0,0
			c0,0,0,0,0-0.1c0,0,0,0,0-0.1l0,0c0,0,0.1,0.1,0.1,0.1l0,0l0,0c0,0-0.1,0.1-0.1,0.1c0,0,0,0-0.1,0c0,0-0.1,0-0.1,0
			c-0.1,0-0.1,0-0.1-0.1C45,45,45,45,45,44.9c-0.1,0-0.1,0-0.1-0.1c0,0,0-0.1,0-0.1c0,0,0-0.1,0-0.1c0,0,0,0,0-0.1
			c0,0,0.1-0.1,0.1-0.1l0,0l0,0l0.1,0.1l0,0c0,0-0.1,0-0.1,0c0,0-0.1,0-0.1,0.1c0,0,0,0.1,0,0.1C45,44.8,45,44.9,45,44.9z M45,44.9
			c0,0-0.1-0.1-0.1-0.1c0,0,0-0.1,0-0.1c0,0,0,0,0-0.1c0,0,0,0,0.1,0c0,0,0.1,0,0.1,0l0,0l-0.1-0.1l0,0c0,0-0.1,0-0.1,0.1
			c0,0,0,0,0,0.1c0,0,0,0,0,0.1c0,0,0,0.1,0,0.1C44.9,44.8,44.9,44.9,45,44.9c0,0.1,0,0.1,0.1,0.1c0,0,0.1,0,0.1,0c0,0,0,0,0.1,0
			c0,0,0,0,0.1,0c0,0,0.1-0.1,0.1-0.1l0,0c0,0-0.1-0.1-0.1-0.1l0,0c0,0,0,0,0,0.1c0,0,0,0,0,0.1c0,0,0,0,0,0c0,0,0,0-0.1,0
			C45.2,45,45.2,45,45,44.9C45.1,44.9,45,44.9,45,44.9z"/>
		<path id="_x31_50_2_" inkscape:connector-curvature="0" class="st12" d="M38.7,36.9l3.3,3.6c0.3,0.3,3.1,3.3,3.4,3.6
			c0.1,0.1,0.3,0.4,0.4,0.5c0.2,0.2,0.4,0.5,0.6,0.7c0,0.1,0.1,0,0.1,0.1c0.2,0.1,0.3,0.3,0.4,0.4l1,1.2c0.1,0.1,0.1,0.1,0,0.2
			l-0.6,0.7C47.2,47.9,47,48,47,47.9c-0.2-0.5-0.9-1.2-1.1-1.8c-0.1-0.3-0.3-1-0.4-1.1c-0.2-0.2-0.6-0.7-1-1.1c0,0,0-0.1-0.1-0.1
			c0,0-0.1-0.1-0.1-0.1C42.4,41.4,40.2,38.8,38.7,36.9C38.6,36.9,38.6,36.9,38.7,36.9L38.7,36.9z"/>
		<path id="_x31_49_2_" inkscape:connector-curvature="0" class="st9" d="M45.5,44c0.1,0,0.2-0.1,0.3-0.1C45.7,43.9,45.6,44,45.5,44
			L45.5,44z"/>
		<path id="_x31_48_2_" inkscape:connector-curvature="0" class="st13" d="M35.2,34.2l2.6,2.4c0,0,0.1,0,0.1,0l0.3-0.2c0,0,0,0,0,0
			c0,0,0,0,0,0l-0.1-0.1c0,0,0,0,0,0c0,0,0,0,0.1-0.1c0,0,0,0,0.1,0l0.1,0.1c0.1,0,0.1,0.1,0.1,0.1c1.6,1.7,2.9,3.2,4.5,4.9l1.9,2
			c0.1,0.1,0.4,0.3,0.5,0.4c0.1,0,0.1,0.1,0.1,0.1l0.1,0.5c0,0.1,0.2,0.4,0.2,0.4c-0.2,0.2-0.2,0.2-0.3,0.3
			c-0.1-0.2-0.5-0.6-0.9-1.1c0,0,0,0-0.1-0.1c0,0,0.1-0.1,0.1-0.1c0,0,0.1-0.1,0.1-0.1c0,0,0,0,0.1,0c0,0,0,0,0-0.1
			c-2.2-2.3-4.5-4.9-6.4-6.9c0,0,0,0,0,0c0,0,0,0-0.1,0L38,36.8c-0.1,0.1-0.1,0.1-0.2,0L35.2,34.2L35.2,34.2z"/>
		<path id="_x31_47_2_" class="st11" d="M45.6,44.2C45.6,44.2,45.6,44.2,45.6,44.2c-0.1,0-0.1,0-0.1,0l0,0l0,0c0-0.1,0-0.1-0.1-0.2
			c0-0.1,0-0.1-0.1-0.2l0,0l0,0c0,0,0,0,0,0c0,0,0,0,0,0c0,0,0,0-0.1,0l0,0c0,0.1,0,0.1,0.1,0.2C45.5,44.1,45.5,44.1,45.6,44.2
			l-0.1,0C45.5,44.2,45.5,44.2,45.6,44.2C45.6,44.2,45.6,44.2,45.6,44.2z"/>
		<path id="_x31_46_2_" inkscape:connector-curvature="0" class="st14" d="M44.9,44C44.9,44,45,44.1,44.9,44c0.1,0.1,0.1,0,0.1,0
			C45,44,45,43.9,44.9,44C45,43.9,44.9,44,44.9,44z"/>
		<path id="_x31_45_2_" inkscape:connector-curvature="0" class="st14" d="M45.2,44.3C45.2,44.4,45.3,44.4,45.2,44.3
			c0.1,0.1,0.1,0,0.1,0C45.3,44.3,45.3,44.3,45.2,44.3C45.3,44.3,45.2,44.3,45.2,44.3z"/>
		<path id="_x31_44_2_" class="st11" d="M44.8,43.5C44.8,43.5,44.8,43.4,44.8,43.5c0.1-0.1,0.1-0.1,0.2-0.1
			C44.9,43.4,44.9,43.4,44.8,43.5C44.8,43.5,44.8,43.5,44.8,43.5z"/>
		<polygon id="_x31_43_2_" class="st9" points="39.8,37.8 39.8,37.8 39.4,38.1 39.4,38 39.7,37.7 		"/>
		<path id="_x31_42_2_" inkscape:connector-curvature="0" class="st5" d="M37.6,47.1c-0.7-0.3-2.3-0.1-2.5,0.1
			C36.5,47.9,37.6,47.6,37.6,47.1z"/>
		<path id="_x31_41_2_" inkscape:connector-curvature="0" class="st6" d="M37.6,47.1c0,0.5-1.1,0.8-2.5,0.1
			C36.4,47.3,37.5,47.2,37.6,47.1z"/>
		<path id="_x31_40_2_" inkscape:connector-curvature="0" class="st5" d="M45.3,47.4c0.7-0.3,2.3-0.1,2.5,0.1
			C46.4,48.1,45.2,47.9,45.3,47.4z"/>
		<path id="_x31_39_2_" inkscape:connector-curvature="0" class="st6" d="M45.3,47.4c0,0.5,1.1,0.8,2.5,0.1
			C46.5,47.5,45.4,47.5,45.3,47.4z"/>
		<path id="_x31_38_2_" inkscape:connector-curvature="0" class="st13" d="M44,46.6c-1.8-2.6-4.5-4.7-6.6-5.9c0.3,0,1,0.3,1.3,0.5
			c2.1,1.3,3.8,3.1,5.7,5.2C44.3,46.5,44.2,46.6,44,46.6L44,46.6z"/>
		<path id="_x31_37_2_" class="st10" d="M44.2,46.6l-0.1,0.1c-2-2.6-4.8-5-6.6-6C40,42,42.2,44.4,44.2,46.6L44.2,46.6z"/>
		<path id="_x31_36_2_" class="st11" d="M44.2,46.6l-0.1,0.1l0,0l0,0c-0.5-0.6-0.9-1.2-1.5-1.7c-0.5-0.5-1-1.1-1.6-1.6
			c-0.5-0.5-1.1-1-1.7-1.4c-0.3-0.2-0.6-0.4-0.9-0.7c-0.3-0.2-0.6-0.4-1-0.6l0,0c0.7,0.3,1.3,0.7,1.9,1.1c0.6,0.4,1.2,0.9,1.7,1.4
			c0.5,0.5,1.1,1,1.6,1.6C43.2,45.5,43.7,46,44.2,46.6z M44.2,46.6c-0.5-0.6-1-1.1-1.5-1.7c-0.5-0.5-1-1.1-1.6-1.6
			c-0.5-0.5-1.1-1-1.7-1.4c-0.6-0.4-1.3-0.8-1.9-1.1l0,0c0.3,0.2,0.7,0.4,1,0.6c0.3,0.2,0.6,0.4,0.9,0.7c0.6,0.5,1.2,0.9,1.7,1.5
			c0.5,0.5,1.1,1,1.6,1.6c0.5,0.5,1,1.1,1.4,1.7l0,0L44.2,46.6z"/>
		<path id="_x31_35_2_" inkscape:connector-curvature="0" class="st15" d="M44.8,46.2c-0.2,0-0.3,0.1-0.5,0.2c0,0.1-0.2,0.3-0.3,0.3
			c0,0,0,0-0.1-0.1c0,0,0,0,0,0c0,0,0,0,0,0c-0.1,0-0.1,0-0.1,0.1c0,0.1,0,0.2,0.1,0.3c0.1,0.1,0.1,0.1,0.2,0.1
			c0.1,0,0.1-0.1,0.2-0.1c0.3,0.4,0.6,0.6,1,0.9c0.2,0,0.3-0.1,0.2-0.2c0,0-0.1-0.1-0.1-0.1c0,0,0,0,0,0c0.2-0.2,0.3-0.4,0.1-0.9
			C45.2,46.3,45,46.2,44.8,46.2L44.8,46.2z M45.3,46.6c0,0.1,0.1,0.1,0.1,0.2c0.1,0.3,0,0.6-0.2,0.7c0,0,0,0,0,0
			c0-0.1-0.1-0.2-0.1-0.1c0-0.1-0.1-0.2-0.1-0.1c0-0.1,0-0.2-0.1-0.1c0-0.1,0-0.2-0.1-0.1c0-0.1,0-0.2-0.1-0.1c0-0.1,0-0.1,0-0.1
			c0.1-0.1,0.2-0.2,0.3-0.2C45.1,46.3,45.2,46.5,45.3,46.6L45.3,46.6L45.3,46.6L45.3,46.6L45.3,46.6z"/>
		<path id="_x31_34_2_" inkscape:connector-curvature="0" class="st15" d="M45.4,46.9C45.4,46.8,45.4,46.8,45.4,46.9
			c0-0.1,0-0.1,0.1-0.1c0,0,0.1,0.1,0.1,0.1C45.5,46.9,45.5,46.9,45.4,46.9L45.4,46.9z"/>
		<path id="_x31_33_2_" class="st16" d="M44.3,46.9c0.1-0.2,0.2-0.3,0.3-0.3"/>
		<path id="_x31_32_2_" class="st17" d="M44.3,46.9c0,0,0-0.1,0-0.1c0,0,0-0.1,0.1-0.1c0,0,0.1-0.1,0.1-0.1c0,0,0.1,0,0.1,0
			c0,0-0.1,0-0.1,0.1c0,0-0.1,0-0.1,0.1C44.3,46.8,44.3,46.9,44.3,46.9z"/>
		<path id="_x31_31_2_" class="st16" d="M44.4,47.1c0.1,0,0.3-0.1,0.3-0.2"/>
		<path id="_x31_30_2_" class="st17" d="M44.4,47.1c0,0,0.1,0,0.1,0c0,0,0.1,0,0.1,0c0,0,0.1,0,0.1-0.1c0,0,0-0.1,0.1-0.1
			c0,0,0,0.1-0.1,0.1c0,0,0,0.1-0.1,0.1c0,0-0.1,0-0.1,0C44.4,47.1,44.4,47.1,44.4,47.1z"/>
		<path id="_x31_29_2_" class="st16" d="M44.5,47.2c0.2,0,0.3-0.1,0.3-0.2"/>
		<path id="_x31_28_2_" class="st17" d="M44.5,47.2C44.5,47.2,44.6,47.2,44.5,47.2c0.1,0,0.2,0,0.2-0.1c0,0,0.1,0,0.1-0.1
			c0,0,0-0.1,0.1-0.1c0,0.1-0.1,0.1-0.1,0.2c0,0-0.1,0-0.1,0C44.6,47.2,44.5,47.2,44.5,47.2z"/>
		<path id="_x31_27_2_" class="st16" d="M44.6,47.4c0.1,0,0.3-0.1,0.3-0.2"/>
		<path id="_x31_26_2_" class="st17" d="M44.6,47.4c0.1,0,0.1,0,0.2-0.1c0,0,0.1,0,0.1-0.1c0,0,0-0.1,0.1-0.1c0,0,0,0.1-0.1,0.1
			c0,0,0,0-0.1,0.1C44.8,47.3,44.8,47.3,44.6,47.4C44.7,47.3,44.7,47.4,44.6,47.4z"/>
		<path id="_x31_25_2_" class="st16" d="M44.8,47.5c0.2,0,0.3-0.1,0.3-0.2"/>
		<path id="_x31_24_2_" class="st17" d="M44.8,47.5C44.8,47.5,44.8,47.5,44.8,47.5c0.1,0,0.2,0,0.2,0c0,0,0.1,0,0.1-0.1
			c0,0,0,0,0.1-0.1c0,0,0,0.1-0.1,0.1c0,0,0,0-0.1,0.1C44.9,47.5,44.8,47.5,44.8,47.5z"/>
		<path id="_x31_23_2_" class="st16" d="M44.9,47.6c0.1,0,0.3-0.1,0.3-0.2"/>
		<path id="_x31_22_2_" class="st17" d="M44.9,47.6C44.9,47.6,45,47.6,44.9,47.6c0.1,0,0.1,0,0.2,0c0,0,0.1,0,0.1-0.1
			c0,0,0,0,0.1-0.1c0,0,0,0.1,0,0.1c0,0,0,0-0.1,0.1C45.1,47.6,45,47.6,44.9,47.6C45,47.6,44.9,47.6,44.9,47.6z"/>
		<path id="_x31_21_2_" class="st16" d="M44.3,47c0.1,0,0.3-0.1,0.3-0.2"/>
		<path id="_x31_20_2_" class="st17" d="M44.3,47c0,0,0.1,0,0.1,0c0,0,0.1,0,0.1-0.1c0,0,0.1,0,0.1-0.1c0,0,0-0.1,0.1-0.1
			c0,0,0,0.1-0.1,0.1c0,0,0,0.1-0.1,0.1c0,0-0.1,0-0.1,0.1C44.3,47,44.3,47,44.3,47z"/>
		<path id="_x31_19_2_" class="st16" d="M45.1,47.7c0.1,0,0.2-0.1,0.3-0.2"/>
		<path id="_x31_18_2_" class="st17" d="M45.1,47.7C45.1,47.7,45.1,47.7,45.1,47.7c0.1,0,0.1,0,0.2,0c0,0,0,0,0.1-0.1c0,0,0,0,0-0.1
			c0,0.1-0.1,0.1-0.1,0.1C45.2,47.7,45.2,47.7,45.1,47.7C45.1,47.7,45.1,47.7,45.1,47.7z"/>
		<path id="_x31_17_2_" inkscape:connector-curvature="0" class="st15" d="M45.4,46.8C45.4,46.8,45.3,46.7,45.4,46.8
			c0-0.1,0-0.1,0.1-0.1c0,0,0.1,0.1,0.1,0.1C45.5,46.8,45.4,46.8,45.4,46.8L45.4,46.8z"/>
		<path id="_x31_16_2_" inkscape:connector-curvature="0" class="st15" d="M45.4,46.7C45.3,46.7,45.3,46.6,45.4,46.7
			c0-0.1,0-0.1,0.1-0.1c0,0,0.1,0.1,0.1,0.1C45.4,46.7,45.4,46.7,45.4,46.7L45.4,46.7z"/>
		<path id="_x31_15_2_" inkscape:connector-curvature="0" class="st15" d="M45.3,46.6C45.2,46.6,45.2,46.5,45.3,46.6
			c0-0.1,0-0.1,0.1-0.1c0,0,0.1,0.1,0.1,0.1C45.4,46.6,45.3,46.6,45.3,46.6L45.3,46.6z"/>
		<path id="_x31_14_2_" inkscape:connector-curvature="0" class="st15" d="M45.2,46.5C45.2,46.5,45.1,46.4,45.2,46.5
			c0-0.1-0.1-0.1,0-0.1c0,0,0.1,0,0.1,0c0,0,0,0,0,0c0,0,0,0,0.1,0c0,0,0.1,0.1,0.1,0.1C45.3,46.5,45.2,46.5,45.2,46.5L45.2,46.5
			L45.2,46.5z"/>
		<path id="_x31_13_2_" inkscape:connector-curvature="0" class="st6" d="M35.4,36.3c0.6-0.2,1.6-1.3,1.7-1.5
			C35.8,35.1,35.2,36,35.4,36.3z"/>
		<path id="_x31_12_2_" inkscape:connector-curvature="0" class="st5" d="M35.4,36.3c-0.3-0.3,0.3-1.2,1.7-1.5
			C36.2,35.5,35.5,36.1,35.4,36.3L35.4,36.3z"/>
		<path id="_x31_11_2_" inkscape:connector-curvature="0" class="st6" d="M48,36.7c-0.1-0.6-1.1-1.6-1.3-1.7
			C46.9,36.3,47.7,36.9,48,36.7z"/>
		<path id="_x31_10_2_" inkscape:connector-curvature="0" class="st5" d="M48,36.7c-0.3,0.2-1.1-0.4-1.3-1.7
			C47.3,35.9,47.9,36.6,48,36.7z"/>
		<path id="_x31_09_2_" inkscape:connector-curvature="0" class="st18" d="M38,47.1l0.1,0.2"/>
		<path id="_x31_08_2_" inkscape:connector-curvature="0" class="st13" d="M39,46.4c1.9-2.5,4.8-4.4,6.9-5.5c-0.3,0-1,0.3-1.3,0.4
			c-2.1,1.2-4,2.9-6,4.8C38.7,46.3,38.8,46.4,39,46.4L39,46.4z"/>
		<path id="_x31_07_2_" class="st10" d="M38.8,46.4l0.1,0.1c2.1-2.4,5-4.7,7-5.6C43.2,42,40.9,44.3,38.8,46.4L38.8,46.4z"/>
		<path id="_x31_06_2_" class="st11" d="M38.8,46.4l0.1,0.1h0c0.5-0.6,1-1.1,1.5-1.6c0.5-0.5,1.1-1,1.7-1.5c0.6-0.5,1.2-0.9,1.8-1.3
			c0.3-0.2,0.6-0.4,0.9-0.6c0.3-0.2,0.7-0.4,1-0.5l0,0c-0.7,0.3-1.4,0.6-2,1c-0.6,0.4-1.2,0.9-1.8,1.3c-0.6,0.5-1.1,1-1.7,1.5
			C39.9,45.3,39.3,45.8,38.8,46.4z M38.8,46.4c0.5-0.5,1.1-1.1,1.6-1.6c0.5-0.5,1.1-1,1.7-1.5c0.6-0.5,1.2-0.9,1.8-1.3
			c0.6-0.4,1.3-0.8,2-1l0,0c-0.3,0.2-0.7,0.3-1,0.5c-0.3,0.2-0.6,0.4-0.9,0.6c-0.6,0.4-1.2,0.9-1.8,1.3c-0.6,0.5-1.1,1-1.7,1.5
			c-0.5,0.5-1.1,1.1-1.6,1.6l0,0l0,0L38.8,46.4z"/>
		<path id="_x31_05_2_" class="st15" d="M39.2,46.5c0-0.1-0.1-0.1-0.1-0.1c0,0,0,0,0,0c0,0,0,0,0,0c0,0,0,0-0.1,0.1
			c-0.1,0-0.3-0.2-0.3-0.3c-0.1-0.1-0.3-0.2-0.4-0.2l0,0c-0.2,0-0.4,0.1-0.6,0.4c-0.2,0.4-0.2,0.6,0,0.9c0,0,0,0,0,0
			c0,0-0.1,0-0.1,0c-0.1,0.1,0,0.2,0.2,0.3c0.4-0.3,0.7-0.5,1-0.9c0,0,0.1,0.1,0.2,0.1c0.1,0,0.1,0,0.2-0.1
			C39.2,46.7,39.2,46.6,39.2,46.5z M38.4,46.5c-0.1,0-0.1,0.1-0.1,0.1c-0.1,0-0.2,0.1-0.1,0.1c-0.1,0-0.2,0.1-0.1,0.1
			c-0.1,0-0.2,0.1-0.1,0.1c-0.1,0-0.2,0.1-0.1,0.1c0,0,0,0,0,0c-0.2-0.1-0.3-0.4-0.2-0.7c0-0.1,0.1-0.1,0.1-0.2l0,0
			c0.1-0.1,0.3-0.3,0.5-0.2c0.1,0.1,0.2,0.2,0.3,0.3C38.4,46.4,38.4,46.4,38.4,46.5z"/>
		<path id="_x31_04_2_" class="st16" d="M38.7,46.7c0-0.2-0.2-0.3-0.3-0.3"/>
		<path id="_x31_03_2_" class="st17" d="M38.7,46.7c0-0.1-0.1-0.1-0.1-0.2c0,0,0-0.1-0.1-0.1c0,0-0.1,0-0.1-0.1c0,0,0.1,0,0.1,0.1
			c0,0,0.1,0.1,0.1,0.1c0,0,0,0.1,0.1,0.1C38.7,46.6,38.7,46.7,38.7,46.7z"/>
		<path id="_x31_02_2_" class="st16" d="M38.6,46.8c-0.1,0-0.3-0.1-0.3-0.2"/>
		<path id="_x31_01_2_" class="st17" d="M38.6,46.8c0,0-0.1,0-0.1,0c0,0-0.1,0-0.1-0.1c0,0-0.1,0-0.1-0.1c0,0,0-0.1-0.1-0.1
			c0,0,0,0.1,0.1,0.1c0,0,0,0.1,0.1,0.1c0,0,0.1,0,0.1,0.1C38.5,46.8,38.5,46.8,38.6,46.8z"/>
		<path id="_x31_00_2_" class="st16" d="M38.4,47c-0.2,0-0.3-0.1-0.3-0.2"/>
		<path id="_x39_9_2_" class="st17" d="M38.4,47c0,0-0.1,0-0.1,0c0,0-0.1,0-0.1,0c-0.1,0-0.1-0.1-0.1-0.2c0,0,0,0.1,0.1,0.1
			c0,0,0,0.1,0.1,0.1C38.3,46.9,38.3,46.9,38.4,47C38.4,47,38.4,47,38.4,47z"/>
		<path id="_x39_8_2_" class="st16" d="M38.3,47.1c-0.1,0-0.3-0.1-0.3-0.2"/>
		<path id="_x39_7_2_" class="st17" d="M38.3,47.1C38.3,47.1,38.2,47.1,38.3,47.1c-0.1,0-0.2,0-0.2-0.1c0,0-0.1,0-0.1-0.1
			c0,0,0-0.1,0-0.1c0,0,0,0.1,0.1,0.1c0,0,0,0,0.1,0.1C38.2,47.1,38.2,47.1,38.3,47.1z"/>
		<path id="_x39_6_2_" class="st16" d="M38.2,47.2c-0.2,0-0.3-0.1-0.3-0.2"/>
		<path id="_x39_5_2_" class="st17" d="M38.2,47.2c-0.1,0-0.1,0-0.2-0.1c0,0-0.1,0-0.1-0.1c0,0,0-0.1,0-0.1c0,0,0,0.1,0.1,0.1
			c0,0,0,0,0.1,0.1C38,47.2,38.1,47.2,38.2,47.2C38.1,47.2,38.1,47.2,38.2,47.2z"/>
		<path id="_x39_4_2_" class="st16" d="M38,47.3c-0.1,0-0.3-0.1-0.3-0.2"/>
		<path id="_x39_3_2_" class="st17" d="M38,47.3C38,47.3,38,47.3,38,47.3c-0.1,0-0.1,0-0.2,0c0,0,0,0-0.1-0.1c0,0,0,0,0-0.1
			c0,0,0,0.1,0.1,0.1c0,0,0,0,0.1,0.1C37.9,47.3,37.9,47.3,38,47.3C38,47.3,38,47.3,38,47.3z"/>
		<path id="_x39_2_2_" class="st16" d="M38.7,46.7c-0.1,0-0.3-0.1-0.3-0.2"/>
		<path id="_x39_1_2_" class="st17" d="M38.7,46.7c0,0-0.1,0-0.1,0c0,0-0.1,0-0.1-0.1c0,0-0.1,0-0.1-0.1c0,0,0-0.1,0-0.1
			c0,0,0,0.1,0.1,0.1c0,0,0,0.1,0.1,0.1c0,0,0.1,0,0.1,0.1C38.6,46.7,38.7,46.7,38.7,46.7z"/>
		<path id="_x39_0_2_" class="st16" d="M37.9,47.4c-0.1,0-0.2-0.1-0.3-0.2"/>
		<path id="_x38_9_2_" class="st17" d="M37.9,47.4C37.8,47.4,37.8,47.4,37.9,47.4c-0.1,0-0.1,0-0.2,0c0,0-0.1-0.1-0.1-0.1
			c0,0,0,0,0,0.1c0,0,0,0,0.1,0.1C37.7,47.4,37.8,47.4,37.9,47.4C37.8,47.4,37.8,47.4,37.9,47.4z"/>
		<path id="_x38_8_2_" inkscape:connector-curvature="0" class="st15" d="M37.5,46.6C37.6,46.5,37.6,46.5,37.5,46.6
			c0-0.1,0-0.1,0-0.1c0,0-0.1,0.1-0.1,0.1C37.5,46.6,37.5,46.6,37.5,46.6L37.5,46.6L37.5,46.6z"/>
		<path id="_x38_7_2_" inkscape:connector-curvature="0" class="st15" d="M37.6,46.5C37.6,46.5,37.6,46.4,37.6,46.5
			c0-0.1,0-0.1,0-0.1c0,0-0.1,0.1-0.1,0.1C37.5,46.5,37.5,46.5,37.6,46.5L37.6,46.5L37.6,46.5z"/>
		<path id="_x38_6_2_" inkscape:connector-curvature="0" class="st15" d="M37.6,46.4C37.7,46.4,37.7,46.3,37.6,46.4
			c0-0.1,0-0.1,0-0.1c0,0-0.1,0.1-0.1,0.1C37.5,46.4,37.6,46.4,37.6,46.4L37.6,46.4L37.6,46.4z"/>
		<path id="_x38_5_2_" inkscape:connector-curvature="0" class="st15" d="M37.7,46.3C37.8,46.3,37.8,46.2,37.7,46.3
			c0-0.1,0-0.1,0-0.1c0,0-0.1,0.1-0.1,0.1C37.6,46.3,37.7,46.3,37.7,46.3L37.7,46.3L37.7,46.3z"/>
		<path id="_x38_4_2_" inkscape:connector-curvature="0" class="st15" d="M37.8,46.2C37.8,46.2,37.9,46.2,37.8,46.2
			c0.1-0.1,0.1-0.1,0.1-0.1c0,0-0.1,0-0.1,0c0,0,0,0,0,0c0,0,0,0-0.1,0c0,0-0.1,0.1-0.1,0.1C37.7,46.2,37.8,46.2,37.8,46.2
			L37.8,46.2z"/>
		<path id="_x38_3_2_" class="st19" d="M38.7,37.6"/>
		<path id="_x38_2_2_" inkscape:connector-curvature="0" class="st20" d="M39.2,43c0,0-0.5,0.1-0.7-0.7c-0.2-0.8,0.5-0.9,0.5-0.9
			s0.7-0.1,1.1-0.1l0.2,1.6L39.2,43z"/>
		<path id="_x38_1_2_" class="st19" d="M39,41.5"/>
		
			<radialGradient id="_x38_0_1_" cx="156.6417" cy="-103.025" r="1.4276" gradientTransform="matrix(1 0 0 -1 -117.8999 -60.8662)" gradientUnits="userSpaceOnUse">
			<stop  offset="0.2165" style="stop-color:#9E7B24;stop-opacity:0"/>
			<stop  offset="1" style="stop-color:#9E7B24"/>
		</radialGradient>
		<path id="_x38_0_2_" inkscape:connector-curvature="0" class="st21" d="M39.2,43c0,0-0.5,0.1-0.7-0.7c-0.2-0.8,0.5-0.9,0.5-0.9
			s0.7-0.1,1.1-0.1l0.2,1.6L39.2,43z"/>
		<path id="_x37_9_2_" class="st20" d="M39.2,42.8c0,0-0.3,0.1-0.4-0.5c-0.1-0.4,0.2-0.4,0.2-0.4l0.8,0.1l0,0.7L39.2,42.8z"/>
		
			<radialGradient id="_x37_8_1_" cx="156.9993" cy="-103.4331" r="0.9421" gradientTransform="matrix(1 0 0 -1 -117.8999 -60.8662)" gradientUnits="userSpaceOnUse">
			<stop  offset="0.2165" style="stop-color:#9E7B24;stop-opacity:0"/>
			<stop  offset="1" style="stop-color:#9E7B24"/>
		</radialGradient>
		<path id="_x37_8_2_" class="st22" d="M39.2,42.8c0,0-0.3,0.1-0.4-0.5c-0.1-0.4,0.2-0.4,0.2-0.4l0.8,0.1l0,0.7L39.2,42.8z"/>
		<path id="_x37_7_2_" class="st20" d="M39,41.9c0,0,0.5,0,0.8-0.1l0.1,0.5l-0.6,0C39.3,42.3,39.2,41.9,39,41.9z"/>
		
			<radialGradient id="_x37_6_1_" cx="157.2197" cy="-103.0573" r="0.8444" gradientTransform="matrix(1 0 0 -1 -117.8999 -60.8662)" gradientUnits="userSpaceOnUse">
			<stop  offset="0.2165" style="stop-color:#9E7B24;stop-opacity:0"/>
			<stop  offset="1" style="stop-color:#9E7B24"/>
		</radialGradient>
		<path id="_x37_6_2_" class="st23" d="M39,41.9c0,0,0.5,0,0.8-0.1l0.1,0.5l-0.6,0C39.3,42.3,39.2,41.9,39,41.9z"/>
		<path id="_x37_5_2_" class="st20" d="M38.9,41.5c0,0,0.7-0.2,0.7,0.6c0,0.2-0.1,0.6-0.4,0.7l1.2-0.1l-0.1-1.3l-0.4,0
			C39.9,41.4,39.1,41.4,38.9,41.5z"/>
		
			<radialGradient id="_x37_4_1_" cx="157.5891" cy="-102.9204" r="1.4984" gradientTransform="matrix(1 0 0 -1 -117.8999 -60.8662)" gradientUnits="userSpaceOnUse">
			<stop  offset="0.2165" style="stop-color:#9E7B24;stop-opacity:0"/>
			<stop  offset="1" style="stop-color:#9E7B24"/>
		</radialGradient>
		<path id="_x37_4_2_" class="st24" d="M38.9,41.5c0,0,0.7-0.2,0.7,0.6c0,0.2-0.1,0.6-0.4,0.7l1.2-0.1l-0.1-1.3l-0.4,0
			C39.9,41.4,39.1,41.4,38.9,41.5z"/>
		<path id="_x37_3_2_" inkscape:connector-curvature="0" class="st20" d="M39.2,43c0,0,4.5-0.3,4.9-0.3c1.4-0.7,0-3.7-1.2-5.3
			c0.1-0.4-2.6-1.2-3.8-1.1c-0.2,0-0.3,0-0.4,0c-0.7,0.1-0.7,0.9-0.4,1.5c0.3,0.5,2.6,4.8,1,5.2L39.2,43z"/>
		
			<linearGradient id="_x37_2_1_" gradientUnits="userSpaceOnUse" x1="158.9289" y1="-98.7858" x2="158.7951" y2="-96.4365" gradientTransform="matrix(1 0 0 -1 -117.8999 -60.8662)">
			<stop  offset="0.2165" style="stop-color:#9E7B24;stop-opacity:0"/>
			<stop  offset="1" style="stop-color:#9E7B24"/>
		</linearGradient>
		<path id="_x37_2_2_" class="st25" d="M44,39.1c-0.3-0.6-0.7-1.2-1-1.7c0.1-0.4-2.6-1.2-3.8-1.1c-0.2,0-0.3,0-0.4,0
			c-0.7,0.1-0.7,0.9-0.4,1.5c0.1,0.2,0.4,0.7,0.7,1.4"/>
		<path id="_x37_1_2_" class="st26" d="M44,39.1c-0.1-0.3-0.3-0.6-0.5-0.9c-0.2-0.3-0.3-0.6-0.5-0.8l0,0l0,0c0,0,0,0,0-0.1
			c0,0,0,0,0-0.1c0,0-0.1-0.1-0.1-0.1c-0.1,0-0.1-0.1-0.2-0.1c-0.1-0.1-0.3-0.1-0.4-0.2c-0.3-0.1-0.6-0.2-0.9-0.3
			c-0.3-0.1-0.6-0.2-1-0.2c-0.2,0-0.3-0.1-0.5-0.1c-0.2,0-0.3,0-0.5,0c-0.1,0-0.2,0-0.2,0l-0.2,0l-0.1,0c0,0-0.1,0-0.1,0
			c-0.1,0-0.2,0.1-0.2,0.1c-0.1,0.1-0.1,0.1-0.1,0.2c0,0.1-0.1,0.2-0.1,0.2c0,0.2,0,0.3,0,0.5c0,0.2,0.1,0.3,0.2,0.5
			c0.1,0.1,0.2,0.3,0.2,0.4c0.1,0.3,0.3,0.6,0.4,0.9c-0.1-0.3-0.3-0.6-0.4-0.9l-0.2-0.4c-0.1-0.1-0.1-0.3-0.2-0.5c0-0.2,0-0.3,0-0.5
			c0-0.1,0-0.2,0.1-0.2c0-0.1,0.1-0.1,0.1-0.2c0.1-0.1,0.1-0.1,0.2-0.1c0,0,0.1,0,0.1,0l0.1,0l0.2,0c0.1,0,0.2,0,0.2,0
			c0.2,0,0.3,0,0.5,0c0.2,0,0.3,0,0.5,0.1c0.3,0.1,0.6,0.1,1,0.2c0.3,0.1,0.6,0.2,0.9,0.3c0.2,0.1,0.3,0.1,0.4,0.2
			c0.1,0,0.1,0.1,0.2,0.1c0,0,0.1,0.1,0.1,0.1c0,0,0,0,0,0.1c0,0,0,0,0,0.1l0,0c0.2,0.3,0.4,0.6,0.5,0.8
			C43.7,38.5,43.8,38.8,44,39.1z"/>
		
			<linearGradient id="_x37_0_1_" gradientUnits="userSpaceOnUse" x1="159.725" y1="-102.0224" x2="159.9295" y2="-104.6064" gradientTransform="matrix(1 0 0 -1 -117.8999 -60.8662)">
			<stop  offset="0.2165" style="stop-color:#9E7B24;stop-opacity:0"/>
			<stop  offset="1" style="stop-color:#9E7B24"/>
		</linearGradient>
		<path id="_x37_0_2_" class="st27" d="M39.4,40.1c0.5,1.3,0.7,2.6-0.1,2.8l-0.1,0c0,0,4.5-0.3,4.9-0.3c0.7-0.4,0.7-1.5,0.3-2.6"/>
		<path id="_x36_9_2_" class="st26" d="M39.4,40.1c0.1,0.3,0.2,0.5,0.3,0.8c0.1,0.3,0.1,0.5,0.2,0.8c0,0.1,0,0.3,0,0.4
			c0,0.1,0,0.3-0.1,0.4c0,0.1-0.1,0.2-0.2,0.3c-0.1,0-0.1,0.1-0.2,0.1c0,0-0.1,0-0.1,0l-0.1,0l0,0l1.2-0.1l1.2-0.1
			c0.4,0,0.8,0,1.2-0.1c0.2,0,0.4,0,0.6,0c0.1,0,0.2,0,0.3,0c0.1,0,0.2,0,0.3,0l0,0c0.1-0.1,0.2-0.1,0.3-0.2
			c0.1-0.1,0.1-0.2,0.2-0.3c0.1-0.2,0.1-0.5,0.1-0.7c0-0.2,0-0.5-0.1-0.7c-0.1-0.2-0.1-0.5-0.2-0.7c0.1,0.2,0.1,0.4,0.2,0.7
			c0.1,0.2,0.1,0.5,0.1,0.7c0,0.1,0,0.2,0,0.4c0,0.1,0,0.2-0.1,0.3c0,0.1-0.1,0.2-0.2,0.3c-0.1,0.1-0.2,0.2-0.3,0.2l0,0l0,0
			c-0.1,0-0.2,0-0.3,0c-0.1,0-0.2,0-0.3,0c-0.2,0-0.4,0-0.6,0c-0.4,0-0.8,0-1.2,0.1l-1.2,0.1L39.2,43l0,0l0.1,0c0,0,0.1,0,0.1,0
			c0.1,0,0.1-0.1,0.2-0.1c0.1-0.1,0.2-0.2,0.2-0.3c0-0.1,0.1-0.3,0.1-0.4c0-0.1,0-0.3,0-0.4c0-0.3-0.1-0.5-0.2-0.8
			C39.6,40.7,39.5,40.4,39.4,40.1z"/>
		<path id="_x36_8_2_" inkscape:connector-curvature="0" class="st28" d="M41,39.8C41,39.8,41,39.8,41,39.8C41,39.8,41,39.8,41,39.8
			C41,39.8,41.1,39.8,41,39.8c0.1,0.1,0.1,0.1,0.1,0.1c0,0,0,0,0,0c0,0,0,0,0,0c0,0,0,0,0,0c0,0,0,0,0,0
			C41.1,39.9,41.1,39.9,41,39.8C41.1,39.9,41.1,39.9,41,39.8C41,39.9,41,39.9,41,39.8C41,39.9,41,39.9,41,39.8
			C41,39.9,41,39.9,41,39.8c0,0.1-0.1,0.1-0.1,0.1c0,0,0,0,0,0c0,0,0,0,0,0c0,0,0,0,0,0c0,0,0,0,0,0c0,0,0,0,0,0c0,0,0,0,0,0
			c0,0,0,0,0,0C40.9,39.8,40.9,39.8,41,39.8C40.9,39.8,40.9,39.8,41,39.8C40.9,39.8,40.9,39.8,41,39.8l-0.2-0.3c0,0,0,0,0,0
			c0,0,0,0,0,0c0,0,0,0,0,0c0,0,0,0,0,0c0,0,0,0,0,0c0,0,0,0,0,0c0,0,0,0,0,0c0,0,0,0,0,0c0,0,0,0,0,0c0,0,0,0,0,0c0,0,0,0,0.1,0
			c0,0,0,0,0.1,0c0,0,0,0,0,0c0,0,0,0,0,0L41,39.8z"/>
		<path id="_x36_7_2_" inkscape:connector-curvature="0" class="st28" d="M41.1,39.4C41.1,39.4,41.1,39.4,41.1,39.4
			C41.1,39.4,41.1,39.4,41.1,39.4c0.1,0,0.1,0,0.1,0c0,0,0,0,0,0c0,0,0,0,0,0c0,0,0,0,0,0c0,0,0,0,0,0c0,0,0,0,0,0c0,0,0,0,0,0l0,0
			c0,0,0,0,0,0c0,0,0,0,0,0c0,0,0,0,0,0c0,0,0,0,0,0c0,0,0,0,0,0c0,0,0,0,0,0c0,0,0,0,0,0c0,0,0,0,0,0c0,0,0,0,0,0c0,0,0,0,0,0
			C41.2,39.5,41.2,39.5,41.1,39.4C41.1,39.5,41.1,39.5,41.1,39.4c0.1,0.1,0.1,0.1,0.1,0.1c0,0,0,0,0,0c0,0,0,0,0,0c0,0,0,0,0,0
			s0,0,0,0c0,0,0,0,0,0c0,0,0,0,0,0c0,0,0,0,0,0c0,0,0,0,0.1,0c0,0,0,0,0.1,0c0,0,0,0,0.1,0c0,0,0,0,0,0.1c0,0,0,0.1,0,0.1
			c0,0,0,0,0,0.1c0,0,0,0,0,0c0,0,0,0-0.1,0c0,0,0,0,0,0c0,0,0,0,0,0c0,0,0,0,0,0c0,0,0,0,0,0c0,0,0,0,0,0c0,0,0,0,0,0c0,0,0,0,0,0
			c0,0,0,0,0,0c0,0,0,0,0,0c0,0,0,0,0,0c0,0,0,0,0,0c0,0,0,0,0,0c0,0,0,0,0,0c0,0,0,0,0,0c0,0,0,0,0,0c0,0,0,0,0,0c0,0,0,0,0,0
			c0,0,0,0,0,0c0,0,0.1,0,0.1,0c0,0,0-0.1,0-0.1c0,0,0-0.1-0.1-0.1c0,0-0.1,0-0.1,0c0,0,0,0,0,0c0,0,0,0,0,0c0,0,0,0,0,0
			c0,0,0,0,0,0c0,0,0-0.1,0-0.1C41.1,39.5,41.1,39.4,41.1,39.4C41,39.4,41,39.4,41.1,39.4C41.1,39.4,41.1,39.4,41.1,39.4L41.1,39.4z
			"/>
		<path id="_x36_6_2_" inkscape:connector-curvature="0" class="st28" d="M41.7,39.5C41.6,39.5,41.6,39.4,41.7,39.5
			C41.6,39.4,41.6,39.4,41.7,39.5C41.6,39.4,41.6,39.4,41.7,39.5C41.6,39.4,41.6,39.4,41.7,39.5c-0.1-0.1-0.1-0.1-0.1-0.1
			c0,0,0,0,0,0c0,0,0,0,0,0c0,0,0,0,0,0c0,0,0,0,0,0c0,0,0,0,0,0c0,0,0,0,0,0c0,0,0,0,0,0c0,0,0,0,0.1,0c0,0,0,0,0.1,0
			c0,0,0.1,0,0.1,0c0,0,0.1,0,0.1,0c0,0,0.1,0,0.1,0.1c0,0,0,0.1,0.1,0.1c0,0,0,0.1,0,0.1c0,0,0,0.1,0,0.1c0,0,0,0-0.1,0
			c0,0-0.1,0-0.1,0c0,0,0,0-0.1,0c0,0,0,0-0.1,0c0,0,0,0,0,0c0,0,0,0,0,0c0,0,0,0,0,0c0,0,0,0,0,0c0,0,0,0,0,0c0,0,0,0,0,0
			c0,0,0,0,0,0c0,0,0,0,0,0c0,0,0,0,0,0c0,0,0,0,0,0c0,0,0,0,0,0c0,0,0,0,0,0L41.7,39.5z M41.8,39.7C41.8,39.7,41.8,39.7,41.8,39.7
			C41.9,39.8,41.9,39.8,41.8,39.7C41.9,39.8,41.9,39.8,41.8,39.7c0.1,0.1,0.1,0.1,0.1,0.1c0,0,0,0,0,0c0,0,0,0,0,0c0,0,0,0,0-0.1
			c0,0,0-0.1,0-0.1c0,0,0-0.1,0-0.1c0,0,0,0-0.1-0.1c0,0,0,0-0.1,0s-0.1,0-0.1,0c0,0,0,0,0,0c0,0,0,0,0,0L41.8,39.7z"/>
		<path id="_x36_5_2_" inkscape:connector-curvature="0" class="st28" d="M42.4,39.3L42.4,39.3C42.4,39.3,42.4,39.3,42.4,39.3
			C42.4,39.3,42.4,39.3,42.4,39.3C42.4,39.4,42.4,39.4,42.4,39.3L42.4,39.3C42.4,39.4,42.4,39.4,42.4,39.3c0.1,0.1,0.1,0.1,0.1,0.1
			c0,0,0,0,0,0c0,0,0,0,0,0s0,0,0,0c0,0,0,0,0,0C42.4,39.4,42.4,39.4,42.4,39.3C42.4,39.4,42.4,39.4,42.4,39.3
			C42.4,39.4,42.4,39.4,42.4,39.3C42.3,39.4,42.3,39.4,42.4,39.3l-0.1,0c0,0,0,0,0,0c0,0,0,0,0,0c0,0,0,0,0,0c0,0,0,0,0,0l0,0.1
			c0,0,0,0,0,0l0,0c0,0,0,0,0,0c0,0,0,0,0,0c0,0,0,0,0,0c0,0,0,0,0,0c0,0,0,0,0,0c0,0,0,0,0,0c0,0,0,0,0,0c0,0,0,0,0,0c0,0,0,0,0,0
			c0,0,0,0,0,0c0,0,0,0,0,0c0,0,0,0,0,0c0,0,0,0,0,0c0,0,0,0,0,0c0,0,0,0,0,0c0,0,0,0,0,0c0,0,0,0,0,0c0,0,0,0,0,0c0,0,0,0,0,0
			c0,0,0,0,0,0c0,0,0,0,0,0c0,0,0,0,0,0c0,0,0,0,0,0c0,0,0,0,0,0c0,0,0,0,0,0l0,0.1c0,0,0,0,0,0c0,0,0,0,0,0c0,0,0,0,0,0
			c0,0,0,0,0,0c0,0,0,0,0,0c0,0,0,0,0,0c0,0,0,0,0,0c0,0,0,0,0,0c0,0,0,0,0,0c0,0,0,0,0,0c0,0,0,0,0,0c0,0,0,0,0,0s0,0,0,0
			c0,0,0,0,0,0c0,0,0,0,0,0.1c0,0,0,0,0,0.1c0,0,0,0,0,0c0,0,0,0,0,0c0,0,0,0,0,0c0,0,0,0,0,0l-0.2,0c0,0,0,0,0,0c0,0,0,0,0,0
			c0,0,0,0,0,0c0,0,0,0,0,0c0,0,0,0,0,0c0,0,0,0,0,0c0,0,0,0,0,0c0,0,0,0,0,0c0,0,0,0,0,0c0,0,0,0,0,0l-0.1-0.3c0,0,0,0,0,0
			c0,0,0,0,0,0c0,0,0,0,0,0c0,0,0,0,0,0c0,0,0,0,0,0c0,0,0,0,0,0c0,0,0,0,0,0c0,0,0,0,0,0c0,0,0,0,0,0c0,0,0,0,0,0c0,0,0,0,0,0
			c0,0,0,0,0,0L42.4,39.3z"/>
		<path id="_x36_4_2_" inkscape:connector-curvature="0" class="st28" d="M41.3,41.4C41.2,41.4,41.2,41.4,41.3,41.4
			C41.2,41.3,41.2,41.3,41.3,41.4C41.2,41.3,41.2,41.3,41.3,41.4C41.2,41.3,41.2,41.3,41.3,41.4C41.2,41.3,41.2,41.3,41.3,41.4
			c-0.1-0.1-0.1-0.1-0.1-0.1c0,0,0,0,0,0c0,0,0,0,0,0c0,0,0,0,0,0c0,0,0,0,0,0l0,0c0,0,0,0,0,0c0,0,0,0,0.1,0c0,0,0,0,0.1,0
			c0,0,0.1,0,0.1,0c0,0,0.1,0,0.1,0c0,0,0.1,0,0.1,0.1c0,0,0,0.1,0,0.1c0,0,0,0.1,0,0.1c0,0,0,0.1,0,0.1c0,0,0,0-0.1,0s-0.1,0-0.1,0
			c0,0,0,0-0.1,0c0,0,0,0-0.1,0c0,0,0,0,0,0c0,0,0,0,0,0c0,0,0,0,0,0c0,0,0,0,0,0c0,0,0,0,0,0c0,0,0,0,0,0c0,0,0,0,0,0c0,0,0,0,0,0
			c0,0,0,0,0,0c0,0,0,0,0,0c0,0,0,0,0,0c0,0,0,0,0,0L41.3,41.4z M41.4,41.6C41.4,41.6,41.4,41.6,41.4,41.6
			C41.4,41.7,41.4,41.7,41.4,41.6C41.4,41.7,41.4,41.7,41.4,41.6c0.1,0.1,0.1,0.1,0.1,0.1c0,0,0,0,0,0c0,0,0,0,0,0c0,0,0,0,0-0.1
			c0,0,0-0.1,0-0.1c0,0,0-0.1,0-0.1c0,0,0,0,0-0.1s0,0-0.1,0c0,0-0.1,0-0.1,0c0,0,0,0,0,0c0,0,0,0,0,0L41.4,41.6z"/>
		<path id="_x36_3_2_" inkscape:connector-curvature="0" class="st28" d="M42,41.2C42,41.2,42,41.2,42,41.2C42,41.2,42,41.2,42,41.2
			C42,41.2,42,41.2,42,41.2C42,41.2,42,41.3,42,41.2L42,41.2C42,41.3,42,41.3,42,41.2c0,0.1,0,0.1,0,0.1c0,0,0,0,0,0c0,0,0,0,0,0
			c0,0,0,0,0,0c0,0,0,0,0,0C42,41.3,42,41.3,42,41.2C42,41.3,42,41.3,42,41.2C42,41.3,42,41.3,42,41.2C42,41.3,41.9,41.3,42,41.2
			l-0.1,0.1c0,0,0,0,0,0c0,0,0,0,0,0c0,0,0,0,0,0c0,0,0,0,0,0l0,0.1c0,0,0,0,0,0l0,0c0,0,0,0,0,0c0,0,0,0,0,0c0,0,0,0,0,0
			c0,0,0,0,0,0c0,0,0,0,0,0c0,0,0,0,0,0c0,0,0,0,0,0c0,0,0,0,0,0c0,0,0,0,0,0c0,0,0,0,0,0c0,0,0,0,0,0c0,0,0,0,0,0c0,0,0,0,0,0
			c0,0,0,0,0,0c0,0,0,0,0,0c0,0,0,0,0,0c0,0,0,0,0,0s0,0,0,0c0,0,0,0,0,0c0,0,0,0,0,0c0,0,0,0,0,0c0,0,0,0,0,0c0,0,0,0,0,0
			c0,0,0,0,0,0c0,0,0,0,0,0l0,0.1c0,0,0,0,0,0c0,0,0,0,0,0c0,0,0,0,0,0c0,0,0,0,0,0c0,0,0,0,0,0c0,0,0,0,0,0c0,0,0,0,0,0
			c0,0,0,0,0,0c0,0,0,0,0,0c0,0,0,0,0,0c0,0,0,0,0,0c0,0,0,0,0,0c0,0,0,0,0,0c0,0,0,0,0,0c0,0,0,0,0,0.1c0,0,0,0,0,0.1c0,0,0,0,0,0
			c0,0,0,0,0,0c0,0,0,0,0,0c0,0,0,0,0,0l-0.3,0c0,0,0,0,0,0c0,0,0,0,0,0c0,0,0,0,0,0c0,0,0,0,0,0c0,0,0,0,0,0c0,0,0,0,0,0
			c0,0,0,0,0,0c0,0,0,0,0,0c0,0,0,0,0,0c0,0,0,0,0,0l-0.1-0.3c0,0,0,0,0,0c0,0,0,0,0,0c0,0,0,0,0,0c0,0,0,0,0,0c0,0,0,0,0,0
			c0,0,0,0,0,0c0,0,0,0,0,0c0,0,0,0,0,0c0,0,0,0,0,0c0,0,0,0,0,0c0,0,0,0,0,0c0,0,0,0,0,0L42,41.2z"/>
		<path id="_x36_2_2_" inkscape:connector-curvature="0" class="st28" d="M42.6,41.6C42.6,41.6,42.6,41.6,42.6,41.6
			C42.6,41.6,42.6,41.6,42.6,41.6C42.6,41.6,42.6,41.6,42.6,41.6C42.6,41.6,42.6,41.6,42.6,41.6c0.1,0.1,0.1,0.1,0.1,0.1
			c0,0,0,0,0,0c0,0,0,0,0,0c0,0,0,0,0,0C42.7,41.7,42.6,41.7,42.6,41.6C42.6,41.7,42.6,41.7,42.6,41.6
			C42.6,41.7,42.6,41.7,42.6,41.6C42.6,41.7,42.5,41.7,42.6,41.6C42.5,41.7,42.5,41.7,42.6,41.6c-0.1,0.1-0.1,0.1-0.1,0.1
			c0,0,0,0,0,0c0,0,0,0,0,0c0,0,0,0,0,0c0,0,0,0,0,0c0,0,0,0,0,0c0,0,0,0,0,0c0,0,0,0,0,0C42.5,41.6,42.5,41.6,42.6,41.6
			C42.5,41.6,42.5,41.6,42.6,41.6C42.5,41.6,42.5,41.6,42.6,41.6l-0.1-0.3c0,0,0,0,0,0c0,0,0,0,0,0c0,0,0,0,0,0c0,0,0,0,0,0
			c0,0,0,0,0,0c0,0,0,0,0,0c0,0,0,0,0,0c0,0,0,0,0,0c0,0,0,0,0,0c0,0,0,0,0,0c0,0,0,0,0.1,0c0,0,0,0,0.1,0c0,0,0,0,0,0c0,0,0,0,0,0
			L42.6,41.6z"/>
		<path id="_x36_1_2_" inkscape:connector-curvature="0" class="st28" d="M42.9,41.3C42.9,41.3,42.9,41.2,42.9,41.3
			C42.8,41.2,42.8,41.2,42.9,41.3c-0.1-0.1-0.1-0.1-0.1-0.1c0,0,0,0,0,0.1c0,0,0,0,0,0C42.8,41.3,42.8,41.3,42.9,41.3
			C42.8,41.3,42.8,41.3,42.9,41.3C42.8,41.4,42.9,41.4,42.9,41.3L42.9,41.3L42.9,41.3C42.9,41.4,42.9,41.3,42.9,41.3
			C42.9,41.3,42.9,41.3,42.9,41.3L42.9,41.3L42.9,41.3z M43,41.5C43,41.5,42.9,41.5,43,41.5C42.9,41.5,42.9,41.5,43,41.5
			C42.9,41.5,42.9,41.5,43,41.5c-0.1-0.1-0.1-0.1-0.1-0.1c0,0,0,0,0,0c0,0,0,0,0,0c0,0,0,0,0,0.1c0,0,0,0.1,0,0.1
			C42.8,41.6,42.9,41.6,43,41.5C42.9,41.6,42.9,41.6,43,41.5C43,41.6,43,41.6,43,41.5z M43,41.5C43,41.5,43,41.6,43,41.5
			c0,0.1,0,0.1,0,0.1c0,0,0,0,0,0c0,0,0,0-0.1,0c0,0,0,0-0.1,0c0,0,0,0-0.1,0c0,0,0,0,0,0c0,0,0,0,0-0.1c0,0,0-0.1,0-0.1
			c0,0,0,0,0.1,0c0,0,0,0-0.1,0c0,0,0,0,0-0.1c0,0,0,0,0-0.1c0,0,0,0,0,0c0,0,0,0,0,0c0,0,0,0,0.1,0c0,0,0,0,0.1,0c0,0,0,0,0,0
			c0,0,0,0,0,0c0,0,0,0,0,0.1c0,0,0,0,0,0c0,0,0,0,0,0c0,0,0,0,0,0c0,0,0,0,0,0c0,0,0,0,0,0C43,41.4,43,41.4,43,41.5
			C43,41.4,43,41.5,43,41.5C43,41.5,43,41.5,43,41.5L43,41.5z"/>
		<path id="_x36_0_2_" inkscape:connector-curvature="0" class="st28" d="M43.3,41.6C43.3,41.6,43.3,41.6,43.3,41.6
			C43.4,41.5,43.4,41.5,43.3,41.6C43.4,41.5,43.4,41.5,43.3,41.6C43.4,41.5,43.4,41.5,43.3,41.6C43.4,41.5,43.4,41.5,43.3,41.6
			C43.4,41.5,43.4,41.5,43.3,41.6C43.4,41.5,43.4,41.5,43.3,41.6C43.4,41.6,43.4,41.6,43.3,41.6C43.4,41.6,43.4,41.6,43.3,41.6
			C43.4,41.6,43.4,41.6,43.3,41.6C43.3,41.6,43.3,41.6,43.3,41.6C43.3,41.6,43.3,41.6,43.3,41.6C43.2,41.6,43.2,41.6,43.3,41.6
			c-0.1,0.1-0.1,0.1-0.1,0.1c0,0,0,0,0,0c0,0,0,0,0,0c0,0,0,0,0,0c0,0,0,0,0,0c0,0,0,0,0,0c0,0,0,0,0,0c0,0,0,0,0-0.1c0,0,0,0,0,0
			c0,0,0,0,0,0c0,0,0,0,0,0c0,0,0,0,0,0c0,0,0,0,0,0c0,0,0,0,0,0c0,0,0,0,0,0c0,0,0-0.1,0-0.1c0,0,0,0-0.1,0c0,0,0,0,0,0
			c0,0,0,0,0,0c0,0,0,0,0,0c0,0,0,0,0,0c0,0,0,0,0,0c0,0,0,0,0,0c0,0,0,0,0,0c0,0,0,0,0,0c0,0,0,0,0,0c0,0,0,0,0,0c0,0,0,0,0,0
			c0,0,0,0,0,0c0,0,0,0,0,0c0,0,0,0,0,0c0,0,0,0,0,0c0,0,0,0,0,0c0,0,0,0,0,0c0,0,0,0,0,0c0,0,0,0,0,0c0,0,0,0,0.1,0c0,0,0,0,0.1,0
			c0,0,0,0,0.1,0c0,0,0,0,0,0c0,0,0,0,0,0.1c0,0,0,0.1,0,0.1c0,0,0,0,0,0.1c0,0,0,0,0,0C43.3,41.5,43.2,41.5,43.3,41.6
			C43.2,41.5,43.2,41.5,43.3,41.6c-0.1-0.1-0.1,0-0.1,0c0,0,0,0,0,0c0,0,0,0,0,0C43.2,41.6,43.2,41.6,43.3,41.6
			C43.2,41.6,43.2,41.6,43.3,41.6C43.3,41.6,43.3,41.6,43.3,41.6C43.3,41.6,43.3,41.6,43.3,41.6C43.3,41.6,43.3,41.6,43.3,41.6
			L43.3,41.6z"/>
		<path id="_x35_9_2_" inkscape:connector-curvature="0" class="st28" d="M43.7,41.5C43.7,41.5,43.7,41.5,43.7,41.5
			C43.7,41.6,43.7,41.6,43.7,41.5C43.7,41.6,43.7,41.6,43.7,41.5C43.7,41.6,43.7,41.6,43.7,41.5c0.1,0.1,0.1,0.1,0.1,0.1
			c0,0,0,0,0,0c0,0,0,0,0,0c0,0,0,0,0,0C43.8,41.6,43.7,41.6,43.7,41.5C43.7,41.6,43.7,41.6,43.7,41.5
			C43.7,41.6,43.7,41.6,43.7,41.5C43.6,41.6,43.6,41.6,43.7,41.5C43.6,41.6,43.6,41.6,43.7,41.5c-0.1,0.1-0.1,0.1-0.1,0.1
			c0,0,0,0,0,0c0,0,0,0,0,0c0,0,0,0,0,0c0,0,0,0,0,0c0,0,0,0,0,0c0,0,0,0,0,0c0,0,0,0,0,0c0,0,0,0,0,0
			C43.6,41.6,43.6,41.6,43.7,41.5C43.6,41.5,43.6,41.5,43.7,41.5l-0.1-0.3c0,0,0,0,0,0c0,0,0,0,0,0c0,0,0,0,0,0c0,0,0,0,0,0
			c0,0,0,0,0,0c0,0,0,0,0,0c0,0,0,0,0,0c0,0,0,0,0,0c0,0,0,0,0,0c0,0,0,0,0,0c0,0,0,0,0.1,0c0,0,0,0,0.1,0c0,0,0,0,0,0c0,0,0,0,0,0
			L43.7,41.5z"/>
		<path id="_x35_8_2_" inkscape:connector-curvature="0" class="st28" d="M39.7,38.6C39.7,38.6,39.7,38.6,39.7,38.6
			C39.7,38.6,39.7,38.6,39.7,38.6C39.7,38.6,39.6,38.6,39.7,38.6C39.6,38.6,39.6,38.6,39.7,38.6c-0.1-0.1-0.1-0.1-0.1-0.1
			c0,0,0,0,0,0c0,0,0,0,0,0c0,0,0,0,0,0c0,0,0,0,0.1,0c0,0,0,0,0.1,0c0,0,0,0,0,0c0,0,0,0,0,0c0,0,0,0,0,0c0,0,0,0,0,0c0,0,0,0,0,0
			c0,0,0,0,0,0c0,0,0,0,0,0s0,0,0,0C39.8,38.5,39.8,38.6,39.7,38.6C39.8,38.6,39.8,38.6,39.7,38.6C39.8,38.6,39.8,38.6,39.7,38.6
			C39.8,38.6,39.8,38.6,39.7,38.6l0.2,0.2c0,0,0,0,0,0c0,0,0,0,0,0c0,0,0,0,0,0c0,0,0,0,0,0c0,0,0,0,0,0c0,0,0,0,0,0c0,0,0,0,0,0
			c0,0,0,0,0,0c0,0,0,0,0,0c0,0,0,0,0,0c0,0,0,0,0,0c0,0,0,0,0,0c0,0,0,0,0,0c0,0,0,0,0,0c0,0,0,0,0,0.1c0,0,0,0,0,0.1c0,0,0,0,0,0
			c0,0,0,0,0,0c0,0,0,0,0,0c0,0,0,0,0,0l-0.2,0c0,0,0,0,0,0c0,0,0,0,0,0c0,0,0,0,0,0c0,0,0,0,0,0c0,0,0,0,0,0c0,0,0,0,0,0
			c0,0,0,0,0,0c0,0,0,0,0,0c0,0,0,0,0,0c0,0,0,0,0,0L39.7,38.6L39.7,38.6z"/>
		<path id="_x35_7_2_" inkscape:connector-curvature="0" class="st28" d="M40.1,38.6C40.1,38.6,40.1,38.6,40.1,38.6
			C40.1,38.6,40.1,38.6,40.1,38.6C40.1,38.5,40.1,38.5,40.1,38.6C40,38.5,40,38.5,40.1,38.6C40,38.5,40,38.5,40,38.5c0,0,0,0,0,0
			c0,0,0,0,0,0c0,0,0,0,0,0c0,0,0,0,0,0c0,0,0,0,0.1,0c0,0,0,0,0,0c0,0,0,0,0,0c0,0,0,0,0,0c0,0,0,0,0,0c0,0,0,0,0,0c0,0,0,0,0,0
			c0,0,0,0,0,0c0,0,0,0,0,0C40.2,38.5,40.2,38.5,40.1,38.6C40.2,38.5,40.2,38.5,40.1,38.6C40.2,38.5,40.2,38.5,40.1,38.6
			C40.2,38.6,40.2,38.6,40.1,38.6l0.2,0.3c0,0,0,0,0,0c0,0,0,0,0,0s0,0,0,0c0,0,0,0,0,0c0,0,0,0,0,0c0,0,0,0,0,0c0,0,0,0,0,0
			c0,0,0,0,0,0c0,0,0,0-0.1,0c0,0,0,0,0,0c0,0,0,0-0.1,0c0,0,0,0,0,0c0,0,0,0,0,0c0,0,0,0,0,0c0,0,0,0,0,0c0,0,0,0,0,0c0,0,0,0,0,0
			c0,0,0,0,0,0c0,0,0,0,0,0c0,0,0,0,0,0L40.1,38.6z"/>
		<path id="_x35_6" inkscape:connector-curvature="0" class="st28" d="M40.5,38.7C40.5,38.7,40.5,38.7,40.5,38.7
			C40.5,38.7,40.5,38.7,40.5,38.7L40.5,38.7C40.5,38.7,40.6,38.7,40.5,38.7C40.6,38.7,40.6,38.7,40.5,38.7
			C40.6,38.6,40.6,38.6,40.5,38.7C40.6,38.6,40.6,38.6,40.5,38.7c0.1-0.1,0.1-0.1,0.1-0.1c0,0,0,0,0,0c0,0,0,0,0,0c0,0,0,0,0,0l0,0
			l0,0c0,0,0,0,0,0c0,0,0,0,0,0c0,0,0,0,0,0L40.5,38.7z M40.6,38.8C40.6,38.8,40.6,38.8,40.6,38.8C40.6,38.9,40.6,38.9,40.6,38.8
			C40.6,38.9,40.6,38.9,40.6,38.8c0.1,0.1,0.1,0.1,0.1,0.1c0,0,0,0,0.1,0c0,0,0,0,0-0.1c0,0,0,0,0-0.1
			C40.7,38.7,40.6,38.7,40.6,38.8C40.6,38.7,40.6,38.7,40.6,38.8C40.6,38.7,40.6,38.7,40.6,38.8L40.6,38.8
			C40.5,38.7,40.5,38.7,40.6,38.8C40.5,38.7,40.5,38.7,40.6,38.8L40.6,38.8z M40.4,38.6C40.4,38.6,40.4,38.6,40.4,38.6
			C40.4,38.6,40.4,38.6,40.4,38.6C40.3,38.5,40.3,38.5,40.4,38.6C40.3,38.5,40.3,38.5,40.4,38.6C40.3,38.5,40.3,38.5,40.4,38.6
			C40.3,38.5,40.3,38.5,40.4,38.6c-0.1-0.1-0.1-0.1-0.1-0.1c0,0,0,0,0,0c0,0,0,0,0,0c0,0,0,0,0,0c0,0,0,0,0,0c0,0,0,0,0,0
			c0,0,0,0,0,0c0,0,0,0,0,0c0,0,0,0,0,0c0,0,0,0,0,0c0,0,0,0,0,0c0,0,0,0,0,0c0,0,0,0,0,0c0,0,0,0,0,0c0,0,0,0,0,0c0,0,0,0,0,0
			c0,0,0,0,0,0c0,0,0,0,0,0c0,0,0,0,0,0c0,0,0,0,0,0c0,0,0,0,0,0c0,0,0,0,0,0c0,0,0,0,0,0c0,0,0,0,0,0c0,0,0.1,0,0.1,0
			c0,0,0.1,0,0.1,0.1c0,0,0,0,0,0.1c0,0,0,0,0,0c0,0,0,0,0,0c0,0,0,0-0.1,0c0,0,0,0,0,0c0,0,0,0,0,0c0,0,0,0,0,0c0,0,0,0,0,0
			c0,0,0,0,0,0c0,0,0,0,0,0c0,0,0,0,0,0c0,0,0,0,0,0c0,0,0,0,0,0c0,0,0,0,0,0c0,0,0,0,0,0c0,0,0,0,0,0c0,0,0,0,0,0c0,0,0,0,0,0
			c0,0,0,0,0,0c0,0,0,0,0,0L40.4,38.6z"/>
		<path id="_x35_5_2_" inkscape:connector-curvature="0" class="st28" d="M41,38.4C41,38.4,41,38.4,41,38.4C41,38.4,41,38.4,41,38.4
			C41.1,38.5,41.1,38.5,41,38.4C41.1,38.5,41.1,38.5,41,38.4L41,38.4C41.1,38.5,41.1,38.5,41,38.4c0.1,0.1,0.1,0.1,0.1,0.1
			c0,0,0,0,0,0c0,0,0,0,0,0c0,0,0,0,0,0c0,0,0,0,0,0C41,38.5,41,38.5,41,38.4C41,38.5,41,38.5,41,38.4C41,38.5,41,38.5,41,38.4
			C41,38.5,41,38.5,41,38.4l-0.1,0.1c0,0,0,0,0,0c0,0,0,0,0,0c0,0,0,0,0,0c0,0,0,0,0,0l0,0.1c0,0,0,0,0,0l0,0c0,0,0,0,0,0
			c0,0,0,0,0,0c0,0,0,0,0,0c0,0,0,0,0,0c0,0,0,0,0,0c0,0,0,0,0,0s0,0,0,0c0,0,0,0,0,0c0,0,0,0,0,0c0,0,0,0,0,0c0,0,0,0,0,0
			c0,0,0,0,0,0c0,0,0,0,0,0c0,0,0,0,0,0c0,0,0,0,0,0c0,0,0,0,0,0c0,0,0,0,0,0c0,0,0,0,0,0c0,0,0,0,0,0c0,0,0,0,0,0c0,0,0,0,0,0
			c0,0,0,0,0,0c0,0,0,0,0,0l0,0c0,0,0,0,0,0l0,0.1c0,0,0,0,0,0c0,0,0,0,0,0c0,0,0,0,0,0c0,0,0,0,0,0c0,0,0,0,0,0c0,0,0,0,0,0
			c0,0,0,0,0,0c0,0,0,0,0,0c0,0,0,0,0,0c0,0,0,0,0,0c0,0,0,0,0,0c0,0,0,0,0,0c0,0,0,0,0,0c0,0,0,0,0,0c0,0,0,0,0,0.1c0,0,0,0,0,0.1
			c0,0,0,0,0,0c0,0,0,0,0,0c0,0,0,0,0,0c0,0,0,0,0,0l-0.2,0c0,0,0,0,0,0c0,0,0,0,0,0c0,0,0,0,0,0c0,0,0,0,0,0c0,0,0,0,0,0
			c0,0,0,0,0,0c0,0,0,0,0,0c0,0,0,0,0,0c0,0,0,0,0,0c0,0,0,0,0,0l-0.1-0.3c0,0,0,0,0,0c0,0,0,0,0,0c0,0,0,0,0,0c0,0,0,0,0,0
			c0,0,0,0,0,0c0,0,0,0,0,0c0,0,0,0,0,0c0,0,0,0,0,0c0,0,0,0,0,0c0,0,0,0,0,0c0,0,0,0,0,0c0,0,0,0,0,0L41,38.4z"/>
		<path id="_x35_4_2_" inkscape:connector-curvature="0" class="st28" d="M41.2,38.5C41.2,38.5,41.2,38.5,41.2,38.5
			C41.2,38.5,41.2,38.5,41.2,38.5C41.2,38.5,41.2,38.5,41.2,38.5C41.2,38.5,41.2,38.5,41.2,38.5C41.2,38.5,41.1,38.5,41.2,38.5
			C41.1,38.5,41.1,38.5,41.2,38.5c-0.1-0.1-0.1-0.1-0.1-0.1c0,0,0,0,0,0c0,0,0,0,0,0c0,0,0,0,0,0c0,0,0,0,0,0c0,0,0,0,0,0
			c0,0,0,0,0,0c0,0,0,0,0,0c0,0,0,0,0,0c0,0,0,0,0,0c0,0,0,0,0.1,0c0,0,0,0,0.1,0c0,0,0,0,0.1,0c0,0,0,0,0.1,0c0,0,0,0,0,0.1
			c0,0,0,0,0,0c0,0,0,0,0,0c0,0,0,0,0,0c0,0,0,0,0,0c0,0,0,0,0,0l0,0c0,0,0,0,0,0c0,0,0,0,0,0c0,0,0,0,0,0c0,0,0,0,0,0c0,0,0,0,0,0
			c0,0,0,0,0,0c0,0,0,0,0,0c0,0,0,0,0,0c0,0,0,0,0,0c0,0,0,0,0,0c0,0,0,0,0,0c0,0,0,0,0,0s0,0,0,0c0,0,0,0,0,0c0,0,0,0,0,0
			c0,0,0,0,0,0c0,0,0,0,0,0c0,0,0,0,0,0c0,0,0,0,0,0c0,0,0,0,0,0c0,0,0,0,0,0c0,0,0,0,0,0c0,0,0,0,0,0c0,0,0,0,0,0c0,0,0,0,0,0
			c0,0,0,0,0,0c0,0,0,0-0.1-0.1c0,0,0,0-0.1,0c0,0,0,0,0,0c0,0,0,0,0,0l0,0.1c0,0,0,0,0,0c0,0,0,0,0,0c0,0,0,0,0,0c0,0,0,0,0,0
			c0,0,0,0,0,0c0,0,0,0,0,0c0,0,0,0,0,0c0,0,0,0,0,0c0,0,0,0,0,0c0,0,0,0,0,0c0,0,0,0,0,0c0,0,0,0,0,0c0,0,0,0,0,0c0,0,0,0,0,0
			c0,0,0,0,0,0c0,0,0,0,0,0c0,0,0,0,0,0c0,0,0,0,0,0c0,0,0,0,0,0c0,0,0,0,0,0c0,0,0,0,0,0c0,0,0,0,0,0L41.2,38.5z M41.3,38.6
			C41.3,38.6,41.3,38.6,41.3,38.6C41.4,38.6,41.4,38.6,41.3,38.6C41.4,38.6,41.4,38.6,41.3,38.6C41.4,38.6,41.4,38.6,41.3,38.6
			C41.4,38.6,41.4,38.6,41.3,38.6C41.4,38.6,41.4,38.6,41.3,38.6c0.1-0.1,0.1-0.1,0.1-0.1c0,0,0,0,0,0c0,0,0,0,0,0c0,0,0,0,0,0
			c0,0,0,0,0,0c0,0,0,0,0,0L41.3,38.6z"/>
		<path id="_x35_3_2_" inkscape:connector-curvature="0" class="st28" d="M42,38.8C42,38.8,42,38.8,42,38.8C42,38.8,42,38.8,42,38.8
			C42,38.8,42,38.8,42,38.8C42,38.8,42,38.8,42,38.8C42,38.8,42.1,38.8,42,38.8c0.1,0.1,0.1,0.1,0.1,0.1c0,0,0,0,0,0
			C42.1,38.9,42.1,38.9,42,38.8C42,38.9,42,38.9,42,38.8C42,38.9,42,38.9,42,38.8c0,0.1,0,0.1-0.1,0.1c0,0,0,0,0,0c0,0,0,0,0,0
			c0,0,0,0,0,0c0,0,0,0,0,0c0,0,0,0,0,0C41.9,38.8,41.9,38.8,42,38.8C41.9,38.8,41.9,38.8,42,38.8C41.9,38.8,41.9,38.8,42,38.8
			C41.9,38.8,41.9,38.8,42,38.8l-0.2-0.3c0,0,0,0,0,0c0,0,0,0,0,0c0,0,0,0,0,0c0,0,0,0,0,0c0,0,0,0,0,0c0,0,0,0,0,0c0,0,0,0,0,0
			c0,0,0,0,0,0c0,0,0,0,0,0c0,0,0,0,0,0c0,0,0,0,0-0.1c0,0,0,0,0-0.1c0,0,0,0,0,0c0,0,0,0,0,0l0.4,0c0,0,0,0,0,0c0,0,0,0,0,0
			c0,0,0,0,0,0c0,0,0,0,0,0c0,0,0,0,0,0c0,0,0,0,0,0c0,0,0,0,0,0c0,0,0,0,0,0c0,0,0,0,0,0c0,0,0,0,0,0c0,0,0,0,0,0c0,0,0,0,0,0
			c0,0,0,0,0,0c0,0,0,0,0,0c0,0,0,0,0,0c0,0,0,0,0,0L42,38.8z"/>
		<path id="_x35_2_2_" inkscape:connector-curvature="0" class="st28" d="M42.3,38.7C42.3,38.7,42.3,38.7,42.3,38.7
			C42.3,38.7,42.3,38.7,42.3,38.7L42.3,38.7c0,0.1,0,0.1,0,0.1c0,0,0,0,0,0c0,0,0,0,0,0c0,0,0,0,0,0c0,0,0,0,0,0c0,0,0,0,0,0
			c0,0,0,0,0,0c0,0,0,0,0,0c0,0,0,0,0,0c0,0,0,0,0,0c0,0,0,0,0,0c0,0,0,0,0,0c0,0,0,0,0,0c0,0,0,0,0,0c0,0,0,0,0,0c0,0,0,0,0,0
			c0,0,0,0,0,0c0,0,0,0,0,0c0,0,0,0,0,0l0,0c0,0,0,0,0,0c0,0,0,0,0,0c0,0,0,0,0,0C42.2,38.8,42.2,38.8,42.3,38.7l-0.1-0.3
			c0,0,0,0,0,0c0,0,0,0,0,0c0,0,0,0.1,0.1,0.1c0,0,0.1,0.1,0.1,0.1c0,0,0.1,0.1,0.1,0.1c0,0,0.1,0.1,0.1,0.1c0,0,0,0,0,0
			c0,0,0,0,0,0c0,0,0,0,0,0c0,0,0,0,0,0c0,0,0,0,0,0c0,0,0,0,0,0c0,0,0,0,0,0c0,0,0,0,0,0c0,0,0,0,0,0c0,0,0,0,0,0c0,0,0,0,0,0
			c0,0,0,0,0,0c0,0,0,0-0.1,0c0,0,0,0,0,0c0,0,0,0,0,0c0,0,0,0,0,0c0,0,0,0,0,0c0,0,0,0,0,0c0,0,0,0,0,0c0,0,0,0,0,0c0,0,0,0,0,0
			c0,0,0,0,0,0c0,0,0,0,0,0c0,0,0,0,0,0c0,0,0,0,0,0c0,0,0,0,0,0L42.3,38.7z M42.4,38.6L42.4,38.6C42.4,38.6,42.4,38.6,42.4,38.6
			l-0.1-0.2l0,0c0,0,0,0,0,0l0,0.2c0,0,0,0,0,0l0,0L42.4,38.6z"/>
		<path id="_x35_1_2_" inkscape:connector-curvature="0" class="st28" d="M42.7,38.5C42.6,38.5,42.6,38.5,42.7,38.5
			C42.6,38.4,42.6,38.4,42.7,38.5C42.6,38.4,42.6,38.4,42.7,38.5C42.6,38.4,42.6,38.4,42.7,38.5c-0.1-0.1-0.1-0.1-0.1-0.1
			c0,0,0,0,0,0c0,0,0,0,0,0c0,0,0,0,0,0c0,0,0,0,0,0c0,0,0,0,0,0c0,0,0,0,0,0c0,0,0,0,0,0c0,0,0,0,0.1,0c0,0,0,0,0.1,0
			c0,0,0.1,0,0.1,0c0,0,0.1,0,0.1,0c0,0,0.1,0,0.1,0.1c0,0,0,0.1,0.1,0.1c0,0,0,0.1,0,0.1c0,0,0,0.1,0,0.1c0,0,0,0-0.1,0
			c0,0-0.1,0-0.1,0c0,0,0,0-0.1,0c0,0,0,0-0.1,0c0,0,0,0,0,0c0,0,0,0,0,0c0,0,0,0,0,0c0,0,0,0,0,0c0,0,0,0,0,0c0,0,0,0,0,0
			c0,0,0,0,0,0c0,0,0,0,0,0c0,0,0,0,0,0c0,0,0,0,0,0s0,0,0,0c0,0,0,0,0,0L42.7,38.5z M42.8,38.7C42.8,38.7,42.8,38.7,42.8,38.7
			C42.9,38.8,42.9,38.8,42.8,38.7C42.9,38.8,42.9,38.8,42.8,38.7c0.1,0.1,0.1,0.1,0.1,0.1c0,0,0,0,0,0c0,0,0,0,0,0c0,0,0,0,0-0.1
			c0,0,0-0.1,0-0.1c0,0,0-0.1,0-0.1c0,0,0,0-0.1-0.1c0,0,0,0-0.1,0c0,0-0.1,0-0.1,0c0,0,0,0,0,0c0,0,0,0,0,0L42.8,38.7z"/>
		<path id="_x35_0_2_" inkscape:connector-curvature="0" class="st28" d="M40,40.6C40,40.6,40,40.6,40,40.6
			C40.1,40.6,40.1,40.6,40,40.6C40.1,40.6,40.1,40.6,40,40.6c0.1,0.1,0.1,0.1,0.1,0.1c0,0,0,0,0.1,0c0,0,0,0,0.1,0c0,0,0,0,0,0
			c0,0,0,0,0,0.1c0,0,0,0,0,0.1c0,0,0,0,0,0c0,0,0,0,0,0c0,0,0,0-0.1,0c0,0,0,0,0,0c0,0,0,0-0.1,0c0,0,0,0,0,0c0,0,0,0,0,0s0,0,0,0
			c0,0,0,0,0,0c0,0,0,0,0,0c0,0,0,0,0,0c0,0,0,0,0,0c0,0,0,0,0,0c0,0,0,0,0,0c0,0,0,0,0,0c0,0,0,0,0,0c0,0,0,0,0,0c0,0,0,0,0,0
			c0,0,0,0,0,0c0,0,0,0,0,0c0,0,0,0,0,0c0,0,0,0,0,0c0,0,0,0,0,0c0,0,0,0,0,0c0,0,0,0,0,0c0,0,0,0,0,0c0,0,0,0,0,0s0,0,0,0
			c0,0,0,0,0,0c0,0,0,0,0,0c0,0,0,0,0,0c0,0,0,0,0,0c0,0,0,0,0,0c0,0,0,0-0.1,0c0,0,0,0-0.1,0C40,40.7,40,40.6,40,40.6
			C40,40.6,40,40.6,40,40.6C40,40.6,39.9,40.5,40,40.6C40,40.5,40,40.5,40,40.6c0-0.1,0-0.1,0-0.1c0,0,0,0,0.1,0c0,0,0,0,0,0
			c0,0,0,0,0,0c0,0,0,0,0,0c0,0,0,0,0,0s0,0,0,0c0,0,0,0,0,0c0,0,0,0,0,0s0,0,0,0c0,0,0,0,0,0c0,0,0,0,0,0c0,0,0,0,0,0c0,0,0,0,0,0
			c0,0,0,0,0,0c0,0,0,0,0,0c0,0,0,0,0,0c0,0,0,0,0,0c0,0,0,0,0,0c0,0,0,0,0,0c0,0,0,0,0,0C40.1,40.5,40.1,40.5,40,40.6
			C40.1,40.5,40.1,40.5,40,40.6C40.1,40.5,40.1,40.5,40,40.6C40,40.5,40,40.5,40,40.6C40,40.5,40,40.5,40,40.6
			C40,40.5,40,40.5,40,40.6L40,40.6z"/>
		<path id="_x34_9_2_" inkscape:connector-curvature="0" class="st28" d="M40.6,40.4L40.6,40.4C40.6,40.4,40.6,40.4,40.6,40.4
			C40.6,40.4,40.6,40.4,40.6,40.4C40.6,40.4,40.6,40.4,40.6,40.4L40.6,40.4C40.7,40.5,40.7,40.5,40.6,40.4c0.1,0.1,0.1,0.1,0.1,0.1
			c0,0,0,0,0,0c0,0,0,0,0,0c0,0,0,0,0,0c0,0,0,0,0,0C40.6,40.5,40.6,40.5,40.6,40.4C40.6,40.5,40.6,40.5,40.6,40.4
			C40.6,40.5,40.6,40.5,40.6,40.4C40.6,40.5,40.5,40.5,40.6,40.4l-0.1,0.1c0,0,0,0,0,0c0,0,0,0,0,0c0,0,0,0,0,0c0,0,0,0,0,0l0,0.1
			c0,0,0,0,0,0l0,0c0,0,0,0,0,0c0,0,0,0,0,0c0,0,0,0,0,0c0,0,0,0,0,0c0,0,0,0,0,0c0,0,0,0,0,0c0,0,0,0,0,0c0,0,0,0,0,0c0,0,0,0,0,0
			c0,0,0,0,0,0c0,0,0,0,0,0c0,0,0,0,0,0c0,0,0,0,0,0c0,0,0,0,0,0c0,0,0,0,0,0c0,0,0,0,0,0c0,0,0,0,0,0c0,0,0,0,0,0c0,0,0,0,0,0
			c0,0,0,0,0,0c0,0,0,0,0,0c0,0,0,0,0,0c0,0,0,0,0,0c0,0,0,0,0,0c0,0,0,0,0,0l0,0.1c0,0,0,0,0,0c0,0,0,0,0,0c0,0,0,0,0,0
			c0,0,0,0,0,0c0,0,0,0,0,0c0,0,0,0,0,0c0,0,0,0,0,0c0,0,0,0,0,0c0,0,0,0,0,0c0,0,0,0,0,0c0,0,0,0,0,0c0,0,0,0,0,0c0,0,0,0,0,0
			c0,0,0,0,0,0c0,0,0,0,0,0.1c0,0,0,0,0,0.1c0,0,0,0,0,0c0,0,0,0,0,0c0,0,0,0,0,0c0,0,0,0,0,0l-0.2,0c0,0,0,0,0,0c0,0,0,0,0,0
			c0,0,0,0,0,0c0,0,0,0,0,0c0,0,0,0,0,0c0,0,0,0,0,0c0,0,0,0,0,0c0,0,0,0,0,0c0,0,0,0,0,0c0,0,0,0,0,0l-0.1-0.3c0,0,0,0,0,0
			c0,0,0,0,0,0c0,0,0,0,0,0c0,0,0,0,0,0c0,0,0,0,0,0c0,0,0,0,0,0c0,0,0,0,0,0c0,0,0,0,0,0c0,0,0,0,0,0c0,0,0,0,0,0c0,0,0,0,0,0
			c0,0,0,0,0,0L40.6,40.4z"/>
		<path id="_x34_8_2_" inkscape:connector-curvature="0" class="st28" d="M41,40.8C41,40.8,41,40.8,41,40.8C41,40.8,41,40.8,41,40.8
			C41,40.8,41,40.8,41,40.8C41,40.8,41.1,40.8,41,40.8c0.1,0.1,0.1,0.1,0.1,0.1c0,0,0,0,0,0c0,0,0,0,0,0c0,0,0,0,0,0c0,0,0,0-0.1,0
			c0,0,0,0-0.1,0c0,0,0,0,0,0c0,0,0,0,0,0c0,0,0,0,0,0c0,0,0,0,0,0c0,0,0,0,0,0c0,0,0,0,0,0C40.9,40.8,40.9,40.8,41,40.8
			C40.9,40.8,40.9,40.8,41,40.8C40.9,40.8,40.9,40.8,41,40.8C40.9,40.8,40.9,40.8,41,40.8l-0.2-0.2c0,0,0,0,0,0c0,0,0,0,0,0
			c0,0,0,0,0,0c0,0,0,0,0,0c0,0,0,0,0,0l0,0c0,0,0,0,0,0c0,0,0,0,0,0c0,0,0,0,0,0c0,0,0,0,0,0c0,0,0,0,0,0c0,0,0,0,0,0
			c0,0,0,0,0.1,0c0,0,0,0,0,0c0,0,0,0,0.1,0c0,0,0,0,0.1,0c0,0,0,0,0,0c0,0,0,0,0,0.1c0,0,0,0,0,0.1c0,0,0,0,0,0c0,0,0,0-0.1,0
			c0,0,0,0-0.1,0l0,0c0,0,0,0,0,0L41,40.8z M40.9,40.6C40.9,40.6,40.9,40.6,40.9,40.6C40.9,40.6,40.9,40.6,40.9,40.6
			C40.9,40.6,41,40.6,40.9,40.6C41,40.6,41,40.6,40.9,40.6C41,40.6,41,40.6,40.9,40.6c0.1-0.1,0.1-0.1,0.1-0.1c0,0,0-0.1,0-0.1
			c0,0,0,0-0.1,0c0,0,0,0,0,0c0,0,0,0,0,0L40.9,40.6z"/>
		<path id="_x34_7_2_" inkscape:connector-curvature="0" class="st28" d="M41.5,40.7C41.5,40.8,41.5,40.8,41.5,40.7
			C41.5,40.8,41.5,40.8,41.5,40.7C41.5,40.8,41.5,40.8,41.5,40.7C41.5,40.8,41.5,40.8,41.5,40.7C41.5,40.8,41.5,40.8,41.5,40.7
			c0.1,0.1,0.1,0.1,0.1,0.1c0,0,0,0,0,0C41.6,40.8,41.5,40.8,41.5,40.7C41.5,40.8,41.5,40.8,41.5,40.7
			C41.5,40.8,41.5,40.8,41.5,40.7c0,0.1,0,0.1-0.1,0.1s0,0,0,0c0,0,0,0,0,0c0,0,0,0,0,0c0,0,0,0,0,0c0,0,0,0,0,0
			C41.3,40.8,41.3,40.8,41.5,40.7C41.4,40.8,41.4,40.8,41.5,40.7C41.4,40.8,41.4,40.8,41.5,40.7C41.4,40.8,41.4,40.8,41.5,40.7
			l-0.2-0.3c0,0,0,0,0,0c0,0,0,0,0,0c0,0,0,0,0,0c0,0,0,0,0,0c0,0,0,0,0,0c0,0,0,0,0,0c0,0,0,0,0,0c0,0,0,0,0,0c0,0,0,0,0,0
			c0,0,0,0,0,0c0,0,0,0,0-0.1c0,0,0,0,0-0.1c0,0,0,0,0,0c0,0,0,0,0,0l0.4,0c0,0,0,0,0,0c0,0,0,0,0,0c0,0,0,0,0,0c0,0,0,0,0,0
			c0,0,0,0,0,0c0,0,0,0,0,0c0,0,0,0,0,0c0,0,0,0,0,0c0,0,0,0,0,0c0,0,0,0,0,0c0,0,0,0,0,0c0,0,0,0,0,0c0,0,0,0,0,0c0,0,0,0,0,0
			c0,0,0,0,0,0c0,0,0,0,0,0L41.5,40.7z"/>
		<path id="_x34_6_2_" inkscape:connector-curvature="0" class="st28" d="M41.6,40.5C41.6,40.4,41.6,40.4,41.6,40.5
			C41.6,40.4,41.6,40.4,41.6,40.5C41.6,40.4,41.6,40.4,41.6,40.5C41.6,40.4,41.6,40.4,41.6,40.5C41.6,40.4,41.5,40.4,41.6,40.5
			c-0.1-0.1-0.1-0.1-0.1-0.1c0,0,0,0,0,0c0,0,0,0,0,0c0,0,0,0,0,0c0,0,0,0,0.1,0c0,0,0,0,0,0c0,0,0,0,0,0c0,0,0,0,0,0c0,0,0,0,0,0
			c0,0,0,0,0,0c0,0,0,0,0,0c0,0,0,0,0,0c0,0,0,0,0,0C41.7,40.4,41.7,40.4,41.6,40.5C41.7,40.4,41.7,40.4,41.6,40.5
			C41.7,40.4,41.7,40.4,41.6,40.5C41.7,40.4,41.7,40.4,41.6,40.5l0.2,0.3c0,0,0,0,0,0c0,0,0,0,0,0c0,0,0,0,0,0c0,0,0,0,0,0
			c0,0,0,0,0,0c0,0,0,0,0,0c0,0,0,0,0,0c0,0,0,0,0,0c0,0,0,0-0.1,0c0,0,0,0,0,0c0,0,0,0-0.1,0c0,0,0,0,0,0c0,0,0,0,0,0c0,0,0,0,0,0
			s0,0,0,0c0,0,0,0,0,0c0,0,0,0,0,0c0,0,0,0,0,0c0,0,0,0,0,0c0,0,0,0,0,0L41.6,40.5z"/>
		<path id="_x34_5_2_" inkscape:connector-curvature="0" class="st28" d="M42.1,40.3C42.1,40.3,42.1,40.3,42.1,40.3
			C42.2,40.3,42.2,40.3,42.1,40.3C42.2,40.3,42.2,40.3,42.1,40.3C42.2,40.4,42.2,40.4,42.1,40.3L42.1,40.3
			C42.2,40.4,42.2,40.4,42.1,40.3c0.1,0.1,0.1,0.1,0.1,0.1c0,0,0,0,0,0c0,0,0,0,0,0c0,0,0,0,0,0c0,0,0,0,0,0
			C42.1,40.4,42.1,40.4,42.1,40.3C42.1,40.4,42.1,40.4,42.1,40.3C42.1,40.4,42.1,40.4,42.1,40.3C42.1,40.4,42.1,40.4,42.1,40.3
			l-0.1,0c0,0,0,0,0,0c0,0,0,0,0,0c0,0,0,0,0,0c0,0,0,0,0,0l0,0.1c0,0,0,0,0,0l0,0c0,0,0,0,0,0c0,0,0,0,0,0c0,0,0,0,0,0c0,0,0,0,0,0
			c0,0,0,0,0,0c0,0,0,0,0,0c0,0,0,0,0,0c0,0,0,0,0,0c0,0,0,0,0,0c0,0,0,0,0,0c0,0,0,0,0,0c0,0,0,0,0,0c0,0,0,0,0,0c0,0,0,0,0,0
			c0,0,0,0,0,0c0,0,0,0,0,0c0,0,0,0,0,0c0,0,0,0,0,0c0,0,0,0,0,0c0,0,0,0,0,0c0,0,0,0,0,0c0,0,0,0,0,0c0,0,0,0,0,0c0,0,0,0,0,0
			c0,0,0,0,0,0l0,0.1c0,0,0,0,0,0c0,0,0,0,0,0c0,0,0,0,0,0c0,0,0,0,0,0c0,0,0,0,0,0c0,0,0,0,0,0c0,0,0,0,0,0c0,0,0,0,0,0
			c0,0,0,0,0,0c0,0,0,0,0,0c0,0,0,0,0,0c0,0,0,0,0,0c0,0,0,0,0,0c0,0,0,0,0,0c0,0,0,0,0,0.1c0,0,0,0,0,0.1c0,0,0,0,0,0c0,0,0,0,0,0
			c0,0,0,0,0,0c0,0,0,0,0,0l-0.2,0c0,0,0,0,0,0c0,0,0,0,0,0c0,0,0,0,0,0c0,0,0,0,0,0c0,0,0,0,0,0c0,0,0,0,0,0c0,0,0,0,0,0
			c0,0,0,0,0,0c0,0,0,0,0,0c0,0,0,0,0,0l-0.1-0.3c0,0,0,0,0,0c0,0,0,0,0,0c0,0,0,0,0,0c0,0,0,0,0,0c0,0,0,0,0,0c0,0,0,0,0,0
			c0,0,0,0,0,0c0,0,0,0,0,0c0,0,0,0,0,0c0,0,0,0,0,0c0,0,0,0,0,0c0,0,0,0,0,0L42.1,40.3z"/>
		<path id="_x34_4_2_" inkscape:connector-curvature="0" class="st28" d="M42.3,40.4C42.3,40.4,42.3,40.4,42.3,40.4
			C42.3,40.4,42.3,40.4,42.3,40.4C42.3,40.4,42.3,40.4,42.3,40.4C42.3,40.4,42.2,40.4,42.3,40.4C42.2,40.3,42.2,40.3,42.3,40.4
			C42.2,40.3,42.2,40.3,42.3,40.4C42.2,40.3,42.2,40.3,42.3,40.4C42.2,40.3,42.2,40.3,42.3,40.4C42.2,40.3,42.2,40.3,42.3,40.4
			C42.2,40.3,42.3,40.3,42.3,40.4C42.3,40.3,42.3,40.3,42.3,40.4C42.3,40.3,42.3,40.3,42.3,40.4C42.3,40.3,42.4,40.3,42.3,40.4
			C42.4,40.3,42.4,40.3,42.3,40.4l0.3,0.2c0,0,0,0,0,0s0,0,0,0l0-0.3c0,0,0,0,0,0c0,0,0,0,0,0c0,0,0,0,0,0c0,0,0,0,0,0c0,0,0,0,0,0
			c0,0,0,0,0,0c0,0,0,0,0,0c0,0,0,0,0,0c0,0,0,0,0,0c0,0,0,0,0,0c0,0,0,0,0,0c0,0,0,0,0,0.1l0.1,0.3c0,0,0,0,0,0c0,0,0,0,0,0
			c0,0,0,0,0,0c0,0,0,0,0,0c0,0,0,0,0,0c0,0,0,0,0,0c0,0,0,0,0,0c0,0,0,0,0,0c0,0,0,0-0.1,0c0,0,0,0,0,0c0,0,0,0-0.1,0c0,0,0,0,0,0
			c0,0,0,0,0,0c0,0,0,0,0,0c0,0,0,0,0,0c0,0,0,0,0,0c0,0,0,0,0,0c0,0,0,0,0,0c0,0,0,0,0,0c0,0,0,0,0,0l-0.1-0.3c0,0,0,0,0,0l0,0
			l0,0.2c0,0,0,0,0,0.1c0,0,0,0,0,0.1c0,0,0,0,0,0c0,0,0,0,0,0c0,0,0,0,0,0c0,0,0,0,0,0L42.3,40.4L42.3,40.4L42.3,40.4l0.1,0.3
			c0,0,0,0,0,0c0,0,0,0,0,0c0,0,0,0,0,0c0,0,0,0,0,0c0,0,0,0,0,0c0,0,0,0,0,0c0,0,0,0,0,0c0,0,0,0,0,0c0,0,0,0,0,0c0,0,0,0,0,0
			c0,0,0,0,0,0c0,0,0,0,0,0c0,0,0,0,0,0c0,0,0,0,0,0c0,0,0,0,0,0c0,0,0,0,0,0c0,0,0,0,0,0c0,0,0,0,0,0c0,0,0,0,0,0c0,0,0,0,0,0
			L42.3,40.4z"/>
		<path id="_x34_3_2_" inkscape:connector-curvature="0" class="st28" d="M43.1,40.5C43.1,40.5,43.1,40.5,43.1,40.5
			C43.1,40.5,43.1,40.5,43.1,40.5L43.1,40.5C43.1,40.5,43.1,40.5,43.1,40.5C43.1,40.5,43.1,40.5,43.1,40.5c0.1,0,0.1,0,0.1,0
			C43.2,40.4,43.2,40.4,43.1,40.5c0.1-0.1,0.1-0.1,0.1-0.1c0,0,0,0,0,0c0,0,0,0,0,0c0,0,0,0,0,0l0,0l0,0c0,0,0,0,0,0c0,0,0,0,0,0
			c0,0,0,0,0,0L43.1,40.5z M43.1,40.6C43.1,40.6,43.1,40.7,43.1,40.6C43.1,40.7,43.1,40.7,43.1,40.6C43.1,40.7,43.1,40.7,43.1,40.6
			C43.2,40.7,43.2,40.7,43.1,40.6c0.1,0.1,0.1,0.1,0.1,0.1c0,0,0,0,0-0.1c0,0,0,0,0-0.1C43.2,40.6,43.2,40.6,43.1,40.6
			C43.2,40.5,43.2,40.5,43.1,40.6C43.1,40.5,43.1,40.5,43.1,40.6L43.1,40.6C43.1,40.5,43.1,40.5,43.1,40.6
			C43.1,40.5,43.1,40.5,43.1,40.6L43.1,40.6z M42.9,40.4C42.9,40.4,42.9,40.4,42.9,40.4C42.9,40.4,42.9,40.4,42.9,40.4
			C42.9,40.3,42.9,40.3,42.9,40.4C42.9,40.3,42.9,40.3,42.9,40.4C42.9,40.3,42.9,40.3,42.9,40.4C42.9,40.3,42.9,40.3,42.9,40.4
			C42.9,40.3,42.9,40.3,42.9,40.4c-0.1-0.1-0.1-0.1-0.1-0.1c0,0,0,0,0,0c0,0,0,0,0,0c0,0,0,0,0,0c0,0,0,0,0,0c0,0,0,0,0,0
			c0,0,0,0,0,0c0,0,0,0,0,0c0,0,0,0,0,0c0,0,0,0,0,0c0,0,0,0,0,0c0,0,0,0,0,0c0,0,0,0,0,0c0,0,0,0,0,0c0,0,0,0,0,0c0,0,0,0,0,0
			c0,0,0,0,0,0c0,0,0,0,0,0c0,0,0,0,0,0c0,0,0,0,0,0c0,0,0,0,0,0c0,0,0,0,0,0c0,0,0,0,0,0c0,0,0.1,0,0.1,0c0,0,0,0,0.1,0.1
			c0,0,0,0,0,0.1c0,0,0,0,0,0c0,0,0,0,0,0c0,0,0,0-0.1,0c0,0,0,0,0,0c0,0,0,0,0,0c0,0,0,0,0,0c0,0,0,0,0,0c0,0,0,0,0,0c0,0,0,0,0,0
			c0,0,0,0,0,0c0,0,0,0,0,0c0,0,0,0,0,0c0,0,0,0,0,0c0,0,0,0,0,0c0,0,0,0,0,0c0,0,0,0,0,0c0,0,0,0,0,0c0,0,0,0,0,0c0,0,0,0,0,0
			L42.9,40.4z"/>
		<path id="_x34_2_2_" inkscape:connector-curvature="0" class="st28" d="M43.4,40.4C43.4,40.4,43.4,40.4,43.4,40.4
			C43.4,40.4,43.4,40.3,43.4,40.4C43.4,40.3,43.3,40.3,43.4,40.4C43.3,40.3,43.3,40.3,43.4,40.4C43.3,40.3,43.3,40.3,43.4,40.4
			C43.3,40.3,43.3,40.3,43.4,40.4C43.3,40.3,43.3,40.3,43.4,40.4c-0.1-0.1-0.1-0.1-0.1-0.1c0,0,0,0,0,0c0,0,0,0,0,0c0,0,0,0,0,0
			c0,0,0,0,0,0l0,0c0,0,0,0,0,0c0,0,0,0,0,0c0,0,0,0,0,0c0,0,0,0,0.1,0c0,0,0,0,0.1,0c0,0,0,0,0.1,0c0,0,0,0,0,0c0,0,0,0,0,0.1
			c0,0,0,0,0,0c0,0,0,0,0,0c0,0,0,0,0,0c0,0,0,0,0,0l0,0c0,0,0,0,0,0c0,0,0,0,0,0c0,0,0,0,0,0c0,0,0,0,0,0c0,0,0,0,0,0c0,0,0,0,0,0
			c0,0,0,0,0,0c0,0,0,0,0,0c0,0,0,0,0,0c0,0,0,0,0,0c0,0,0,0,0,0c0,0,0,0,0,0c0,0,0,0,0,0c0,0,0,0,0,0c0,0,0,0,0,0c0,0,0,0,0,0
			c0,0,0,0,0,0c0,0,0,0,0,0c0,0,0,0,0,0c0,0,0,0,0,0c0,0,0,0,0,0c0,0,0,0,0,0c0,0,0,0,0,0c0,0,0,0,0,0c0,0,0,0,0,0c0,0,0,0,0,0
			c0,0,0,0,0,0c0,0,0,0,0-0.1c0,0,0,0-0.1,0c0,0,0,0,0,0c0,0,0,0,0,0l0,0.1c0,0,0,0,0,0c0,0,0,0,0,0c0,0,0,0,0,0c0,0,0,0,0,0
			c0,0,0,0,0,0c0,0,0,0,0,0c0,0,0,0,0,0c0,0,0,0,0,0c0,0,0,0,0,0c0,0,0,0,0,0c0,0,0,0,0,0c0,0,0,0,0,0c0,0,0,0,0,0c0,0,0,0,0,0
			c0,0,0,0,0,0c0,0,0,0,0,0c0,0,0,0,0,0c0,0,0,0,0,0c0,0,0,0,0,0c0,0,0,0,0,0c0,0,0,0,0,0c0,0,0,0,0,0L43.4,40.4z M43.5,40.5
			C43.5,40.5,43.5,40.5,43.5,40.5C43.5,40.5,43.5,40.5,43.5,40.5C43.5,40.5,43.6,40.5,43.5,40.5C43.6,40.5,43.6,40.5,43.5,40.5
			c0.1,0,0.1,0,0.1,0C43.6,40.4,43.6,40.4,43.5,40.5c0.1-0.1,0.1-0.1,0.1-0.1c0,0,0,0,0,0c0,0,0,0,0,0c0,0,0,0,0,0c0,0,0,0,0,0
			c0,0,0,0,0,0L43.5,40.5z"/>
		<path id="_x34_1_2_" inkscape:connector-curvature="0" class="st28" d="M44.1,40.3C44.1,40.3,44.1,40.3,44.1,40.3
			C44.1,40.3,44.1,40.3,44.1,40.3C44.1,40.3,44.1,40.3,44.1,40.3C44.1,40.3,44.1,40.3,44.1,40.3L44.1,40.3
			C44.1,40.3,44.1,40.3,44.1,40.3c0,0.1,0.1,0.1,0.1,0.1c0,0,0,0,0,0c0,0,0,0,0,0c0,0,0,0,0,0c0,0,0,0,0,0
			C44.1,40.3,44.1,40.3,44.1,40.3C44.1,40.3,44.1,40.3,44.1,40.3C44.1,40.3,44.1,40.3,44.1,40.3C44,40.3,44,40.3,44.1,40.3l-0.1,0
			c0,0,0,0,0,0c0,0,0,0,0,0c0,0,0,0,0,0c0,0,0,0,0,0l0,0.1c0,0,0,0,0,0l0,0c0,0,0,0,0,0c0,0,0,0,0,0c0,0,0,0,0,0c0,0,0,0,0,0
			c0,0,0,0,0,0c0,0,0,0,0,0c0,0,0,0,0,0c0,0,0,0,0,0c0,0,0,0,0,0c0,0,0,0,0,0c0,0,0,0,0,0c0,0,0,0,0,0c0,0,0,0,0,0c0,0,0,0,0,0
			c0,0,0,0,0,0c0,0,0,0,0,0c0,0,0,0,0,0c0,0,0,0,0,0c0,0,0,0,0,0c0,0,0,0,0,0c0,0,0,0,0,0c0,0,0,0,0,0c0,0,0,0,0,0c0,0,0,0,0,0
			c0,0,0,0,0,0l0,0.1c0,0,0,0,0,0c0,0,0,0,0,0c0,0,0,0,0,0c0,0,0,0,0,0c0,0,0,0,0,0c0,0,0,0,0,0c0,0,0,0,0,0c0,0,0,0,0,0
			c0,0,0,0,0,0c0,0,0,0,0,0c0,0,0,0,0,0c0,0,0,0,0,0c0,0,0,0,0,0c0,0,0,0,0,0c0,0,0,0,0,0.1c0,0,0,0,0,0.1c0,0,0,0,0,0c0,0,0,0,0,0
			c0,0,0,0,0,0c0,0,0,0,0,0l-0.2,0c0,0,0,0-0.1,0c0,0,0,0,0,0c0,0,0,0,0,0c0,0,0,0,0,0c0,0,0,0,0,0c0,0,0,0,0,0c0,0,0,0,0,0
			c0,0,0,0,0,0c0,0,0,0,0,0c0,0,0,0,0,0l-0.1-0.3c0,0,0,0,0,0c0,0,0,0,0,0c0,0,0,0,0,0c0,0,0,0,0,0c0,0,0,0,0,0l0,0c0,0,0,0,0,0
			c0,0,0,0,0,0c0,0,0,0,0,0c0,0,0,0,0,0c0,0,0,0,0,0c0,0,0,0,0,0L44.1,40.3z"/>
		<path id="_x34_0_2_" class="st20" d="M38.7,36.6c-0.3,0-0.4,0.3-0.4,0.5c0,0.5,0.4,0.5,0.4,0.5l0.5,0l0.2-1.1L38.7,36.6z"/>
		
			<radialGradient id="_x33_9_1_" cx="156.5173" cy="-98.1979" r="1.124" gradientTransform="matrix(1 0 0 -1 -117.8999 -60.8662)" gradientUnits="userSpaceOnUse">
			<stop  offset="0.2165" style="stop-color:#9E7B24;stop-opacity:0"/>
			<stop  offset="1" style="stop-color:#9E7B24"/>
		</radialGradient>
		<path id="_x33_9_2_" class="st29" d="M38.7,36.6c-0.3,0-0.4,0.3-0.4,0.5c0,0.5,0.4,0.5,0.4,0.5l0.5,0l0.2-1.1L38.7,36.6z"/>
		<path id="_x33_8_2_" class="st20" d="M38.7,36.6l0.8,0l0.1,0.8l-0.7,0C38.9,37.3,39.1,36.7,38.7,36.6z"/>
		
			<linearGradient id="_x33_7_1_" gradientUnits="userSpaceOnUse" x1="156.9977" y1="-97.9526" x2="157.3281" y2="-97.1802" gradientTransform="matrix(1 0 0 -1 -117.8999 -60.8662)">
			<stop  offset="0.2165" style="stop-color:#9E7B24;stop-opacity:0"/>
			<stop  offset="1" style="stop-color:#9E7B24"/>
		</linearGradient>
		<path id="_x33_7_2_" class="st30" d="M38.7,36.6l0.8,0l0.1,0.8l-0.7,0C38.9,37.3,39.1,36.7,38.7,36.6z"/>
		<path id="_x33_6_2_" class="st20" d="M42.9,37.4c0.6-0.1,0.6-0.9,0.2-1.2c-1.3,0-3.1,0-4.4,0.1c0.1,0,0.5,0,0.6,0.6
			c0,0.2-0.1,0.5-0.3,0.6c-0.2,0.1-0.3,0.1-0.3,0.1c0,0,0.2,0,0.3,0c0.1,0,0.2,0,0.3,0C41.1,37.3,42.9,37.4,42.9,37.4L42.9,37.4
			L42.9,37.4z"/>
		
			<linearGradient id="_x33_5_1_" gradientUnits="userSpaceOnUse" x1="158.8777" y1="-96.8927" x2="159.1036" y2="-99.7592" gradientTransform="matrix(1 0 0 -1 -117.8999 -60.8662)">
			<stop  offset="0.2165" style="stop-color:#9E7B24;stop-opacity:0"/>
			<stop  offset="1" style="stop-color:#9E7B24"/>
		</linearGradient>
		<path id="_x33_5_2_" class="st31" d="M42.9,37.4c0.6-0.1,0.6-0.9,0.2-1.2c-1.3,0-3.1,0-4.4,0.1c0.1,0,0.5,0,0.6,0.6
			c0,0.2-0.1,0.5-0.3,0.6c-0.2,0.1-0.3,0.1-0.3,0.1c0,0,0.2,0,0.3,0c0.1,0,0.2,0,0.3,0C41.1,37.3,42.9,37.4,42.9,37.4L42.9,37.4
			L42.9,37.4z"/>
		<path id="_x33_4_2_" inkscape:connector-curvature="0" class="st32" d="M41.2,34.5l-0.3,0.4c-0.1,0.5,0.2,0.8,0.7,1.1
			c0.4,0.3,1.2,0.2,1.4,0l-1.2-1L41.2,34.5z"/>
		
			<radialGradient id="_x33_3_1_" cx="158.9036" cy="-96.081" r="1.2637" gradientTransform="matrix(1 0 0 -1 -117.8999 -60.8662)" gradientUnits="userSpaceOnUse">
			<stop  offset="0.2592" style="stop-color:#410E0F;stop-opacity:0"/>
			<stop  offset="1" style="stop-color:#410E0F"/>
		</radialGradient>
		<path id="_x33_3_2_" inkscape:connector-curvature="0" class="st33" d="M41.2,34.5l-0.3,0.4c-0.1,0.5,0.2,0.8,0.7,1.1
			c0.4,0.3,1.2,0.3,1.4,0.1l-1.2-1.1L41.2,34.5z"/>
		<path id="_x33_2_2_" class="st34" d="M43.6,46.1c-0.1-0.1-0.1-0.1-0.2-0.2c-0.7,1-1.7,1.9-2.8,2.5C41.9,48,42.8,47.1,43.6,46.1z"
			/>
		<path id="_x33_1_2_" class="st34" d="M42.3,49.2c0.5-0.9,1-1.9,1.6-2.8c-0.1-0.1-0.1-0.2-0.2-0.2C43,47.2,42.3,48.5,42.3,49.2z"/>
		<path id="_x33_0_2_" class="st34" d="M45.9,39.3c-0.1-0.4-0.2-0.8-0.4-1.1c-0.2-0.5-0.6-0.9-1-1.5c-0.8-0.9-1.6-1.7-2.8-2.4
			c0,0,0,0,0,0l0,0h0l0,0h0l0,0h0l0,0h0l0,0h0l0,0l0,0l0,0l0,0l0,0l0,0l0,0l0.1,0l0,0l0.1,0l-0.1,0l0.1,0l-0.1,0l0.1,0l-0.1,0l0,0
			l-0.1,0l0-0.1l-0.1,0c0,0,0,0,0,0l0,0l-0.1,0l0-0.1l-0.1,0l0-0.1l-0.1,0l0-0.1l0,0l0-0.1l0,0l0-0.1l0,0.1l0-0.1l0,0l0-0.1l0,0.1
			l0-0.1l0,0.1l0-0.1l0,0.1l0-0.1l0,0.1l0-0.1l0,0.1l0-0.1l0,0.1l0-0.1l0,0.1l0-0.1l0,0.1l0-0.1l0,0.1l0,0l0,0.1l0,0l0,0.1l0,0
			l0,0.1l0,0l0,0.1l0,0l0,0c0,0,0,0,0,0l0,0l0,0l0,0c0,0.1,0,0.2,0,0.3c0,0,0.1,0,0.1,0.1c0,0,0,0.1,0,0.1c-0.1,0.2-0.3,0.4-0.3,0.7
			c0.1-0.1,0.2-0.3,0.4-0.3c-0.1,0.1-0.1,0.5,0,0.6l0.1-0.1c0,0.1,0,0.2,0,0.2c0-0.1,0.1-0.1,0.1-0.2c0,0.1,0,0.2,0.1,0.3
			c0-0.1,0.1-0.1,0.1-0.1c0,0.1,0,0.1,0,0.2c0.1-0.1,0.1-0.2,0.2-0.2c0,0.1,0,0.2,0,0.4c0-0.2,0-0.2,0.1-0.3c0,0.2,0,0.3,0,0.4
			c0.1-0.1,0.1-0.1,0.2-0.2c0,0.1,0,0.3,0,0.4c0-0.1,0.1-0.2,0.2-0.2c0,0.2,0,0.2-0.1,0.3c0.1,0,0.2,0,0.3-0.1c0,0.1,0,0.2-0.1,0.3
			c0.1,0,0.2-0.1,0.3-0.2c0,0.1-0.1,0.2-0.1,0.4c0-0.1,0.1-0.2,0.2-0.2c0,0.1,0,0.2-0.1,0.2c0.2,0,0.3-0.1,0.4-0.2
			c0,0.1,0,0.2,0.1,0.4c0-0.2,0-0.2,0.1-0.3c0,0.2,0.1,0.4,0.3,0.5c-0.1-0.2-0.1-0.3,0-0.4c0,0.1,0.1,0.3,0.2,0.4
			c0-0.1,0-0.3,0.1-0.4c0.1,0.2,0.1,0.3,0.1,0.5c0-0.1,0.1-0.2,0.1-0.3c1.7,1.8,2.1,4,0.2,6.4c0.7-0.5,0.8-1.2,1.2-1.8
			c-0.4,0.8-0.5,1.7-1.2,2.4c0.6-0.5,0.8-1,1.1-1.5c-0.4,1.1-0.9,2.3-1.7,3.3c0.1,0.1,0.3,0.3,0.4,0.4c0.1-0.2,0.2-0.4,0.4-0.6
			C45.2,44.1,46.5,42.2,45.9,39.3z"/>
		<path id="_x32_9_2_" inkscape:connector-curvature="0" sodipodi:nodetypes="ccccccc" class="st35" d="M41,34.1
			c-0.1,0-0.1,0.1-0.2,0.1c0.1,0,0.1,0,0.2,0C41,34.3,41,34.2,41,34.1L41,34.1C41,34.1,41,34.1,41,34.1L41,34.1z"/>
		<path id="_x32_8_2_" inkscape:connector-curvature="0" class="st36" d="M41.4,34.2C41.4,34.2,41.4,34.2,41.4,34.2
			c0.1-0.1,0-0.1,0-0.1C41.3,34.1,41.3,34.1,41.4,34.2C41.3,34.2,41.3,34.2,41.4,34.2z"/>
		<path id="_x32_7_2_" class="st37" d="M42.3,49.2c0-0.1,0.1-0.3,0.1-0.4c0-0.1,0.1-0.3,0.2-0.4c0.1-0.2,0.2-0.5,0.4-0.7
			c0.1-0.2,0.3-0.5,0.4-0.7c0.1-0.1,0.1-0.2,0.2-0.3l0.2-0.3l-0.2,0.3c-0.1,0.1-0.1,0.2-0.2,0.3c-0.1,0.2-0.3,0.5-0.4,0.7
			c-0.1,0.2-0.2,0.5-0.4,0.7c-0.1,0.1-0.1,0.2-0.2,0.4C42.4,48.9,42.3,49.1,42.3,49.2z"/>
		<path id="_x32_6_2_" class="st37" d="M40.6,48.4c0.1-0.1,0.3-0.1,0.4-0.2c0.1-0.1,0.3-0.2,0.4-0.2c0.3-0.2,0.5-0.4,0.8-0.6
			c0.2-0.2,0.5-0.4,0.7-0.7c0.1-0.1,0.2-0.2,0.3-0.4c0.1-0.1,0.2-0.2,0.3-0.4c-0.1,0.1-0.2,0.2-0.3,0.4c-0.1,0.1-0.2,0.2-0.3,0.4
			c-0.2,0.2-0.4,0.5-0.7,0.7c-0.2,0.2-0.5,0.4-0.8,0.6c-0.1,0.1-0.3,0.2-0.4,0.2C40.9,48.2,40.8,48.3,40.6,48.4z"/>
		<path id="_x32_5_2_" class="st37" d="M43.9,45.8c0.1-0.1,0.1-0.2,0.2-0.3c0.1-0.1,0.1-0.2,0.2-0.3c0.1-0.2,0.2-0.4,0.3-0.6
			c0.1-0.2,0.2-0.4,0.3-0.6l0.3-0.6l-0.2,0.3l-0.2,0.3c-0.1,0.2-0.2,0.4-0.3,0.6c-0.1,0.2-0.2,0.4-0.3,0.6
			C44.1,45.5,44,45.7,43.9,45.8z"/>
		<path id="_x32_4_2_" class="st37" d="M44.4,43.7c0.1-0.2,0.3-0.4,0.4-0.6c0.1-0.2,0.2-0.4,0.3-0.6c0.2-0.4,0.3-0.9,0.4-1.3
			c0-0.1,0-0.1,0-0.2c0-0.1,0-0.1,0-0.2c0-0.1,0-0.2,0-0.3c0-0.2,0-0.5,0-0.7c0-0.2-0.1-0.5-0.1-0.7c-0.1-0.2-0.1-0.4-0.2-0.7
			c0.1,0.2,0.2,0.4,0.2,0.7c0.1,0.2,0.1,0.4,0.1,0.7c0,0.2,0,0.5,0,0.7c0,0.1,0,0.2,0,0.3c0,0.1,0,0.1,0,0.2c0,0.1,0,0.1,0,0.2
			c-0.1,0.4-0.2,0.9-0.4,1.3c-0.1,0.2-0.2,0.4-0.3,0.6C44.7,43.3,44.5,43.5,44.4,43.7z"/>
		<path id="_x32_3_2_" class="st37" d="M44.2,43.2c0.2-0.2,0.3-0.3,0.4-0.5c0.1-0.2,0.2-0.4,0.3-0.6c0.1-0.2,0.2-0.4,0.3-0.6
			c0-0.1,0.1-0.2,0.1-0.3l0-0.1c0,0,0-0.1,0-0.1c0-0.1,0-0.1,0-0.2l0,0c0-0.2,0.1-0.4,0.1-0.7c0-0.2,0-0.4,0-0.7
			c0-0.2-0.1-0.4-0.1-0.7c-0.1-0.2-0.1-0.4-0.2-0.6c0.1,0.2,0.2,0.4,0.2,0.6c0.1,0.2,0.1,0.4,0.2,0.7c0,0.2,0.1,0.4,0.1,0.7
			c0,0.2,0,0.4-0.1,0.7l0,0l0,0c0,0.1,0,0.1-0.1,0.2c0,0,0,0.1,0,0.1l0,0.1c0,0.1-0.1,0.2-0.1,0.3c-0.1,0.2-0.2,0.4-0.3,0.6
			c-0.1,0.2-0.2,0.4-0.3,0.6C44.5,42.9,44.4,43,44.2,43.2z"/>
		<path id="_x32_2_2_" class="st37" d="M43.7,45.7c0.1-0.1,0.2-0.3,0.3-0.4l0.2-0.2c0.1-0.1,0.1-0.1,0.1-0.2
			c0.1-0.2,0.2-0.3,0.3-0.5c0.1-0.2,0.2-0.3,0.2-0.5c0.2-0.3,0.3-0.6,0.4-1c0.1-0.3,0.2-0.7,0.3-1c0.1-0.3,0.1-0.7,0.2-1
			c0-0.4,0-0.7,0-1.1c0-0.4-0.1-0.7-0.2-1c-0.1-0.3-0.3-0.7-0.4-1c0.2,0.3,0.3,0.6,0.4,1c0.1,0.3,0.2,0.7,0.2,1c0,0.4,0,0.7,0,1.1
			c0,0.4-0.1,0.7-0.2,1c-0.1,0.3-0.2,0.7-0.3,1c-0.1,0.3-0.3,0.7-0.4,1c-0.1,0.2-0.2,0.3-0.2,0.5c-0.1,0.2-0.2,0.3-0.3,0.5
			c0,0.1-0.1,0.1-0.2,0.2L44,45.3C43.9,45.4,43.8,45.6,43.7,45.7z"/>
		<path id="_x32_1_2_" class="st37" d="M44,46c0.2-0.3,0.4-0.7,0.6-1c0.2-0.3,0.4-0.7,0.6-1c0.2-0.3,0.3-0.7,0.4-1.1
			c0.1-0.2,0.1-0.4,0.1-0.6c0-0.1,0-0.2,0.1-0.3c0-0.1,0-0.2,0-0.3c0.1-0.4,0.1-0.8,0.1-1.2c0-0.4,0-0.8-0.1-1.2
			c-0.1-0.4-0.2-0.8-0.3-1.1c-0.2-0.4-0.4-0.7-0.6-1c0.2,0.3,0.4,0.6,0.6,1c0.2,0.4,0.3,0.7,0.3,1.1c0.1,0.4,0.1,0.8,0.1,1.2
			c0,0.4,0,0.8-0.1,1.2c0,0.1,0,0.2,0,0.3c0,0.1,0,0.2-0.1,0.3c0,0.2-0.1,0.4-0.1,0.6c-0.1,0.4-0.3,0.7-0.4,1.1
			c-0.2,0.3-0.4,0.7-0.6,1C44.4,45.3,44.2,45.6,44,46z"/>
		
			<radialGradient id="_x32_0_1_" cx="-70.6194" cy="-48.2311" r="2.975968e-02" gradientTransform="matrix(1 0 0 -1 111.9897 -14.1026)" gradientUnits="userSpaceOnUse">
			<stop  offset="0" style="stop-color:#FFFFFF"/>
			<stop  offset="1" style="stop-color:#FFFFFF;stop-opacity:0"/>
		</radialGradient>
		<path id="_x32_0_2_" inkscape:connector-curvature="0" class="st38" d="M41.4,34.2C41.4,34.2,41.4,34.1,41.4,34.2
			C41.4,34.1,41.4,34.1,41.4,34.2C41.4,34.1,41.3,34.1,41.4,34.2C41.3,34.1,41.4,34.2,41.4,34.2z"/>
		<line id="_x31_9_2_" class="st0" x1="40.8" y1="34.3" x2="41" y2="34.2"/>
		<path id="_x31_8_2_" class="st39" d="M40.8,34.3C40.8,34.2,40.8,34.2,40.8,34.3c0.1,0,0.2,0,0.2,0C40.9,34.2,40.9,34.2,40.8,34.3
			C40.8,34.2,40.8,34.3,40.8,34.3z"/>
		<path id="_x31_7_2_" class="st37" d="M41.6,34.6c0,0,0.1,0,0.1,0c0,0,0.1,0,0.1,0c0.1,0,0.2,0,0.2,0.1c0.2,0.1,0.3,0.2,0.4,0.3
			c0.1,0.1,0.3,0.2,0.4,0.3c0.1,0.1,0.1,0.1,0.2,0.2c0.1,0.1,0.1,0.1,0.2,0.2c-0.1-0.1-0.1-0.1-0.2-0.2c-0.1-0.1-0.1-0.1-0.2-0.2
			c-0.1-0.1-0.2-0.2-0.4-0.3c-0.1-0.1-0.3-0.2-0.4-0.3c-0.1,0-0.2-0.1-0.2-0.1C41.7,34.6,41.6,34.6,41.6,34.6z"/>
		<path id="_x31_6_2_" class="st40" d="M43,35.5c0,0,0.3,0.2,0.4,0.4c0,0-0.4-0.1-0.7-0.4"/>
		<path id="_x31_5_2_" class="st37" d="M43,35.5c0,0,0.1,0,0.1,0.1c0,0,0.1,0.1,0.1,0.1c0,0,0.1,0.1,0.1,0.1c0,0,0.1,0.1,0.1,0.1
			l0,0l0,0c-0.1,0-0.1,0-0.2-0.1c-0.1,0-0.1-0.1-0.2-0.1c-0.1-0.1-0.2-0.2-0.3-0.3c0.1,0.1,0.2,0.2,0.3,0.2c0.1,0,0.1,0.1,0.2,0.1
			c0.1,0,0.1,0,0.2,0.1l0,0c0,0-0.1-0.1-0.1-0.1c0,0-0.1-0.1-0.1-0.1c0,0-0.1-0.1-0.1-0.1C43,35.6,43,35.6,43,35.5z"/>
		<path id="_x31_4_2_" class="st40" d="M42.4,35.5c0,0,0.6,0.4,0.7,0.4c0,0-0.1-0.3-0.4-0.4"/>
		<path id="_x31_3_2_" class="st37" d="M42.4,35.5l0.4,0.2c0.1,0,0.1,0.1,0.2,0.1c0,0,0.1,0,0.1,0.1c0,0,0.1,0,0.1,0l0,0
			c0,0,0-0.1-0.1-0.1c0,0-0.1-0.1-0.1-0.1c0,0-0.1-0.1-0.1-0.1c0,0-0.1-0.1-0.1-0.1c0,0,0.1,0,0.1,0.1c0,0,0.1,0.1,0.1,0.1
			c0,0,0.1,0.1,0.1,0.1c0,0,0.1,0.1,0.1,0.1l0,0l0,0c-0.1,0-0.1-0.1-0.2-0.1c-0.1,0-0.1-0.1-0.2-0.1C42.6,35.6,42.5,35.5,42.4,35.5z
			"/>
		<path id="_x31_2_2_" class="st40" d="M42.6,35.3c0,0,0.3,0.1,0.4,0.4c0,0-0.6-0.2-0.7-0.4"/>
		<path id="_x31_1_3_" class="st37" d="M42.6,35.3c0,0,0.1,0,0.1,0.1c0,0,0.1,0.1,0.1,0.1c0,0,0.1,0.1,0.1,0.1c0,0,0.1,0.1,0.1,0.1
			l0,0l0,0c-0.1,0-0.1-0.1-0.2-0.1c-0.1,0-0.1-0.1-0.2-0.1c-0.1,0-0.1-0.1-0.2-0.1c0,0-0.1,0-0.1-0.1c0,0-0.1,0-0.1-0.1
			c0,0,0,0,0.1,0.1c0,0,0.1,0,0.1,0.1c0.1,0,0.1,0.1,0.2,0.1c0.1,0.1,0.2,0.1,0.4,0.2l0,0c0,0,0-0.1-0.1-0.1c0,0-0.1-0.1-0.1-0.1
			c0,0-0.1-0.1-0.1-0.1C42.7,35.3,42.7,35.3,42.6,35.3z"/>
		<path id="_x31_0_3_" class="st40" d="M42.1,35.5c0,0,0.6,0.4,0.7,0.4c0,0-0.2-0.3-0.5-0.4"/>
		<path id="_x39__3_" class="st37" d="M42.1,35.5c0.1,0,0.1,0.1,0.2,0.1c0.1,0,0.1,0.1,0.2,0.1c0.1,0,0.1,0.1,0.2,0.1
			c0,0,0.1,0,0.1,0c0,0,0.1,0,0.1,0l0,0c0,0-0.1-0.1-0.1-0.1c0,0-0.1-0.1-0.1-0.1c0,0-0.1-0.1-0.1-0.1c0,0-0.1-0.1-0.1-0.1
			c0.1,0,0.2,0.1,0.3,0.2c0,0,0.1,0.1,0.1,0.1c0,0,0.1,0.1,0.1,0.1l0,0l0,0c0,0-0.1,0-0.1,0c0,0-0.1,0-0.1,0c-0.1,0-0.1-0.1-0.2-0.1
			c-0.1,0-0.1-0.1-0.2-0.1C42.3,35.6,42.2,35.6,42.1,35.5z"/>
		<path id="_x38__3_" class="st40" d="M42.1,35.6c0,0,0.3,0.3,0.5,0.3c0,0-0.2-0.3-0.5-0.4"/>
		<path id="_x37__3_" class="st37" d="M42.1,35.6c0,0,0.1,0.1,0.1,0.1c0,0,0.1,0,0.1,0.1c0,0,0.1,0,0.1,0.1c0,0,0,0,0.1,0
			c0,0,0,0,0.1,0l0,0c0,0-0.1-0.1-0.1-0.1c0,0-0.1-0.1-0.1-0.1c0,0-0.1-0.1-0.1-0.1c0,0-0.1-0.1-0.1-0.1c0.1,0,0.2,0.1,0.3,0.2
			c0,0,0.1,0.1,0.1,0.1c0,0,0.1,0.1,0.1,0.1l0,0l0,0c0,0-0.1,0-0.1,0c0,0-0.1,0-0.1-0.1c0,0-0.1-0.1-0.1-0.1
			C42.2,35.7,42.2,35.7,42.1,35.6z"/>
		<path id="_x36__3_" class="st40" d="M42,35.1c0,0,0.6,0.4,0.7,0.7c0,0-0.6-0.3-0.7-0.4"/>
		<path id="_x35__3_" class="st37" d="M42,35.1c0.1,0,0.1,0.1,0.2,0.1c0.1,0.1,0.1,0.1,0.2,0.2c0.1,0.1,0.1,0.1,0.2,0.2
			c0,0,0.1,0.1,0.1,0.1c0,0,0,0.1,0.1,0.1l0,0l0,0c-0.1,0-0.1-0.1-0.2-0.1c-0.1,0-0.1-0.1-0.2-0.1c-0.1,0-0.1-0.1-0.2-0.1
			c0,0-0.1,0-0.1-0.1c0,0-0.1,0-0.1-0.1c0,0,0,0,0.1,0.1c0,0,0.1,0,0.1,0.1c0.1,0,0.1,0.1,0.2,0.1c0.1,0.1,0.2,0.1,0.3,0.2l0,0
			c0,0,0-0.1-0.1-0.1c0,0,0-0.1-0.1-0.1c-0.1-0.1-0.1-0.1-0.2-0.2c-0.1-0.1-0.1-0.1-0.2-0.2C42.1,35.2,42.1,35.1,42,35.1z"/>
		<path id="_x34__3_" inkscape:connector-curvature="0" class="st6" d="M38.5,47.5c-0.4,0.3-1.6,0.5-1.8,0.4
			C37.6,47.2,38.5,47.2,38.5,47.5z"/>
		<path id="_x33__3_" inkscape:connector-curvature="0" class="st5" d="M38.5,47.5c-0.1-0.3-0.9-0.3-1.8,0.4
			C37.7,47.6,38.4,47.5,38.5,47.5L38.5,47.5z"/>
		<path id="_x32__3_" inkscape:connector-curvature="0" class="st6" d="M44.6,47.9c0.5,0.4,1.8,0.7,2,0.6
			C45.7,47.6,44.7,47.5,44.6,47.9z"/>
		<path id="_x31__2_" inkscape:connector-curvature="0" class="st5" d="M44.6,47.9c0.1-0.4,1.1-0.3,2,0.6
			C45.6,48.1,44.7,47.8,44.6,47.9z"/>
	</g>
</g>
<rect id="_x3C_Sector_x3E__6_" class="st0" width="83" height="83"/>
</svg>
