<?xml version="1.0" encoding="utf-8"?>
<!-- Generator: Adobe Illustrator 20.1.0, SVG Export Plug-In . SVG Version: 6.00 Build 0)  -->
<svg version="1.1" id="Capa_1" xmlns="http://www.w3.org/2000/svg" xmlns:xlink="http://www.w3.org/1999/xlink" x="0px" y="0px"
	 viewBox="0 0 83 83" style="enable-background:new 0 0 83 83;" xml:space="preserve">
<style type="text/css">
	.st0{fill:none;}
	.st1{fill:#437CBB;}
	.st2{fill:#EECE2C;}
	.st3{fill:#C02637;stroke:#FFFFFF;stroke-width:0.2;stroke-miterlimit:10;}
</style>
<rect id="_x3C_Sector_x3E_" class="st0" width="83" height="83"/>
<g>
	<g>
		<g>
			<path class="st1" d="M51.6,2.4c-22.2-5.5-44.7,8-50.2,30.3c-1,3.9-1.3,7.9-1.2,11.7H83C83.9,25.1,71.1,7.2,51.6,2.4z"/>
			<path class="st2" d="M83,44.4H0.2c0.1,2.6,0.5,5.1,1,7.6H82C82.6,49.4,82.9,46.9,83,44.4z"/>
			<path class="st1" d="M81.9,52.6c0.1-0.2,0.1-0.4,0.2-0.6H1.3c0.5,2.2,1.2,4.3,2,6.4H80C80.7,56.5,81.4,54.6,81.9,52.6z"/>
			<path class="st1" d="M7.2,65.7c5.5,8.3,14.1,14.6,24.5,17.2c17.4,4.3,35-3.1,44.4-17.2H7.2z"/>
			<path class="st2" d="M80,58.3H3.3c1.1,2.6,2.4,5,3.9,7.3h68.9C77.6,63.4,78.9,60.9,80,58.3z"/>
		</g>
	</g>
	<polygon class="st3" points="25.2,18.7 22.8,11 20.4,18.7 12.7,21.1 20.4,23.5 22.8,31.2 25.2,23.5 32.9,21.1 	"/>
</g>
<rect id="_x3C_Sector_x3E__9_" y="0.5" class="st0" width="84" height="83"/>
</svg>
