<?xml version="1.0" encoding="utf-8"?>
<!-- Generator: Adobe Illustrator 20.1.0, SVG Export Plug-In . SVG Version: 6.00 Build 0)  -->
<svg version="1.1" id="Capa_1" xmlns="http://www.w3.org/2000/svg" xmlns:xlink="http://www.w3.org/1999/xlink" x="0px" y="0px"
	 viewBox="0 0 83 83" style="enable-background:new 0 0 83 83;" xml:space="preserve">
<style type="text/css">
	.st0{fill:none;}
	.st1{fill:#E7C339;}
	.st2{fill:#AD3327;}
	.st3{fill:#44743A;}
</style>
<rect id="_x3C_Sector_x3E_" class="st0" width="83" height="83"/>
<g>
	<g>
		<path class="st1" d="M51.5,1.6c22.2,5.5,35.8,28,30.3,50.2c-5.5,22.2-28,35.8-50.2,30.3C9.4,76.6-4.2,54.1,1.3,31.9
			C6.8,9.7,29.3-3.9,51.5,1.6"/>
		<path class="st2" d="M80.6,28C76.1,15.3,65.5,5.1,51.5,1.6C30.6-3.6,9.5,8.1,2.5,28H80.6z"/>
		<path class="st3" d="M80.6,55.8h-78c4.5,12.6,15.1,22.8,29.1,26.3C52.5,87.2,73.5,75.6,80.6,55.8"/>
	</g>
</g>
<rect id="_x3C_Sector_x3E__13_" x="0" y="-0.3" class="st0" width="83" height="83"/>
</svg>
