<?xml version="1.0" encoding="utf-8"?>
<!-- Generator: Adobe Illustrator 20.1.0, SVG Export Plug-In . SVG Version: 6.00 Build 0)  -->
<svg version="1.1" id="Capa_1" xmlns="http://www.w3.org/2000/svg" xmlns:xlink="http://www.w3.org/1999/xlink" x="0px" y="0px"
	 viewBox="0 0 83 83" style="enable-background:new 0 0 83 83;" xml:space="preserve">
<style type="text/css">
	.st0{fill:#7DAC39;}
	.st1{fill:#F4D60C;}
	.st2{fill:#001D7E;}
	.st3{fill:#FFFFFF;}
	.st4{fill:#56954C;}
	.st5{fill:#488038;}
	.st6{fill:none;}
</style>
<g>
	<g>
		<g>
			<path class="st0" d="M1.1,31.5C6.6,9.3,29-4.3,51.2,1.2c22.2,5.5,35.8,28,30.3,50.2c-5.5,22.2-28,35.8-50.2,30.3
				C9.1,76.2-4.4,53.7,1.1,31.5"/>
		</g>
		<polygon class="st1" points="2.7,41.6 41,66 79.2,41.6 41,17.2 		"/>
		<g>
			<path class="st2" d="M41,25.2c9,0,16.4,7.3,16.4,16.4C57.4,50.7,50,58,41,58c-9.1,0-16.4-7.3-16.4-16.4
				C24.6,32.6,31.9,25.2,41,25.2"/>
			<path class="st3" d="M57.3,43.3c-7.2-5.7-16.3-9-26.2-8.7c-1.7,0.1-3.5,0.2-5.1,0.5c-0.4,0.8-0.6,1.7-0.9,2.5
				c2-0.4,4-0.6,6.1-0.7c9.8-0.3,18.8,3.1,25.6,8.9C57,45,57.2,44.2,57.3,43.3"/>
		</g>
		<path class="st4" d="M26.7,36.2l0.2,0.4l0.3,0.1l0.3-0.2l0.1-0.4l-0.2-0.4l-0.3-0.1l-0.3,0.2L26.7,36.2z M26.4,36.2l0-0.4l0.1-0.2
			l0.2-0.2l0.3-0.1l0.6,0.1l0.3,0.6l-0.1,0.6l-0.5,0.3l-0.6-0.1L26.4,36.2z"/>
		<path class="st4" d="M28.9,35.8l0.2,0l0.3,0l0.1-0.1l0-0.1l-0.1-0.1l-0.1,0l-0.2,0l-0.2,0L28.9,35.8z M28.6,36.7l-0.1-1.6l0.7-0.1
			l0.4,0l0.2,0.1l0.1,0.2l-0.1,0.3l-0.3,0.2l0.2,0.1l0.2,0.2l0.2,0.3l-0.4,0l-0.3-0.3l-0.2-0.2L29.1,36L29,36l-0.1,0l0.1,0.7
			L28.6,36.7z"/>
		<path class="st4" d="M30.9,35.2l0,1.1l0.2,0l0.2,0l0.1-0.1l0.1-0.2l0-0.3l0-0.3l-0.1-0.2l-0.2-0.1l-0.3,0L30.9,35.2z M30.6,34.9
			l0.6,0l0.3,0l0.2,0.1l0.2,0.3l0.1,0.4l0,0.3l-0.2,0.3l-0.2,0.1l-0.3,0l-0.6,0L30.6,34.9z"/>
		<polygon class="st4" points="32.6,36.5 32.6,34.9 33.8,34.9 33.8,35.2 32.9,35.2 32.9,35.5 33.7,35.5 33.7,35.8 32.9,35.8 
			32.9,36.2 33.8,36.3 33.8,36.5 		"/>
		<polygon class="st4" points="34.5,36.5 34.6,34.9 35.1,35 35.3,36.1 35.6,35 36.1,35.1 36,36.7 35.7,36.6 35.8,35.4 35.4,36.6 
			35.1,36.6 34.8,35.3 34.8,36.6 		"/>
		<polygon class="st4" points="37.7,36.8 37.9,35.3 39.1,35.4 39,35.7 38.2,35.6 38.1,35.9 38.9,36 38.9,36.3 38.1,36.2 38,36.6 
			38.9,36.8 38.9,37 		"/>
		<path class="st4" d="M41.1,36.1L41,36.5l0.2,0l0.3,0l0.1-0.1l0.1-0.1l0-0.2l-0.1-0.1l-0.2-0.1L41.1,36.1z M40.4,37.3l0.4-1.6
			l0.5,0.1l0.4,0.1l0.2,0.2l0,0.3l-0.1,0.2l-0.2,0.1l-0.2,0l-0.3-0.1l-0.2,0l-0.1,0.6L40.4,37.3z"/>
		<path class="st4" d="M42.8,37l0.2,0.1l0.3,0.1l0.1,0l0.1-0.1l0-0.1l-0.1-0.1l-0.2-0.1l-0.2-0.1L42.8,37z M42.3,37.8l0.4-1.5
			l0.7,0.2l0.3,0.1l0.1,0.2V37l-0.2,0.3l-0.3,0.1l0.1,0.2l0.1,0.3l0.1,0.4l-0.4-0.1l-0.1-0.4L43,37.4L43,37.3l-0.2-0.1l-0.1,0
			l-0.2,0.6L42.3,37.8z"/>
		<path class="st4" d="M44.7,37.7l0,0.4l0.3,0.2l0.3,0l0.3-0.4l0-0.4l-0.3-0.2l-0.3,0L44.7,37.7z M44.3,37.6l0.2-0.4l0.2-0.2L45,37
			l0.4,0.1l0.5,0.4v0.6l-0.4,0.5l-0.6,0l-0.5-0.4V37.6z"/>
		<polygon class="st4" points="47,38.8 47.2,38.5 47.8,38.8 47.6,39.4 47.2,39.4 46.8,39.3 46.5,39.1 46.3,38.7 46.4,38.3 
			46.7,37.9 47.1,37.7 47.4,37.8 47.8,38.1 47.9,38.5 47.6,38.4 47.5,38.2 47.3,38.1 47,38.1 46.7,38.4 46.7,38.8 46.9,39.1 
			47.1,39.1 47.3,39.1 47.4,38.9 		"/>
		<path class="st4" d="M48.8,39.2l0.2,0.1l0.3,0.1l0.1,0l0.1-0.1l0-0.1L49.4,39l-0.2-0.1l-0.2-0.1L48.8,39.2z M48.1,39.9l0.7-1.4
			l0.6,0.3l0.3,0.2l0.1,0.2l-0.1,0.3l-0.2,0.2l-0.4,0l0.1,0.2l0.1,0.3l0,0.4L49,40.3L49,39.9l-0.1-0.3l-0.1-0.1l-0.1-0.1l-0.1,0
			L48.4,40L48.1,39.9z"/>
		<polygon class="st4" points="49.9,40.7 50.6,39.3 51.7,39.9 51.5,40.1 50.8,39.7 50.6,40 51.3,40.4 51.2,40.6 50.5,40.3 
			50.3,40.6 51.1,41.1 50.9,41.3 		"/>
		<polygon class="st4" points="51.7,41.1 52,41.3 51.9,41.5 52.1,41.7 52.3,41.8 52.5,41.7 52.5,41.6 52.4,41.5 52.3,41.3 52,40.9 
			52.1,40.6 52.2,40.4 52.5,40.4 52.8,40.5 53.1,40.9 53.1,41.3 52.8,41.1 52.8,40.9 52.7,40.7 52.4,40.7 52.3,40.7 52.3,40.8 
			52.5,41.1 52.8,41.4 52.8,41.6 52.8,41.9 52.6,42 52.3,42.1 52,41.9 51.6,41.6 		"/>
		<polygon class="st4" points="53.3,42.1 53.6,42.3 53.5,42.5 53.7,42.7 53.9,42.8 54.1,42.7 54.1,42.6 54,42.5 53.9,42.3 53.6,42 
			53.7,41.6 53.9,41.5 54.1,41.4 54.4,41.6 54.7,41.9 54.7,42.3 54.4,42.1 54.4,41.9 54.3,41.8 54.1,41.7 54,41.8 53.9,41.9 
			54.1,42.1 54.4,42.4 54.4,42.6 54.3,42.9 54.1,43.1 53.8,43.1 53.5,42.9 53.2,42.6 		"/>
		<path class="st4" d="M55.3,43.2l-0.1,0.4l0.2,0.3l0.3,0.1l0.4-0.3l0.1-0.4L56,43l-0.3-0.1L55.3,43.2z M55,43l0.3-0.3l0.2-0.1
			l0.3,0l0.3,0.2l0.3,0.5l-0.2,0.6l-0.5,0.4l-0.6-0.2l-0.3-0.5L55,43z"/>
		<polygon class="st3" points="46.2,35.4 46.3,35.9 46.8,35.9 46.4,36.1 46.6,36.6 46.2,36.3 45.8,36.6 45.9,36.1 45.5,35.9 
			46,35.9 		"/>
		<polygon class="st3" points="41,48.6 41.2,49.1 41.7,49.1 41.3,49.4 41.4,49.8 41,49.6 40.6,49.8 40.8,49.4 40.4,49.1 40.9,49.1 
					"/>
		<polygon class="st3" points="52.7,47 52.8,47.5 53.3,47.5 52.9,47.8 53.1,48.2 52.7,47.9 52.3,48.2 52.4,47.8 52,47.5 52.5,47.5 
					"/>
		<polygon class="st3" points="55,47.4 55.1,47.7 55.4,47.7 55.1,47.9 55.2,48.2 55,48 54.7,48.2 54.8,47.9 54.6,47.7 54.9,47.7 		
			"/>
		<polygon class="st3" points="53.3,48.6 53.5,49 53.9,49 53.5,49.2 53.7,49.6 53.3,49.4 53,49.6 53.1,49.2 52.8,49 53.2,49 		"/>
		<polygon class="st3" points="52.3,49.9 52.4,50.3 52.9,50.3 52.5,50.6 52.7,51 52.3,50.7 52,51 52.1,50.6 51.8,50.3 52.2,50.3 		
			"/>
		<polygon class="st3" points="51,50.9 51.1,51.2 51.4,51.2 51.2,51.4 51.3,51.7 51,51.5 50.7,51.7 50.8,51.4 50.6,51.2 50.9,51.2 
					"/>
		<polygon class="st3" points="49.3,50.6 49.4,50.9 49.7,50.9 49.4,51.1 49.5,51.4 49.3,51.2 49,51.4 49.1,51.1 48.9,50.9 
			49.2,50.9 		"/>
		<polygon class="st3" points="47.4,51.1 47.5,51.5 47.9,51.5 47.6,51.7 47.7,52 47.4,51.8 47.1,52 47.2,51.7 47,51.5 47.3,51.5 		
			"/>
		<polygon class="st3" points="49.3,53.8 49.4,54.1 49.7,54.1 49.5,54.3 49.6,54.6 49.3,54.5 49,54.6 49.1,54.3 48.9,54.1 
			49.2,54.1 		"/>
		<polygon class="st3" points="46,52.4 46.1,52.8 46.5,52.8 46.2,53.1 46.3,53.5 46,53.3 45.6,53.5 45.7,53.1 45.4,52.8 45.8,52.8 
					"/>
		<polygon class="st3" points="44.7,50.7 44.8,51 45.1,51 44.8,51.2 45,51.5 44.7,51.3 44.4,51.5 44.5,51.2 44.2,51 44.6,51 		"/>
		<polygon class="st3" points="49.4,52 49.5,52.4 49.9,52.4 49.6,52.7 49.7,53.1 49.4,52.9 49,53.1 49.1,52.7 48.8,52.4 49.2,52.4 
					"/>
		<polygon class="st3" points="41,54.7 41.1,54.8 41.2,54.8 41.1,54.9 41.1,55.1 41,55 40.9,55.1 40.9,54.9 40.8,54.8 41,54.8 		"/>
		<polygon class="st3" points="45.4,40.4 45.5,40.7 45.8,40.7 45.5,40.9 45.7,41.3 45.4,41 45.1,41.3 45.2,40.9 44.9,40.7 
			45.3,40.7 		"/>
		<polygon class="st3" points="41,44 41.1,44.3 41.5,44.3 41.2,44.6 41.3,44.9 41,44.7 40.7,44.9 40.8,44.6 40.5,44.3 40.9,44.3 		
			"/>
		<polygon class="st3" points="43,45.5 43.1,45.9 43.5,45.9 43.2,46.1 43.3,46.5 43,46.2 42.6,46.5 42.8,46.1 42.4,45.9 42.8,45.9 
					"/>
		<polygon class="st3" points="39.4,45.5 39.5,45.8 39.8,45.8 39.5,46 39.6,46.3 39.4,46.1 39.1,46.3 39.2,46 38.9,45.8 39.3,45.8 
					"/>
		<polygon class="st3" points="40.2,46.9 40.2,47.1 40.4,47.1 40.3,47.2 40.3,47.4 40.2,47.3 40,47.4 40.1,47.2 39.9,47.1 
			40.1,47.1 		"/>
		<polygon class="st3" points="27.4,38.2 27.6,38.7 28.1,38.7 27.7,39 27.8,39.5 27.4,39.2 27,39.5 27.2,39 26.8,38.7 27.3,38.7 		
			"/>
		<polygon class="st3" points="34.6,42 34.7,42.3 35.1,42.3 34.8,42.6 34.9,43 34.6,42.7 34.3,43 34.4,42.6 34.1,42.3 34.5,42.3 		
			"/>
		<polygon class="st3" points="28.9,45.2 29.1,45.7 29.6,45.7 29.2,46 29.3,46.4 28.9,46.1 28.5,46.4 28.7,46 28.3,45.7 28.8,45.7 
					"/>
		<polygon class="st3" points="30.5,44.5 30.6,44.7 30.8,44.7 30.6,44.9 30.7,45.1 30.5,45 30.3,45.1 30.4,44.9 30.2,44.7 
			30.4,44.7 		"/>
		<polygon class="st3" points="32.4,47 32.5,47.3 32.9,47.3 32.6,47.6 32.7,48 32.4,47.7 32.1,48 32.2,47.6 31.8,47.3 32.3,47.3 		
			"/>
		<polygon class="st3" points="34.3,50 34.5,50.5 35,50.5 34.6,50.7 34.7,51.2 34.3,50.9 33.9,51.2 34.1,50.7 33.7,50.5 34.2,50.5 
					"/>
		<polygon class="st3" points="31.9,48.6 32,49 32.4,49 32.1,49.2 32.2,49.6 31.9,49.4 31.5,49.6 31.6,49.2 31.3,49 31.7,49 		"/>
		<polygon class="st3" points="26.9,46.9 27,47.2 27.3,47.2 27,47.4 27.1,47.7 26.9,47.5 26.6,47.7 26.7,47.4 26.4,47.2 26.8,47.2 
					"/>
		<path class="st5" d="M42.7,36.2l-0.4,1.5l0.3,0.1l0.2-0.6l0.1,0l0.2,0.1l0.1,0.1l0.1,0.3l0.1,0.4l0.4,0.1l-0.1-0.4l-0.1-0.3
			l-0.1-0.2l0.3-0.1l0.2-0.3v-0.3l-0.1-0.2l-0.3-0.1L42.7,36.2z M43.3,37.1L43.1,37L42.8,37l0.1-0.4l0.2,0.1l0.2,0.1l0.1,0.1l0,0.1
			l-0.1,0.1L43.3,37.1z"/>
		<path class="st5" d="M45,37L44.8,37l-0.2,0.2l-0.2,0.4v0.6l0.5,0.4l0.6,0l0.4-0.5v-0.6L45.4,37L45,37z M44.9,38.3l-0.3-0.2l0-0.4
			l0.3-0.4l0.3,0l0.3,0.2l0,0.4l-0.3,0.4L44.9,38.3z"/>
		<polygon class="st5" points="47.1,37.7 46.7,37.9 46.4,38.3 46.3,38.7 46.5,39.1 46.8,39.3 47.2,39.4 47.6,39.4 47.8,38.8 
			47.2,38.5 47,38.8 47.4,38.9 47.3,39.1 47.1,39.1 46.9,39.1 46.7,38.8 46.7,38.4 47,38.1 47.3,38.1 47.5,38.2 47.6,38.4 
			47.9,38.5 47.8,38.1 47.4,37.8 		"/>
		<path class="st5" d="M48.8,38.4l-0.7,1.4l0.3,0.1l0.3-0.6l0.1,0l0.1,0.1l0.1,0.1l0.1,0.3l0.1,0.4l0.4,0.2l0-0.4l-0.1-0.3l-0.1-0.2
			l0.4,0l0.2-0.2l0.1-0.3l-0.1-0.2l-0.3-0.2L48.8,38.4z M49.3,39.4L49,39.3l-0.2-0.1l0.2-0.4l0.2,0.1l0.2,0.1l0.1,0.1l0,0.1
			l-0.1,0.1L49.3,39.4z"/>
		<polygon class="st5" points="50.6,39.3 49.9,40.7 50.9,41.3 51.1,41.1 50.3,40.6 50.5,40.3 51.2,40.6 51.3,40.4 50.6,40 
			50.8,39.7 51.5,40.1 51.7,39.9 		"/>
		<polygon class="st5" points="52.5,40.4 52.2,40.4 52.1,40.6 52,40.9 52.3,41.3 52.4,41.5 52.5,41.6 52.5,41.7 52.3,41.8 
			52.1,41.7 51.9,41.5 52,41.3 51.7,41.1 51.6,41.6 52,41.9 52.3,42.1 52.6,42 52.8,41.9 52.8,41.6 52.8,41.4 52.5,41.1 52.3,40.8 
			52.3,40.7 52.4,40.7 52.7,40.7 52.8,40.9 52.8,41.1 53.1,41.3 53.1,40.9 52.8,40.5 		"/>
		<polygon class="st5" points="54.1,41.4 53.9,41.5 53.7,41.6 53.6,42 53.9,42.3 54,42.5 54.1,42.6 54.1,42.7 53.9,42.8 53.7,42.7 
			53.5,42.5 53.6,42.3 53.3,42.1 53.2,42.6 53.5,42.9 53.8,43.1 54.1,43.1 54.3,42.9 54.4,42.6 54.4,42.4 54.1,42.1 53.9,41.9 
			54,41.8 54.1,41.7 54.3,41.8 54.4,41.9 54.4,42.1 54.7,42.3 54.7,41.9 54.4,41.6 		"/>
		<path class="st5" d="M55.6,42.6l-0.2,0.1L55,43l-0.2,0.6l0.3,0.5l0.6,0.2l0.5-0.4l0.2-0.6l-0.3-0.5l-0.3-0.2L55.6,42.6z M55.6,44
			l-0.3-0.1l-0.2-0.3l0.1-0.4l0.3-0.3L56,43l0.2,0.3L56,43.7L55.6,44z"/>
	</g>
</g>
<rect id="_x3C_Sector_x3E_" class="st6" width="83" height="83"/>
</svg>
