<?xml version="1.0" encoding="utf-8"?>
<!-- Generator: Adobe Illustrator 20.1.0, SVG Export Plug-In . SVG Version: 6.00 Build 0)  -->
<svg version="1.1" id="Capa_1" xmlns="http://www.w3.org/2000/svg" xmlns:xlink="http://www.w3.org/1999/xlink" x="0px" y="0px"
	 viewBox="0 0 83 83" style="enable-background:new 0 0 83 83;" xml:space="preserve">
<style type="text/css">
	.st0{fill:none;}
	.st1{clip-path:url(#SVGID_2_);}
	.st2{fill:#C12A24;}
	.st3{fill:#FFFFFF;}
</style>
<rect id="_x3C_Sector_x3E_" class="st0" width="83" height="83"/>
<g>
	<defs>
		<circle id="SVGID_1_" cx="41.6" cy="41.8" r="41.4"/>
	</defs>
	<clipPath id="SVGID_2_">
		<use xlink:href="#SVGID_1_"  style="overflow:visible;"/>
	</clipPath>
	<g class="st1">
		<rect id="_x33__8_" x="-13.7" y="0.4" class="st2" width="110.5" height="82.9"/>
		<rect id="_x32__8_" x="13.9" y="0.4" class="st3" width="55.3" height="82.9"/>
		<path id="_x31__7_" class="st2" d="M41.6,19.4l-3.8,7c-0.4,0.8-1.2,0.7-2,0.3l-2.7-1.4l2,10.8c0.4,2-0.9,2-1.6,1.1l-4.8-5.3
			L28,34.6c-0.1,0.4-0.5,0.7-1.1,0.6l-6-1.3l1.6,5.8c0.3,1.3,0.6,1.8-0.3,2.1l-2.1,1l10.4,8.4c0.4,0.3,0.6,0.9,0.5,1.4l-0.9,3
			c3.6-0.4,6.8-1,10.3-1.4c0.3,0,0.8,0.5,0.8,0.9L40.6,66h1.7l-0.3-10.9c0-0.4,0.5-0.9,0.8-0.9c3.6,0.4,6.8,1,10.3,1.4l-0.9-3
			c-0.1-0.5,0.1-1.1,0.5-1.4l10.4-8.4l-2.1-1c-0.9-0.3-0.7-0.9-0.3-2.1l1.6-5.8l-6,1.3c-0.6,0.1-1-0.3-1.1-0.6l-0.8-2.7l-4.8,5.3
			C48.9,38,47.6,38,48,36.1l2-10.8l-2.7,1.4c-0.8,0.4-1.5,0.5-2-0.3"/>
	</g>
</g>
<rect id="_x3C_Sector_x3E__8_" y="-0.3" class="st0" width="83" height="83"/>
</svg>
