<?xml version="1.0" encoding="utf-8"?>
<!-- Generator: Adobe Illustrator 20.1.0, SVG Export Plug-In . SVG Version: 6.00 Build 0)  -->
<svg version="1.1" id="Capa_1" xmlns="http://www.w3.org/2000/svg" xmlns:xlink="http://www.w3.org/1999/xlink" x="0px" y="0px"
	 viewBox="0 0 83 83" style="enable-background:new 0 0 83 83;" xml:space="preserve">
<style type="text/css">
	.st0{fill:#F3D601;}
	.st1{fill:#203885;}
	.st2{fill:#C33C18;}
</style>
<g>
	<path class="st0" d="M51.3,2C29-3.5,6.6,10,1.1,32.2c-0.8,3.1-1.2,6.2-1.2,9.3h82.9C82.5,23.2,69.9,6.6,51.3,2z"/>
	<path class="st1" d="M81.5,52.2c0.9-3.6,1.3-7.1,1.2-10.6H-0.1c-0.1,8.3,2.2,16.2,6.5,22.9h69.9C78.6,60.8,80.4,56.6,81.5,52.2z"/>
	<path class="st2" d="M6.4,64.5c5.5,8.7,14.2,15.3,25,17.9c17.7,4.4,35.6-3.4,44.9-17.9H6.4z"/>
</g>
</svg>
