<?xml version="1.0" encoding="utf-8"?>
<!-- Generator: Adobe Illustrator 20.1.0, SVG Export Plug-In . SVG Version: 6.00 Build 0)  -->
<svg version="1.1" id="Capa_1" xmlns="http://www.w3.org/2000/svg" xmlns:xlink="http://www.w3.org/1999/xlink" x="0px" y="0px"
	 viewBox="0 0 83 83" style="enable-background:new 0 0 83 83;" xml:space="preserve">
<style type="text/css">
	.st0{fill:#233D90;}
	.st1{fill-rule:evenodd;clip-rule:evenodd;fill:#FFCD00;}
	.st2{fill-rule:evenodd;clip-rule:evenodd;fill:#FFCD00;stroke:#FFCD00;stroke-width:0.2268;stroke-miterlimit:10;}
</style>
<g>
	<path class="st0" d="M1.3,31.5C6.8,9.3,29.2-4.2,51.5,1.3c22.2,5.5,35.8,28,30.3,50.2c-5.5,22.2-28,35.8-50.2,30.3
		C9.3,76.2-4.2,53.8,1.3,31.5"/>
</g>
<polygon class="st1" points="12.9,41.5 15.5,40.7 15.5,37.9 17.1,40.1 19.7,39.3 18.1,41.5 19.7,43.7 17.1,42.9 15.5,45.1 
	15.5,42.3 "/>
<polygon class="st1" points="16.3,54.2 18.9,53.4 18.9,50.7 20.5,52.9 23.1,52 21.5,54.2 23.1,56.4 20.5,55.6 18.9,57.8 18.9,55.1 
	"/>
<polygon class="st1" points="25.6,63.6 28.2,62.7 28.2,60 29.8,62.2 32.4,61.3 30.8,63.5 32.4,65.8 29.8,64.9 28.2,67.2 28.2,64.4 
	"/>
<polygon class="st1" points="16.4,28.8 18.9,27.9 18.9,25.2 20.6,27.4 23.1,26.6 21.6,28.8 23.1,31 20.6,30.1 18.9,32.3 18.9,29.6 
	"/>
<polygon class="st1" points="28,16.2 29.7,18.5 32.2,17.6 30.6,19.8 32.2,22 29.7,21.2 28,23.4 28,20.7 25.4,19.9 28,19 "/>
<polygon class="st1" points="40.8,12.8 42.4,15 45,14.1 43.4,16.3 45,18.5 42.4,17.7 40.8,19.9 40.8,17.2 38.2,16.3 40.8,15.5 "/>
<polygon class="st1" points="57.3,17.4 55.7,19.6 57.3,21.8 54.7,21 53.1,23.2 53.1,20.5 50.5,19.6 53.1,18.8 53.1,16.1 54.7,18.3 
	"/>
<polygon class="st1" points="70.1,43.5 67.5,42.7 65.9,44.9 65.9,42.1 63.3,41.3 65.9,40.4 65.9,37.7 67.5,39.9 70.1,39.1 
	68.5,41.3 "/>
<polygon class="st2" points="66.7,56.2 64.1,55.4 62.5,57.6 62.5,54.9 59.9,54.1 62.5,53.2 62.5,50.5 64.1,52.7 66.7,51.8 
	65.1,54.1 "/>
<polygon class="st1" points="66.6,26.7 65.1,28.9 66.6,31.2 64,30.3 62.4,32.5 62.4,29.8 59.9,28.9 62.4,28.1 62.4,25.4 64.1,27.6 
	"/>
<polygon class="st1" points="40.9,70.2 40.9,67.5 38.2,66.7 40.9,65.8 40.8,63.1 42.5,65.3 45,64.5 43.4,66.7 45.1,68.9 42.5,68 "/>
<polygon class="st1" points="57.3,65.6 54.7,64.7 53.1,66.9 53.1,64.2 50.5,63.4 53.1,62.5 53.1,59.8 54.7,62 57.3,61.2 55.7,63.4 
	"/>
</svg>
