<?xml version="1.0" encoding="utf-8"?>
<!-- Generator: Adobe Illustrator 20.1.0, SVG Export Plug-In . SVG Version: 6.00 Build 0)  -->
<svg version="1.1" id="Capa_1" xmlns="http://www.w3.org/2000/svg" xmlns:xlink="http://www.w3.org/1999/xlink" x="0px" y="0px"
	 viewBox="0 0 83 83" style="enable-background:new 0 0 83 83;" xml:space="preserve">
<style type="text/css">
	.st0{fill:none;}
	.st1{fill:#F7F7F8;}
	.st2{fill:#C43E19;}
	.st3{fill:#00386D;}
</style>
<rect id="_x3C_Sector_x3E_" class="st0" width="83" height="83"/>
<g>
	<g>
		<path class="st1" d="M1.4,31.5C6.8,9.3,29.3-4.3,51.5,1.2c22.2,5.5,35.8,28,30.3,50.2c-5.5,22.2-28,35.8-50.2,30.3
			C9.4,76.2-4.2,53.7,1.4,31.5"/>
		<path class="st2" d="M79.9,25.7H47.8V32h34.1C81.4,29.9,80.7,27.7,79.9,25.7 M71.7,13H47.8v6.4h28.8C75.2,17.1,73.5,14.9,71.7,13
			 M11.6,70.1h59.9c1.9-1.9,3.5-4.1,5-6.3H6.7C8.1,66,9.8,68.2,11.6,70.1 M51.5,1.2c-1.2-0.3-2.5-0.6-3.7-0.7v6.2h16.3
			C60.3,4.2,56.1,2.4,51.5,1.2 M82.9,38.4H47.8v6.4h35.1C83.1,42.6,83.1,40.5,82.9,38.4 M3.3,57.4h76.5c0.8-1.9,1.5-3.9,2-6
			c0-0.1,0.1-0.2,0.1-0.3H1.3C1.8,53.2,2.5,55.4,3.3,57.4 M31.6,81.7c2.5,0.6,4.9,1,7.3,1.1h5.3c7-0.4,13.7-2.7,19.5-6.3H19.4
			C23.1,78.8,27.2,80.6,31.6,81.7"/>
		<path class="st3" d="M44.7,42.4l-0.9-0.7l-0.9,0.7l0.3-1.1l-0.9-0.7h1.1l0.3-1.1l0.3,1.1h1.1l-0.9,0.7L44.7,42.4z M40.3,9l0.3,1.1
			l-0.9-0.7l-0.9,0.7L39.1,9l-0.9-0.6h1.1l0.3-1.1L40,8.4h1.1L40.3,9z M40.3,18.5l0.3,1.1l-0.9-0.7l-0.9,0.7l0.3-1.1l-0.9-0.7h1.1
			l0.3-1.1l0.3,1.1h1.1L40.3,18.5z M40.2,27.9l0.3,1.1l-0.9-0.7l-0.9,0.7l0.3-1.1l-0.9-0.7h1.1l0.3-1.1l0.3,1.1h1.1L40.2,27.9z
			 M40.4,38.2l-0.9-0.7l-0.9,0.7l0.3-1.1l-0.9-0.7h1.1l0.3-1.1l0.3,1.1H41l-0.9,0.7L40.4,38.2z M36,13.6l0.3,1.1L35.5,14l-0.9,0.6
			l0.3-1.1L34,13h1.1l0.3-1.1l0.3,1.1h1.1L36,13.6z M36,22.9l0.3,1.1l-0.9-0.7l-0.9,0.7l0.3-1.1L34,22.2h1.1l0.3-1.1l0.3,1.1h1.1
			L36,22.9z M36,32.3l0.3,1.1l-0.9-0.7l-0.9,0.7l0.3-1.1L34,31.7h1.1l0.3-1.1l0.3,1.1h1.1L36,32.3z M36.4,42.4l-0.9-0.7l-0.9,0.7
			l0.3-1.1L34,40.7h1.1l0.3-1.1l0.3,1.1h1.1L36,41.3L36.4,42.4z M32,9l0.3,1.1l-0.9-0.7l-0.9,0.7L30.9,9L30,8.4h1.1l0.3-1.1l0.3,1.1
			h1.1L32,9z M32,18.5l0.3,1.1l-0.9-0.7l-0.9,0.7l0.3-1.1L30,17.9h1.1l0.3-1.1l0.3,1.1h1.1L32,18.5z M31.9,27.9l0.3,1.1l-0.9-0.7
			l-0.9,0.7l0.3-1.1l-0.9-0.7H31l0.3-1.1l0.3,1.1h1.1L31.9,27.9z M32.1,38.2l-0.9-0.7l-0.9,0.7l0.3-1.1l-0.9-0.7h1.1l0.3-1.1
			l0.3,1.1h1.1l-0.9,0.7L32.1,38.2z M27.7,4.4l0.3,1.1l-0.9-0.7l-0.9,0.7l0.3-1.1l-0.9-0.7h1.1l0.3-1.1l0.3,1.1h1.1L27.7,4.4z
			 M27.7,13.6l0.3,1.1L27.2,14l-0.9,0.6l0.3-1.1L25.7,13h1.1l0.3-1.1l0.3,1.1h1.1L27.7,13.6z M27.7,22.9l0.3,1.1l-0.9-0.7l-0.9,0.7
			l0.3-1.1l-0.9-0.7h1.1l0.3-1.1l0.3,1.1h1.1L27.7,22.9z M27.7,32.3l0.3,1.1l-0.9-0.7l-0.9,0.7l0.3-1.1l-0.9-0.6h1.1l0.3-1.1
			l0.3,1.1h1.1L27.7,32.3z M28.1,42.4l-0.9-0.7l-0.9,0.7l0.3-1.1l-0.9-0.7h1.1l0.3-1.1l0.3,1.1h1.1l-0.9,0.7L28.1,42.4z M23.7,8.7
			L24,9.7l-0.9-0.7l-0.9,0.7l0.3-1.1L21.7,8h1.1L23.1,7L23.5,8h1.1L23.7,8.7z M23.7,18.2l0.3,1.1l-0.9-0.6l-0.9,0.6l0.3-1.1
			l-0.9-0.7h1.1l0.3-1.1l0.3,1.1h1.1L23.7,18.2z M23.6,27.6l0.3,1.1L23,28l-0.9,0.7l0.3-1.1l-0.9-0.7h1.1l0.3-1.1l0.3,1.1h1.1
			L23.6,27.6z M23.9,37.9L23,37.2l-0.9,0.7l0.3-1.1l-0.9-0.6h1.1l0.3-1.1l0.3,1.1h1.1l-0.9,0.6L23.9,37.9z M19.5,13.6l0.3,1.1
			L18.9,14L18,14.7l0.3-1.1L17.5,13h1.1l0.3-1.1l0.3,1.1h1.1L19.5,13.6z M19.5,22.9l0.3,1.1l-0.9-0.7L18,23.9l0.3-1.1l-0.9-0.7h1.1
			l0.3-1.1l0.3,1.1h1.1L19.5,22.9z M19.5,32.3l0.3,1.1l-0.9-0.7L18,33.4l0.3-1.1l-0.9-0.6h1.1l0.3-1.1l0.3,1.1h1.1L19.5,32.3z
			 M19.8,42.4l-0.9-0.7L18,42.4l0.3-1.1l-0.9-0.7h1.1l0.3-1.1l0.3,1.1h1.1l-0.9,0.7L19.8,42.4z M15.4,18.1l0.3,1.1l-0.9-0.7
			l-0.9,0.7l0.3-1.1l-0.9-0.7h1.1l0.3-1.1l0.3,1.1h1.1L15.4,18.1z M15.3,27.5l0.3,1.1l-0.9-0.7l-0.9,0.7l0.3-1.1l-0.9-0.7h1.1
			l0.3-1.1l0.3,1.1h1.1L15.3,27.5z M15.6,37.8l-0.9-0.7l-0.9,0.7l0.3-1.1l-0.9-0.7h1.1l0.3-1.1l0.3,1.1h1.1l-0.9,0.7L15.6,37.8z
			 M35.1,3.7l0.3-1.1l0.3,1.1h1.1L36,4.4l0.3,1.1l-0.9-0.7l-0.9,0.7l0.3-1.1L34,3.7H35.1z M43.4,31.7l0.3-1.1l0.3,1.1h1.1l-0.9,0.6
			l0.3,1.1l-0.9-0.7l-0.9,0.7l0.3-1.1l-0.9-0.6H43.4z M43.4,22.2l0.3-1.1l0.3,1.1h1.1l-0.9,0.7l0.3,1.1l-0.9-0.7l-0.9,0.7l0.3-1.1
			l-0.9-0.7H43.4z M43.4,13l0.3-1.1l0.3,1.1h1.1l-0.9,0.7l0.3,1.1L43.8,14l-0.9,0.6l0.3-1.1L42.3,13H43.4z M43.4,3.7l0.3-1.1
			l0.3,1.1h1.1l-0.9,0.7l0.3,1.1l-0.9-0.7l-0.9,0.7l0.3-1.1l-0.9-0.7H43.4z M11.2,22.9l0.3,1.1l-0.9-0.7l-0.9,0.7l0.3-1.1l-0.9-0.7
			h1.1l0.3-1.1l0.3,1.1h1.1L11.2,22.9z M11.2,32.3l0.3,1.1l-0.9-0.7l-0.9,0.7l0.3-1.1l-0.9-0.6h1.1l0.3-1.1l0.3,1.1h1.1L11.2,32.3z
			 M11.5,42.4l-0.9-0.7l-0.9,0.7l0.3-1.1l-0.9-0.7h1.1l0.3-1.1l0.3,1.1h1.1l-0.9,0.7L11.5,42.4z M7,27.3l0.3,1.1l-0.9-0.7l-0.9,0.7
			l0.3-1.1L5,26.7h1.1l0.3-1.1l0.3,1.1h1.1L7,27.3z M7.3,37.6l-0.9-0.7l-0.9,0.7l0.3-1.1l-0.9-0.7h1.1l0.3-1.1l0.3,1.1h1.1l-0.9,0.7
			L7.3,37.6z M3.2,42.4l-0.9-0.7l-0.9,0.7l0.3-1.1l-0.9-0.7H2l0.3-1.1l0.3,1.1h1.1l-0.9,0.7L3.2,42.4z M47.8,0.5
			C47.4,0.4,44.4,0.1,44,0l-7.4,0.3c-7.7,1-15,4.1-20.9,8.9l0.2,0.5l-0.4-0.3c-1.4,1.1-2.7,2.3-3.9,3.6h0.6l-0.9,0.7l0.3,1.1
			L10.6,14l-0.4,0.3c-0.8,1-1.6,2-2.4,3H8l-0.3,0.2c-0.2,0.3-0.4,0.5-0.5,0.8L7.5,19L7,18.6c-2.5,3.8-4.4,8.1-5.6,12.8
			c0,0.1,0,0.1,0,0.2H2l0.3-1.1l0.3,1.1h1.1l-0.9,0.6l0.3,1.1l-0.9-0.7l-0.9,0.7l0.3-1.1l-0.5-0.4c-1,4.3-1.3,8.6-1,12.8h47.5V0.5z"
			/>
	</g>
</g>
<rect id="_x3C_Sector_x3E__1_" x="0" y="0" class="st0" width="83" height="83"/>
</svg>
