<?xml version="1.0" encoding="UTF-8" standalone="no"?>
<!-- Created with Inkscape (http://www.inkscape.org/) -->

<svg
   xmlns:dc="http://purl.org/dc/elements/1.1/"
   xmlns:cc="http://creativecommons.org/ns#"
   xmlns:rdf="http://www.w3.org/1999/02/22-rdf-syntax-ns#"
   xmlns:svg="http://www.w3.org/2000/svg"
   xmlns="http://www.w3.org/2000/svg"
   xmlns:xlink="http://www.w3.org/1999/xlink"
   version="1.1"
   width="100%"
   height="100%"
   viewBox="0 0 83 83"
   id="Capa_1"
   xml:space="preserve"><metadata
     id="metadata432"><rdf:RDF><cc:Work
         rdf:about=""><dc:format>image/svg+xml</dc:format><dc:type
           rdf:resource="http://purl.org/dc/dcmitype/StillImage" /><dc:title></dc:title></cc:Work></rdf:RDF></metadata><defs
     id="defs430" /><style
     type="text/css"
     id="style3" /><rect
     width="83"
     height="83"
     x="0"
     y="0"
     id="_x3C_Sector_x3E_"
     style="fill:none" /><g
     id="g6"><defs
       id="defs8"><circle
         cx="41.599998"
         cy="41.400002"
         r="41.400002"
         id="SVGID_1_" /></defs><clipPath
       id="SVGID_2_"><use
         id="use12"
         style="overflow:visible"
         x="0"
         y="0"
         width="83"
         height="83"
         xlink:href="#SVGID_1_" /></clipPath><g
       clip-path="url(#SVGID_2_)"
       id="g14"><rect
         width="82.900002"
         height="82.900002"
         x="0.1"
         y="0"
         id="_x33_56_2_"
         style="fill:#638dbf" /><rect
         width="27.6"
         height="82.900002"
         x="27.700001"
         y="0"
         id="_x33_55_2_"
         style="fill:#ffffff" /><path
         d="m 39.1,48.1 c 0.2,0 0.4,-0.1 0.5,-0.2"
         id="_x33_54_2_" /><path
         d="m 39.9,47.6 c 0.1,0.1 0.2,0.3 0.3,0.4"
         id="_x33_53_2_" /><path
         d="m 39.4,47.6 c 0.1,0.1 0.2,0.2 0.3,0.4"
         id="_x33_52_2_" /><path
         d="m 35.4,36.2 c -0.1,0.1 -0.3,0.2 -0.4,0.3"
         id="_x33_51_2_" /><path
         d="m 35,36.4 c 0,-0.1 0,-0.3 0,-0.4"
         id="_x33_50_2_" /><path
         d="m 34.8,36.5 c 0,0 0,0.1 0.1,0.2"
         id="_x33_49_2_" /><path
         d="m 35,36.7 c 0,0 -0.1,0 -0.2,0"
         id="_x33_48_2_" /><path
         d="m 34.5,36.7 c 0,0.2 0,0.5 0,0.7"
         id="_x33_47_2_" /><path
         d="m 34.4,37.3 c 0,0.1 0.1,0.1 0.1,0.2"
         id="_x33_46_2_" /><path
         d="m 34.1,38 c 0,0.1 0.1,0.2 0.1,0.3"
         id="_x33_45_2_" /><path
         d="m 34.6,38 c 0,0 -0.1,0.1 -0.2,0.1"
         id="_x33_44_2_" /><path
         d="m 34.5,38.5 c -0.1,0.1 -0.2,0.1 -0.3,0.2"
         id="_x33_43_2_" /><path
         d="m 33.9,42.1 c 0.1,0.2 0.2,0.3 0.3,0.4"
         id="_x33_42_2_" /><path
         d="m 34.3,42.7 c -0.1,0 -0.2,0 -0.3,-0.1"
         id="_x33_41_2_" /><path
         d="m 34.4,43.3 0.1,0.1"
         id="_x33_40_2_" /><path
         d="m 34.5,43.7 c 0.1,0.1 0.2,0.2 0.3,0.3"
         id="_x33_39_2_" /><path
         d="m 34.7,44.3 c 0.1,0 0.2,0.1 0.3,0.1"
         id="_x33_38_2_" /><path
         d="m 34.9,44.6 0.2,0"
         id="_x33_37_2_" /><path
         d="m 35.2,44.1 c 0,0.1 0,0.3 0,0.4"
         id="_x33_36_2_" /><path
         d="m 35.3,44.6 0,-0.1"
         id="_x33_35_2_" /><path
         d="m 35.7,45 0,0.3"
         id="_x33_34_2_" /><path
         d="M 39.1,47.7 39,47.8"
         id="_x33_33_2_" /><path
         d="M 38.8,47.5 38.7,47.3"
         id="_x33_32_2_" /><path
         d="m 35.2,44.2 c -0.2,-0.5 -0.1,-1.9 0,-2 0.6,1.1 0.4,2 0,2 z"
         id="_x33_31_2_" /><path
         d="m 35.2,44.2 c 0.4,0 0.6,-0.9 0,-2 0.1,1 0.1,1.9 0,2 z"
         id="_x33_30_2_" /><path
         d="M 42.1,48.8 C 42,48.7 41.9,48.6 41.8,48.6 41.1,48.2 40.5,48.1 39.7,48 c -0.2,0 -0.3,-0.2 -0.5,-0.3 -0.4,-0.2 -0.9,-0.3 -1.3,-0.5 0,0 -0.1,-0.1 -0.2,-0.1 C 37.5,46.9 37.2,46.8 37,46.7 36.3,46 35.5,45.4 35.1,44.5 34.6,43.4 34,42.3 34.1,41 c 0.1,-0.8 -0.1,-1.6 0.1,-2.3 0.3,-1.1 0.7,-2.2 1.3,-3.1 l -0.1,0.1 c -0.7,0.9 -1,2 -1.3,3.1 -0.1,0.6 0,1.4 -0.1,2.2 -0.1,1.2 0.5,2.4 1,3.5 0.4,0.9 1.2,1.5 1.9,2.2 0.2,0.2 0.5,0.2 0.7,0.4 0,0.1 0.2,0.1 0.2,0.1 0.4,0.2 0.9,0.3 1.3,0.5 0.2,0.1 0.4,0.2 0.5,0.3 0.8,0.1 1.4,0.3 2.1,0.6 0.1,0.1 0.2,0.1 0.3,0.2 l 0.1,0"
         id="_x33_29_2_" /><path
         d="m 39.2,48.1 c -0.6,0 -1.8,0.8 -1.9,1 1.3,0 2,-0.7 1.9,-1 z"
         id="_x33_28_2_" /><path
         d="m 39.8,47.7 c -0.6,-0.5 -1.2,-2 -1.2,-2.3 1.3,1 1.6,2.1 1.2,2.3 z"
         id="_x33_27_2_" /><path
         d="M 39.4,47.7 C 38.8,47.3 38,46 38,45.7 c 1.3,0.8 1.7,1.8 1.4,2 z"
         id="_x33_26_2_" /><path
         d="m 38,47.1 c 0.1,-0.7 -0.5,-2.1 -0.7,-2.2 -0.2,1.4 0.3,2.4 0.7,2.2 z"
         id="_x33_25_2_" /><path
         d="m 35.7,45 c -0.2,-0.5 -0.1,-1.7 0,-1.8 0.5,1 0.3,1.9 0,1.8 z"
         id="_x33_24_2_" /><path
         d="m 36.2,45.9 c -0.4,-0.5 -1.7,-1 -1.9,-1 0.8,1.1 1.7,1.3 1.9,1 z"
         id="_x33_23_2_" /><path
         d="m 34.1,41.3 c -0.1,-0.7 -1.1,-2 -1.3,-2.1 0.1,1.5 0.9,2.3 1.3,2.1 z"
         id="_x33_22_2_" /><path
         d="M 34.8,44.3 C 34.4,44 33.2,43.8 33,43.9 c 0.8,0.7 1.7,0.7 1.8,0.4 l 0,0 z"
         id="_x33_21_2_" /><path
         d="M 34,42.1 C 33.8,41.6 32.7,40.9 32.5,40.9 33,42 33.8,42.4 34,42.1 z"
         id="_x33_20_2_" /><path
         d="m 34.2,38 c 0.1,-0.7 -0.5,-2 -0.6,-2.2 -0.3,1.4 0.2,2.4 0.6,2.2 z"
         id="_x33_19_2_" /><path
         d="m 34.5,38.4 c 0.3,-0.6 1.6,-1.4 1.8,-1.4 -0.6,1.3 -1.6,1.7 -1.8,1.4 z"
         id="_x33_18_2_" /><path
         d="m 34.5,37.9 c 0.2,-0.6 1.3,-1.7 1.5,-1.7 -0.3,1.4 -1.1,2 -1.5,1.7 z"
         id="_x33_17_2_" /><path
         d="m 34.6,36.7 c 0.2,-0.6 0.1,-1.9 0,-2.1 -0.6,1.2 -0.4,2.2 0,2.1 z"
         id="_x33_16_2_" /><path
         d="m 35,36.1 c 0.3,-0.4 0.4,-1.5 0.3,-1.7 -0.6,0.8 -0.6,1.6 -0.3,1.7 z"
         id="_x33_15_2_" /><path
         d="m 35.5,35.5 c 0.4,-0.3 0.8,-1.3 0.8,-1.5 -0.8,0.6 -1,1.4 -0.8,1.5 z"
         id="_x33_14_2_" /><path
         d="m 34.2,39.3 c 0,0.1 -0.1,-0.7 -0.9,-1.6 0,1.3 0.5,1.8 0.9,1.6 z"
         id="_x33_13_2_" /><path
         d="m 36.9,46.5 c -0.4,-0.5 -0.7,-2.1 -0.6,-2.3 1,1.1 1,2.2 0.6,2.3 z"
         id="_x33_12_2_" /><path
         d="m 37,46.7 c -0.5,-0.4 -2,-0.6 -2.2,-0.5 1,0.9 2.1,0.9 2.2,0.5 z"
         id="_x33_11_2_" /><path
         d="m 34,39.2 c 0.4,-0.4 1.5,-0.8 1.7,-0.8 -0.7,0.9 -1.6,1.1 -1.7,0.8 z"
         id="_x33_10_2_" /><path
         d="m 38,47.1 c -0.4,0.1 -0.9,-0.8 -0.7,-2.2 0.3,1.2 0.6,2.2 0.7,2.2 z"
         id="_x33_09_2_" /><path
         d="m 39.2,48.1 c 0.2,0.4 -0.6,1 -1.9,1 1,-0.4 1.8,-0.9 1.9,-1 z"
         id="_x33_08_2_" /><path
         d="m 39.8,47.7 c 0.4,-0.2 0.1,-1.3 -1.2,-2.3 0.7,1.2 1.2,2.2 1.2,2.3 z"
         id="_x33_07_2_" /><path
         d="m 39.4,47.7 c 0.4,-0.2 -0.1,-1.2 -1.4,-2 0.8,1 1.4,1.9 1.4,2 l 0,0 z"
         id="_x33_06_2_" /><path
         d="m 35.7,45 c 0.3,0 0.5,-0.8 0,-1.8 0.1,1 0,1.8 0,1.8 l 0,0 z"
         id="_x33_05_2_" /><path
         d="m 36.2,45.9 c -0.2,0.3 -1.1,0.1 -1.9,-1 0.9,0.6 1.7,1 1.9,1 z"
         id="_x33_04_2_" /><path
         d="m 34.1,41.3 c -0.4,0.2 -1.1,-0.6 -1.3,-2.1 0.6,1.2 1.1,2.1 1.3,2.1 z"
         id="_x33_03_2_" /><path
         d="m 34.8,44.3 c -0.1,0.3 -0.9,0.3 -1.8,-0.4 0.9,0.3 1.7,0.4 1.8,0.4 z"
         id="_x33_02_2_" /><path
         d="m 34,42.1 c -0.2,0.3 -1,-0.1 -1.5,-1.2 0.7,0.7 1.3,1.2 1.5,1.2 z"
         id="_x33_01_2_" /><path
         d="m 34.2,38 c -0.4,0.1 -0.9,-0.8 -0.6,-2.2 0.2,1.2 0.5,2.1 0.6,2.2 z"
         id="_x33_00_2_" /><path
         d="m 34.5,38.4 c 0.3,0.3 1.2,-0.1 1.8,-1.4 -0.9,0.8 -1.7,1.4 -1.8,1.4 l 0,0 z"
         id="_x32_99_2_" /><path
         d="m 34.5,37.9 c 0.3,0.3 1.2,-0.4 1.5,-1.7 -0.7,1 -1.3,1.7 -1.5,1.7 z"
         id="_x32_98_2_" /><path
         d="m 34.6,36.7 c -0.4,0 -0.6,-0.9 0,-2.1 -0.1,1.1 -0.1,2 0,2.1 z"
         id="_x32_97_2_" /><path
         d="m 35,36.1 c -0.3,0 -0.3,-0.8 0.3,-1.7 C 35.1,35.3 35,36 35,36.1 z"
         id="_x32_96_2_" /><path
         d="m 35.5,35.5 c -0.3,-0.1 -0.1,-0.9 0.8,-1.5 -0.5,0.8 -0.8,1.4 -0.8,1.5 z"
         id="_x32_95_2_" /><path
         d="m 34.2,39.3 c -0.3,0.2 -0.8,-0.3 -0.9,-1.6 0.4,1 0.7,1.5 0.9,1.6 z"
         id="_x32_94_2_" /><path
         d="m 36.9,46.5 c 0.4,-0.1 0.3,-1.2 -0.6,-2.3 0.4,1.2 0.7,2.2 0.6,2.3 z"
         id="_x32_93_2_" /><path
         d="m 37,46.7 c -0.1,0.4 -1.1,0.4 -2.2,-0.5 1.1,0.3 2,0.6 2.2,0.5 z"
         id="_x32_92_2_" /><path
         d="m 34,39.2 c 0.1,0.3 1,0.1 1.7,-0.8 -1.1,0.6 -1.5,0.9 -1.7,0.8 z"
         id="_x32_91_2_" /><path
         d="m 34.1,40.7 c 0.2,-0.7 -0.1,-2 -0.4,-2.2 -0.3,1.4 0.1,2.3 0.4,2.2 z"
         id="_x32_90_2_" /><path
         d="m 34.1,40.9 c -0.5,0.1 -0.7,-1 -0.4,-2.3 0.2,1.1 0.3,2.2 0.4,2.3 z"
         id="_x32_89_2_" /><path
         d="m 34.5,43.3 c -0.6,0.1 -1.8,-0.4 -2,-0.5 1.2,-0.3 2.1,0.2 2,0.5 z"
         id="_x32_88_2_" /><path
         d="m 34.5,43.3 c 0.1,-0.4 -0.7,-0.8 -2,-0.5 1,0.2 1.9,0.4 2,0.5 z"
         id="_x32_87_2_" /><path
         d="m 34.3,42.5 c 0.1,-0.5 0.7,-1.4 0.9,-1.4 -0.1,1 -0.7,1.6 -0.9,1.4 l 0,0 z"
         id="_x32_86_2_" /><path
         d="m 34.3,42.5 c 0.3,0.2 0.8,-0.4 0.9,-1.4 -0.4,0.8 -0.8,1.4 -0.9,1.4 z"
         id="_x32_85_2_" /><path
         d="m 34,40.9 c 0,-0.6 0.6,-2 0.8,-2.1 0.2,1.3 -0.4,2.2 -0.8,2.1 l 0,0 z"
         id="_x32_84_2_" /><path
         d="m 34,40.9 c 0.4,0.1 0.9,-0.8 0.8,-2.1 -0.3,1.1 -0.7,2 -0.8,2.1 z"
         id="_x32_83_2_" /><path
         d="m 34.1,41.7 c 0,-0.7 0.7,-1.9 0.9,-2 0.1,1.4 -0.5,2.2 -0.9,2 z"
         id="_x32_82_2_" /><path
         d="m 34.1,41.7 c 0.4,0.2 1,-0.6 0.9,-2 -0.3,1.1 -0.7,2 -0.9,2 z"
         id="_x32_81_2_" /><path
         d="m 36.3,45.9 c -0.3,-0.4 -0.6,-1.5 -0.6,-1.7 0.8,0.8 0.9,1.6 0.6,1.7 z"
         id="_x32_80_2_" /><path
         d="m 36.3,45.9 c 0.3,-0.1 0.2,-0.9 -0.6,-1.7 0.4,0.8 0.6,1.6 0.6,1.7 z"
         id="_x32_79_2_" /><path
         d="m 34.5,37.2 c 0,0.1 -0.1,0.1 0,0 -0.1,0.1 -0.2,0.1 -0.2,0 0,0 0,-0.1 0.2,0 -0.1,-0.1 0,0 0,0 l 0,0 z"
         id="_x32_78_2_" /><path
         d="m 35.2,36.7 c 0,0.1 -0.1,0.1 0,0 -0.1,0.1 -0.2,0.1 -0.2,0 0,0 0,-0.1 0.2,0 -0.1,-0.1 0,0 0,0 z"
         id="_x32_77_2_" /><path
         d="m 34.9,36.4 c 0,0.1 -0.1,0.1 0,0 -0.1,0.1 -0.2,0.1 -0.2,0 0,0 0,-0.1 0.2,0 -0.1,-0.1 0,0 0,0 l 0,0 z"
         id="_x32_76_2_" /><path
         d="m 34.1,42.6 c 0,0.1 0,0.1 -0.1,0.1 -0.1,0 -0.1,0 -0.1,-0.1 0,-0.1 0,-0.1 0.1,-0.1 0.1,0 0.1,0 0.1,0.1 z"
         id="_x32_75_2_" /><path
         d="m 34.3,41.2 c 0,0.1 0,0.1 -0.1,0.1 -0.1,0 -0.1,0 -0.1,-0.1 0,-0.1 0,-0.1 0.1,-0.1 0.1,0 0.1,0 0.1,0.1 z"
         id="_x32_74_2_" /><path
         d="m 35.5,44.4 c 0,0.1 0,0.1 -0.1,0.1 -0.1,0 -0.1,0 -0.1,-0.1 0,-0.1 0,-0.1 0.1,-0.1 0,0 0.1,0.1 0.1,0.1 z"
         id="_x32_73_2_" /><path
         d="m 35,44.6 c 0,0.1 0,0.1 -0.1,0.1 -0.1,0 -0.1,0 -0.1,-0.1 0,-0.1 0,-0.1 0.1,-0.1 0,0 0.1,0 0.1,0.1 l 0,0 z"
         id="_x32_72_2_" /><path
         d="m 38.8,47.3 c 0,0.1 0,0.1 -0.1,0.1 -0.1,0 -0.1,0 -0.1,-0.1 l 0,0 c 0,-0.1 0,-0.1 0.1,-0.1 0,0 0.1,0 0.1,0.1 z"
         id="_x32_71_2_" /><path
         d="m 39,47.9 c 0,0.1 0,0.1 -0.1,0.1 -0.1,0 -0.1,0 -0.1,-0.1 0,-0.1 0,-0.1 0.1,-0.1 0.1,0 0.1,0 0.1,0.1 z"
         id="_x32_70_2_" /><path
         d="m 34.8,43.7 c -0.3,-0.5 -0.3,-1.8 -0.3,-2 0.8,1 0.7,2 0.3,2 z"
         id="_x32_69_2_" /><path
         d="m 34.6,43.7 c -0.2,-0.5 -1.3,-1.3 -1.5,-1.4 0.5,1.2 1.3,1.7 1.5,1.4 z"
         id="_x32_68_2_" /><path
         d="m 34.8,43.7 c 0.4,0 0.5,-1 -0.3,-2 0.3,1 0.4,1.9 0.3,2 z"
         id="_x32_67_2_" /><path
         d="m 34.6,43.7 c -0.2,0.3 -1,-0.2 -1.5,-1.4 0.7,0.8 1.4,1.4 1.5,1.4 z"
         id="_x32_66_2_" /><path
         d="m 38.7,47.6 c -0.7,0 -2.1,1 -2.3,1.2 1.6,0 2.5,-0.8 2.3,-1.2 z"
         id="_x32_65_2_" /><path
         d="m 38.7,47.6 c 0.2,0.4 -0.7,1.2 -2.2,1.2 1.2,-0.6 2.1,-1.1 2.2,-1.2 z"
         id="_x32_64_2_" /><path
         d="m 48.6,37.9 c 0.1,0.1 0.1,0.1 0.2,0.2"
         id="_x32_63_2_" /><path
         d="m 48.2,36.4 c 0,-0.1 -0.1,-0.3 -0.1,-0.4"
         id="_x32_62_2_" /><path
         d="m 48.4,36.3 c 0,0.2 0,0.3 -0.1,0.5"
         id="_x32_61_2_" /><path
         d="m 48,36.7 c 0.2,0.1 0.3,0.3 0.5,0.3"
         id="_x32_60_2_" /><path
         d="m 48.7,37.1 c 0,0.2 0,0.3 -0.1,0.5"
         id="_x32_59_2_" /><path
         d="m 48.7,37.8 0.1,-0.2"
         id="_x32_58_2_" /><path
         d="m 48.7,38.6 c 0.1,0 0.2,0.2 0.3,0.3"
         id="_x32_57_2_" /><path
         d="m 49,38.8 0.1,-0.2"
         id="_x32_56_2_" /><path
         d="m 49.3,41.3 c -0.1,0.1 -0.1,0.2 -0.2,0.3"
         id="_x32_55_2_" /><path
         d="m 48.7,41.6 c 0.1,0.1 0.1,0.3 0.2,0.3"
         id="_x32_54_2_" /><path
         d="m 49.2,42.4 c -0.1,0.2 -0.2,0.3 -0.4,0.3"
         id="_x32_53_2_" /><path
         d="m 48.8,43.2 c -0.1,0.1 -0.2,0.3 -0.3,0.4"
         id="_x32_52_2_" /><path
         d="M 49.2,41.8 49,41.9"
         id="_x32_51_2_" /><path
         d="M 48.9,41.3 49,41.4"
         id="_x32_50_2_" /><path
         d="m 48.2,44.6 c -0.1,0 -0.1,0 -0.2,0"
         id="_x32_49_2_" /><path
         d="M 47.9,44.4 48,44.5"
         id="_x32_48_2_" /><path
         d="m 47.2,45 c 0,0.2 0,0.3 0,0.5"
         id="_x32_47_2_" /><path
         d="m 47.6,44.7 0.1,0.2"
         id="_x32_46_2_" /><path
         d="m 48.1,44.9 -0.2,0"
         id="_x32_45_2_" /><path
         d="m 45.2,47.1 -0.1,0.2"
         id="_x32_44_2_" /><path
         d="m 46.1,46.9 c -0.1,0 -0.2,0 -0.4,0"
         id="_x32_43_2_" /><path
         d="m 45.3,47.4 c -0.1,0 -0.2,-0.1 -0.3,-0.1"
         id="_x32_42_2_" /><path
         d="m 43.8,47.6 c -0.1,0.1 -0.2,0.2 -0.3,0.4"
         id="_x32_41_2_" /><path
         d="m 43.5,47.5 c -0.2,0.1 -0.3,0.3 -0.4,0.5"
         id="_x32_40_2_" /><path
         d="m 43.3,48.3 c -0.1,0 -0.3,-0.1 -0.5,-0.2"
         id="_x32_39_2_" /><path
         d="M 44.3,48 C 44.1,47.9 43.9,47.9 43.7,47.9"
         id="_x32_38_2_" /><path
         d="m 44.6,47.9 c -0.3,-0.1 -0.6,-0.1 -0.9,0"
         id="_x32_37_2_" /><path
         d="M 44.4,47.6 44.3,47.5"
         id="_x32_36_2_" /><path
         d="M 43.8,48.1 43.6,48"
         id="_x32_35_2_" /><path
         d="m 48.6,43.7 c -0.1,0.1 -0.2,0.2 -0.3,0.3"
         id="_x32_34_2_" /><path
         d="m 47.9,44.4 c 0.2,-0.6 0,-2.1 -0.1,-2.3 -0.6,1.3 -0.3,2.4 0.1,2.3 z"
         id="_x32_33_2_" /><path
         d="m 47.9,44.4 c -0.4,0 -0.7,-1 -0.1,-2.3 -0.1,1.2 0,2.2 0.1,2.3 z"
         id="_x32_32_2_" /><path
         d="m 41.1,48.8 c 0.1,-0.1 0.2,-0.2 0.3,-0.2 0.7,-0.4 1.3,-0.5 2.1,-0.6 0.2,0 0.3,-0.2 0.5,-0.3 0.4,-0.2 0.9,-0.3 1.3,-0.5 0,0 0.1,-0.1 0.2,-0.1 0.2,-0.2 0.5,-0.3 0.7,-0.4 0.7,-0.7 1.5,-1.3 1.9,-2.2 0.5,-1.1 1.1,-2.2 1,-3.5 C 49,40.2 49.2,39.4 49,38.7 48.7,37.6 48.3,36.5 47.7,35.6 l 0.1,0.1 c 0.7,0.9 1,2 1.3,3.1 0.2,0.8 0.1,1.5 0.1,2.3 0.1,1.2 -0.5,2.4 -1,3.5 -0.4,0.9 -1.2,1.5 -1.9,2.2 -0.2,0.2 -0.5,0.2 -0.7,0.4 0,0.1 -0.2,0.1 -0.2,0.1 -0.4,0.2 -0.9,0.3 -1.3,0.5 -0.2,0.1 -0.4,0.2 -0.5,0.3 -0.8,0.1 -1.4,0.3 -2.1,0.6 -0.1,0.1 -0.2,0.1 -0.3,0.2 l -0.1,-0.1"
         id="_x32_31_2_" /><path
         d="m 43.3,48.2 c 0.6,0 1.8,0.8 1.9,1 -1.3,0 -2.1,-0.7 -1.9,-1 z"
         id="_x32_30_2_" /><path
         d="m 43.3,47.5 c 0.2,-0.7 1.3,-1.8 1.5,-1.9 -0.3,1.5 -1.2,2.2 -1.5,1.9 z"
         id="_x32_29_2_" /><path
         d="M 45.1,47.1 C 45,46.4 45.6,45 45.8,44.9 46,46.3 45.5,47.3 45.1,47.1 z"
         id="_x32_28_2_" /><path
         d="m 47.3,45 c 0.2,-0.5 0.1,-1.7 0,-1.8 -0.5,1 -0.3,1.9 0,1.8 z"
         id="_x32_27_2_" /><path
         d="m 47,45.9 c 0.4,-0.5 1.7,-1 1.9,-1 -0.8,1.1 -1.8,1.3 -1.9,1 z"
         id="_x32_26_2_" /><path
         d="m 49.2,41.3 c 0.1,-0.5 0.8,-1.5 1,-1.6 -0.1,1.1 -0.7,1.8 -1,1.6 z"
         id="_x32_25_2_" /><path
         d="m 48.2,44.6 c 0.5,-0.4 1.9,-0.5 2.1,-0.5 -1,0.8 -2,0.8 -2.1,0.5 z"
         id="_x32_24_2_" /><path
         d="m 49.1,42.5 c 0.3,-0.5 1.3,-1.2 1.5,-1.2 -0.5,1 -1.3,1.4 -1.5,1.2 l 0,0 z"
         id="_x32_23_2_" /><path
         d="m 49,38.5 c 0,-0.7 0.7,-2 0.9,-2.1 0,1.4 -0.6,2.3 -0.9,2.1 z"
         id="_x32_22_2_" /><path
         d="m 48.8,38.6 c -0.3,-0.5 -1.5,-1.2 -1.7,-1.3 0.5,1.2 1.4,1.6 1.7,1.3 z"
         id="_x32_21_2_" /><path
         d="m 48.6,37.9 c -0.2,-0.5 -1.1,-1.4 -1.2,-1.4 0.2,1.1 0.9,1.7 1.2,1.4 z"
         id="_x32_20_2_" /><path
         d="m 48.4,36.3 c -0.2,-0.5 -0.1,-1.6 0,-1.7 0.4,0.9 0.3,1.7 0,1.7 z"
         id="_x32_19_2_" /><path
         d="m 48,36.1 c -0.5,-0.4 -0.9,-1.7 -0.9,-1.9 1,0.8 1.2,1.7 0.9,1.9 z"
         id="_x32_18_2_" /><path
         d="m 49,39.1 c 0,0.1 0.3,-0.7 1.2,-1.3 -0.3,1.2 -0.9,1.5 -1.2,1.3 z"
         id="_x32_17_2_" /><path
         d="m 46,46.7 c 0.4,-0.6 0.5,-2.1 0.4,-2.3 -0.8,1.1 -0.8,2.2 -0.4,2.3 z"
         id="_x32_16_2_" /><path
         d="m 46.1,46.8 c 0.6,-0.4 2.3,-0.7 2.5,-0.6 -1.2,1.1 -2.5,1.1 -2.5,0.6 z"
         id="_x32_15_2_" /><path
         d="m 49,39.2 c -0.3,-0.3 -1.3,-0.7 -1.5,-0.7 0.7,0.9 1.4,1 1.5,0.7 z"
         id="_x32_14_2_" /><path
         d="m 45.1,47.1 c 0.4,0.1 0.9,-0.8 0.7,-2.2 -0.2,1.2 -0.5,2.2 -0.7,2.2 z"
         id="_x32_13_2_" /><path
         d="m 43.3,48.2 c -0.2,0.4 0.6,1 1.9,1 -1.1,-0.5 -1.9,-0.9 -1.9,-1 z"
         id="_x32_12_2_" /><path
         d="m 43.3,47.5 c 0.3,0.3 1.2,-0.4 1.5,-1.9 -0.7,1.1 -1.3,1.9 -1.5,1.9 l 0,0 z"
         id="_x32_11_2_" /><path
         d="m 47.3,45 c -0.3,0 -0.5,-0.8 0,-1.8 -0.1,1 -0.1,1.8 0,1.8 l 0,0 z"
         id="_x32_10_2_" /><path
         d="m 47,45.9 c 0.2,0.3 1.1,0.1 1.9,-1 -1,0.6 -1.8,1 -1.9,1 z"
         id="_x32_09_2_" /><path
         d="m 49.2,41.3 c 0.3,0.2 0.9,-0.5 1,-1.6 -0.4,0.9 -0.9,1.5 -1,1.6 z"
         id="_x32_08_2_" /><path
         d="m 48.2,44.6 c 0.1,0.4 1.1,0.4 2.1,-0.5 -1.1,0.3 -2,0.5 -2.1,0.5 z"
         id="_x32_07_2_" /><path
         d="m 49.1,42.4 c 0.2,0.3 1,-0.1 1.5,-1.2 -0.7,0.7 -1.4,1.3 -1.5,1.2 z"
         id="_x32_06_2_" /><path
         d="m 49,38.5 c 0.4,0.2 1,-0.7 0.9,-2.1 -0.4,1.2 -0.8,2.1 -0.9,2.1 z"
         id="_x32_05_2_" /><path
         d="m 48.8,38.6 c -0.2,0.3 -1.1,-0.1 -1.7,-1.3 0.8,0.8 1.5,1.4 1.7,1.3 z"
         id="_x32_04_2_" /><path
         d="m 48.6,37.9 c -0.3,0.2 -1,-0.3 -1.2,-1.4 0.5,0.8 1.1,1.4 1.2,1.4 z"
         id="_x32_03_2_" /><path
         d="m 48.4,36.3 c 0.3,0 0.5,-0.8 0,-1.7 0,0.9 0,1.6 0,1.7 z"
         id="_x32_02_2_" /><path
         d="M 48,36.1 C 48.3,35.9 48.1,35 47.1,34.2 47.7,35.1 48,36 48,36.1 z"
         id="_x32_01_2_" /><path
         d="m 49,39.1 c 0.3,0.3 0.9,-0.1 1.2,-1.3 -0.6,0.8 -1.1,1.3 -1.2,1.3 z"
         id="_x32_00_2_" /><path
         d="m 46,46.7 c -0.4,-0.1 -0.5,-1.1 0.4,-2.3 -0.3,1.1 -0.5,2.1 -0.4,2.3 z"
         id="_x31_99_2_" /><path
         d="m 46.1,46.8 c 0.1,0.5 1.3,0.4 2.5,-0.6 -1.3,0.5 -2.4,0.7 -2.5,0.6 z"
         id="_x31_98_2_" /><path
         d="m 49,39.2 c -0.1,0.3 -0.9,0.1 -1.5,-0.7 1,0.6 1.3,0.8 1.5,0.7 z"
         id="_x31_97_2_" /><path
         d="m 49.1,40.8 c -0.1,-0.7 0.3,-1.7 0.6,-1.9 0.2,1.2 -0.3,2 -0.6,1.9 z"
         id="_x31_96_2_" /><path
         d="m 49.1,40.9 c 0.4,0.2 0.8,-0.9 0.6,-2.1 -0.3,1.1 -0.5,2.1 -0.6,2.1 z"
         id="_x31_95_2_" /><path
         d="m 48.8,43.2 c 0.5,0.1 1.6,-0.4 1.8,-0.5 -1.2,-0.2 -1.9,0.2 -1.8,0.5 z"
         id="_x31_94_2_" /><path
         d="m 48.8,43.2 c -0.1,-0.3 0.6,-0.7 1.7,-0.5 -0.9,0.2 -1.6,0.4 -1.7,0.5 z"
         id="_x31_93_2_" /><path
         d="m 48.8,42.7 c 0,-0.5 -0.6,-1.5 -0.7,-1.5 -0.1,1 0.4,1.7 0.7,1.5 z"
         id="_x31_92_2_" /><path
         d="m 48.8,42.7 c -0.3,0.1 -0.7,-0.5 -0.7,-1.5 0.3,0.8 0.6,1.5 0.7,1.5 z"
         id="_x31_91_2_" /><path
         d="m 49.1,40.9 c 0,-0.6 -0.6,-2 -0.8,-2.1 -0.1,1.3 0.4,2.2 0.8,2.1 z"
         id="_x31_90_2_" /><path
         d="m 49.1,40.9 c -0.4,0.1 -0.9,-0.8 -0.8,-2.1 0.4,1.1 0.7,2 0.8,2.1 z"
         id="_x31_89_2_" /><path
         d="m 48.8,41.6 c 0,-0.7 -0.7,-1.9 -0.9,-2 -0.1,1.3 0.5,2.2 0.9,2 z"
         id="_x31_88_2_" /><path
         d="m 48.8,41.6 c -0.4,0.2 -1,-0.6 -0.9,-2 0.4,1.1 0.8,1.9 0.9,2 z"
         id="_x31_87_2_" /><path
         d="m 46.7,46.2 c 0.3,-0.4 0.4,-1.6 0.3,-1.7 -0.7,0.8 -0.6,1.6 -0.3,1.7 z"
         id="_x31_86_2_" /><path
         d="m 46.7,46.2 c -0.3,0 -0.3,-0.9 0.3,-1.7 -0.3,0.8 -0.4,1.6 -0.3,1.7 z"
         id="_x31_85_2_" /><path
         d="m 48.8,37.6 c 0,0 0,0 0,0 0.1,0.1 0.2,0.1 0.2,0 0,-0.1 -0.1,-0.1 -0.2,0 0,-0.1 0,-0.1 0,0 l 0,0 z"
         id="_x31_84_2_" /><path
         d="m 49.1,38.6 c 0,0 0,0.1 0,0 0.1,0.1 0.2,0.1 0.2,0 0,-0.1 -0.1,-0.1 -0.2,0 0,-0.1 0,-0.1 0,0 l 0,0 z"
         id="_x31_83_2_" /><path
         d="m 49.2,41.8 c 0,0.1 0,0.1 0.1,0.1 0.1,0 0.1,0 0.1,-0.1 l 0,0 c 0,-0.1 0,-0.1 -0.1,-0.1 -0.1,0 -0.1,0.1 -0.1,0.1 z"
         id="_x31_82_2_" /><path
         d="m 48.8,41.2 c 0,0.1 0,0.1 0.1,0.1 0.1,0 0.1,0 0.1,-0.1 l 0,0 c 0,-0.1 0,-0.1 -0.1,-0.1 -0.1,0 -0.1,0.1 -0.1,0.1 z"
         id="_x31_81_2_" /><path
         d="m 47.5,44.7 c 0,0.1 0,0.1 0.1,0.1 0.1,0 0.1,0 0.1,-0.1 0,-0.1 0,-0.1 -0.1,-0.1 -0.1,-0.1 -0.1,0 -0.1,0.1 z"
         id="_x31_80_2_" /><path
         d="m 48,44.9 c 0,0.1 0,0.1 0.1,0.1 0.1,0 0.1,0 0.1,-0.1 0,-0.1 0,-0.1 -0.1,-0.1 0,0 -0.1,0 -0.1,0.1 z"
         id="_x31_79_2_" /><path
         d="m 44.4,47.7 c 0,0.1 0,0.1 0.1,0.1 0.1,0 0.1,0 0.1,-0.1 0,-0.1 0,-0.1 -0.1,-0.1 -0.1,0 -0.1,0 -0.1,0.1 z"
         id="_x31_78_2_" /><path
         d="m 43.8,48.1 c 0,0.1 0,0.1 0.1,0.1 0.1,0 0.1,0 0.1,-0.1 0,-0.1 0,-0.1 -0.1,-0.1 -0.1,0 -0.1,0.1 -0.1,0.1 z"
         id="_x31_77_2_" /><path
         d="m 48.7,37.2 c -0.2,-0.5 0,-1.7 0.1,-1.9 0.4,1 0.2,1.9 -0.1,1.9 z"
         id="_x31_76_2_" /><path
         d="m 48.7,37.2 c 0.3,0 0.6,-0.8 0.1,-1.9 0,1 0,1.8 -0.1,1.9 z"
         id="_x31_75_2_" /><path
         d="m 43.7,47.5 c 0.2,-0.7 1.4,-1.8 1.6,-1.9 -0.4,1.6 -1.3,2.3 -1.6,1.9 z"
         id="_x31_74_2_" /><path
         d="m 43.7,47.5 c 0.3,0.3 1.2,-0.4 1.6,-1.9 -0.8,1.1 -1.5,1.9 -1.6,1.9 l 0,0 z"
         id="_x31_73_2_" /><path
         d="m 48.4,43.7 c 0.3,-0.5 0.3,-1.8 0.3,-2 -0.8,1 -0.7,2 -0.3,2 z"
         id="_x31_72_2_" /><path
         d="m 48.4,44 c 0.2,-0.5 1.3,-1.3 1.5,-1.4 -0.5,1.2 -1.3,1.6 -1.5,1.4 z"
         id="_x31_71_2_" /><path
         d="m 48.4,43.7 c -0.4,0 -0.5,-1 0.3,-2 -0.3,1 -0.4,1.9 -0.3,2 z"
         id="_x31_70_2_" /><path
         d="m 48.4,44 c 0.2,0.3 1,-0.2 1.5,-1.4 -0.8,0.8 -1.4,1.4 -1.5,1.4 z"
         id="_x31_69_2_" /><path
         d="m 44.2,48.1 c 0.4,0.5 1.7,1 1.9,0.9 -0.7,-1 -1.7,-1.3 -1.9,-0.9 z"
         id="_x31_68_1_" /><path
         d="M 44.2,48.1 C 44.4,47.7 45.3,48 46.1,49 45.2,48.4 44.4,48 44.2,48.1 z"
         id="_x31_67_2_" /><line
         id="_x31_66_2_"
         class="st4"
         x1="48.400002"
         y1="37.200001"
         x2="48.299999"
         y2="37.099998" /><path
         d="m 48.1,37.1 c 0,0 0.1,0.1 0,0 0.1,0.1 0.2,0.1 0.2,0 0,-0.1 0,-0.1 -0.2,0 0.1,-0.1 0,-0.1 0,0 l 0,0 z"
         id="_x31_65_2_" /><path
         d="m 37.6,44.6 c 0,0.1 0.1,0.2 0.2,0.2 0,0 0.1,-0.1 0,0 0,0 -0.1,0 -0.1,0 -0.1,-0.2 -0.1,-0.2 -0.1,-0.2 0,-0.1 0,0 0,0 l 0,0 z"
         id="_x31_64_2_" /><path
         d="m 37.9,44.8 c -0.1,0.1 -0.2,0.1 -0.3,0.1 0,0 -0.1,-0.1 0,-0.2 0,0 -0.1,0.1 -0.1,0.1 0,0 0.1,0.1 0.1,0.2 0.1,0 0.2,-0.1 0.3,-0.2 0.1,0 0.2,-0.2 0.1,-0.3 0,-0.1 -0.1,-0.1 -0.2,-0.1 0,0 -0.1,0.1 -0.1,0.1 0,0 0.1,0 0.1,0 0.2,0 0.1,0.2 0.1,0.3 l 0,0 0,0 z"
         id="_x31_63_2_"
         style="fill:#8c929a" /><path
         d="m 37.9,44.8 c 0,0 -0.1,0.1 -0.1,0.1 0,0 -0.1,0 -0.1,0 0,0 0,0 -0.1,0 0,0 0,0 0,-0.1 0,0 0,0 0,-0.1 0,0 0,0 0,-0.1 l 0,0 -0.1,0.1 0,0 c 0,0 0.1,0.1 0.1,0.1 0,0 0,0 0.1,0 0,0 0,0 0.1,0 0,0 0.1,0 0.1,0 -0.1,0.1 0,0 0,0 0.1,0 0.1,0 0.1,-0.1 0,0 0,-0.1 0,-0.1 0,0 0,0 0,-0.1 0,0 0,0 0,-0.1 0,0 -0.1,-0.1 -0.1,-0.1 l 0,0 -0.1,0.1 0,0 c 0,0 0,0 0.1,0 0,0 0,0 0.1,0 0,0 0.1,0.1 0.1,0.1 0,0 0,0.1 0,0.1 -0.2,0.1 -0.2,0.1 -0.2,0.2 l 0,0 0,0 z m 0,0 0,0 0,0 0,0 c 0,0 0.1,-0.1 0.1,-0.1 0,0 0,-0.1 0,-0.1 0,0 0,-0.1 -0.1,-0.1 0,0 -0.1,0 -0.1,0 l 0,0 0.1,-0.1 0,0 0,0 c 0,0 0.1,0 0.1,0.1 0,0 0,0 0,0.1 0,0 0,0 0,0.1 0,0.1 0,0.1 0,0.1 0,-0.1 0,0 -0.1,0 0,0.1 0,0.1 -0.1,0.1 0,0 -0.1,0 -0.1,0 0,0 -0.1,0 -0.1,0 0,0 0,0 -0.1,0 0,0 -0.1,-0.1 -0.1,-0.1 l 0,0 0,0 0.1,-0.1 0,0 c 0,0 0,0 0,0.1 0,0 0,0 0,0.1 0,0 0,0 0,0 0,0 0,0 0.1,0 0,0 0.1,0 0.1,0 0.1,-0.1 0.1,-0.1 0.2,-0.1 z"
         id="_x31_62_2_"
         style="fill:#4e5754" /><path
         d="m 44.6,37.1 -3.5,3.4 c -0.3,0.3 -3.3,3.1 -3.5,3.4 -0.1,0.1 -0.4,0.4 -0.4,0.5 -0.2,0.2 -0.4,0.5 -0.6,0.7 0,0.1 -0.1,0 -0.1,0.1 -0.2,0.1 -0.3,0.2 -0.4,0.4 L 35,46.8 c -0.1,0.1 -0.1,0.1 0,0.2 l 0.6,0.8 c 0.1,0.1 0.2,0.2 0.3,0.1 0.3,-0.5 0.9,-1.2 1.2,-1.8 0.2,-0.3 0.3,-1 0.5,-1.1 0.2,-0.2 0.6,-0.7 1,-1.1 0,0 0.1,-0.1 0.1,-0.1 0,0 0.1,-0.1 0.1,-0.1 1.8,-2.3 4.2,-4.8 5.8,-6.6 0,0 0.1,0 0,0 l 0,0 z"
         id="_x31_61_2_" /><path
         d="m 37.4,43.9 c -0.1,0 -0.2,-0.1 -0.2,-0.1 0.1,0 0.2,0 0.2,0.1 l 0,0 z"
         id="_x31_60_2_" /><path
         d="m 48.2,34.5 -2.7,2.3 c 0,0 -0.1,0 -0.1,0 l -0.2,-0.2 c 0,0 0,0 0,0 0,0 0,0 0,0 l 0.1,-0.1 c 0,0 0,0 0,0 0,0 0,0 -0.1,-0.1 0,0 0,0 -0.1,0 L 45,36.5 c -0.1,0 -0.1,0.1 -0.1,0.1 -1.7,1.6 -3.1,3.1 -4.7,4.7 l -1.9,1.9 c -0.1,0.1 -0.4,0.3 -0.6,0.4 -0.1,0 -0.1,0.1 -0.2,0.1 l -0.2,0.5 c -0.1,0.1 -0.2,0.3 -0.2,0.4 0.2,0.2 0.2,0.2 0.3,0.3 0.2,-0.2 0.6,-0.6 1,-1 0,0 0,0 0.1,-0.1 0,0 -0.1,-0.1 -0.1,-0.1 0,0 -0.1,-0.1 -0.1,-0.1 0,0 0,0 -0.1,0 0,0 0,0 0,-0.1 2.3,-2.2 4.7,-4.6 6.8,-6.6 0,0 0,0 0,0 0,0 0,0 0.1,0 l 0.2,0.3 c 0.1,0.1 0.1,0.1 0.1,0 l 2.8,-2.7 0,0 z"
         id="_x31_59_2_" /><path
         d="m 37.3,44.1 c 0,0 0.1,0 0,0 0.1,0 0.1,0 0.1,0 l 0,0 c 0,-0.1 0,-0.1 0.1,-0.2 0,-0.1 0,-0.1 0.1,-0.2 l 0,0 c 0,0 0,0 -0.1,0 0,0 0,0 0.1,0 l 0,0 0,0 c 0,0.1 0,0.1 -0.1,0.2 0,0.1 0,0.1 -0.1,0.2 l 0,0 0,0 c 0,0 0,0 -0.1,0 0.1,0 0,0 0,0 z"
         id="_x31_58_2_"
         style="fill:#4e5754" /><path
         d="m 38,43.9 c 0,0 0,0 0,0 -0.1,0.1 -0.1,0 -0.1,0 0,-0.1 0,-0.1 0.1,0 0,-0.1 0,-0.1 0,0 z"
         id="_x31_57_2_" /><path
         d="m 37.7,44.2 c 0,0 0,0.1 0,0 -0.1,0.1 -0.1,0 -0.1,0 0,0 0,-0.1 0.1,0 0,-0.1 0,0 0,0 z"
         id="_x31_56_2_" /><path
         d="m 38.2,43.4 c 0,0 -0.1,-0.1 0,0 -0.1,-0.1 -0.1,-0.1 -0.2,-0.1 0.1,0 0.1,0 0.2,0.1 -0.1,-0.1 0,0 0,0 z"
         id="_x31_55_2_"
         style="fill:#4e5754" /><polygon
         points="43.8,38.2 43.5,37.9 43.5,37.9 43.5,37.9 43.8,38.2 "
         id="_x31_54_2_" /><path
         d="m 45.3,44.7 c 0,0.1 -0.1,0.2 -0.2,0.2 0,0 -0.1,-0.1 0,0 0,0 0.1,-0.1 0.2,-0.2 -0.1,0.1 0,0 0,0 0,0 0,0 0,0 l 0,0 z"
         id="_x31_53_2_" /><path
         d="m 45,44.9 c 0.1,0.1 0.2,0.2 0.3,0.1 0.1,0 0.1,-0.1 0,-0.2 0,0 0.1,0.1 0.1,0.1 0,0 -0.1,0.1 -0.2,0.1 0,0.1 -0.2,0 -0.2,-0.1 -0.1,-0.1 -0.2,-0.2 -0.1,-0.3 0,-0.1 0.1,-0.1 0.2,-0.1 0,0 0.1,0.1 0.1,0.1 0,0 -0.1,0 -0.1,0 -0.2,0.1 -0.2,0.2 -0.1,0.3 l 0,0 0,0 z"
         id="_x31_52_2_"
         style="fill:#8c929a" /><path
         d="m 45,44.9 c 0.1,0 0.1,0 0,0 0.1,0.1 0.2,0.1 0.2,0.1 0,0 0,0 0.1,0 0,0 0,0 0,0 0,0 0,0 0,-0.1 0,0 0,0 0,-0.1 l 0,0 c 0,0 0.1,0.1 0.1,0.1 l 0,0 0,0 c 0,0 -0.1,0.1 -0.1,0.1 0,0 0,0 -0.1,0 0,0 -0.1,0 -0.1,0 -0.1,0 -0.1,0 -0.1,-0.1 0,0.1 0,0.1 0,0 -0.1,0 -0.1,0 -0.1,-0.1 0,0 0,-0.1 0,-0.1 0,0 0,-0.1 0,-0.1 0,0 0,0 0,-0.1 0,0 0.1,-0.1 0.1,-0.1 l 0,0 0,0 0.1,0.1 0,0 c 0,0 -0.1,0 -0.1,0 0,0 -0.1,0 -0.1,0.1 0,0 0,0.1 0,0.1 0.1,0.1 0.1,0.2 0.1,0.2 z m 0,0 c 0,0 -0.1,-0.1 -0.1,-0.1 0,0 0,-0.1 0,-0.1 0,0 0,0 0,-0.1 0,0 0,0 0.1,0 0,0 0.1,0 0.1,0 l 0,0 -0.1,-0.1 0,0 c 0,0 -0.1,0 -0.1,0.1 0,0 0,0 0,0.1 0,0 0,0 0,0.1 0,0 0,0.1 0,0.1 0,-0.1 0,0 0.1,0 0,0.1 0,0.1 0.1,0.1 0,0 0.1,0 0.1,0 0,0 0,0 0.1,0 0,0 0,0 0.1,0 0,0 0.1,-0.1 0.1,-0.1 l 0,0 c 0,0 -0.1,-0.1 -0.1,-0.1 l 0,0 c 0,0 0,0 0,0.1 0,0 0,0 0,0.1 0,0 0,0 0,0 0,0 0,0 -0.1,0 -0.1,0 -0.1,0 -0.3,-0.1 0.1,0 0,0 0,0 z"
         id="_x31_51_2_"
         style="fill:#4e5754" /><path
         d="m 38.7,36.9 3.3,3.6 c 0.3,0.3 3.1,3.3 3.4,3.6 0.1,0.1 0.3,0.4 0.4,0.5 0.2,0.2 0.4,0.5 0.6,0.7 0,0.1 0.1,0 0.1,0.1 0.2,0.1 0.3,0.3 0.4,0.4 l 1,1.2 c 0.1,0.1 0.1,0.1 0,0.2 l -0.6,0.7 c -0.1,0 -0.3,0.1 -0.3,0 -0.2,-0.5 -0.9,-1.2 -1.1,-1.8 -0.1,-0.3 -0.3,-1 -0.4,-1.1 -0.2,-0.2 -0.6,-0.7 -1,-1.1 0,0 0,-0.1 -0.1,-0.1 0,0 -0.1,-0.1 -0.1,-0.1 -1.9,-2.3 -4.1,-4.9 -5.6,-6.8 -0.1,0 -0.1,0 0,0 l 0,0 z"
         id="_x31_50_2_" /><path
         d="m 45.5,44 c 0.1,0 0.2,-0.1 0.3,-0.1 -0.1,0 -0.2,0.1 -0.3,0.1 l 0,0 z"
         id="_x31_49_2_" /><path
         d="m 35.2,34.2 2.6,2.4 c 0,0 0.1,0 0.1,0 l 0.3,-0.2 c 0,0 0,0 0,0 0,0 0,0 0,0 l -0.1,-0.1 c 0,0 0,0 0,0 0,0 0,0 0.1,-0.1 0,0 0,0 0.1,0 l 0.1,0.1 c 0.1,0 0.1,0.1 0.1,0.1 1.6,1.7 2.9,3.2 4.5,4.9 l 1.9,2 c 0.1,0.1 0.4,0.3 0.5,0.4 0.1,0 0.1,0.1 0.1,0.1 l 0.1,0.5 c 0,0.1 0.2,0.4 0.2,0.4 -0.2,0.2 -0.2,0.2 -0.3,0.3 -0.1,-0.2 -0.5,-0.6 -0.9,-1.1 0,0 0,0 -0.1,-0.1 0,0 0.1,-0.1 0.1,-0.1 0,0 0.1,-0.1 0.1,-0.1 0,0 0,0 0.1,0 0,0 0,0 0,-0.1 -2.2,-2.3 -4.5,-4.9 -6.4,-6.9 0,0 0,0 0,0 0,0 0,0 -0.1,0 L 38,36.8 c -0.1,0.1 -0.1,0.1 -0.2,0 l -2.6,-2.6 0,0 z"
         id="_x31_48_2_" /><path
         d="m 45.6,44.2 c 0,0 0,0 0,0 -0.1,0 -0.1,0 -0.1,0 l 0,0 0,0 c 0,-0.1 0,-0.1 -0.1,-0.2 0,-0.1 0,-0.1 -0.1,-0.2 l 0,0 0,0 c 0,0 0,0 0,0 0,0 0,0 0,0 0,0 0,0 -0.1,0 l 0,0 c 0,0.1 0,0.1 0.1,0.2 0.2,0.1 0.2,0.1 0.3,0.2 l -0.1,0 c 0,0 0,0 0.1,0 0,0 0,0 0,0 z"
         id="_x31_47_2_"
         style="fill:#4e5754" /><path
         d="m 44.9,44 c 0,0 0.1,0.1 0,0 0.1,0.1 0.1,0 0.1,0 0,0 0,-0.1 -0.1,0 0.1,-0.1 0,0 0,0 z"
         id="_x31_46_2_" /><path
         d="m 45.2,44.3 c 0,0.1 0.1,0.1 0,0 0.1,0.1 0.1,0 0.1,0 0,0 0,0 -0.1,0 0.1,0 0,0 0,0 z"
         id="_x31_45_2_" /><path
         d="m 44.8,43.5 c 0,0 0,-0.1 0,0 0.1,-0.1 0.1,-0.1 0.2,-0.1 -0.1,0 -0.1,0 -0.2,0.1 0,0 0,0 0,0 z"
         id="_x31_44_2_"
         style="fill:#4e5754" /><polygon
         points="39.8,37.8 39.4,38.1 39.4,38 39.7,37.7 39.8,37.8 "
         id="_x31_43_2_" /><path
         d="m 37.6,47.1 c -0.7,-0.3 -2.3,-0.1 -2.5,0.1 1.4,0.7 2.5,0.4 2.5,-0.1 z"
         id="_x31_42_2_" /><path
         d="m 37.6,47.1 c 0,0.5 -1.1,0.8 -2.5,0.1 1.3,0.1 2.4,0 2.5,-0.1 z"
         id="_x31_41_2_" /><path
         d="m 45.3,47.4 c 0.7,-0.3 2.3,-0.1 2.5,0.1 -1.4,0.6 -2.6,0.4 -2.5,-0.1 z"
         id="_x31_40_2_" /><path
         d="m 45.3,47.4 c 0,0.5 1.1,0.8 2.5,0.1 -1.3,0 -2.4,0 -2.5,-0.1 z"
         id="_x31_39_2_" /><path
         d="m 44,46.6 c -1.8,-2.6 -4.5,-4.7 -6.6,-5.9 0.3,0 1,0.3 1.3,0.5 2.1,1.3 3.8,3.1 5.7,5.2 -0.1,0.1 -0.2,0.2 -0.4,0.2 l 0,0 z"
         id="_x31_38_2_" /><path
         d="m 44.2,46.6 -0.1,0.1 c -2,-2.6 -4.8,-5 -6.6,-6 2.5,1.3 4.7,3.7 6.7,5.9 l 0,0 z"
         id="_x31_37_2_"
         style="fill:#8c929a" /><path
         d="m 44.2,46.6 -0.1,0.1 0,0 0,0 C 43.6,46.1 43.2,45.5 42.6,45 42.1,44.5 41.6,43.9 41,43.4 40.5,42.9 39.9,42.4 39.3,42 39,41.8 38.7,41.6 38.4,41.3 c -0.3,-0.2 -0.6,-0.4 -1,-0.6 l 0,0 c 0.7,0.3 1.3,0.7 1.9,1.1 0.6,0.4 1.2,0.9 1.7,1.4 0.5,0.5 1.1,1 1.6,1.6 0.6,0.7 1.1,1.2 1.6,1.8 z m 0,0 c -0.5,-0.6 -1,-1.1 -1.5,-1.7 -0.5,-0.5 -1,-1.1 -1.6,-1.6 -0.5,-0.5 -1.1,-1 -1.7,-1.4 -0.6,-0.4 -1.3,-0.8 -1.9,-1.1 l 0,0 c 0.3,0.2 0.7,0.4 1,0.6 0.3,0.2 0.6,0.4 0.9,0.7 0.6,0.5 1.2,0.9 1.7,1.5 0.5,0.5 1.1,1 1.6,1.6 0.5,0.5 1,1.1 1.4,1.7 l 0,0 0.1,-0.3 z"
         id="_x31_36_2_"
         style="fill:#4e5754" /><path
         d="m 44.8,46.2 c -0.2,0 -0.3,0.1 -0.5,0.2 0,0.1 -0.2,0.3 -0.3,0.3 0,0 0,0 -0.1,-0.1 0,0 0,0 0,0 0,0 0,0 0,0 -0.1,0 -0.1,0 -0.1,0.1 0,0.1 0,0.2 0.1,0.3 0.1,0.1 0.1,0.1 0.2,0.1 0.1,0 0.1,-0.1 0.2,-0.1 0.3,0.4 0.6,0.6 1,0.9 0.2,0 0.3,-0.1 0.2,-0.2 0,0 -0.1,-0.1 -0.1,-0.1 0,0 0,0 0,0 0.2,-0.2 0.3,-0.4 0.1,-0.9 -0.3,-0.4 -0.5,-0.5 -0.7,-0.5 l 0,0 z m 0.5,0.4 c 0,0.1 0.1,0.1 0.1,0.2 0.1,0.3 0,0.6 -0.2,0.7 0,0 0,0 0,0 0,-0.1 -0.1,-0.2 -0.1,-0.1 0,-0.1 -0.1,-0.2 -0.1,-0.1 0,-0.1 0,-0.2 -0.1,-0.1 0,-0.1 0,-0.2 -0.1,-0.1 0,-0.1 0,-0.2 -0.1,-0.1 0,-0.1 0,-0.1 0,-0.1 0.1,-0.1 0.2,-0.2 0.3,-0.2 0.1,-0.4 0.2,-0.2 0.3,-0.1 l 0,0 0,0 0,0 0,0 z"
         id="_x31_35_2_" /><path
         d="m 45.4,46.9 c 0,-0.1 0,-0.1 0,0 0,-0.1 0,-0.1 0.1,-0.1 0,0 0.1,0.1 0.1,0.1 -0.1,0 -0.1,0 -0.2,0 l 0,0 z"
         id="_x31_34_2_" /><path
         d="m 44.3,46.9 c 0.1,-0.2 0.2,-0.3 0.3,-0.3"
         id="_x31_33_2_"
         style="fill:#e0b13b" /><path
         d="m 44.3,46.9 c 0,0 0,-0.1 0,-0.1 0,0 0,-0.1 0.1,-0.1 0,0 0.1,-0.1 0.1,-0.1 0,0 0.1,0 0.1,0 0,0 -0.1,0 -0.1,0.1 0,0 -0.1,0 -0.1,0.1 -0.1,0 -0.1,0.1 -0.1,0.1 z"
         id="_x31_32_2_"
         style="fill:#5e3324" /><path
         d="m 44.4,47.1 c 0.1,0 0.3,-0.1 0.3,-0.2"
         id="_x31_31_2_"
         style="fill:#e0b13b" /><path
         d="m 44.4,47.1 c 0,0 0.1,0 0.1,0 0,0 0.1,0 0.1,0 0,0 0.1,0 0.1,-0.1 0,0 0,-0.1 0.1,-0.1 0,0 0,0.1 -0.1,0.1 0,0 0,0.1 -0.1,0.1 0,0 -0.1,0 -0.1,0 -0.1,0 -0.1,0 -0.1,0 z"
         id="_x31_30_2_"
         style="fill:#5e3324" /><path
         d="m 44.5,47.2 c 0.2,0 0.3,-0.1 0.3,-0.2"
         id="_x31_29_2_"
         style="fill:#e0b13b" /><path
         d="m 44.5,47.2 c 0,0 0.1,0 0,0 0.1,0 0.2,0 0.2,-0.1 0,0 0.1,0 0.1,-0.1 0,0 0,-0.1 0.1,-0.1 0,0.1 -0.1,0.1 -0.1,0.2 0,0 -0.1,0 -0.1,0 -0.1,0.1 -0.2,0.1 -0.2,0.1 z"
         id="_x31_28_2_"
         style="fill:#5e3324" /><path
         d="m 44.6,47.4 c 0.1,0 0.3,-0.1 0.3,-0.2"
         id="_x31_27_2_"
         style="fill:#e0b13b" /><path
         d="m 44.6,47.4 c 0.1,0 0.1,0 0.2,-0.1 0,0 0.1,0 0.1,-0.1 0,0 0,-0.1 0.1,-0.1 0,0 0,0.1 -0.1,0.1 0,0 0,0 -0.1,0.1 0,0 0,0 -0.2,0.1 0.1,-0.1 0.1,0 0,0 z"
         id="_x31_26_2_"
         style="fill:#5e3324" /><path
         d="m 44.8,47.5 c 0.2,0 0.3,-0.1 0.3,-0.2"
         id="_x31_25_2_"
         style="fill:#e0b13b" /><path
         d="m 44.8,47.5 c 0,0 0,0 0,0 0.1,0 0.2,0 0.2,0 0,0 0.1,0 0.1,-0.1 0,0 0,0 0.1,-0.1 0,0 0,0.1 -0.1,0.1 0,0 0,0 -0.1,0.1 -0.1,0 -0.2,0 -0.2,0 z"
         id="_x31_24_2_"
         style="fill:#5e3324" /><path
         d="m 44.9,47.6 c 0.1,0 0.3,-0.1 0.3,-0.2"
         id="_x31_23_2_"
         style="fill:#e0b13b" /><path
         d="m 44.9,47.6 c 0,0 0.1,0 0,0 0.1,0 0.1,0 0.2,0 0,0 0.1,0 0.1,-0.1 0,0 0,0 0.1,-0.1 0,0 0,0.1 0,0.1 0,0 0,0 -0.1,0.1 -0.1,0 -0.2,0 -0.3,0 0.1,0 0,0 0,0 z"
         id="_x31_22_2_"
         style="fill:#5e3324" /><path
         d="m 44.3,47 c 0.1,0 0.3,-0.1 0.3,-0.2"
         id="_x31_21_2_"
         style="fill:#e0b13b" /><path
         d="m 44.3,47 c 0,0 0.1,0 0.1,0 0,0 0.1,0 0.1,-0.1 0,0 0.1,0 0.1,-0.1 0,0 0,-0.1 0.1,-0.1 0,0 0,0.1 -0.1,0.1 0,0 0,0.1 -0.1,0.1 0,0 -0.1,0 -0.1,0.1 -0.1,0 -0.1,0 -0.1,0 z"
         id="_x31_20_2_"
         style="fill:#5e3324" /><path
         d="m 45.1,47.7 c 0.1,0 0.2,-0.1 0.3,-0.2"
         id="_x31_19_2_"
         style="fill:#e0b13b" /><path
         d="m 45.1,47.7 c 0,0 0,0 0,0 0.1,0 0.1,0 0.2,0 0,0 0,0 0.1,-0.1 0,0 0,0 0,-0.1 0,0.1 -0.1,0.1 -0.1,0.1 -0.1,0.1 -0.1,0.1 -0.2,0.1 0,0 0,0 0,0 z"
         id="_x31_18_2_"
         style="fill:#5e3324" /><path
         d="m 45.4,46.8 c 0,0 -0.1,-0.1 0,0 0,-0.1 0,-0.1 0.1,-0.1 0,0 0.1,0.1 0.1,0.1 -0.1,0 -0.2,0 -0.2,0 l 0,0 z"
         id="_x31_17_2_" /><path
         d="m 45.4,46.7 c -0.1,0 -0.1,-0.1 0,0 0,-0.1 0,-0.1 0.1,-0.1 0,0 0.1,0.1 0.1,0.1 -0.2,0 -0.2,0 -0.2,0 l 0,0 z"
         id="_x31_16_2_" /><path
         d="m 45.3,46.6 c -0.1,0 -0.1,-0.1 0,0 0,-0.1 0,-0.1 0.1,-0.1 0,0 0.1,0.1 0.1,0.1 -0.1,0 -0.2,0 -0.2,0 l 0,0 z"
         id="_x31_15_2_" /><path
         d="m 45.2,46.5 c 0,0 -0.1,-0.1 0,0 0,-0.1 -0.1,-0.1 0,-0.1 0,0 0.1,0 0.1,0 0,0 0,0 0,0 0,0 0,0 0.1,0 0,0 0.1,0.1 0.1,0.1 -0.2,0 -0.3,0 -0.3,0 l 0,0 0,0 z"
         id="_x31_14_2_" /><path
         d="M 35.4,36.3 C 36,36.1 37,35 37.1,34.8 35.8,35.1 35.2,36 35.4,36.3 z"
         id="_x31_13_2_" /><path
         d="m 35.4,36.3 c -0.3,-0.3 0.3,-1.2 1.7,-1.5 -0.9,0.7 -1.6,1.3 -1.7,1.5 l 0,0 z"
         id="_x31_12_2_" /><path
         d="m 48,36.7 c -0.1,-0.6 -1.1,-1.6 -1.3,-1.7 0.2,1.3 1,1.9 1.3,1.7 z"
         id="_x31_11_2_" /><path
         d="m 48,36.7 c -0.3,0.2 -1.1,-0.4 -1.3,-1.7 0.6,0.9 1.2,1.6 1.3,1.7 z"
         id="_x31_10_2_" /><path
         d="m 38,47.1 0.1,0.2"
         id="_x31_09_2_" /><path
         d="m 39,46.4 c 1.9,-2.5 4.8,-4.4 6.9,-5.5 -0.3,0 -1,0.3 -1.3,0.4 -2.1,1.2 -4,2.9 -6,4.8 0.1,0.2 0.2,0.3 0.4,0.3 l 0,0 z"
         id="_x31_08_2_" /><path
         d="m 38.8,46.4 0.1,0.1 c 2.1,-2.4 5,-4.7 7,-5.6 -2.7,1.1 -5,3.4 -7.1,5.5 l 0,0 z"
         id="_x31_07_2_"
         style="fill:#8c929a" /><path
         d="m 38.8,46.4 0.1,0.1 h 0 c 0.5,-0.6 1,-1.1 1.5,-1.6 0.5,-0.5 1.1,-1 1.7,-1.5 0.6,-0.5 1.2,-0.9 1.8,-1.3 0.3,-0.2 0.6,-0.4 0.9,-0.6 0.3,-0.2 0.7,-0.4 1,-0.5 l 0,0 c -0.7,0.3 -1.4,0.6 -2,1 -0.6,0.4 -1.2,0.9 -1.8,1.3 -0.6,0.5 -1.1,1 -1.7,1.5 -0.4,0.5 -1,1 -1.5,1.6 z m 0,0 c 0.5,-0.5 1.1,-1.1 1.6,-1.6 0.5,-0.5 1.1,-1 1.7,-1.5 0.6,-0.5 1.2,-0.9 1.8,-1.3 0.6,-0.4 1.3,-0.8 2,-1 l 0,0 c -0.3,0.2 -0.7,0.3 -1,0.5 -0.3,0.2 -0.6,0.4 -0.9,0.6 -0.6,0.4 -1.2,0.9 -1.8,1.3 -0.6,0.5 -1.1,1 -1.7,1.5 -0.5,0.5 -1.1,1.1 -1.6,1.6 l 0,0 0,0 -0.1,-0.1 z"
         id="_x31_06_2_"
         style="fill:#4e5754" /><path
         d="m 39.2,46.5 c 0,-0.1 -0.1,-0.1 -0.1,-0.1 0,0 0,0 0,0 0,0 0,0 0,0 0,0 0,0 -0.1,0.1 -0.1,0 -0.3,-0.2 -0.3,-0.3 C 38.6,46.1 38.4,46 38.3,46 l 0,0 c -0.2,0 -0.4,0.1 -0.6,0.4 -0.2,0.4 -0.2,0.6 0,0.9 0,0 0,0 0,0 0,0 -0.1,0 -0.1,0 -0.1,0.1 0,0.2 0.2,0.3 0.4,-0.3 0.7,-0.5 1,-0.9 0,0 0.1,0.1 0.2,0.1 0.1,0 0.1,0 0.2,-0.1 0,0 0,-0.1 0,-0.2 z m -0.8,0 c -0.1,0 -0.1,0.1 -0.1,0.1 -0.1,0 -0.2,0.1 -0.1,0.1 -0.1,0 -0.2,0.1 -0.1,0.1 -0.1,0 -0.2,0.1 -0.1,0.1 -0.1,0 -0.2,0.1 -0.1,0.1 0,0 0,0 0,0 -0.2,-0.1 -0.3,-0.4 -0.2,-0.7 0,-0.1 0.1,-0.1 0.1,-0.2 l 0,0 c 0.1,-0.1 0.3,-0.3 0.5,-0.2 0.1,0.1 0.2,0.2 0.3,0.3 -0.2,0.2 -0.2,0.2 -0.2,0.3 z"
         id="_x31_05_2_" /><path
         d="m 38.7,46.7 c 0,-0.2 -0.2,-0.3 -0.3,-0.3"
         id="_x31_04_2_"
         style="fill:#e0b13b" /><path
         d="m 38.7,46.7 c 0,-0.1 -0.1,-0.1 -0.1,-0.2 0,0 0,-0.1 -0.1,-0.1 0,0 -0.1,0 -0.1,-0.1 0,0 0.1,0 0.1,0.1 0,0 0.1,0.1 0.1,0.1 0,0 0,0.1 0.1,0.1 0,0 0,0.1 0,0.1 z"
         id="_x31_03_2_"
         style="fill:#5e3324" /><path
         d="m 38.6,46.8 c -0.1,0 -0.3,-0.1 -0.3,-0.2"
         id="_x31_02_2_"
         style="fill:#e0b13b" /><path
         d="m 38.6,46.8 c 0,0 -0.1,0 -0.1,0 0,0 -0.1,0 -0.1,-0.1 0,0 -0.1,0 -0.1,-0.1 0,0 0,-0.1 -0.1,-0.1 0,0 0,0.1 0.1,0.1 0,0 0,0.1 0.1,0.1 0,0 0.1,0 0.1,0.1 0,0 0,0 0.1,0 z"
         id="_x31_01_2_"
         style="fill:#5e3324" /><path
         d="m 38.4,47 c -0.2,0 -0.3,-0.1 -0.3,-0.2"
         id="_x31_00_2_"
         style="fill:#e0b13b" /><path
         d="m 38.4,47 c 0,0 -0.1,0 -0.1,0 0,0 -0.1,0 -0.1,0 -0.1,0 -0.1,-0.1 -0.1,-0.2 0,0 0,0.1 0.1,0.1 0,0 0,0.1 0.1,0.1 0,-0.1 0,-0.1 0.1,0 0,0 0,0 0,0 z"
         id="_x39_9_2_"
         style="fill:#5e3324" /><path
         d="M 38.3,47.1 C 38.2,47.1 38,47 38,46.9"
         id="_x39_8_2_"
         style="fill:#e0b13b" /><path
         d="m 38.3,47.1 c 0,0 -0.1,0 0,0 -0.1,0 -0.2,0 -0.2,-0.1 0,0 -0.1,0 -0.1,-0.1 0,0 0,-0.1 0,-0.1 0,0 0,0.1 0.1,0.1 0,0 0,0 0.1,0.1 0,0.1 0,0.1 0.1,0.1 z"
         id="_x39_7_2_"
         style="fill:#5e3324" /><path
         d="M 38.2,47.2 C 38,47.2 37.9,47.1 37.9,47"
         id="_x39_6_2_"
         style="fill:#e0b13b" /><path
         d="m 38.2,47.2 c -0.1,0 -0.1,0 -0.2,-0.1 0,0 -0.1,0 -0.1,-0.1 0,0 0,-0.1 0,-0.1 0,0 0,0.1 0.1,0.1 0,0 0,0 0.1,0.1 -0.1,0.1 0,0.1 0.1,0.1 -0.1,0 -0.1,0 0,0 z"
         id="_x39_5_2_"
         style="fill:#5e3324" /><path
         d="m 38,47.3 c -0.1,0 -0.3,-0.1 -0.3,-0.2"
         id="_x39_4_2_"
         style="fill:#e0b13b" /><path
         d="m 38,47.3 c 0,0 0,0 0,0 -0.1,0 -0.1,0 -0.2,0 0,0 0,0 -0.1,-0.1 0,0 0,0 0,-0.1 0,0 0,0.1 0.1,0.1 0,0 0,0 0.1,0.1 0,0 0,0 0.1,0 0,0 0,0 0,0 z"
         id="_x39_3_2_"
         style="fill:#5e3324" /><path
         d="m 38.7,46.7 c -0.1,0 -0.3,-0.1 -0.3,-0.2"
         id="_x39_2_2_"
         style="fill:#e0b13b" /><path
         d="m 38.7,46.7 c 0,0 -0.1,0 -0.1,0 0,0 -0.1,0 -0.1,-0.1 0,0 -0.1,0 -0.1,-0.1 0,0 0,-0.1 0,-0.1 0,0 0,0.1 0.1,0.1 0,0 0,0.1 0.1,0.1 0,0 0.1,0 0.1,0.1 -0.1,0 0,0 0,0 z"
         id="_x39_1_2_"
         style="fill:#5e3324" /><path
         d="m 37.9,47.4 c -0.1,0 -0.2,-0.1 -0.3,-0.2"
         id="_x39_0_2_"
         style="fill:#e0b13b" /><path
         d="m 37.9,47.4 c -0.1,0 -0.1,0 0,0 -0.1,0 -0.1,0 -0.2,0 0,0 -0.1,-0.1 -0.1,-0.1 0,0 0,0 0,0.1 0,0 0,0 0.1,0.1 0,-0.1 0.1,-0.1 0.2,-0.1 -0.1,0 -0.1,0 0,0 z"
         id="_x38_9_2_"
         style="fill:#5e3324" /><path
         d="m 37.5,46.6 c 0.1,-0.1 0.1,-0.1 0,0 0,-0.1 0,-0.1 0,-0.1 0,0 -0.1,0.1 -0.1,0.1 0.1,0 0.1,0 0.1,0 l 0,0 0,0 z"
         id="_x38_8_2_" /><path
         d="m 37.6,46.5 c 0,0 0,-0.1 0,0 0,-0.1 0,-0.1 0,-0.1 0,0 -0.1,0.1 -0.1,0.1 0,0 0,0 0.1,0 l 0,0 0,0 z"
         id="_x38_7_2_" /><path
         d="m 37.6,46.4 c 0.1,0 0.1,-0.1 0,0 0,-0.1 0,-0.1 0,-0.1 0,0 -0.1,0.1 -0.1,0.1 0,0 0.1,0 0.1,0 l 0,0 0,0 z"
         id="_x38_6_2_" /><path
         d="m 37.7,46.3 c 0.1,0 0.1,-0.1 0,0 0,-0.1 0,-0.1 0,-0.1 0,0 -0.1,0.1 -0.1,0.1 0,0 0.1,0 0.1,0 l 0,0 0,0 z"
         id="_x38_5_2_" /><path
         d="m 37.8,46.2 c 0,0 0.1,0 0,0 0.1,-0.1 0.1,-0.1 0.1,-0.1 0,0 -0.1,0 -0.1,0 0,0 0,0 0,0 0,0 0,0 -0.1,0 0,0 -0.1,0.1 -0.1,0.1 0.1,0 0.2,0 0.2,0 l 0,0 z"
         id="_x38_4_2_" /><path
         d="M 38.7,37.6"
         id="_x38_3_2_" /><path
         d="m 39.2,43 c 0,0 -0.5,0.1 -0.7,-0.7 -0.2,-0.8 0.5,-0.9 0.5,-0.9 0,0 0.7,-0.1 1.1,-0.1 l 0.2,1.6 -1.1,0.1 z"
         id="_x38_2_2_" /><path
         d="M 39,41.5"
         id="_x38_1_2_" /><radialGradient
         cx="156.64169"
         cy="-103.025"
         r="1.4276"
         id="_x38_0_1_"
         gradientUnits="userSpaceOnUse"
         gradientTransform="matrix(1,0,0,-1,-117.8999,-60.8662)"><stop
           id="stop293"
           style="stop-color:#9e7b24;stop-opacity:0"
           offset="0.2165" /><stop
           id="stop295"
           style="stop-color:#9e7b24;stop-opacity:1"
           offset="1" /></radialGradient><path
         d="m 39.2,43 c 0,0 -0.5,0.1 -0.7,-0.7 -0.2,-0.8 0.5,-0.9 0.5,-0.9 0,0 0.7,-0.1 1.1,-0.1 l 0.2,1.6 -1.1,0.1 z"
         id="_x38_0_2_" /><path
         d="m 39.2,42.8 c 0,0 -0.3,0.1 -0.4,-0.5 -0.1,-0.4 0.2,-0.4 0.2,-0.4 l 0.8,0.1 0,0.7 -0.6,0.1 z"
         id="_x37_9_2_" /><radialGradient
         cx="156.9993"
         cy="-103.4331"
         r="0.94209999"
         id="_x37_8_1_"
         gradientUnits="userSpaceOnUse"
         gradientTransform="matrix(1,0,0,-1,-117.8999,-60.8662)"><stop
           id="stop300"
           style="stop-color:#9e7b24;stop-opacity:0"
           offset="0.2165" /><stop
           id="stop302"
           style="stop-color:#9e7b24;stop-opacity:1"
           offset="1" /></radialGradient><path
         d="m 39.2,42.8 c 0,0 -0.3,0.1 -0.4,-0.5 -0.1,-0.4 0.2,-0.4 0.2,-0.4 l 0.8,0.1 0,0.7 -0.6,0.1 z"
         id="_x37_8_2_" /><path
         d="m 39,41.9 c 0,0 0.5,0 0.8,-0.1 l 0.1,0.5 -0.6,0 c 0,0 -0.1,-0.4 -0.3,-0.4 z"
         id="_x37_7_2_" /><radialGradient
         cx="157.2197"
         cy="-103.0573"
         r="0.84439999"
         id="_x37_6_1_"
         gradientUnits="userSpaceOnUse"
         gradientTransform="matrix(1,0,0,-1,-117.8999,-60.8662)"><stop
           id="stop307"
           style="stop-color:#9e7b24;stop-opacity:0"
           offset="0.2165" /><stop
           id="stop309"
           style="stop-color:#9e7b24;stop-opacity:1"
           offset="1" /></radialGradient><path
         d="m 39,41.9 c 0,0 0.5,0 0.8,-0.1 l 0.1,0.5 -0.6,0 c 0,0 -0.1,-0.4 -0.3,-0.4 z"
         id="_x37_6_2_" /><path
         d="m 38.9,41.5 c 0,0 0.7,-0.2 0.7,0.6 0,0.2 -0.1,0.6 -0.4,0.7 l 1.2,-0.1 -0.1,-1.3 -0.4,0 c 0,0 -0.8,0 -1,0.1 z"
         id="_x37_5_2_" /><radialGradient
         cx="157.5891"
         cy="-102.9204"
         r="1.4984"
         id="_x37_4_1_"
         gradientUnits="userSpaceOnUse"
         gradientTransform="matrix(1,0,0,-1,-117.8999,-60.8662)"><stop
           id="stop314"
           style="stop-color:#9e7b24;stop-opacity:0"
           offset="0.2165" /><stop
           id="stop316"
           style="stop-color:#9e7b24;stop-opacity:1"
           offset="1" /></radialGradient><path
         d="m 38.9,41.5 c 0,0 0.7,-0.2 0.7,0.6 0,0.2 -0.1,0.6 -0.4,0.7 l 1.2,-0.1 -0.1,-1.3 -0.4,0 c 0,0 -0.8,0 -1,0.1 z"
         id="_x37_4_2_" /><path
         d="m 39.2,43 c 0,0 4.5,-0.3 4.9,-0.3 1.4,-0.7 0,-3.7 -1.2,-5.3 0.1,-0.4 -2.6,-1.2 -3.8,-1.1 -0.2,0 -0.3,0 -0.4,0 -0.7,0.1 -0.7,0.9 -0.4,1.5 0.3,0.5 2.6,4.8 1,5.2 l -0.1,0 z"
         id="_x37_3_2_" /><linearGradient
         x1="158.92889"
         y1="-98.785797"
         x2="158.7951"
         y2="-96.436501"
         id="_x37_2_1_"
         gradientUnits="userSpaceOnUse"
         gradientTransform="matrix(1,0,0,-1,-117.8999,-60.8662)"><stop
           id="stop321"
           style="stop-color:#9e7b24;stop-opacity:0"
           offset="0.2165" /><stop
           id="stop323"
           style="stop-color:#9e7b24;stop-opacity:1"
           offset="1" /></linearGradient><path
         d="m 44,39.1 c -0.3,-0.6 -0.7,-1.2 -1,-1.7 0.1,-0.4 -2.6,-1.2 -3.8,-1.1 -0.2,0 -0.3,0 -0.4,0 -0.7,0.1 -0.7,0.9 -0.4,1.5 0.1,0.2 0.4,0.7 0.7,1.4"
         id="_x37_2_2_"
         style="fill:url(#_x37_2_1_)" /><path
         d="M 44,39.1 C 43.9,38.8 43.7,38.5 43.5,38.2 43.3,37.9 43.2,37.6 43,37.4 l 0,0 0,0 c 0,0 0,0 0,-0.1 0,0 0,0 0,-0.1 0,0 -0.1,-0.1 -0.1,-0.1 -0.1,0 -0.1,-0.1 -0.2,-0.1 -0.1,-0.1 -0.3,-0.1 -0.4,-0.2 -0.3,-0.1 -0.6,-0.2 -0.9,-0.3 -0.3,-0.1 -0.6,-0.2 -1,-0.2 -0.2,0 -0.3,-0.1 -0.5,-0.1 -0.2,0 -0.3,0 -0.5,0 -0.1,0 -0.2,0 -0.2,0 l -0.2,0 -0.1,0 c 0,0 -0.1,0 -0.1,0 -0.1,0 -0.2,0.1 -0.2,0.1 -0.1,0.1 -0.1,0.1 -0.1,0.2 0,0.1 -0.1,0.2 -0.1,0.2 0,0.2 0,0.3 0,0.5 0,0.2 0.1,0.3 0.2,0.5 0.1,0.1 0.2,0.3 0.2,0.4 0.1,0.3 0.3,0.6 0.4,0.9 -0.1,-0.3 -0.3,-0.6 -0.4,-0.9 l -0.2,-0.4 c -0.1,-0.1 -0.1,-0.3 -0.2,-0.5 0,-0.2 0,-0.3 0,-0.5 0,-0.1 0,-0.2 0.1,-0.2 0,-0.1 0.1,-0.1 0.1,-0.2 0.1,-0.1 0.1,-0.1 0.2,-0.1 0,0 0.1,0 0.1,0 l 0.1,0 0.2,0 c 0.1,0 0.2,0 0.2,0 0.2,0 0.3,0 0.5,0 0.2,0 0.3,0 0.5,0.1 0.3,0.1 0.6,0.1 1,0.2 0.3,0.1 0.6,0.2 0.9,0.3 0.2,0.1 0.3,0.1 0.4,0.2 0.1,0 0.1,0.1 0.2,0.1 0,0 0.1,0.1 0.1,0.1 0,0 0,0 0,0.1 0,0 0,0 0,0.1 l 0,0 c 0.2,0.3 0.4,0.6 0.5,0.8 0.2,0.3 0.3,0.6 0.5,0.9 z"
         id="_x37_1_2_"
         style="fill:#948f70" /><linearGradient
         x1="159.72501"
         y1="-102.0224"
         x2="159.9295"
         y2="-104.6064"
         id="_x37_0_1_"
         gradientUnits="userSpaceOnUse"
         gradientTransform="matrix(1,0,0,-1,-117.8999,-60.8662)"><stop
           id="stop328"
           style="stop-color:#9e7b24;stop-opacity:0"
           offset="0.2165" /><stop
           id="stop330"
           style="stop-color:#9e7b24;stop-opacity:1"
           offset="1" /></linearGradient><path
         d="m 39.4,40.1 c 0.5,1.3 0.7,2.6 -0.1,2.8 l -0.1,0 c 0,0 4.5,-0.3 4.9,-0.3 0.7,-0.4 0.7,-1.5 0.3,-2.6"
         id="_x37_0_2_"
         style="fill:url(#_x37_0_1_)" /><path
         d="m 39.4,40.1 c 0.1,0.3 0.2,0.5 0.3,0.8 0.1,0.3 0.1,0.5 0.2,0.8 0,0.1 0,0.3 0,0.4 0,0.1 0,0.3 -0.1,0.4 0,0.1 -0.1,0.2 -0.2,0.3 -0.1,0 -0.1,0.1 -0.2,0.1 0,0 -0.1,0 -0.1,0 l -0.1,0 0,0 1.2,-0.1 1.2,-0.1 c 0.4,0 0.8,0 1.2,-0.1 0.2,0 0.4,0 0.6,0 0.1,0 0.2,0 0.3,0 0.1,0 0.2,0 0.3,0 l 0,0 c 0.1,-0.1 0.2,-0.1 0.3,-0.2 0.1,-0.1 0.1,-0.2 0.2,-0.3 0.1,-0.2 0.1,-0.5 0.1,-0.7 0,-0.2 0,-0.5 -0.1,-0.7 -0.1,-0.2 -0.1,-0.5 -0.2,-0.7 0.1,0.2 0.1,0.4 0.2,0.7 0.1,0.2 0.1,0.5 0.1,0.7 0,0.1 0,0.2 0,0.4 0,0.1 0,0.2 -0.1,0.3 0,0.1 -0.1,0.2 -0.2,0.3 -0.1,0.1 -0.2,0.2 -0.3,0.2 l 0,0 0,0 c -0.1,0 -0.2,0 -0.3,0 -0.1,0 -0.2,0 -0.3,0 -0.2,0 -0.4,0 -0.6,0 -0.4,0 -0.8,0 -1.2,0.1 l -1.2,0.1 -1.2,0.2 0,0 0.1,0 c 0,0 0.1,0 0.1,0 0.1,0 0.1,-0.1 0.2,-0.1 0.1,-0.1 0.2,-0.2 0.2,-0.3 0,-0.1 0.1,-0.3 0.1,-0.4 0,-0.1 0,-0.3 0,-0.4 0,-0.3 -0.1,-0.5 -0.2,-0.8 -0.1,-0.3 -0.2,-0.6 -0.3,-0.9 z"
         id="_x36_9_2_"
         style="fill:#948f70" /><path
         d="m 41,39.8 c 0,0 0,0 0,0 0,0 0,0 0,0 0,0 0.1,0 0,0 0.1,0.1 0.1,0.1 0.1,0.1 0,0 0,0 0,0 0,0 0,0 0,0 0,0 0,0 0,0 0,0 0,0 0,0 0,0 0,0 -0.1,-0.1 0.1,0.1 0.1,0.1 0,0 0,0.1 0,0.1 0,0 0,0.1 0,0.1 0,0 0,0.1 0,0.1 0,0 0,0.1 -0.1,0.1 -0.1,0.1 0,0 0,0 0,0 0,0 0,0 0,0 0,0 0,0 0,0 0,0 0,0 0,0 0,0 0,0 0,0 0,0 0,0 0,0 0,0 0,0 0,0 0,-0.1 0,-0.1 0.1,-0.1 -0.1,0 -0.1,0 0,0 -0.1,0 -0.1,0 0,0 l -0.2,-0.3 c 0,0 0,0 0,0 0,0 0,0 0,0 0,0 0,0 0,0 0,0 0,0 0,0 0,0 0,0 0,0 0,0 0,0 0,0 0,0 0,0 0,0 0,0 0,0 0,0 0,0 0,0 0,0 0,0 0,0 0,0 0,0 0,0 0.1,0 0,0 0,0 0.1,0 0,0 0,0 0,0 0,0 0,0 0,0 l 0,0.3 z"
         id="_x36_8_2_"
         style="fill:#9e7b24" /><path
         d="m 41.1,39.4 c 0,0 0,0 0,0 0,0 0,0 0,0 0.1,0 0.1,0 0.1,0 0,0 0,0 0,0 0,0 0,0 0,0 0,0 0,0 0,0 0,0 0,0 0,0 0,0 0,0 0,0 0,0 0,0 0,0 l 0,0 c 0,0 0,0 0,0 0,0 0,0 0,0 0,0 0,0 0,0 0,0 0,0 0,0 0,0 0,0 0,0 0,0 0,0 0,0 0,0 0,0 0,0 0,0 0,0 0,0 0,0 0,0 0,0 0,0 0,0 0,0 0,0.1 0,0.1 -0.1,0 0,0.1 0,0.1 0,0 0.1,0.1 0.1,0.1 0.1,0.1 0,0 0,0 0,0 0,0 0,0 0,0 0,0 0,0 0,0 0,0 0,0 0,0 0,0 0,0 0,0 0,0 0,0 0,0 0,0 0,0 0,0 0,0 0,0 0.1,0 0,0 0,0 0.1,0 0,0 0,0 0.1,0 0,0 0,0 0,0.1 0,0 0,0.1 0,0.1 0,0 0,0 0,0.1 0,0 0,0 0,0 0,0 0,0 -0.1,0 0,0 0,0 0,0 0,0 0,0 0,0 0,0 0,0 0,0 0,0 0,0 0,0 0,0 0,0 0,0 0,0 0,0 0,0 0,0 0,0 0,0 0,0 0,0 0,0 0,0 0,0 0,0 0,0 0,0 0,0 0,0 0,0 0,0 0,0 0,0 0,0 0,0 0,0 0,0 0,0 0,0 0,0 0,0 0,0 0,0 0,0 0,0 0,0 0,0 0,0 0,0 0,0 0,0 0,0 0,0 0.1,0 0.1,0 0,0 0,-0.1 0,-0.1 0,0 0,-0.1 -0.1,-0.1 0,0 -0.1,0 -0.1,0 0,0 0,0 0,0 0,0 0,0 0,0 0,0 0,0 0,0 0,0 0,0 0,0 0,0 0,-0.1 0,-0.1 -0.2,0 -0.2,-0.1 -0.2,-0.1 -0.1,0 -0.1,0 0,0 0,0 0,0 0,0 l 0,0 z"
         id="_x36_7_2_"
         style="fill:#9e7b24" /><path
         d="m 41.7,39.5 c -0.1,0 -0.1,-0.1 0,0 -0.1,-0.1 -0.1,-0.1 0,0 -0.1,-0.1 -0.1,-0.1 0,0 -0.1,-0.1 -0.1,-0.1 0,0 -0.1,-0.1 -0.1,-0.1 -0.1,-0.1 0,0 0,0 0,0 0,0 0,0 0,0 0,0 0,0 0,0 0,0 0,0 0,0 0,0 0,0 0,0 0,0 0,0 0,0 0,0 0,0 0,0 0,0 0,0 0.1,0 0,0 0,0 0.1,0 0,0 0.1,0 0.1,0 0,0 0.1,0 0.1,0 0,0 0.1,0 0.1,0.1 0,0 0,0.1 0.1,0.1 0,0 0,0.1 0,0.1 0,0 0,0.1 0,0.1 0,0 0,0 -0.1,0 0,0 -0.1,0 -0.1,0 0,0 0,0 -0.1,0 0,0 0,0 -0.1,0 0,0 0,0 0,0 0,0 0,0 0,0 0,0 0,0 0,0 0,0 0,0 0,0 0,0 0,0 0,0 0,0 0,0 0,0 0,0 0,0 0,0 0,0 0,0 0,0 0,0 0,0 0,0 0,0 0,0 0,0 0,0 0,0 0,0 0,0 0,0 0,0 l -0.1,-0.3 z m 0.1,0.2 c 0,0 0,0 0,0 0.1,0.1 0.1,0.1 0,0 0.1,0.1 0.1,0.1 0,0 0.1,0.1 0.1,0.1 0.1,0.1 0,0 0,0 0,0 0,0 0,0 0,0 0,0 0,0 0,-0.1 0,0 0,-0.1 0,-0.1 0,0 0,-0.1 0,-0.1 0,0 0,0 -0.1,-0.1 0,0 0,0 -0.1,0 -0.1,0 -0.1,0 -0.1,0 0,0 0,0 0,0 0,0 0,0 0,0 l 0.2,0.3 z"
         id="_x36_6_2_"
         style="fill:#9e7b24" /><path
         d="m 42.4,39.3 0,0 c 0,0 0,0 0,0 0,0 0,0 0,0 0,0.1 0,0.1 0,0 l 0,0 c 0,0.1 0,0.1 0,0 0.1,0.1 0.1,0.1 0.1,0.1 0,0 0,0 0,0 0,0 0,0 0,0 0,0 0,0 0,0 0,0 0,0 0,0 -0.1,0 -0.1,0 -0.1,-0.1 0,0.1 0,0.1 0,0 0,0.1 0,0.1 0,0 -0.1,0.1 -0.1,0.1 0,0 l -0.1,0 c 0,0 0,0 0,0 0,0 0,0 0,0 0,0 0,0 0,0 0,0 0,0 0,0 l 0,0.1 c 0,0 0,0 0,0 l 0,0 c 0,0 0,0 0,0 0,0 0,0 0,0 0,0 0,0 0,0 0,0 0,0 0,0 0,0 0,0 0,0 0,0 0,0 0,0 0,0 0,0 0,0 0,0 0,0 0,0 0,0 0,0 0,0 0,0 0,0 0,0 0,0 0,0 0,0 0,0 0,0 0,0 0,0 0,0 0,0 0,0 0,0 0,0 0,0 0,0 0,0 0,0 0,0 0,0 0,0 0,0 0,0 0,0 0,0 0,0 0,0 0,0 0,0 0,0 0,0 0,0 0,0 0,0 0,0 0,0 0,0 0,0 0,0 0,0 0,0 0,0 0,0 0,0 0,0 0,0 0,0 l 0,0.1 c 0,0 0,0 0,0 0,0 0,0 0,0 0,0 0,0 0,0 0,0 0,0 0,0 0,0 0,0 0,0 0,0 0,0 0,0 0,0 0,0 0,0 0,0 0,0 0,0 0,0 0,0 0,0 0,0 0,0 0,0 0,0 0,0 0,0 0,0 0,0 0,0 0,0 0,0 0,0 0,0 0,0 0,0 0,0 0,0 0,0.1 0,0 0,0 0,0.1 0,0 0,0 0,0 0,0 0,0 0,0 0,0 0,0 0,0 0,0 0,0 0,0 l -0.2,0 c 0,0 0,0 0,0 0,0 0,0 0,0 0,0 0,0 0,0 0,0 0,0 0,0 0,0 0,0 0,0 0,0 0,0 0,0 0,0 0,0 0,0 0,0 0,0 0,0 0,0 0,0 0,0 0,0 0,0 0,0 L 42,39.4 c 0,0 0,0 0,0 0,0 0,0 0,0 0,0 0,0 0,0 0,0 0,0 0,0 0,0 0,0 0,0 0,0 0,0 0,0 0,0 0,0 0,0 0,0 0,0 0,0 0,0 0,0 0,0 0,0 0,0 0,0 0,0 0,0 0,0 0,0 0,0 0,0 l 0.4,-0.1 z"
         id="_x36_5_2_"
         style="fill:#9e7b24" /><path
         d="m 41.3,41.4 c -0.1,0 -0.1,0 0,0 -0.1,-0.1 -0.1,-0.1 0,0 -0.1,-0.1 -0.1,-0.1 0,0 -0.1,-0.1 -0.1,-0.1 0,0 -0.1,-0.1 -0.1,-0.1 0,0 -0.1,-0.1 -0.1,-0.1 -0.1,-0.1 0,0 0,0 0,0 0,0 0,0 0,0 0,0 0,0 0,0 0,0 0,0 0,0 l 0,0 c 0,0 0,0 0,0 0,0 0,0 0.1,0 0,0 0,0 0.1,0 0,0 0.1,0 0.1,0 0,0 0.1,0 0.1,0 0,0 0.1,0 0.1,0.1 0,0 0,0.1 0,0.1 0,0 0,0.1 0,0.1 0,0 0,0.1 0,0.1 0,0 0,0 -0.1,0 -0.1,0 -0.1,0 -0.1,0 0,0 0,0 -0.1,0 0,0 0,0 -0.1,0 0,0 0,0 0,0 0,0 0,0 0,0 0,0 0,0 0,0 0,0 0,0 0,0 0,0 0,0 0,0 0,0 0,0 0,0 0,0 0,0 0,0 0,0 0,0 0,0 0,0 0,0 0,0 0,0 0,0 0,0 0,0 0,0 0,0 0,0 0,0 0,0 l 0,-0.3 z m 0.1,0.2 c 0,0 0,0 0,0 0,0.1 0,0.1 0,0 0,0.1 0,0.1 0,0 0.1,0.1 0.1,0.1 0.1,0.1 0,0 0,0 0,0 0,0 0,0 0,0 0,0 0,0 0,-0.1 0,0 0,-0.1 0,-0.1 0,0 0,-0.1 0,-0.1 0,0 0,0 0,-0.1 0,-0.1 0,0 -0.1,0 0,0 -0.1,0 -0.1,0 0,0 0,0 0,0 0,0 0,0 0,0 l 0.1,0.3 z"
         id="_x36_4_2_"
         style="fill:#9e7b24" /><path
         d="m 42,41.2 c 0,0 0,0 0,0 0,0 0,0 0,0 0,0 0,0 0,0 0,0 0,0.1 0,0 l 0,0 c 0,0.1 0,0.1 0,0 0,0.1 0,0.1 0,0.1 0,0 0,0 0,0 0,0 0,0 0,0 0,0 0,0 0,0 0,0 0,0 0,0 0,0 0,0 0,-0.1 0,0.1 0,0.1 0,0 0,0.1 0,0.1 0,0 0,0.1 -0.1,0.1 0,0 l -0.1,0.1 c 0,0 0,0 0,0 0,0 0,0 0,0 0,0 0,0 0,0 0,0 0,0 0,0 l 0,0.1 c 0,0 0,0 0,0 l 0,0 c 0,0 0,0 0,0 0,0 0,0 0,0 0,0 0,0 0,0 0,0 0,0 0,0 0,0 0,0 0,0 0,0 0,0 0,0 0,0 0,0 0,0 0,0 0,0 0,0 0,0 0,0 0,0 0,0 0,0 0,0 0,0 0,0 0,0 0,0 0,0 0,0 0,0 0,0 0,0 0,0 0,0 0,0 0,0 0,0 0,0 0,0 0,0 0,0 0,0 0,0 0,0 0,0 0,0 0,0 0,0 0,0 0,0 0,0 0,0 0,0 0,0 0,0 0,0 0,0 0,0 0,0 0,0 0,0 0,0 0,0 0,0 0,0 0,0 0,0 0,0 l 0,0.1 c 0,0 0,0 0,0 0,0 0,0 0,0 0,0 0,0 0,0 0,0 0,0 0,0 0,0 0,0 0,0 0,0 0,0 0,0 0,0 0,0 0,0 0,0 0,0 0,0 0,0 0,0 0,0 0,0 0,0 0,0 0,0 0,0 0,0 0,0 0,0 0,0 0,0 0,0 0,0 0,0 0,0 0,0 0,0 0,0 0,0.1 0,0 0,0 0,0.1 0,0 0,0 0,0 0,0 0,0 0,0 0,0 0,0 0,0 0,0 0,0 0,0 l -0.3,0 c 0,0 0,0 0,0 0,0 0,0 0,0 0,0 0,0 0,0 0,0 0,0 0,0 0,0 0,0 0,0 0,0 0,0 0,0 0,0 0,0 0,0 0,0 0,0 0,0 0,0 0,0 0,0 0,0 0,0 0,0 l -0.1,-0.3 c 0,0 0,0 0,0 0,0 0,0 0,0 0,0 0,0 0,0 0,0 0,0 0,0 0,0 0,0 0,0 0,0 0,0 0,0 0,0 0,0 0,0 0,0 0,0 0,0 0,0 0,0 0,0 0,0 0,0 0,0 0,0 0,0 0,0 0,0 0,0 0,0 L 42,41.2 z"
         id="_x36_3_2_"
         style="fill:#9e7b24" /><path
         d="m 42.6,41.6 c 0,0 0,0 0,0 0,0 0,0 0,0 0,0 0,0 0,0 0,0 0,0 0,0 0.1,0.1 0.1,0.1 0.1,0.1 0,0 0,0 0,0 0,0 0,0 0,0 0,0 0,0 0,0 0,0 -0.1,0 -0.1,-0.1 0,0.1 0,0.1 0,0 0,0.1 0,0.1 0,0 0,0.1 -0.1,0.1 0,0 -0.1,0.1 -0.1,0.1 0,0 -0.1,0.1 -0.1,0.1 -0.1,0.1 0,0 0,0 0,0 0,0 0,0 0,0 0,0 0,0 0,0 0,0 0,0 0,0 0,0 0,0 0,0 0,0 0,0 0,0 0,0 0,0 0,0 0,-0.1 0,-0.1 0.1,-0.1 -0.1,0 -0.1,0 0,0 -0.1,0 -0.1,0 0,0 l -0.1,-0.3 c 0,0 0,0 0,0 0,0 0,0 0,0 0,0 0,0 0,0 0,0 0,0 0,0 0,0 0,0 0,0 0,0 0,0 0,0 0,0 0,0 0,0 0,0 0,0 0,0 0,0 0,0 0,0 0,0 0,0 0,0 0,0 0,0 0.1,0 0,0 0,0 0.1,0 0,0 0,0 0,0 0,0 0,0 0,0 l -0.1,0.3 z"
         id="_x36_2_2_"
         style="fill:#9e7b24" /><path
         d="m 42.9,41.3 c 0,0 0,-0.1 0,0 -0.1,-0.1 -0.1,-0.1 0,0 -0.1,-0.1 -0.1,-0.1 -0.1,-0.1 0,0 0,0 0,0.1 0,0 0,0 0,0 0,0 0,0 0.1,0 -0.1,0 -0.1,0 0,0 -0.1,0.1 0,0.1 0,0 l 0,0 0,0 c 0,0.1 0,0 0,0 0,0 0,0 0,0 l 0,0 0,0 z m 0.1,0.2 c 0,0 -0.1,0 0,0 -0.1,0 -0.1,0 0,0 -0.1,0 -0.1,0 0,0 -0.1,-0.1 -0.1,-0.1 -0.1,-0.1 0,0 0,0 0,0 0,0 0,0 0,0 0,0 0,0 0,0.1 0,0 0,0.1 0,0.1 -0.1,0 0,0 0.1,-0.1 -0.1,0.1 -0.1,0.1 0,0 0,0.1 0,0.1 0,0 z m 0,0 c 0,0 0,0.1 0,0 0,0.1 0,0.1 0,0.1 0,0 0,0 0,0 0,0 0,0 -0.1,0 0,0 0,0 -0.1,0 0,0 0,0 -0.1,0 0,0 0,0 0,0 0,0 0,0 0,-0.1 0,0 0,-0.1 0,-0.1 0,0 0,0 0.1,0 0,0 0,0 -0.1,0 0,0 0,0 0,-0.1 0,0 0,0 0,-0.1 0,0 0,0 0,0 0,0 0,0 0,0 0,0 0,0 0.1,0 0,0 0,0 0.1,0 0,0 0,0 0,0 0,0 0,0 0,0 0,0 0,0 0,0.1 0,0 0,0 0,0 0,0 0,0 0,0 0,0 0,0 0,0 0,0 0,0 0,0 0,0 0,0 0,0 0.1,0.1 0.1,0.1 0.1,0.2 0,-0.1 0,0 0,0 0,0 0,0 0,0 l 0,0 z"
         id="_x36_1_2_"
         style="fill:#9e7b24" /><path
         d="m 43.3,41.6 c 0,0 0,0 0,0 0.1,-0.1 0.1,-0.1 0,0 0.1,-0.1 0.1,-0.1 0,0 0.1,-0.1 0.1,-0.1 0,0 0.1,-0.1 0.1,-0.1 0,0 0.1,-0.1 0.1,-0.1 0,0 0.1,-0.1 0.1,-0.1 0,0 0.1,0 0.1,0 0,0 0.1,0 0.1,0 0,0 0.1,0 0.1,0 0,0 0,0 0,0 0,0 0,0 0,0 0,0 -0.1,0 -0.1,0 0,0 -0.1,0.1 -0.1,0.1 -0.1,0.1 0,0 0,0 0,0 0,0 0,0 0,0 0,0 0,0 0,0 0,0 0,0 0,0 0,0 0,0 0,0 0,0 0,0 0,0 0,0 0,0 0,-0.1 0,0 0,0 0,0 0,0 0,0 0,0 0,0 0,0 0,0 0,0 0,0 0,0 0,0 0,0 0,0 0,0 0,0 0,0 0,0 0,0 0,0 0,0 0,-0.1 0,-0.1 0,0 0,0 -0.1,0 0,0 0,0 0,0 0,0 0,0 0,0 0,0 0,0 0,0 0,0 0,0 0,0 0,0 0,0 0,0 0,0 0,0 0,0 0,0 0,0 0,0 0,0 0,0 0,0 0,0 0,0 0,0 0,0 0,0 0,0 0,0 0,0 0,0 0,0 0,0 0,0 0,0 0,0 0,0 0,0 0,0 0,0 0,0 0,0 0,0 0,0 0,0 0,0 0,0 0,0 0,0 0,0 0,0 0,0 0,0 0,0 0,0 0,0 0,0 0.1,0 0,0 0,0 0.1,0 0,0 0,0 0.1,0 0,0 0,0 0,0 0,0 0,0 0,0.1 0,0 0,0.1 0,0.1 0,0 0,0 0,0.1 0,0 0,0 0,0 -0.1,-0.3 -0.2,-0.3 -0.1,-0.2 -0.1,-0.1 -0.1,-0.1 0,0 -0.1,-0.1 -0.1,0 -0.1,0 0,0 0,0 0,0 0,0 0,0 0,0 0,0 0,0 0.1,0 -0.1,0 -0.1,0 0,0 0,0 0,0 0,0 0,0 0,0 0,0 0,0 0,0 0,0 l 0,0 z"
         id="_x36_0_2_"
         style="fill:#9e7b24" /><path
         d="m 43.7,41.5 c 0,0 0,0 0,0 0,0.1 0,0.1 0,0 0,0.1 0,0.1 0,0 0,0.1 0,0.1 0,0 0.1,0.1 0.1,0.1 0.1,0.1 0,0 0,0 0,0 0,0 0,0 0,0 0,0 0,0 0,0 0,0 -0.1,0 -0.1,-0.1 0,0.1 0,0.1 0,0 0,0.1 0,0.1 0,0 -0.1,0.1 -0.1,0.1 0,0 -0.1,0.1 -0.1,0.1 0,0 -0.1,0.1 -0.1,0.1 -0.1,0.1 0,0 0,0 0,0 0,0 0,0 0,0 0,0 0,0 0,0 0,0 0,0 0,0 0,0 0,0 0,0 0,0 0,0 0,0 0,0 0,0 0,0 0,0 0,0 0,0 0,0 0,0 0.1,-0.1 -0.1,0 -0.1,0 0,0 l -0.1,-0.3 c 0,0 0,0 0,0 0,0 0,0 0,0 0,0 0,0 0,0 0,0 0,0 0,0 0,0 0,0 0,0 0,0 0,0 0,0 0,0 0,0 0,0 0,0 0,0 0,0 0,0 0,0 0,0 0,0 0,0 0,0 0,0 0,0 0.1,0 0,0 0,0 0.1,0 0,0 0,0 0,0 0,0 0,0 0,0 l -0.1,0.3 z"
         id="_x35_9_2_"
         style="fill:#9e7b24" /><path
         d="m 39.7,38.6 c 0,0 0,0 0,0 0,0 0,0 0,0 0,0 -0.1,0 0,0 -0.1,0 -0.1,0 0,0 -0.1,-0.1 -0.1,-0.1 -0.1,-0.1 0,0 0,0 0,0 0,0 0,0 0,0 0,0 0,0 0,0 0,0 0,0 0.1,0 0,0 0,0 0.1,0 0,0 0,0 0,0 0,0 0,0 0,0 0,0 0,0 0,0 0,0 0,0 0,0 0,0 0,0 0,0 0,0 0,0 0,0 0,0 0,0 0,0 0,0 0,0 0,0 0,0 0,0.1 -0.1,0.1 0.1,0 0.1,0 0,0 0.1,0 0.1,0 0,0 0.1,0 0.1,0 0,0 l 0.2,0.2 c 0,0 0,0 0,0 0,0 0,0 0,0 0,0 0,0 0,0 0,0 0,0 0,0 0,0 0,0 0,0 0,0 0,0 0,0 0,0 0,0 0,0 0,0 0,0 0,0 0,0 0,0 0,0 0,0 0,0 0,0 0,0 0,0 0,0 0,0 0,0 0,0 0,0 0,0 0,0 0,0 0,0 0,0 0,0 0,0 0,0.1 0,0 0,0 0,0.1 0,0 0,0 0,0 0,0 0,0 0,0 0,0 0,0 0,0 0,0 0,0 0,0 l -0.2,0 c 0,0 0,0 0,0 0,0 0,0 0,0 0,0 0,0 0,0 0,0 0,0 0,0 0,0 0,0 0,0 0,0 0,0 0,0 0,0 0,0 0,0 0,0 0,0 0,0 0,0 0,0 0,0 0,0 0,0 0,0 l 0,-0.4 0,0 z"
         id="_x35_8_2_"
         style="fill:#9e7b24" /><path
         d="m 40.1,38.6 c 0,0 0,0 0,0 0,0 0,0 0,0 0,-0.1 0,-0.1 0,0 -0.1,-0.1 -0.1,-0.1 0,0 C 40,38.5 40,38.5 40,38.5 c 0,0 0,0 0,0 0,0 0,0 0,0 0,0 0,0 0,0 0,0 0,0 0,0 0,0 0,0 0.1,0 0,0 0,0 0,0 0,0 0,0 0,0 0,0 0,0 0,0 0,0 0,0 0,0 0,0 0,0 0,0 0,0 0,0 0,0 0,0 0,0 0,0 0,0 0,0 0,0 0.1,0 0.1,0 0,0.1 0.1,-0.1 0.1,-0.1 0,0 0.1,-0.1 0.1,-0.1 0,0 0.1,0 0.1,0 0,0 l 0.2,0.3 c 0,0 0,0 0,0 0,0 0,0 0,0 0,0 0,0 0,0 0,0 0,0 0,0 0,0 0,0 0,0 0,0 0,0 0,0 0,0 0,0 0,0 0,0 0,0 0,0 0,0 0,0 -0.1,0 0,0 0,0 0,0 0,0 0,0 -0.1,0 0,0 0,0 0,0 0,0 0,0 0,0 0,0 0,0 0,0 0,0 0,0 0,0 0,0 0,0 0,0 0,0 0,0 0,0 0,0 0,0 0,0 0,0 0,0 0,0 0,0 0,0 0,0 l 0,-0.3 z"
         id="_x35_7_2_"
         style="fill:#9e7b24" /><path
         d="m 40.5,38.7 c 0,0 0,0 0,0 0,0 0,0 0,0 l 0,0 c 0,0 0.1,0 0,0 0.1,0 0.1,0 0,0 0.1,-0.1 0.1,-0.1 0,0 0.1,-0.1 0.1,-0.1 0,0 0.1,-0.1 0.1,-0.1 0.1,-0.1 0,0 0,0 0,0 0,0 0,0 0,0 0,0 0,0 0,0 l 0,0 0,0 c 0,0 0,0 0,0 0,0 0,0 0,0 0,0 0,0 0,0 l -0.1,0.1 z m 0.1,0.1 c 0,0 0,0 0,0 0,0.1 0,0.1 0,0 0,0.1 0,0.1 0,0 0.1,0.1 0.1,0.1 0.1,0.1 0,0 0,0 0.1,0 0,0 0,0 0,-0.1 0,0 0,0 0,-0.1 -0.1,0 -0.2,0 -0.2,0.1 0,-0.1 0,-0.1 0,0 0,-0.1 0,-0.1 0,0 l 0,0 c -0.1,-0.1 -0.1,-0.1 0,0 -0.1,-0.1 -0.1,-0.1 0,0 l 0,0 z m -0.2,-0.2 c 0,0 0,0 0,0 0,0 0,0 0,0 -0.1,-0.1 -0.1,-0.1 0,0 -0.1,-0.1 -0.1,-0.1 0,0 -0.1,-0.1 -0.1,-0.1 0,0 -0.1,-0.1 -0.1,-0.1 0,0 -0.1,-0.1 -0.1,-0.1 -0.1,-0.1 0,0 0,0 0,0 0,0 0,0 0,0 0,0 0,0 0,0 0,0 0,0 0,0 0,0 0,0 0,0 0,0 0,0 0,0 0,0 0,0 0,0 0,0 0,0 0,0 0,0 0,0 0,0 0,0 0,0 0,0 0,0 0,0 0,0 0,0 0,0 0,0 0,0 0,0 0,0 0,0 0,0 0,0 0,0 0,0 0,0 0,0 0,0 0,0 0,0 0,0 0,0 0,0 0,0 0,0 0,0 0,0 0,0 0,0 0,0 0,0 0,0 0,0 0,0 0,0 0,0 0,0 0,0 0,0 0,0 0,0 0.1,0 0.1,0 0,0 0.1,0 0.1,0.1 0,0 0,0 0,0.1 0,0 0,0 0,0 0,0 0,0 0,0 0,0 0,0 -0.1,0 0,0 0,0 0,0 0,0 0,0 0,0 0,0 0,0 0,0 0,0 0,0 0,0 0,0 0,0 0,0 0,0 0,0 0,0 0,0 0,0 0,0 0,0 0,0 0,0 0,0 0,0 0,0 0,0 0,0 0,0 0,0 0,0 0,0 0,0 0,0 0,0 0,0 0,0 0,0 0,0 0,0 0,0 0,0 0,0 0,0 0,0 0,0 0,0 l 0,-0.1 z"
         id="_x35_6"
         style="fill:#9e7b24" /><path
         d="m 41,38.4 c 0,0 0,0 0,0 0,0 0,0 0,0 0.1,0.1 0.1,0.1 0,0 0.1,0.1 0.1,0.1 0,0 l 0,0 c 0.1,0.1 0.1,0.1 0,0 0.1,0.1 0.1,0.1 0.1,0.1 0,0 0,0 0,0 0,0 0,0 0,0 0,0 0,0 0,0 0,0 0,0 0,0 -0.1,0 -0.1,0 -0.1,-0.1 0,0.1 0,0.1 0,0 0,0.1 0,0.1 0,0 0,0.1 0,0.1 0,0 l -0.1,0.1 c 0,0 0,0 0,0 0,0 0,0 0,0 0,0 0,0 0,0 0,0 0,0 0,0 l 0,0.1 c 0,0 0,0 0,0 l 0,0 c 0,0 0,0 0,0 0,0 0,0 0,0 0,0 0,0 0,0 0,0 0,0 0,0 0,0 0,0 0,0 0,0 0,0 0,0 0,0 0,0 0,0 0,0 0,0 0,0 0,0 0,0 0,0 0,0 0,0 0,0 0,0 0,0 0,0 0,0 0,0 0,0 0,0 0,0 0,0 0,0 0,0 0,0 0,0 0,0 0,0 0,0 0,0 0,0 0,0 0,0 0,0 0,0 0,0 0,0 0,0 0,0 0,0 0,0 0,0 0,0 0,0 0,0 0,0 0,0 0,0 0,0 0,0 0,0 0,0 l 0,0 c 0,0 0,0 0,0 l 0,0.1 c 0,0 0,0 0,0 0,0 0,0 0,0 0,0 0,0 0,0 0,0 0,0 0,0 0,0 0,0 0,0 0,0 0,0 0,0 0,0 0,0 0,0 0,0 0,0 0,0 0,0 0,0 0,0 0,0 0,0 0,0 0,0 0,0 0,0 0,0 0,0 0,0 0,0 0,0 0,0 0,0 0,0 0,0 0,0 0,0 0,0.1 0,0 0,0 0,0.1 0,0 0,0 0,0 0,0 0,0 0,0 0,0 0,0 0,0 0,0 0,0 0,0 l -0.2,0 c 0,0 0,0 0,0 0,0 0,0 0,0 0,0 0,0 0,0 0,0 0,0 0,0 0,0 0,0 0,0 0,0 0,0 0,0 0,0 0,0 0,0 0,0 0,0 0,0 0,0 0,0 0,0 0,0 0,0 0,0 l -0.1,-0.3 c 0,0 0,0 0,0 0,0 0,0 0,0 0,0 0,0 0,0 0,0 0,0 0,0 0,0 0,0 0,0 0,0 0,0 0,0 0,0 0,0 0,0 0,0 0,0 0,0 0,0 0,0 0,0 0,0 0,0 0,0 0,0 0,0 0,0 0,0 0,0 0,0 L 41,38.4 z"
         id="_x35_5_2_"
         style="fill:#9e7b24" /><path
         d="m 41.2,38.5 c 0,0 0,0 0,0 0,0 0,0 0,0 0,0 0,0 0,0 0,0 0,0 0,0 0,0 -0.1,0 0,0 -0.1,0 -0.1,0 0,0 -0.1,-0.1 -0.1,-0.1 -0.1,-0.1 0,0 0,0 0,0 0,0 0,0 0,0 0,0 0,0 0,0 0,0 0,0 0,0 0,0 0,0 0,0 0,0 0,0 0,0 0,0 0,0 0,0 0,0 0,0 0,0 0,0 0,0 0,0 0,0 0,0 0.1,0 0,0 0,0 0.1,0 0,0 0,0 0.1,0 0,0 0,0 0.1,0 0,0 0,0 0,0.1 0,0 0,0 0,0 0,0 0,0 0,0 0,0 0,0 0,0 0,0 0,0 0,0 0,0 0,0 0,0 l 0,0 c 0,0 0,0 0,0 0,0 0,0 0,0 0,0 0,0 0,0 0,0 0,0 0,0 0,0 0,0 0,0 0,0 0,0 0,0 0,0 0,0 0,0 0,0 0,0 0,0 0,0 0,0 0,0 0,0 0,0 0,0 0,0 0,0 0,0 0,0 0,0 0,0 0,0 0,0 0,0 0,0 0,0 0,0 0,0 0,0 0,0 0,0 0,0 0,0 0,0 0,0 0,0 0,0 0,0 0,0 0,0 0,0 0,0 0,0 0,0 0,0 0,0 0,0 0,0 0,0 0,0 0,0 0,0 0,0 0,0 0,0 0,0 0,0 0,0 0,0 0,0 0,0 0,0 0,0 0,0 0,0 -0.1,-0.1 0,0 0,0 -0.1,0 0,0 0,0 0,0 0,0 0,0 0,0 l 0,0.1 c 0,0 0,0 0,0 0,0 0,0 0,0 0,0 0,0 0,0 0,0 0,0 0,0 0,0 0,0 0,0 0,0 0,0 0,0 0,0 0,0 0,0 0,0 0,0 0,0 0,0 0,0 0,0 0,0 0,0 0,0 0,0 0,0 0,0 0,0 0,0 0,0 0,0 0,0 0,0 0,0 0,0 0,0 0,0 0,0 0,0 0,0 0,0 0,0 0,0 0,0 0,0 0,0 0,0 0,0 0,0 0,0 0,0 0,0 0,0 0,0 0,0 0,0 0,0 0,0 0,0 0,0 l -0.1,0 z m 0.1,0.1 c 0,0 0,0 0,0 0.1,0 0.1,0 0,0 0.1,0 0.1,0 0,0 0.1,0 0.1,0 0,0 0.1,0 0.1,0 0,0 0.1,0 0.1,0 0,0 0.1,-0.1 0.1,-0.1 0.1,-0.1 0,0 0,0 0,0 0,0 0,0 0,0 0,0 0,0 0,0 0,0 0,0 0,0 0,0 0,0 0,0 l -0.1,0.1 z"
         id="_x35_4_2_"
         style="fill:#9e7b24" /><path
         d="m 42,38.8 c 0,0 0,0 0,0 0,0 0,0 0,0 0,0 0,0 0,0 0,0 0,0 0,0 0,0 0.1,0 0,0 0.1,0.1 0.1,0.1 0.1,0.1 0,0 0,0 0,0 0,0 0,0 -0.1,-0.1 0,0.1 0,0.1 0,0 0,0.1 0,0.1 0,0 0,0.1 0,0.1 -0.1,0.1 0,0 0,0 0,0 0,0 0,0 0,0 0,0 0,0 0,0 0,0 0,0 0,0 0,0 0,0 0,0 0,-0.1 0,-0.1 0.1,-0.1 -0.1,0 -0.1,0 0,0 -0.1,0 -0.1,0 0,0 -0.1,0 -0.1,0 0,0 l -0.2,-0.3 c 0,0 0,0 0,0 0,0 0,0 0,0 0,0 0,0 0,0 0,0 0,0 0,0 0,0 0,0 0,0 0,0 0,0 0,0 0,0 0,0 0,0 0,0 0,0 0,0 0,0 0,0 0,0 0,0 0,0 0,0 0,0 0,0 0,-0.1 0,0 0,0 0,-0.1 0,0 0,0 0,0 0,0 0,0 0,0 l 0.4,0 c 0,0 0,0 0,0 0,0 0,0 0,0 0,0 0,0 0,0 0,0 0,0 0,0 0,0 0,0 0,0 0,0 0,0 0,0 0,0 0,0 0,0 0,0 0,0 0,0 0,0 0,0 0,0 0,0 0,0 0,0 0,0 0,0 0,0 0,0 0,0 0,0 0,0 0,0 0,0 0,0 0,0 0,0 0,0 0,0 0,0 0,0 0,0 0,0 L 42,38.8 z"
         id="_x35_3_2_"
         style="fill:#9e7b24" /><path
         d="m 42.3,38.7 c 0,0 0,0 0,0 0,0 0,0 0,0 l 0,0 c 0,0.1 0,0.1 0,0.1 0,0 0,0 0,0 0,0 0,0 0,0 0,0 0,0 0,0 0,0 0,0 0,0 0,0 0,0 0,0 0,0 0,0 0,0 0,0 0,0 0,0 0,0 0,0 0,0 0,0 0,0 0,0 0,0 0,0 0,0 0,0 0,0 0,0 0,0 0,0 0,0 0,0 0,0 0,0 0,0 0,0 0,0 0,0 0,0 0,0 0,0 0,0 0,0 0,0 0,0 0,0 0,0 0,0 0,0 l 0,0 c 0,0 0,0 0,0 0,0 0,0 0,0 0,0 0,0 0,0 -0.1,0 -0.1,0 0,-0.1 l -0.1,-0.3 c 0,0 0,0 0,0 0,0 0,0 0,0 0,0 0,0.1 0.1,0.1 0,0 0.1,0.1 0.1,0.1 0,0 0.1,0.1 0.1,0.1 0,0 0.1,0.1 0.1,0.1 0,0 0,0 0,0 0,0 0,0 0,0 0,0 0,0 0,0 0,0 0,0 0,0 0,0 0,0 0,0 0,0 0,0 0,0 0,0 0,0 0,0 0,0 0,0 0,0 0,0 0,0 0,0 0,0 0,0 0,0 0,0 0,0 0,0 0,0 0,0 0,0 0,0 0,0 -0.1,0 0,0 0,0 0,0 0,0 0,0 0,0 0,0 0,0 0,0 0,0 0,0 0,0 0,0 0,0 0,0 0,0 0,0 0,0 0,0 0,0 0,0 0,0 0,0 0,0 0,0 0,0 0,0 0,0 0,0 0,0 0,0 0,0 0,0 0,0 0,0 0,0 0,0 0,0 0,0 l -0.2,-0.1 z m 0.1,-0.1 0,0 c 0,0 0,0 0,0 l -0.1,-0.2 0,0 c 0,0 0,0 0,0 l 0,0.2 c 0,0 0,0 0,0 l 0,0 0.1,0 z"
         id="_x35_2_2_"
         style="fill:#9e7b24" /><path
         d="m 42.7,38.5 c -0.1,0 -0.1,0 0,0 -0.1,-0.1 -0.1,-0.1 0,0 -0.1,-0.1 -0.1,-0.1 0,0 -0.1,-0.1 -0.1,-0.1 0,0 -0.1,-0.1 -0.1,-0.1 -0.1,-0.1 0,0 0,0 0,0 0,0 0,0 0,0 0,0 0,0 0,0 0,0 0,0 0,0 0,0 0,0 0,0 0,0 0,0 0,0 0,0 0,0 0,0 0,0 0,0 0.1,0 0,0 0,0 0.1,0 0,0 0.1,0 0.1,0 0,0 0.1,0 0.1,0 0,0 0.1,0 0.1,0.1 0,0 0,0.1 0.1,0.1 0,0 0,0.1 0,0.1 0,0 0,0.1 0,0.1 0,0 0,0 -0.1,0 0,0 -0.1,0 -0.1,0 0,0 0,0 -0.1,0 0,0 0,0 -0.1,0 0,0 0,0 0,0 0,0 0,0 0,0 0,0 0,0 0,0 0,0 0,0 0,0 0,0 0,0 0,0 0,0 0,0 0,0 0,0 0,0 0,0 0,0 0,0 0,0 0,0 0,0 0,0 0,0 0,0 0,0 0,0 0,0 0,0 0,0 0,0 0,0 l -0.1,-0.3 z m 0.1,0.2 c 0,0 0,0 0,0 0.1,0.1 0.1,0.1 0,0 0.1,0.1 0.1,0.1 0,0 0.1,0.1 0.1,0.1 0.1,0.1 0,0 0,0 0,0 0,0 0,0 0,0 0,0 0,0 0,-0.1 0,0 0,-0.1 0,-0.1 0,0 0,-0.1 0,-0.1 0,0 0,0 -0.1,-0.1 0,0 0,0 -0.1,0 0,0 -0.1,0 -0.1,0 0,0 0,0 0,0 0,0 0,0 0,0 l 0.2,0.3 z"
         id="_x35_1_2_"
         style="fill:#9e7b24" /><path
         d="m 40,40.6 c 0,0 0,0 0,0 0.1,0 0.1,0 0,0 0.1,0 0.1,0 0,0 0.1,0.1 0.1,0.1 0.1,0.1 0,0 0,0 0.1,0 0,0 0,0 0.1,0 0,0 0,0 0,0 0,0 0,0 0,0.1 0,0 0,0 0,0.1 0,0 0,0 0,0 0,0 0,0 0,0 0,0 0,0 -0.1,0 0,0 0,0 0,0 0,0 0,0 -0.1,0 0,0 0,0 0,0 0,0 0,0 0,0 0,0 0,0 0,0 0,0 0,0 0,0 0,0 0,0 0,0 0,0 0,0 0,0 0,0 0,0 0,0 0,0 0,0 0,0 0,0 0,0 0,0 0,0 0,0 0,0 0,0 0,0 0,0 0,0 0,0 0,0 0,0 0,0 0,0 0,0 0,0 0,0 0,0 0,0 0,0 0,0 0,0 0,0 0,0 0,0 0,0 0,0 0,0 0,0 0,0 0,0 0,0 0,0 0,0 0,0 0,0 0,0 0,0 0,0 0,0 0,0 0,0 0,0 0,0 0,0 0,0 0,0 0,0 0,0 0,0 0,0 0,0 0,0 0,0 0,0 0,0 0,0 0,0 0,0 0,0 0,0 -0.1,0 0,0 0,0 -0.1,0 0.1,-0.2 0.1,-0.3 0.1,-0.3 0,0 0,0 0,0 0,0 -0.1,-0.1 0,0 0,-0.1 0,-0.1 0,0 0,-0.1 0,-0.1 0,-0.1 0,0 0,0 0.1,0 0,0 0,0 0,0 0,0 0,0 0,0 0,0 0,0 0,0 0,0 0,0 0,0 0,0 0,0 0,0 0,0 0,0 0,0 0,0 0,0 0,0 0,0 0,0 0,0 0,0 0,0 0,0 0,0 0,0 0,0 0,0 0,0 0,0 0,0 0,0 0,0 0,0 0,0 0,0 0,0 0,0 0,0 0,0 0,0 0,0 0,0 0,0 0,0 0,0 0,0 0,0 0,0 0,0 0,0 0,0 0,0 0,0 0,0 0,0 -0.1,0.1 0.1,-0.1 0.1,-0.1 0,0 0.1,-0.1 0.1,-0.1 0,0 0,-0.1 0,-0.1 0,0 0,-0.1 0,-0.1 0,0 0,-0.1 0,-0.1 0,0 l 0,0 z"
         id="_x35_0_2_"
         style="fill:#9e7b24" /><path
         d="m 40.6,40.4 0,0 c 0,0 0,0 0,0 0,0 0,0 0,0 0,0 0,0 0,0 l 0,0 c 0.1,0.1 0.1,0.1 0,0 0.1,0.1 0.1,0.1 0.1,0.1 0,0 0,0 0,0 0,0 0,0 0,0 0,0 0,0 0,0 0,0 0,0 0,0 -0.1,0 -0.1,0 -0.1,-0.1 0,0.1 0,0.1 0,0 0,0.1 0,0.1 0,0 0,0.1 -0.1,0.1 0,0 l -0.1,0.1 c 0,0 0,0 0,0 0,0 0,0 0,0 0,0 0,0 0,0 0,0 0,0 0,0 l 0,0.1 c 0,0 0,0 0,0 l 0,0 c 0,0 0,0 0,0 0,0 0,0 0,0 0,0 0,0 0,0 0,0 0,0 0,0 0,0 0,0 0,0 0,0 0,0 0,0 0,0 0,0 0,0 0,0 0,0 0,0 0,0 0,0 0,0 0,0 0,0 0,0 0,0 0,0 0,0 0,0 0,0 0,0 0,0 0,0 0,0 0,0 0,0 0,0 0,0 0,0 0,0 0,0 0,0 0,0 0,0 0,0 0,0 0,0 0,0 0,0 0,0 0,0 0,0 0,0 0,0 0,0 0,0 0,0 0,0 0,0 0,0 0,0 0,0 0,0 0,0 0,0 0,0 0,0 0,0 0,0 0,0 l 0,0.1 c 0,0 0,0 0,0 0,0 0,0 0,0 0,0 0,0 0,0 0,0 0,0 0,0 0,0 0,0 0,0 0,0 0,0 0,0 0,0 0,0 0,0 0,0 0,0 0,0 0,0 0,0 0,0 0,0 0,0 0,0 0,0 0,0 0,0 0,0 0,0 0,0 0,0 0,0 0,0 0,0 0,0 0,0 0,0 0,0 0,0.1 0,0 0,0 0,0.1 0,0 0,0 0,0 0,0 0,0 0,0 0,0 0,0 0,0 0,0 0,0 0,0 l -0.2,0 c 0,0 0,0 0,0 0,0 0,0 0,0 0,0 0,0 0,0 0,0 0,0 0,0 0,0 0,0 0,0 0,0 0,0 0,0 0,0 0,0 0,0 0,0 0,0 0,0 0,0 0,0 0,0 0,0 0,0 0,0 l -0.1,-0.3 c 0,0 0,0 0,0 0,0 0,0 0,0 0,0 0,0 0,0 0,0 0,0 0,0 0,0 0,0 0,0 0,0 0,0 0,0 0,0 0,0 0,0 0,0 0,0 0,0 0,0 0,0 0,0 0,0 0,0 0,0 0,0 0,0 0,0 0,0 0,0 0,0 l 0.4,-0.2 z"
         id="_x34_9_2_"
         style="fill:#9e7b24" /><path
         d="m 41,40.8 c 0,0 0,0 0,0 0,0 0,0 0,0 0,0 0,0 0,0 0,0 0.1,0 0,0 0.1,0.1 0.1,0.1 0.1,0.1 0,0 0,0 0,0 0,0 0,0 0,0 0,0 0,0 0,0 0,0 0,0 -0.1,0 0,0 0,0 -0.1,0 0,0 0,0 0,0 0,0 0,0 0,0 0,0 0,0 0,0 0,0 0,0 0,0 0,0 0,0 0,0 0,0 0,0 0,0 0,-0.1 0,-0.1 0.1,-0.1 -0.1,0 -0.1,0 0,0 -0.1,0 -0.1,0 0,0 -0.1,0 -0.1,0 0,0 l -0.2,-0.2 c 0,0 0,0 0,0 0,0 0,0 0,0 0,0 0,0 0,0 0,0 0,0 0,0 0,0 0,0 0,0 l 0,0 c 0,0 0,0 0,0 0,0 0,0 0,0 0,0 0,0 0,0 0,0 0,0 0,0 0,0 0,0 0,0 0,0 0,0 0,0 0,0 0,0 0.1,0 0,0 0,0 0,0 0,0 0,0 0.1,0 0,0 0,0 0.1,0 0,0 0,0 0,0 0,0 0,0 0,0.1 0,0 0,0 0,0.1 0,0 0,0 0,0 0,0 0,0 -0.1,0 0,0 0,0 -0.1,0 l 0,0 c 0,0 0,0 0,0 l 0.1,0 z m -0.1,-0.2 c 0,0 0,0 0,0 0,0 0,0 0,0 0,0 0.1,0 0,0 0.1,0 0.1,0 0,0 0.1,0 0.1,0 0,0 0.1,-0.1 0.1,-0.1 0.1,-0.1 0,0 0,-0.1 0,-0.1 0,0 0,0 -0.1,0 0,0 0,0 0,0 0,0 0,0 0,0 l 0,0.2 z"
         id="_x34_8_2_"
         style="fill:#9e7b24" /><path
         d="m 41.5,40.7 c 0,0.1 0,0.1 0,0 0,0.1 0,0.1 0,0 0,0.1 0,0.1 0,0 0,0.1 0,0.1 0,0 0,0.1 0,0.1 0,0 0.1,0.1 0.1,0.1 0.1,0.1 0,0 0,0 0,0 0,0 -0.1,0 -0.1,-0.1 0,0.1 0,0.1 0,0 0,0.1 0,0.1 0,0 0,0.1 0,0.1 -0.1,0.1 -0.1,0 0,0 0,0 0,0 0,0 0,0 0,0 0,0 0,0 0,0 0,0 0,0 0,0 0,0 0,0 -0.1,0 -0.1,0 0.1,-0.1 -0.1,0.1 -0.1,0.1 0,0 -0.1,0.1 -0.1,0.1 0,0 -0.1,0.1 -0.1,0.1 0,0 l -0.2,-0.3 c 0,0 0,0 0,0 0,0 0,0 0,0 0,0 0,0 0,0 0,0 0,0 0,0 0,0 0,0 0,0 0,0 0,0 0,0 0,0 0,0 0,0 0,0 0,0 0,0 0,0 0,0 0,0 0,0 0,0 0,0 0,0 0,0 0,-0.1 0,0 0,0 0,-0.1 0,0 0,0 0,0 0,0 0,0 0,0 l 0.4,0 c 0,0 0,0 0,0 0,0 0,0 0,0 0,0 0,0 0,0 0,0 0,0 0,0 0,0 0,0 0,0 0,0 0,0 0,0 0,0 0,0 0,0 0,0 0,0 0,0 0,0 0,0 0,0 0,0 0,0 0,0 0,0 0,0 0,0 0,0 0,0 0,0 0,0 0,0 0,0 0,0 0,0 0,0 0,0 0,0 0,0 0,0 0,0 0,0 l -0.2,0.5 z"
         id="_x34_7_2_"
         style="fill:#9e7b24" /><path
         d="m 41.6,40.5 c 0,-0.1 0,-0.1 0,0 0,-0.1 0,-0.1 0,0 0,-0.1 0,-0.1 0,0 0,-0.1 0,-0.1 0,0 0,-0.1 -0.1,-0.1 0,0 -0.1,-0.1 -0.1,-0.1 -0.1,-0.1 0,0 0,0 0,0 0,0 0,0 0,0 0,0 0,0 0,0 0,0 0,0 0.1,0 0,0 0,0 0,0 0,0 0,0 0,0 0,0 0,0 0,0 0,0 0,0 0,0 0,0 0,0 0,0 0,0 0,0 0,0 0,0 0,0 0,0 0,0 0,0 0,0 0.1,0 0.1,0 0,0.1 0.1,-0.1 0.1,-0.1 0,0 0.1,-0.1 0.1,-0.1 0,0 0.1,-0.1 0.1,-0.1 0,0 l 0.2,0.3 c 0,0 0,0 0,0 0,0 0,0 0,0 0,0 0,0 0,0 0,0 0,0 0,0 0,0 0,0 0,0 0,0 0,0 0,0 0,0 0,0 0,0 0,0 0,0 0,0 0,0 0,0 -0.1,0 0,0 0,0 0,0 0,0 0,0 -0.1,0 0,0 0,0 0,0 0,0 0,0 0,0 0,0 0,0 0,0 0,0 0,0 0,0 0,0 0,0 0,0 0,0 0,0 0,0 0,0 0,0 0,0 0,0 0,0 0,0 0,0 0,0 0,0 l 0,-0.3 z"
         id="_x34_6_2_"
         style="fill:#9e7b24" /><path
         d="m 42.1,40.3 c 0,0 0,0 0,0 0.1,0 0.1,0 0,0 0.1,0 0.1,0 0,0 0.1,0.1 0.1,0.1 0,0 l 0,0 c 0.1,0.1 0.1,0.1 0,0 0.1,0.1 0.1,0.1 0.1,0.1 0,0 0,0 0,0 0,0 0,0 0,0 0,0 0,0 0,0 0,0 0,0 0,0 -0.1,0 -0.1,0 -0.1,-0.1 0,0.1 0,0.1 0,0 0,0.1 0,0.1 0,0 0,0.1 0,0.1 0,0 l -0.1,0 c 0,0 0,0 0,0 0,0 0,0 0,0 0,0 0,0 0,0 0,0 0,0 0,0 l 0,0.1 c 0,0 0,0 0,0 l 0,0 c 0,0 0,0 0,0 0,0 0,0 0,0 0,0 0,0 0,0 0,0 0,0 0,0 0,0 0,0 0,0 0,0 0,0 0,0 0,0 0,0 0,0 0,0 0,0 0,0 0,0 0,0 0,0 0,0 0,0 0,0 0,0 0,0 0,0 0,0 0,0 0,0 0,0 0,0 0,0 0,0 0,0 0,0 0,0 0,0 0,0 0,0 0,0 0,0 0,0 0,0 0,0 0,0 0,0 0,0 0,0 0,0 0,0 0,0 0,0 0,0 0,0 0,0 0,0 0,0 0,0 0,0 0,0 0,0 0,0 0,0 0,0 0,0 0,0 0,0 0,0 l 0,0.1 c 0,0 0,0 0,0 0,0 0,0 0,0 0,0 0,0 0,0 0,0 0,0 0,0 0,0 0,0 0,0 0,0 0,0 0,0 0,0 0,0 0,0 0,0 0,0 0,0 0,0 0,0 0,0 0,0 0,0 0,0 0,0 0,0 0,0 0,0 0,0 0,0 0,0 0,0 0,0 0,0 0,0 0,0 0,0 0,0 0,0.1 0,0 0,0 0,0.1 0,0 0,0 0,0 0,0 0,0 0,0 0,0 0,0 0,0 0,0 0,0 0,0 l -0.2,0 c 0,0 0,0 0,0 0,0 0,0 0,0 0,0 0,0 0,0 0,0 0,0 0,0 0,0 0,0 0,0 0,0 0,0 0,0 0,0 0,0 0,0 0,0 0,0 0,0 0,0 0,0 0,0 0,0 0,0 0,0 l -0.1,-0.3 c 0,0 0,0 0,0 0,0 0,0 0,0 0,0 0,0 0,0 0,0 0,0 0,0 0,0 0,0 0,0 0,0 0,0 0,0 0,0 0,0 0,0 0,0 0,0 0,0 0,0 0,0 0,0 0,0 0,0 0,0 0,0 0,0 0,0 0,0 0,0 0,0 l 0.4,-0.1 z"
         id="_x34_5_2_"
         style="fill:#9e7b24" /><path
         d="m 42.3,40.4 c 0,0 0,0 0,0 0,0 0,0 0,0 0,0 0,0 0,0 0,0 -0.1,0 0,0 -0.1,-0.1 -0.1,-0.1 0,0 -0.1,-0.1 -0.1,-0.1 0,0 -0.1,-0.1 -0.1,-0.1 0,0 -0.1,-0.1 -0.1,-0.1 0,0 -0.1,-0.1 -0.1,-0.1 0,0 -0.1,-0.1 0,-0.1 0,0 0,-0.1 0,-0.1 0,0 0,-0.1 0,-0.1 0,0 0,-0.1 0.1,-0.1 0,0 0.1,-0.1 0.1,-0.1 0,0 l 0.3,0.2 c 0,0 0,0 0,0 0,0 0,0 0,0 l 0,-0.3 c 0,0 0,0 0,0 0,0 0,0 0,0 0,0 0,0 0,0 0,0 0,0 0,0 0,0 0,0 0,0 0,0 0,0 0,0 0,0 0,0 0,0 0,0 0,0 0,0 0,0 0,0 0,0 0,0 0,0 0,0 0,0 0,0 0,0 0,0 0,0 0,0.1 l 0.1,0.3 c 0,0 0,0 0,0 0,0 0,0 0,0 0,0 0,0 0,0 0,0 0,0 0,0 0,0 0,0 0,0 0,0 0,0 0,0 0,0 0,0 0,0 0,0 0,0 0,0 0,0 0,0 -0.1,0 0,0 0,0 0,0 0,0 0,0 -0.1,0 0,0 0,0 0,0 0,0 0,0 0,0 0,0 0,0 0,0 0,0 0,0 0,0 0,0 0,0 0,0 0,0 0,0 0,0 0,0 0,0 0,0 0,0 0,0 0,0 0,0 0,0 0,0 l -0.1,-0.3 c 0,0 0,0 0,0 l 0,0 0,0.2 c 0,0 0,0 0,0.1 0,0 0,0 0,0.1 0,0 0,0 0,0 0,0 0,0 0,0 0,0 0,0 0,0 0,0 0,0 0,0 l -0.1,-0.4 0,0 0,0 0.1,0.3 c 0,0 0,0 0,0 0,0 0,0 0,0 0,0 0,0 0,0 0,0 0,0 0,0 0,0 0,0 0,0 0,0 0,0 0,0 0,0 0,0 0,0 0,0 0,0 0,0 0,0 0,0 0,0 0,0 0,0 0,0 0,0 0,0 0,0 0,0 0,0 0,0 0,0 0,0 0,0 0,0 0,0 0,0 0,0 0,0 0,0 0,0 0,0 0,0 0,0 0,0 0,0 0,0 0,0 0,0 0,0 0,0 0,0 0,0 0,0 0,0 l -0.1,-0.3 z"
         id="_x34_4_2_"
         style="fill:#9e7b24" /><path
         d="m 43.1,40.5 c 0,0 0,0 0,0 0,0 0,0 0,0 l 0,0 c 0,0 0,0 0,0 0,0 0,0 0,0 0.1,0 0.1,0 0.1,0 0,-0.1 0,-0.1 -0.1,0 0.1,-0.1 0.1,-0.1 0.1,-0.1 0,0 0,0 0,0 0,0 0,0 0,0 0,0 0,0 0,0 l 0,0 0,0 c 0,0 0,0 0,0 0,0 0,0 0,0 0,0 0,0 0,0 l -0.1,0.1 z m 0,0.1 c 0,0 0,0.1 0,0 0,0.1 0,0.1 0,0 0,0.1 0,0.1 0,0 0.1,0.1 0.1,0.1 0,0 0.1,0.1 0.1,0.1 0.1,0.1 0,0 0,0 0,-0.1 0,0 0,0 0,-0.1 0,0.1 0,0.1 -0.1,0.1 0.1,-0.1 0.1,-0.1 0,0 0,-0.1 0,-0.1 0,0 l 0,0 c 0,-0.1 0,-0.1 0,0 0,-0.1 0,-0.1 0,0 l 0,0 z m -0.2,-0.2 c 0,0 0,0 0,0 0,0 0,0 0,0 0,-0.1 0,-0.1 0,0 0,-0.1 0,-0.1 0,0 0,-0.1 0,-0.1 0,0 0,-0.1 0,-0.1 0,0 0,-0.1 0,-0.1 0,0 -0.1,-0.1 -0.1,-0.1 -0.1,-0.1 0,0 0,0 0,0 0,0 0,0 0,0 0,0 0,0 0,0 0,0 0,0 0,0 0,0 0,0 0,0 0,0 0,0 0,0 0,0 0,0 0,0 0,0 0,0 0,0 0,0 0,0 0,0 0,0 0,0 0,0 0,0 0,0 0,0 0,0 0,0 0,0 0,0 0,0 0,0 0,0 0,0 0,0 0,0 0,0 0,0 0,0 0,0 0,0 0,0 0,0 0,0 0,0 0,0 0,0 0,0 0,0 0,0 0,0 0,0 0,0 0,0 0,0 0,0 0,0 0,0 0,0 0,0 0.1,0 0.1,0 0,0 0,0 0.1,0.1 0,0 0,0 0,0.1 0,0 0,0 0,0 0,0 0,0 0,0 0,0 0,0 -0.1,0 0,0 0,0 0,0 0,0 0,0 0,0 0,0 0,0 0,0 0,0 0,0 0,0 0,0 0,0 0,0 0,0 0,0 0,0 0,0 0,0 0,0 0,0 0,0 0,0 0,0 0,0 0,0 0,0 0,0 0,0 0,0 0,0 0,0 0,0 0,0 0,0 0,0 0,0 0,0 0,0 0,0 0,0 0,0 0,0 0,0 0,0 0,0 0,0 l 0,-0.1 z"
         id="_x34_3_2_"
         style="fill:#9e7b24" /><path
         d="m 43.4,40.4 c 0,0 0,0 0,0 0,0 0,-0.1 0,0 0,-0.1 -0.1,-0.1 0,0 -0.1,-0.1 -0.1,-0.1 0,0 -0.1,-0.1 -0.1,-0.1 0,0 -0.1,-0.1 -0.1,-0.1 0,0 -0.1,-0.1 -0.1,-0.1 0,0 -0.1,-0.1 -0.1,-0.1 -0.1,-0.1 0,0 0,0 0,0 0,0 0,0 0,0 0,0 0,0 0,0 0,0 0,0 0,0 l 0,0 c 0,0 0,0 0,0 0,0 0,0 0,0 0,0 0,0 0,0 0,0 0,0 0.1,0 0,0 0,0 0.1,0 0,0 0,0 0.1,0 0,0 0,0 0,0 0,0 0,0 0,0.1 0,0 0,0 0,0 0,0 0,0 0,0 0,0 0,0 0,0 0,0 0,0 0,0 l 0,0 c 0,0 0,0 0,0 0,0 0,0 0,0 0,0 0,0 0,0 0,0 0,0 0,0 0,0 0,0 0,0 0,0 0,0 0,0 0,0 0,0 0,0 0,0 0,0 0,0 0,0 0,0 0,0 0,0 0,0 0,0 0,0 0,0 0,0 0,0 0,0 0,0 0,0 0,0 0,0 0,0 0,0 0,0 0,0 0,0 0,0 0,0 0,0 0,0 0,0 0,0 0,0 0,0 0,0 0,0 0,0 0,0 0,0 0,0 0,0 0,0 0,0 0,0 0,0 0,0 0,0 0,0 0,0 0,0 0,0 0,0 0,0 0,0 0,0 0,0 0,0 0,0 0,0 0,0 0,0 0,0 0,0 0,0 0,0 0,-0.1 0,0 0,0 -0.1,0 0,0 0,0 0,0 0,0 0,0 0,0 l 0,0.1 c 0,0 0,0 0,0 0,0 0,0 0,0 0,0 0,0 0,0 0,0 0,0 0,0 0,0 0,0 0,0 0,0 0,0 0,0 0,0 0,0 0,0 0,0 0,0 0,0 0,0 0,0 0,0 0,0 0,0 0,0 0,0 0,0 0,0 0,0 0,0 0,0 0,0 0,0 0,0 0,0 0,0 0,0 0,0 0,0 0,0 0,0 0,0 0,0 0,0 0,0 0,0 0,0 0,0 0,0 0,0 0,0 0,0 0,0 0,0 0,0 0,0 0,0 0,0 0,0 0,0 0,0 l -0.1,0 z m 0.1,0.1 c 0,0 0,0 0,0 0,0 0,0 0,0 0,0 0.1,0 0,0 0.1,0 0.1,0 0,0 0.1,0 0.1,0 0.1,0 0,-0.1 0,-0.1 -0.1,0 0.1,-0.1 0.1,-0.1 0.1,-0.1 0,0 0,0 0,0 0,0 0,0 0,0 0,0 0,0 0,0 0,0 0,0 0,0 0,0 0,0 0,0 l -0.1,0.1 z"
         id="_x34_2_2_"
         style="fill:#9e7b24" /><path
         d="m 44.1,40.3 c 0,0 0,0 0,0 0,0 0,0 0,0 0,0 0,0 0,0 0,0 0,0 0,0 l 0,0 c 0,0 0,0 0,0 0,0.1 0.1,0.1 0.1,0.1 0,0 0,0 0,0 0,0 0,0 0,0 0,0 0,0 0,0 0,0 0,0 0,0 -0.1,-0.1 -0.1,-0.1 -0.1,-0.1 0,0 0,0 0,0 0,0 0,0 0,0 -0.1,0 -0.1,0 0,0 l -0.1,0 c 0,0 0,0 0,0 0,0 0,0 0,0 0,0 0,0 0,0 0,0 0,0 0,0 l 0,0.1 c 0,0 0,0 0,0 l 0,0 c 0,0 0,0 0,0 0,0 0,0 0,0 0,0 0,0 0,0 0,0 0,0 0,0 0,0 0,0 0,0 0,0 0,0 0,0 0,0 0,0 0,0 0,0 0,0 0,0 0,0 0,0 0,0 0,0 0,0 0,0 0,0 0,0 0,0 0,0 0,0 0,0 0,0 0,0 0,0 0,0 0,0 0,0 0,0 0,0 0,0 0,0 0,0 0,0 0,0 0,0 0,0 0,0 0,0 0,0 0,0 0,0 0,0 0,0 0,0 0,0 0,0 0,0 0,0 0,0 0,0 0,0 0,0 0,0 0,0 0,0 0,0 0,0 0,0 0,0 0,0 l 0,0.1 c 0,0 0,0 0,0 0,0 0,0 0,0 0,0 0,0 0,0 0,0 0,0 0,0 0,0 0,0 0,0 0,0 0,0 0,0 0,0 0,0 0,0 0,0 0,0 0,0 0,0 0,0 0,0 0,0 0,0 0,0 0,0 0,0 0,0 0,0 0,0 0,0 0,0 0,0 0,0 0,0 0,0 0,0 0,0 0,0 0,0.1 0,0 0,0 0,0.1 0,0 0,0 0,0 0,0 0,0 0,0 0,0 0,0 0,0 0,0 0,0 0,0 l -0.2,0 c 0,0 0,0 -0.1,0 0,0 0,0 0,0 0,0 0,0 0,0 0,0 0,0 0,0 0,0 0,0 0,0 0,0 0,0 0,0 0,0 0,0 0,0 0,0 0,0 0,0 0,0 0,0 0,0 0,0 0,0 0,0 l -0.1,-0.3 c 0,0 0,0 0,0 0,0 0,0 0,0 0,0 0,0 0,0 0,0 0,0 0,0 0,0 0,0 0,0 l 0,0 c 0,0 0,0 0,0 0,0 0,0 0,0 0,0 0,0 0,0 0,0 0,0 0,0 0,0 0,0 0,0 0,0 0,0 0,0 l 0.5,-0.1 z"
         id="_x34_1_2_"
         style="fill:#9e7b24" /><path
         d="m 38.7,36.6 c -0.3,0 -0.4,0.3 -0.4,0.5 0,0.5 0.4,0.5 0.4,0.5 l 0.5,0 0.2,-1.1 -0.7,0.1 z"
         id="_x34_0_2_" /><radialGradient
         cx="156.5173"
         cy="-98.197899"
         r="1.124"
         id="_x33_9_1_"
         gradientUnits="userSpaceOnUse"
         gradientTransform="matrix(1,0,0,-1,-117.8999,-60.8662)"><stop
           id="stop364"
           style="stop-color:#9e7b24;stop-opacity:0"
           offset="0.2165" /><stop
           id="stop366"
           style="stop-color:#9e7b24;stop-opacity:1"
           offset="1" /></radialGradient><path
         d="m 38.7,36.6 c -0.3,0 -0.4,0.3 -0.4,0.5 0,0.5 0.4,0.5 0.4,0.5 l 0.5,0 0.2,-1.1 -0.7,0.1 z"
         id="_x33_9_2_" /><path
         d="m 38.7,36.6 0.8,0 0.1,0.8 -0.7,0 c 0,-0.1 0.2,-0.7 -0.2,-0.8 z"
         id="_x33_8_2_" /><linearGradient
         x1="156.9977"
         y1="-97.952599"
         x2="157.32809"
         y2="-97.180199"
         id="_x33_7_1_"
         gradientUnits="userSpaceOnUse"
         gradientTransform="matrix(1,0,0,-1,-117.8999,-60.8662)"><stop
           id="stop371"
           style="stop-color:#9e7b24;stop-opacity:0"
           offset="0.2165" /><stop
           id="stop373"
           style="stop-color:#9e7b24;stop-opacity:1"
           offset="1" /></linearGradient><path
         d="m 38.7,36.6 0.8,0 0.1,0.8 -0.7,0 c 0,-0.1 0.2,-0.7 -0.2,-0.8 z"
         id="_x33_7_2_" /><path
         d="m 42.9,37.4 c 0.6,-0.1 0.6,-0.9 0.2,-1.2 -1.3,0 -3.1,0 -4.4,0.1 0.1,0 0.5,0 0.6,0.6 0,0.2 -0.1,0.5 -0.3,0.6 -0.2,0.1 -0.3,0.1 -0.3,0.1 0,0 0.2,0 0.3,0 0.1,0 0.2,0 0.3,0 1.8,-0.3 3.6,-0.2 3.6,-0.2 l 0,0 0,0 z"
         id="_x33_6_2_" /><linearGradient
         x1="158.8777"
         y1="-96.8927"
         x2="159.10361"
         y2="-99.759201"
         id="_x33_5_1_"
         gradientUnits="userSpaceOnUse"
         gradientTransform="matrix(1,0,0,-1,-117.8999,-60.8662)"><stop
           id="stop378"
           style="stop-color:#9e7b24;stop-opacity:0"
           offset="0.2165" /><stop
           id="stop380"
           style="stop-color:#9e7b24;stop-opacity:1"
           offset="1" /></linearGradient><path
         d="m 42.9,37.4 c 0.6,-0.1 0.6,-0.9 0.2,-1.2 -1.3,0 -3.1,0 -4.4,0.1 0.1,0 0.5,0 0.6,0.6 0,0.2 -0.1,0.5 -0.3,0.6 -0.2,0.1 -0.3,0.1 -0.3,0.1 0,0 0.2,0 0.3,0 0.1,0 0.2,0 0.3,0 1.8,-0.3 3.6,-0.2 3.6,-0.2 l 0,0 0,0 z"
         id="_x33_5_2_" /><path
         d="m 41.2,34.5 -0.3,0.4 c -0.1,0.5 0.2,0.8 0.7,1.1 0.4,0.3 1.2,0.2 1.4,0 l -1.2,-1 -0.6,-0.5 z"
         id="_x33_4_2_" /><radialGradient
         cx="158.90359"
         cy="-96.081001"
         r="1.2637"
         id="_x33_3_1_"
         gradientUnits="userSpaceOnUse"
         gradientTransform="matrix(1,0,0,-1,-117.8999,-60.8662)"><stop
           id="stop385"
           style="stop-color:#410e0f;stop-opacity:0"
           offset="0.25920001" /><stop
           id="stop387"
           style="stop-color:#410e0f;stop-opacity:1"
           offset="1" /></radialGradient><path
         d="m 41.2,34.5 -0.3,0.4 c -0.1,0.5 0.2,0.8 0.7,1.1 0.4,0.3 1.2,0.3 1.4,0.1 L 41.8,35 41.2,34.5 z"
         id="_x33_3_2_" /><path
         d="M 43.6,46.1 C 43.5,46 43.5,46 43.4,45.9 c -0.7,1 -1.7,1.9 -2.8,2.5 1.3,-0.4 2.2,-1.3 3,-2.3 z"
         id="_x33_2_2_" /><path
         d="m 42.3,49.2 c 0.5,-0.9 1,-1.9 1.6,-2.8 -0.1,-0.1 -0.1,-0.2 -0.2,-0.2 -0.7,1 -1.4,2.3 -1.4,3 z"
         id="_x33_1_2_" /><path
         d="m 45.9,39.3 c -0.1,-0.4 -0.2,-0.8 -0.4,-1.1 -0.2,-0.5 -0.6,-0.9 -1,-1.5 -0.8,-0.9 -1.6,-1.7 -2.8,-2.4 0,0 0,0 0,0 l 0,0 h 0 l 0,0 h 0 l 0,0 h 0 l 0,0 h 0 l 0,0 h 0 l 0,0 0,0 0,0 0,0 0,0 0,0 0,0 0.1,0 0,0 0.1,0 -0.1,0 0.1,0 -0.1,0 0.1,0 -0.1,0 0,0 -0.1,0 0,-0.1 -0.1,0 c 0,0 0,0 0,0 l 0,0 -0.1,0 0,-0.1 -0.1,0 0,-0.1 -0.1,0 0,-0.1 0,0 0,-0.1 0,0 0,-0.1 0,0.1 0,-0.1 0,0 0,-0.1 0,0.1 0,-0.1 0,0.1 0,-0.1 0,0.1 0,-0.1 0,0.1 0,-0.1 0,0.1 0,-0.1 0,0.1 0,-0.1 0,0.1 0,-0.1 0,0.1 0,-0.1 0,0.1 0,0 0,0.1 0,0 0,0.1 0,0 0,0.1 0,0 0,0.1 0,0 0,0 c 0,0 0,0 0,0 l 0,0 0,0 0,0 c 0,0.1 0,0.2 0,0.3 0,0 0.1,0 0.1,0.1 0,0 0,0.1 0,0.1 -0.1,0.2 -0.3,0.4 -0.3,0.7 0.1,-0.1 0.2,-0.3 0.4,-0.3 -0.1,0.1 -0.1,0.5 0,0.6 l 0.1,-0.1 c 0,0.1 0,0.2 0,0.2 0,-0.1 0.1,-0.1 0.1,-0.2 0,0.1 0,0.2 0.1,0.3 0,-0.1 0.1,-0.1 0.1,-0.1 0,0.1 0,0.1 0,0.2 0.1,-0.1 0.1,-0.2 0.2,-0.2 0,0.1 0,0.2 0,0.4 0,-0.2 0,-0.2 0.1,-0.3 0,0.2 0,0.3 0,0.4 0.1,-0.1 0.1,-0.1 0.2,-0.2 0,0.1 0,0.3 0,0.4 0,-0.1 0.1,-0.2 0.2,-0.2 0,0.2 0,0.2 -0.1,0.3 0.1,0 0.2,0 0.3,-0.1 0,0.1 0,0.2 -0.1,0.3 0.1,0 0.2,-0.1 0.3,-0.2 0,0.1 -0.1,0.2 -0.1,0.4 0,-0.1 0.1,-0.2 0.2,-0.2 0,0.1 0,0.2 -0.1,0.2 0.2,0 0.3,-0.1 0.4,-0.2 0,0.1 0,0.2 0.1,0.4 0,-0.2 0,-0.2 0.1,-0.3 0,0.2 0.1,0.4 0.3,0.5 -0.1,-0.2 -0.1,-0.3 0,-0.4 0,0.1 0.1,0.3 0.2,0.4 0,-0.1 0,-0.3 0.1,-0.4 0.1,0.2 0.1,0.3 0.1,0.5 0,-0.1 0.1,-0.2 0.1,-0.3 1.7,1.8 2.1,4 0.2,6.4 0.7,-0.5 0.8,-1.2 1.2,-1.8 -0.4,0.8 -0.5,1.7 -1.2,2.4 0.6,-0.5 0.8,-1 1.1,-1.5 -0.4,1.1 -0.9,2.3 -1.7,3.3 0.1,0.1 0.3,0.3 0.4,0.4 0.1,-0.2 0.2,-0.4 0.4,-0.6 0.4,-1.6 1.7,-3.5 1.1,-6.4 z"
         id="_x33_0_2_" /><path
         d="m 41,34.1 c -0.1,0 -0.1,0.1 -0.2,0.1 0.1,0 0.1,0 0.2,0 0,0.1 0,0 0,-0.1 l 0,0 c 0,0 0,0 0,0 l 0,0 z"
         id="_x32_9_2_" /><path
         d="m 41.4,34.2 c 0,0 0,0 0,0 0.1,-0.1 0,-0.1 0,-0.1 -0.1,0 -0.1,0 0,0.1 -0.1,0 -0.1,0 0,0 z"
         id="_x32_8_2_" /><path
         d="m 42.3,49.2 c 0,-0.1 0.1,-0.3 0.1,-0.4 0,-0.1 0.1,-0.3 0.2,-0.4 0.1,-0.2 0.2,-0.5 0.4,-0.7 0.1,-0.2 0.3,-0.5 0.4,-0.7 0.1,-0.1 0.1,-0.2 0.2,-0.3 l 0.2,-0.3 -0.2,0.3 c -0.1,0.1 -0.1,0.2 -0.2,0.3 -0.1,0.2 -0.3,0.5 -0.4,0.7 -0.1,0.2 -0.2,0.5 -0.4,0.7 -0.1,0.1 -0.1,0.2 -0.2,0.4 0,0.1 -0.1,0.3 -0.1,0.4 z"
         id="_x32_7_2_"
         style="fill:#415326" /><path
         d="m 40.6,48.4 c 0.1,-0.1 0.3,-0.1 0.4,-0.2 0.1,-0.1 0.3,-0.2 0.4,-0.2 0.3,-0.2 0.5,-0.4 0.8,-0.6 0.2,-0.2 0.5,-0.4 0.7,-0.7 0.1,-0.1 0.2,-0.2 0.3,-0.4 0.1,-0.1 0.2,-0.2 0.3,-0.4 -0.1,0.1 -0.2,0.2 -0.3,0.4 -0.1,0.1 -0.2,0.2 -0.3,0.4 -0.2,0.2 -0.4,0.5 -0.7,0.7 -0.2,0.2 -0.5,0.4 -0.8,0.6 -0.1,0.1 -0.3,0.2 -0.4,0.2 -0.1,0 -0.2,0.1 -0.4,0.2 z"
         id="_x32_6_2_"
         style="fill:#415326" /><path
         d="m 43.9,45.8 c 0.1,-0.1 0.1,-0.2 0.2,-0.3 0.1,-0.1 0.1,-0.2 0.2,-0.3 0.1,-0.2 0.2,-0.4 0.3,-0.6 0.1,-0.2 0.2,-0.4 0.3,-0.6 L 45.2,43.4 45,43.7 44.8,44 c -0.1,0.2 -0.2,0.4 -0.3,0.6 -0.1,0.2 -0.2,0.4 -0.3,0.6 -0.1,0.3 -0.2,0.5 -0.3,0.6 z"
         id="_x32_5_2_"
         style="fill:#415326" /><path
         d="m 44.4,43.7 c 0.1,-0.2 0.3,-0.4 0.4,-0.6 0.1,-0.2 0.2,-0.4 0.3,-0.6 0.2,-0.4 0.3,-0.9 0.4,-1.3 0,-0.1 0,-0.1 0,-0.2 0,-0.1 0,-0.1 0,-0.2 0,-0.1 0,-0.2 0,-0.3 0,-0.2 0,-0.5 0,-0.7 0,-0.2 -0.1,-0.5 -0.1,-0.7 -0.1,-0.2 -0.1,-0.4 -0.2,-0.7 0.1,0.2 0.2,0.4 0.2,0.7 0.1,0.2 0.1,0.4 0.1,0.7 0,0.2 0,0.5 0,0.7 0,0.1 0,0.2 0,0.3 0,0.1 0,0.1 0,0.2 0,0.1 0,0.1 0,0.2 -0.1,0.4 -0.2,0.9 -0.4,1.3 -0.1,0.2 -0.2,0.4 -0.3,0.6 -0.1,0.2 -0.3,0.4 -0.4,0.6 z"
         id="_x32_4_2_"
         style="fill:#415326" /><path
         d="m 44.2,43.2 c 0.2,-0.2 0.3,-0.3 0.4,-0.5 0.1,-0.2 0.2,-0.4 0.3,-0.6 0.1,-0.2 0.2,-0.4 0.3,-0.6 0,-0.1 0.1,-0.2 0.1,-0.3 l 0,-0.1 c 0,0 0,-0.1 0,-0.1 0,-0.1 0,-0.1 0,-0.2 l 0,0 c 0,-0.2 0.1,-0.4 0.1,-0.7 0,-0.2 0,-0.4 0,-0.7 0,-0.2 -0.1,-0.4 -0.1,-0.7 -0.1,-0.2 -0.1,-0.4 -0.2,-0.6 0.1,0.2 0.2,0.4 0.2,0.6 0.1,0.2 0.1,0.4 0.2,0.7 0,0.2 0.1,0.4 0.1,0.7 0,0.2 0,0.4 -0.1,0.7 l 0,0 0,0 c 0,0.1 0,0.1 -0.1,0.2 0,0 0,0.1 0,0.1 l 0,0.1 c 0,0.1 -0.1,0.2 -0.1,0.3 -0.1,0.2 -0.2,0.4 -0.3,0.6 -0.1,0.2 -0.2,0.4 -0.3,0.6 -0.2,0.2 -0.3,0.3 -0.5,0.5 z"
         id="_x32_3_2_"
         style="fill:#415326" /><path
         d="m 43.7,45.7 c 0.1,-0.1 0.2,-0.3 0.3,-0.4 l 0.2,-0.2 c 0.1,-0.1 0.1,-0.1 0.1,-0.2 0.1,-0.2 0.2,-0.3 0.3,-0.5 0.1,-0.2 0.2,-0.3 0.2,-0.5 0.2,-0.3 0.3,-0.6 0.4,-1 0.1,-0.3 0.2,-0.7 0.3,-1 0.1,-0.3 0.1,-0.7 0.2,-1 0,-0.4 0,-0.7 0,-1.1 0,-0.4 -0.1,-0.7 -0.2,-1 -0.1,-0.3 -0.3,-0.7 -0.4,-1 0.2,0.3 0.3,0.6 0.4,1 0.1,0.3 0.2,0.7 0.2,1 0,0.4 0,0.7 0,1.1 0,0.4 -0.1,0.7 -0.2,1 -0.1,0.3 -0.2,0.7 -0.3,1 -0.1,0.3 -0.3,0.7 -0.4,1 -0.1,0.2 -0.2,0.3 -0.2,0.5 -0.1,0.2 -0.2,0.3 -0.3,0.5 0,0.1 -0.1,0.1 -0.2,0.2 L 44,45.3 c -0.1,0.1 -0.2,0.3 -0.3,0.4 z"
         id="_x32_2_2_"
         style="fill:#415326" /><path
         d="m 44,46 c 0.2,-0.3 0.4,-0.7 0.6,-1 0.2,-0.3 0.4,-0.7 0.6,-1 0.2,-0.3 0.3,-0.7 0.4,-1.1 0.1,-0.2 0.1,-0.4 0.1,-0.6 0,-0.1 0,-0.2 0.1,-0.3 0,-0.1 0,-0.2 0,-0.3 0.1,-0.4 0.1,-0.8 0.1,-1.2 0,-0.4 0,-0.8 -0.1,-1.2 -0.1,-0.4 -0.2,-0.8 -0.3,-1.1 -0.2,-0.4 -0.4,-0.7 -0.6,-1 0.2,0.3 0.4,0.6 0.6,1 0.2,0.4 0.3,0.7 0.3,1.1 0.1,0.4 0.1,0.8 0.1,1.2 0,0.4 0,0.8 -0.1,1.2 0,0.1 0,0.2 0,0.3 0,0.1 0,0.2 -0.1,0.3 0,0.2 -0.1,0.4 -0.1,0.6 -0.1,0.4 -0.3,0.7 -0.4,1.1 -0.2,0.3 -0.4,0.7 -0.6,1 -0.2,0.3 -0.4,0.6 -0.6,1 z"
         id="_x32_1_2_"
         style="fill:#415326" /><radialGradient
         cx="-70.6194"
         cy="-48.231098"
         r="0.029759681"
         id="_x32_0_1_"
         gradientUnits="userSpaceOnUse"
         gradientTransform="matrix(1,0,0,-1,111.9897,-14.1026)"><stop
           id="stop403"
           style="stop-color:#ffffff;stop-opacity:1"
           offset="0" /><stop
           id="stop405"
           style="stop-color:#ffffff;stop-opacity:0"
           offset="1" /></radialGradient><path
         d="m 41.4,34.2 c 0,0 0,-0.1 0,0 0,-0.1 0,-0.1 0,0 0,-0.1 -0.1,-0.1 0,0 -0.1,-0.1 0,0 0,0 z"
         id="_x32_0_2_"
         style="fill:url(#_x32_0_1_)" /><line
         id="_x31_9_2_"
         class="st0"
         x1="40.799999"
         y1="34.299999"
         x2="41"
         y2="34.200001"
         style="fill:none" /><path
         d="m 40.8,34.3 c 0,-0.1 0,-0.1 0,0 0.1,0 0.2,0 0.2,0 -0.1,-0.1 -0.1,-0.1 -0.2,0 0,-0.1 0,0 0,0 z"
         id="_x31_8_2_"
         style="fill:#937f25" /><path
         d="m 41.6,34.6 c 0,0 0.1,0 0.1,0 0,0 0.1,0 0.1,0 0.1,0 0.2,0 0.2,0.1 0.2,0.1 0.3,0.2 0.4,0.3 0.1,0.1 0.3,0.2 0.4,0.3 0.1,0.1 0.1,0.1 0.2,0.2 0.1,0.1 0.1,0.1 0.2,0.2 C 43.1,35.6 43.1,35.6 43,35.5 42.9,35.4 42.9,35.4 42.8,35.3 42.7,35.2 42.6,35.1 42.4,35 42.3,34.9 42.1,34.8 42,34.7 c -0.1,0 -0.2,-0.1 -0.2,-0.1 -0.1,0 -0.2,0 -0.2,0 z"
         id="_x31_7_2_"
         style="fill:#415326" /><path
         d="m 43,35.5 c 0,0 0.3,0.2 0.4,0.4 0,0 -0.4,-0.1 -0.7,-0.4"
         id="_x31_6_2_"
         style="fill:#5a7c34" /><path
         d="m 43,35.5 c 0,0 0.1,0 0.1,0.1 0,0 0.1,0.1 0.1,0.1 0,0 0.1,0.1 0.1,0.1 0,0 0.1,0.1 0.1,0.1 l 0,0 0,0 c -0.1,0 -0.1,0 -0.2,-0.1 -0.1,0 -0.1,-0.1 -0.2,-0.1 -0.1,-0.1 -0.2,-0.2 -0.3,-0.3 0.1,0.1 0.2,0.2 0.3,0.2 0.1,0 0.1,0.1 0.2,0.1 0.1,0 0.1,0 0.2,0.1 l 0,0 c 0,0 -0.1,-0.1 -0.1,-0.1 0,0 -0.1,-0.1 -0.1,-0.1 0,0 -0.1,-0.1 -0.1,-0.1 -0.1,0.1 -0.1,0.1 -0.1,0 z"
         id="_x31_5_2_"
         style="fill:#415326" /><path
         d="m 42.4,35.5 c 0,0 0.6,0.4 0.7,0.4 0,0 -0.1,-0.3 -0.4,-0.4"
         id="_x31_4_2_"
         style="fill:#5a7c34" /><path
         d="m 42.4,35.5 0.4,0.2 c 0.1,0 0.1,0.1 0.2,0.1 0,0 0.1,0 0.1,0.1 0,0 0.1,0 0.1,0 l 0,0 c 0,0 0,-0.1 -0.1,-0.1 0,0 -0.1,-0.1 -0.1,-0.1 0,0 -0.1,-0.1 -0.1,-0.1 0,0 -0.1,-0.1 -0.1,-0.1 0,0 0.1,0 0.1,0.1 0,0 0.1,0.1 0.1,0.1 0,0 0.1,0.1 0.1,0.1 0,0 0.1,0.1 0.1,0.1 l 0,0 0,0 c -0.1,0 -0.1,-0.1 -0.2,-0.1 -0.1,0 -0.1,-0.1 -0.2,-0.1 -0.2,-0.1 -0.3,-0.2 -0.4,-0.2 z"
         id="_x31_3_2_"
         style="fill:#415326" /><path
         d="m 42.6,35.3 c 0,0 0.3,0.1 0.4,0.4 0,0 -0.6,-0.2 -0.7,-0.4"
         id="_x31_2_2_"
         style="fill:#5a7c34" /><path
         d="m 42.6,35.3 c 0,0 0.1,0 0.1,0.1 0,0 0.1,0.1 0.1,0.1 0,0 0.1,0.1 0.1,0.1 0,0 0.1,0.1 0.1,0.1 l 0,0 0,0 c -0.1,0 -0.1,-0.1 -0.2,-0.1 -0.1,0 -0.1,-0.1 -0.2,-0.1 -0.1,0 -0.1,-0.1 -0.2,-0.1 0,0 -0.1,0 -0.1,-0.1 0,0 -0.1,0 -0.1,-0.1 0,0 0,0 0.1,0.1 0,0 0.1,0 0.1,0.1 0.1,0 0.1,0.1 0.2,0.1 0.1,0.1 0.2,0.1 0.4,0.2 l 0,0 c 0,0 0,-0.1 -0.1,-0.1 0,0 -0.1,-0.1 -0.1,-0.1 0,0 -0.1,-0.1 -0.1,-0.1 0,-0.1 0,-0.1 -0.1,-0.1 z"
         id="_x31_1_3_"
         style="fill:#415326" /><path
         d="m 42.1,35.5 c 0,0 0.6,0.4 0.7,0.4 0,0 -0.2,-0.3 -0.5,-0.4"
         id="_x31_0_3_"
         style="fill:#5a7c34" /><path
         d="m 42.1,35.5 c 0.1,0 0.1,0.1 0.2,0.1 0.1,0 0.1,0.1 0.2,0.1 0.1,0 0.1,0.1 0.2,0.1 0,0 0.1,0 0.1,0 0,0 0.1,0 0.1,0 l 0,0 c 0,0 -0.1,-0.1 -0.1,-0.1 0,0 -0.1,-0.1 -0.1,-0.1 0,0 -0.1,-0.1 -0.1,-0.1 0,0 -0.1,-0.1 -0.1,-0.1 0.1,0 0.2,0.1 0.3,0.2 0,0 0.1,0.1 0.1,0.1 0,0 0.1,0.1 0.1,0.1 l 0,0 0,0 c 0,0 -0.1,0 -0.1,0 0,0 -0.1,0 -0.1,0 -0.1,0 -0.1,-0.1 -0.2,-0.1 -0.1,0 -0.1,-0.1 -0.2,-0.1 -0.1,0 -0.2,0 -0.3,-0.1 z"
         id="_x39__3_"
         style="fill:#415326" /><path
         d="m 42.1,35.6 c 0,0 0.3,0.3 0.5,0.3 0,0 -0.2,-0.3 -0.5,-0.4"
         id="_x38__3_"
         style="fill:#5a7c34" /><path
         d="m 42.1,35.6 c 0,0 0.1,0.1 0.1,0.1 0,0 0.1,0 0.1,0.1 0,0 0.1,0 0.1,0.1 0,0 0,0 0.1,0 0,0 0,0 0.1,0 l 0,0 c 0,0 -0.1,-0.1 -0.1,-0.1 0,0 -0.1,-0.1 -0.1,-0.1 0,0 -0.1,-0.1 -0.1,-0.1 0,0 -0.1,-0.1 -0.1,-0.1 0.1,0 0.2,0.1 0.3,0.2 0,0 0.1,0.1 0.1,0.1 0,0 0.1,0.1 0.1,0.1 l 0,0 0,0 c 0,0 -0.1,0 -0.1,0 0,0 -0.1,0 -0.1,-0.1 0,0 -0.1,-0.1 -0.1,-0.1 -0.2,0 -0.2,0 -0.3,-0.1 z"
         id="_x37__3_"
         style="fill:#415326" /><path
         d="m 42,35.1 c 0,0 0.6,0.4 0.7,0.7 0,0 -0.6,-0.3 -0.7,-0.4"
         id="_x36__3_"
         style="fill:#5a7c34" /><path
         d="m 42,35.1 c 0.1,0 0.1,0.1 0.2,0.1 0.1,0.1 0.1,0.1 0.2,0.2 0.1,0.1 0.1,0.1 0.2,0.2 0,0 0.1,0.1 0.1,0.1 0,0 0,0.1 0.1,0.1 l 0,0 0,0 c -0.1,0 -0.1,-0.1 -0.2,-0.1 -0.1,0 -0.1,-0.1 -0.2,-0.1 -0.1,0 -0.1,-0.1 -0.2,-0.1 0,0 -0.1,0 -0.1,-0.1 0,0 -0.1,0 -0.1,-0.1 0,0 0,0 0.1,0.1 0,0 0.1,0 0.1,0.1 0.1,0 0.1,0.1 0.2,0.1 0.1,0.1 0.2,0.1 0.3,0.2 l 0,0 c 0,0 0,-0.1 -0.1,-0.1 0,0 0,-0.1 -0.1,-0.1 -0.1,-0.1 -0.1,-0.1 -0.2,-0.2 -0.1,-0.1 -0.1,-0.1 -0.2,-0.2 0,0 0,-0.1 -0.1,-0.1 z"
         id="_x35__3_"
         style="fill:#415326" /><path
         d="m 38.5,47.5 c -0.4,0.3 -1.6,0.5 -1.8,0.4 0.9,-0.7 1.8,-0.7 1.8,-0.4 z"
         id="_x34__3_" /><path
         d="m 38.5,47.5 c -0.1,-0.3 -0.9,-0.3 -1.8,0.4 1,-0.3 1.7,-0.4 1.8,-0.4 l 0,0 z"
         id="_x33__3_" /><path
         d="m 44.6,47.9 c 0.5,0.4 1.8,0.7 2,0.6 -0.9,-0.9 -1.9,-1 -2,-0.6 z"
         id="_x32__3_" /><path
         d="m 44.6,47.9 c 0.1,-0.4 1.1,-0.3 2,0.6 -1,-0.4 -1.9,-0.7 -2,-0.6 z"
         id="_x31__2_" /></g></g><rect
     width="83"
     height="83"
     x="0"
     y="0"
     id="_x3C_Sector_x3E__6_"
     style="fill:none" /></svg>