<?xml version="1.0" encoding="utf-8"?>
<!-- Generator: Adobe Illustrator 20.1.0, SVG Export Plug-In . SVG Version: 6.00 Build 0)  -->
<svg version="1.1" id="Capa_1" xmlns="http://www.w3.org/2000/svg" xmlns:xlink="http://www.w3.org/1999/xlink" x="0px" y="0px"
	 viewBox="0 0 83 83" style="enable-background:new 0 0 83 83;" xml:space="preserve">
<style type="text/css">
	.st0{fill:none;}
	.st1{fill:#F7F7F8;}
	.st2{fill:#339642;}
	.st3{fill:#C43E19;}
</style>
<rect id="_x3C_Sector_x3E_" class="st0" width="83" height="83"/>
<g>
	<g>
		<path class="st1" d="M1.3,31.5C6.8,9.3,29.3-4.3,51.5,1.2c22.2,5.5,35.8,28,30.3,50.2c-5.5,22.2-28,35.8-50.2,30.3
			C9.4,76.2-4.2,53.7,1.3,31.5"/>
		<g>
			<path class="st2" d="M27.7,2.4C15,6.9,4.8,17.5,1.3,31.5c-5.2,20.9,6.5,42,26.3,49V2.4z"/>
			<path class="st3" d="M55.5,2.4l0,78c12.6-4.5,22.8-15.1,26.3-29.1C86.9,30.5,75.3,9.5,55.5,2.4"/>
		</g>
	</g>
</g>
<rect id="_x3C_Sector_x3E__3_" y="0" class="st0" width="83" height="83"/>
</svg>
