<?xml version="1.0" encoding="utf-8"?>
<!-- Generator: Adobe Illustrator 20.1.0, SVG Export Plug-In . SVG Version: 6.00 Build 0)  -->
<svg version="1.1" id="Capa_1" xmlns="http://www.w3.org/2000/svg" xmlns:xlink="http://www.w3.org/1999/xlink" x="0px" y="0px"
	 viewBox="0 0 83 83" style="enable-background:new 0 0 83 83;" xml:space="preserve">
<style type="text/css">
	.st0{clip-path:url(#SVGID_2_);}
	.st1{fill:#FFFFFF;}
	.st2{fill:#263C8B;}
	.st3{fill:#E5C73D;stroke:#040006;stroke-width:0.3;stroke-linecap:square;stroke-miterlimit:20;}
	.st4{fill:none;stroke:#040006;stroke-width:0.3;stroke-miterlimit:20;}
	.st5{fill:#E5C73D;stroke:#040006;stroke-width:0.3;stroke-miterlimit:20;}
	.st6{fill:#040006;}
</style>
<g>
	<defs>
		<circle id="SVGID_1_" cx="41.6" cy="41.5" r="41.4"/>
	</defs>
	<clipPath id="SVGID_2_">
		<use xlink:href="#SVGID_1_"  style="overflow:visible;"/>
	</clipPath>
	<g class="st0">
		<rect id="_x33_7_4_" x="0.1" y="0" class="st1" width="124.3" height="82.9"/>
		<rect id="_x33_6_4_" x="46.2" y="9.3" class="st2" width="78.3" height="9.2"/>
		<rect id="_x33_5_4_" x="46.2" y="27.7" class="st2" width="78.3" height="9.2"/>
		<rect id="_x33_4_4_" x="0.1" y="46.1" class="st2" width="124.3" height="9.2"/>
		<rect id="_x33_3_4_" x="0.1" y="64.5" class="st2" width="124.3" height="9.2"/>
		<path id="_x33_2_4_" class="st3" d="M22.1,27.6l1.5,2.3c-6.3,4.5-2.4,7.2-6.9,8.7c2.8-2.7-0.4-2.9,1.9-8.5"/>
		<path id="_x33_1_4_" class="st4" d="M21,28.2c-3.5,5.7-1.2,8.8-4.3,10.3"/>
		<path id="_x33_0_4_" class="st5" d="M23.1,23.1h3l-3,16.7l-3-16.7H23.1v16.7"/>
		<path id="_x32_9_4_" class="st3" d="M19.2,25.5l-0.5,2.7c-7.6-1.2-6.8,3.4-11,1.3c3.9,0,1.8-2.4,7.4-4.7"/>
		<path id="_x32_8_4_" class="st4" d="M18,25.2c-6.5,1.6-7.1,5.4-10.3,4.3"/>
		<path id="_x32_7_4_" class="st5" d="M23.1,23.1l2.1,2.1l-14,9.7l9.7-14L23.1,23.1L11.3,34.9"/>
		<path id="_x32_6_4_" class="st3" d="M18.6,22l-2.3,1.5c-4.5-6.3-7.2-2.4-8.7-6.9c2.7,2.8,2.9-0.4,8.5,1.9"/>
		<path id="_x32_5_4_" class="st4" d="M18,20.9c-5.7-3.5-8.8-1.2-10.3-4.3"/>
		<path id="_x32_4_4_" class="st5" d="M23.1,23.1v3l-16.7-3l16.7-3V23.1H6.4"/>
		<path id="_x32_3_4_" class="st3" d="M20.7,19.1L18,18.6c1.2-7.6-3.4-6.8-1.3-11c0,3.9,2.4,1.8,4.7,7.4"/>
		<path id="_x32_2_4_" class="st4" d="M21,17.9c-1.6-6.5-5.4-7.1-4.3-10.3"/>
		<path id="_x32_1_4_" class="st5" d="M23.1,23.1L21,25.2l-9.7-14l14,9.7L23.1,23.1L11.3,11.3"/>
		<path id="_x32_0_4_" class="st3" d="M24.2,18.6l-1.5-2.3c6.3-4.5,2.4-7.2,6.9-8.7c-2.8,2.7,0.4,2.9-1.9,8.5"/>
		<path id="_x31_9_4_" class="st4" d="M25.3,17.9c3.5-5.7,1.2-8.8,4.3-10.3"/>
		<path id="_x31_8_4_" class="st5" d="M23.1,23.1h-3l3-16.7l3,16.7H23.1V6.4"/>
		<path id="_x31_7_4_" class="st3" d="M27.1,20.6l0.5-2.7c7.6,1.2,6.8-3.4,11-1.3c-3.9,0-1.8,2.4-7.4,4.7"/>
		<path id="_x31_6_4_" class="st4" d="M28.3,20.9c6.5-1.6,7.1-5.4,10.3-4.3"/>
		<path id="_x31_5_4_" class="st5" d="M23.1,23.1L21,20.9l14-9.7l-9.7,14L23.1,23.1L35,11.3"/>
		<path id="_x31_4_4_" class="st3" d="M27.6,24.1l2.3-1.5c4.5,6.3,7.2,2.4,8.7,6.9c-2.7-2.8-2.9,0.4-8.5-1.9"/>
		<path id="_x31_3_4_" class="st4" d="M28.3,25.2c5.7,3.5,8.8,1.2,10.3,4.3"/>
		<path id="_x31_2_4_" class="st5" d="M23.1,23.1v-3l16.7,3l-16.7,3V23.1h16.7"/>
		<path id="_x31_1_5_" class="st3" d="M25.6,27l2.7,0.5c-1.2,7.6,3.4,6.8,1.3,11c0-3.9-2.4-1.8-4.7-7.4"/>
		<path id="_x31_0_5_" class="st4" d="M25.3,28.2c1.6,6.5,5.4,7.1,4.3,10.3"/>
		<path id="_x39__5_" class="st5" d="M23.1,23.1l2.1-2.1l9.7,14l-14-9.7L23.1,23.1L35,34.9"/>
		<circle id="_x38__5_" class="st5" cx="23.1" cy="23.1" r="5.6"/>
		<path id="_x37__5_" class="st6" d="M27.2,20.8c-0.4,0.4-0.6-0.3-1.8-0.3c-1.3,0-1.5,0.8-1.7,0.6c-0.2-0.2,1.1-1.1,1.5-1.1
			C25.6,20,26.8,20.4,27.2,20.8 M25.8,21.3c0.4,0.3,0.1,1-0.3,1s-1-0.6-0.7-1"/>
		<path id="_x36__5_" class="st6" d="M24.1,21.8c0.1-0.6,0.6-0.7,1.4-0.7c0.8,0,1.2,0.6,1.5,0.8c-0.4,0-0.7-0.5-1.5-0.5
			C24.7,21.3,24.7,21.3,24.1,21.8 M24.2,21.9c0.2-0.3,0.5,0.3,1,0.3c0.6,0,0.9-0.2,1.2-0.4c0.4-0.3-0.5,0.6-1.1,0.6
			C24.9,22.4,24.1,22.1,24.2,21.9"/>
		<path id="_x35__5_" class="st6" d="M26,22.2c0.7-0.4,0.3-0.9,0-1C26.1,21.3,26.5,21.9,26,22.2 M23.1,25.2c0.3,0,0.4-0.1,0.8-0.1
			s1.4,0.6,1.9,0.4c-1.2,0.5-0.7,0.2-2.7,0.2h-0.3 M26.1,26c-0.2-0.4-0.2-0.3-0.6-0.8C25.9,25.5,26,25.6,26.1,26 M23.1,26.5
			c1.3,0,1.1-0.3,2.7-1c-1.2,0.2-1.5,0.6-2.7,0.6h-0.3 M23.1,24.6c0.4,0,0.5-0.3,0.9-0.3c0.4,0,1,0.2,1.2,0.4
			c0.1,0.1-0.2-0.4-0.6-0.5c-0.4-0.1-0.3-0.7-0.7-0.8c0,0.2,0.2,0.2,0.2,0.5c0,0.3-0.5,0.3-0.6,0c0.1,0.4-0.2,0.4-0.5,0.4"/>
		<path id="_x34__5_" class="st6" d="M19,20.8c0.4,0.4,0.6-0.3,1.8-0.3c1.3,0,1.5,0.8,1.7,0.6c0.2-0.2-1.1-1.1-1.5-1.1
			C20.7,20,19.5,20.4,19,20.8 M20.5,21.3c-0.4,0.3-0.1,1,0.3,1c0.4,0,1-0.6,0.7-1"/>
		<path id="_x33__6_" class="st6" d="M22.2,21.8c-0.1-0.6-0.6-0.7-1.4-0.7c-0.8,0-1.2,0.6-1.5,0.8c0.4,0,0.7-0.5,1.5-0.5
			C21.6,21.3,21.6,21.3,22.2,21.8 M22,21.9c-0.2-0.3-0.5,0.3-1,0.3s-0.9-0.2-1.2-0.4c-0.4-0.3,0.5,0.6,1.1,0.6
			C21.4,22.4,22.2,22.1,22,21.9"/>
		<path id="_x32__6_" class="st6" d="M20.3,22.2c-0.7-0.4-0.3-0.9,0-1C20.2,21.3,19.8,21.9,20.3,22.2 M23.1,25.2
			c-0.3,0-0.4-0.1-0.8-0.1s-1.4,0.6-1.9,0.4c1.2,0.5,0.7,0.2,2.7,0.2h0.3 M20.2,26c0.2-0.4,0.2-0.3,0.6-0.8
			C20.3,25.5,20.2,25.6,20.2,26 M23.1,26.5c-1.3,0-1.1-0.3-2.7-1c1.2,0.2,1.5,0.6,2.7,0.6h0.3 M23.1,24.6c-0.4,0-0.5-0.3-0.9-0.3
			c-0.4,0-1,0.2-1.2,0.4c-0.1,0.1,0.2-0.4,0.6-0.5c0.4-0.1,0.3-0.7,0.7-0.8c0,0.2-0.2,0.2-0.2,0.5c0,0.3,0.5,0.3,0.6,0
			c-0.1,0.4,0.2,0.4,0.5,0.4"/>
		<path id="_x31__5_" class="st6" d="M23.1,26.9c-0.3,0-0.9,0.2,0,0.2C24,27.1,23.4,26.9,23.1,26.9"/>
	</g>
</g>
</svg>
