<?xml version="1.0" encoding="utf-8"?>
<!-- Generator: Adobe Illustrator 20.1.0, SVG Export Plug-In . SVG Version: 6.00 Build 0)  -->
<svg version="1.1" id="Capa_1" xmlns="http://www.w3.org/2000/svg" xmlns:xlink="http://www.w3.org/1999/xlink" x="0px" y="0px"
	 viewBox="0 0 83 83" style="enable-background:new 0 0 83 83;" xml:space="preserve">
<style type="text/css">
	.st0{fill:none;}
	.st1{clip-path:url(#SVGID_2_);}
	.st2{fill:#A7252F;}
	.st3{fill:#152873;}
	.st4{fill:#E7C339;}
	.st5{fill:#FFFFFF;}
</style>
<rect id="_x3C_Sector_x3E_" class="st0" width="83" height="83"/>
<g>
	<defs>
		<circle id="SVGID_1_" cx="41.6" cy="41.4" r="41.4"/>
	</defs>
	<clipPath id="SVGID_2_">
		<use xlink:href="#SVGID_1_"  style="overflow:visible;"/>
	</clipPath>
	<g class="st1">
		<path id="_x31_1_1_" class="st2" d="M-20.6,0h124.3v82.9H-20.6V0z"/>
		<path id="_x31_0_1_" class="st3" d="M-20.6,0h124.3v55.3H-20.6V0z"/>
		<path id="_x39__1_" class="st4" d="M-20.6,0h124.3v27.6H-20.6V0z"/>
		<polygon id="_x38__1_" class="st5" points="14.9,48.4 16.9,49.9 16,52.3 18.1,50.9 20.1,52.4 19.4,50 21.5,48.6 18.9,48.5 
			18.2,46.1 17.4,48.5 		"/>
		<polygon id="_x37__1_" class="st5" points="19.8,39.8 21.1,41.9 19.5,43.8 22,43.2 23.3,45.4 23.5,42.9 25.9,42.3 23.6,41.3 
			23.8,38.8 22.1,40.7 		"/>
		<polygon id="_x36__1_" class="st5" points="25.7,37.2 28.2,37.5 28.7,39.9 29.7,37.6 32.2,37.9 30.4,36.2 31.4,33.9 29.2,35.2 
			27.4,33.5 27.9,35.9 		"/>
		<polygon id="_x35__1_" class="st5" points="33.8,33 36.1,34.1 35.7,36.6 37.5,34.8 39.7,35.9 38.6,33.7 40.3,31.9 37.8,32.3 
			36.6,30.1 36.3,32.6 		"/>
		<polygon id="_x34__1_" class="st5" points="42.8,31.9 44.6,33.7 43.4,35.9 45.6,34.8 47.4,36.6 47,34.2 49.3,33.1 46.8,32.6 
			46.5,30.1 45.3,32.3 		"/>
		<polygon id="_x33__1_" class="st5" points="51.7,34 52.7,36.3 50.9,38 53.3,37.7 54.4,40 54.9,37.6 57.4,37.3 55.2,36 55.7,33.6 
			53.9,35.3 		"/>
		<polygon id="_x32__1_" class="st5" points="57.2,42.3 59.6,42.9 59.8,45.4 61.1,43.3 63.6,43.9 62,42 63.3,39.8 61,40.8 
			59.3,38.9 59.5,41.4 		"/>
		<polygon id="_x31__1_" class="st5" points="61.6,48.5 63.6,49.9 62.9,52.3 64.9,50.8 67,52.2 66.2,49.9 68.2,48.4 65.7,48.4 
			64.8,46 64.1,48.4 		"/>
	</g>
</g>
<rect id="_x3C_Sector_x3E__4_" class="st0" width="83" height="83"/>
</svg>
